<?xml version="1.0" encoding="utf-8" standalone="no"?>
<!DOCTYPE svg PUBLIC "-//W3C//DTD SVG 1.1//EN"
  "http://www.w3.org/Graphics/SVG/1.1/DTD/svg11.dtd">
<svg xmlns:xlink="http://www.w3.org/1999/xlink" width="460.8pt" height="345.6pt" viewBox="0 0 460.8 345.6" xmlns="http://www.w3.org/2000/svg" version="1.1">
 <metadata>
  <rdf:RDF xmlns:dc="http://purl.org/dc/elements/1.1/" xmlns:cc="http://creativecommons.org/ns#" xmlns:rdf="http://www.w3.org/1999/02/22-rdf-syntax-ns#">
   <cc:Work>
    <dc:type rdf:resource="http://purl.org/dc/dcmitype/StillImage"/>
    <dc:date>2025-06-11T00:22:39.877129</dc:date>
    <dc:format>image/svg+xml</dc:format>
    <dc:creator>
     <cc:Agent>
      <dc:title>Matplotlib v3.10.1, https://matplotlib.org/</dc:title>
     </cc:Agent>
    </dc:creator>
   </cc:Work>
  </rdf:RDF>
 </metadata>
 <defs>
  <style type="text/css">*{stroke-linejoin: round; stroke-linecap: butt}</style>
 </defs>
 <g id="figure_1">
  <g id="patch_1">
   <path d="M 0 345.6 
L 460.8 345.6 
L 460.8 0 
L 0 0 
z
" style="fill: #ffffff"/>
  </g>
  <g id="axes_1">
   <g id="patch_2">
    <path d="M 57.6 307.584 
L 414.72 307.584 
L 414.72 41.472 
L 57.6 41.472 
z
" style="fill: #ffffff"/>
   </g>
   <g id="matplotlib.axis_1">
    <g id="xtick_1">
     <g id="line2d_1">
      <path d="M 73.823333 307.584 
L 73.823333 41.472 
" clip-path="url(#p223a82e091)" style="fill: none; stroke: #b0b0b0; stroke-width: 0.8; stroke-linecap: square"/>
     </g>
     <g id="line2d_2">
      <defs>
       <path id="m321286d1a8" d="M 0 0 
L 0 3.5 
" style="stroke: #000000; stroke-width: 0.8"/>
      </defs>
      <g>
       <use xlink:href="#m321286d1a8" x="73.823333" y="307.584" style="stroke: #000000; stroke-width: 0.8"/>
      </g>
     </g>
     <g id="text_1">
      <!-- 0 -->
      <g transform="translate(70.642083 322.182437) scale(0.1 -0.1)">
       <defs>
        <path id="DejaVuSans-30" d="M 2034 4250 
Q 1547 4250 1301 3770 
Q 1056 3291 1056 2328 
Q 1056 1369 1301 889 
Q 1547 409 2034 409 
Q 2525 409 2770 889 
Q 3016 1369 3016 2328 
Q 3016 3291 2770 3770 
Q 2525 4250 2034 4250 
z
M 2034 4750 
Q 2819 4750 3233 4129 
Q 3647 3509 3647 2328 
Q 3647 1150 3233 529 
Q 2819 -91 2034 -91 
Q 1250 -91 836 529 
Q 422 1150 422 2328 
Q 422 3509 836 4129 
Q 1250 4750 2034 4750 
z
" transform="scale(0.015625)"/>
       </defs>
       <use xlink:href="#DejaVuSans-30"/>
      </g>
     </g>
    </g>
    <g id="xtick_2">
     <g id="line2d_3">
      <path d="M 136.073077 307.584 
L 136.073077 41.472 
" clip-path="url(#p223a82e091)" style="fill: none; stroke: #b0b0b0; stroke-width: 0.8; stroke-linecap: square"/>
     </g>
     <g id="line2d_4">
      <g>
       <use xlink:href="#m321286d1a8" x="136.073077" y="307.584" style="stroke: #000000; stroke-width: 0.8"/>
      </g>
     </g>
     <g id="text_2">
      <!-- 1000 -->
      <g transform="translate(123.348077 322.182437) scale(0.1 -0.1)">
       <defs>
        <path id="DejaVuSans-31" d="M 794 531 
L 1825 531 
L 1825 4091 
L 703 3866 
L 703 4441 
L 1819 4666 
L 2450 4666 
L 2450 531 
L 3481 531 
L 3481 0 
L 794 0 
L 794 531 
z
" transform="scale(0.015625)"/>
       </defs>
       <use xlink:href="#DejaVuSans-31"/>
       <use xlink:href="#DejaVuSans-30" transform="translate(63.623047 0)"/>
       <use xlink:href="#DejaVuSans-30" transform="translate(127.246094 0)"/>
       <use xlink:href="#DejaVuSans-30" transform="translate(190.869141 0)"/>
      </g>
     </g>
    </g>
    <g id="xtick_3">
     <g id="line2d_5">
      <path d="M 198.322822 307.584 
L 198.322822 41.472 
" clip-path="url(#p223a82e091)" style="fill: none; stroke: #b0b0b0; stroke-width: 0.8; stroke-linecap: square"/>
     </g>
     <g id="line2d_6">
      <g>
       <use xlink:href="#m321286d1a8" x="198.322822" y="307.584" style="stroke: #000000; stroke-width: 0.8"/>
      </g>
     </g>
     <g id="text_3">
      <!-- 2000 -->
      <g transform="translate(185.597822 322.182437) scale(0.1 -0.1)">
       <defs>
        <path id="DejaVuSans-32" d="M 1228 531 
L 3431 531 
L 3431 0 
L 469 0 
L 469 531 
Q 828 903 1448 1529 
Q 2069 2156 2228 2338 
Q 2531 2678 2651 2914 
Q 2772 3150 2772 3378 
Q 2772 3750 2511 3984 
Q 2250 4219 1831 4219 
Q 1534 4219 1204 4116 
Q 875 4013 500 3803 
L 500 4441 
Q 881 4594 1212 4672 
Q 1544 4750 1819 4750 
Q 2544 4750 2975 4387 
Q 3406 4025 3406 3419 
Q 3406 3131 3298 2873 
Q 3191 2616 2906 2266 
Q 2828 2175 2409 1742 
Q 1991 1309 1228 531 
z
" transform="scale(0.015625)"/>
       </defs>
       <use xlink:href="#DejaVuSans-32"/>
       <use xlink:href="#DejaVuSans-30" transform="translate(63.623047 0)"/>
       <use xlink:href="#DejaVuSans-30" transform="translate(127.246094 0)"/>
       <use xlink:href="#DejaVuSans-30" transform="translate(190.869141 0)"/>
      </g>
     </g>
    </g>
    <g id="xtick_4">
     <g id="line2d_7">
      <path d="M 260.572567 307.584 
L 260.572567 41.472 
" clip-path="url(#p223a82e091)" style="fill: none; stroke: #b0b0b0; stroke-width: 0.8; stroke-linecap: square"/>
     </g>
     <g id="line2d_8">
      <g>
       <use xlink:href="#m321286d1a8" x="260.572567" y="307.584" style="stroke: #000000; stroke-width: 0.8"/>
      </g>
     </g>
     <g id="text_4">
      <!-- 3000 -->
      <g transform="translate(247.847567 322.182437) scale(0.1 -0.1)">
       <defs>
        <path id="DejaVuSans-33" d="M 2597 2516 
Q 3050 2419 3304 2112 
Q 3559 1806 3559 1356 
Q 3559 666 3084 287 
Q 2609 -91 1734 -91 
Q 1441 -91 1130 -33 
Q 819 25 488 141 
L 488 750 
Q 750 597 1062 519 
Q 1375 441 1716 441 
Q 2309 441 2620 675 
Q 2931 909 2931 1356 
Q 2931 1769 2642 2001 
Q 2353 2234 1838 2234 
L 1294 2234 
L 1294 2753 
L 1863 2753 
Q 2328 2753 2575 2939 
Q 2822 3125 2822 3475 
Q 2822 3834 2567 4026 
Q 2313 4219 1838 4219 
Q 1578 4219 1281 4162 
Q 984 4106 628 3988 
L 628 4550 
Q 988 4650 1302 4700 
Q 1616 4750 1894 4750 
Q 2613 4750 3031 4423 
Q 3450 4097 3450 3541 
Q 3450 3153 3228 2886 
Q 3006 2619 2597 2516 
z
" transform="scale(0.015625)"/>
       </defs>
       <use xlink:href="#DejaVuSans-33"/>
       <use xlink:href="#DejaVuSans-30" transform="translate(63.623047 0)"/>
       <use xlink:href="#DejaVuSans-30" transform="translate(127.246094 0)"/>
       <use xlink:href="#DejaVuSans-30" transform="translate(190.869141 0)"/>
      </g>
     </g>
    </g>
    <g id="xtick_5">
     <g id="line2d_9">
      <path d="M 322.822312 307.584 
L 322.822312 41.472 
" clip-path="url(#p223a82e091)" style="fill: none; stroke: #b0b0b0; stroke-width: 0.8; stroke-linecap: square"/>
     </g>
     <g id="line2d_10">
      <g>
       <use xlink:href="#m321286d1a8" x="322.822312" y="307.584" style="stroke: #000000; stroke-width: 0.8"/>
      </g>
     </g>
     <g id="text_5">
      <!-- 4000 -->
      <g transform="translate(310.097312 322.182437) scale(0.1 -0.1)">
       <defs>
        <path id="DejaVuSans-34" d="M 2419 4116 
L 825 1625 
L 2419 1625 
L 2419 4116 
z
M 2253 4666 
L 3047 4666 
L 3047 1625 
L 3713 1625 
L 3713 1100 
L 3047 1100 
L 3047 0 
L 2419 0 
L 2419 1100 
L 313 1100 
L 313 1709 
L 2253 4666 
z
" transform="scale(0.015625)"/>
       </defs>
       <use xlink:href="#DejaVuSans-34"/>
       <use xlink:href="#DejaVuSans-30" transform="translate(63.623047 0)"/>
       <use xlink:href="#DejaVuSans-30" transform="translate(127.246094 0)"/>
       <use xlink:href="#DejaVuSans-30" transform="translate(190.869141 0)"/>
      </g>
     </g>
    </g>
    <g id="xtick_6">
     <g id="line2d_11">
      <path d="M 385.072056 307.584 
L 385.072056 41.472 
" clip-path="url(#p223a82e091)" style="fill: none; stroke: #b0b0b0; stroke-width: 0.8; stroke-linecap: square"/>
     </g>
     <g id="line2d_12">
      <g>
       <use xlink:href="#m321286d1a8" x="385.072056" y="307.584" style="stroke: #000000; stroke-width: 0.8"/>
      </g>
     </g>
     <g id="text_6">
      <!-- 5000 -->
      <g transform="translate(372.347056 322.182437) scale(0.1 -0.1)">
       <defs>
        <path id="DejaVuSans-35" d="M 691 4666 
L 3169 4666 
L 3169 4134 
L 1269 4134 
L 1269 2991 
Q 1406 3038 1543 3061 
Q 1681 3084 1819 3084 
Q 2600 3084 3056 2656 
Q 3513 2228 3513 1497 
Q 3513 744 3044 326 
Q 2575 -91 1722 -91 
Q 1428 -91 1123 -41 
Q 819 9 494 109 
L 494 744 
Q 775 591 1075 516 
Q 1375 441 1709 441 
Q 2250 441 2565 725 
Q 2881 1009 2881 1497 
Q 2881 1984 2565 2268 
Q 2250 2553 1709 2553 
Q 1456 2553 1204 2497 
Q 953 2441 691 2322 
L 691 4666 
z
" transform="scale(0.015625)"/>
       </defs>
       <use xlink:href="#DejaVuSans-35"/>
       <use xlink:href="#DejaVuSans-30" transform="translate(63.623047 0)"/>
       <use xlink:href="#DejaVuSans-30" transform="translate(127.246094 0)"/>
       <use xlink:href="#DejaVuSans-30" transform="translate(190.869141 0)"/>
      </g>
     </g>
    </g>
    <g id="text_7">
     <!-- Distance (m) -->
     <g transform="translate(203.936562 335.860562) scale(0.1 -0.1)">
      <defs>
       <path id="DejaVuSans-44" d="M 1259 4147 
L 1259 519 
L 2022 519 
Q 2988 519 3436 956 
Q 3884 1394 3884 2338 
Q 3884 3275 3436 3711 
Q 2988 4147 2022 4147 
L 1259 4147 
z
M 628 4666 
L 1925 4666 
Q 3281 4666 3915 4102 
Q 4550 3538 4550 2338 
Q 4550 1131 3912 565 
Q 3275 0 1925 0 
L 628 0 
L 628 4666 
z
" transform="scale(0.015625)"/>
       <path id="DejaVuSans-69" d="M 603 3500 
L 1178 3500 
L 1178 0 
L 603 0 
L 603 3500 
z
M 603 4863 
L 1178 4863 
L 1178 4134 
L 603 4134 
L 603 4863 
z
" transform="scale(0.015625)"/>
       <path id="DejaVuSans-73" d="M 2834 3397 
L 2834 2853 
Q 2591 2978 2328 3040 
Q 2066 3103 1784 3103 
Q 1356 3103 1142 2972 
Q 928 2841 928 2578 
Q 928 2378 1081 2264 
Q 1234 2150 1697 2047 
L 1894 2003 
Q 2506 1872 2764 1633 
Q 3022 1394 3022 966 
Q 3022 478 2636 193 
Q 2250 -91 1575 -91 
Q 1294 -91 989 -36 
Q 684 19 347 128 
L 347 722 
Q 666 556 975 473 
Q 1284 391 1588 391 
Q 1994 391 2212 530 
Q 2431 669 2431 922 
Q 2431 1156 2273 1281 
Q 2116 1406 1581 1522 
L 1381 1569 
Q 847 1681 609 1914 
Q 372 2147 372 2553 
Q 372 3047 722 3315 
Q 1072 3584 1716 3584 
Q 2034 3584 2315 3537 
Q 2597 3491 2834 3397 
z
" transform="scale(0.015625)"/>
       <path id="DejaVuSans-74" d="M 1172 4494 
L 1172 3500 
L 2356 3500 
L 2356 3053 
L 1172 3053 
L 1172 1153 
Q 1172 725 1289 603 
Q 1406 481 1766 481 
L 2356 481 
L 2356 0 
L 1766 0 
Q 1100 0 847 248 
Q 594 497 594 1153 
L 594 3053 
L 172 3053 
L 172 3500 
L 594 3500 
L 594 4494 
L 1172 4494 
z
" transform="scale(0.015625)"/>
       <path id="DejaVuSans-61" d="M 2194 1759 
Q 1497 1759 1228 1600 
Q 959 1441 959 1056 
Q 959 750 1161 570 
Q 1363 391 1709 391 
Q 2188 391 2477 730 
Q 2766 1069 2766 1631 
L 2766 1759 
L 2194 1759 
z
M 3341 1997 
L 3341 0 
L 2766 0 
L 2766 531 
Q 2569 213 2275 61 
Q 1981 -91 1556 -91 
Q 1019 -91 701 211 
Q 384 513 384 1019 
Q 384 1609 779 1909 
Q 1175 2209 1959 2209 
L 2766 2209 
L 2766 2266 
Q 2766 2663 2505 2880 
Q 2244 3097 1772 3097 
Q 1472 3097 1187 3025 
Q 903 2953 641 2809 
L 641 3341 
Q 956 3463 1253 3523 
Q 1550 3584 1831 3584 
Q 2591 3584 2966 3190 
Q 3341 2797 3341 1997 
z
" transform="scale(0.015625)"/>
       <path id="DejaVuSans-6e" d="M 3513 2113 
L 3513 0 
L 2938 0 
L 2938 2094 
Q 2938 2591 2744 2837 
Q 2550 3084 2163 3084 
Q 1697 3084 1428 2787 
Q 1159 2491 1159 1978 
L 1159 0 
L 581 0 
L 581 3500 
L 1159 3500 
L 1159 2956 
Q 1366 3272 1645 3428 
Q 1925 3584 2291 3584 
Q 2894 3584 3203 3211 
Q 3513 2838 3513 2113 
z
" transform="scale(0.015625)"/>
       <path id="DejaVuSans-63" d="M 3122 3366 
L 3122 2828 
Q 2878 2963 2633 3030 
Q 2388 3097 2138 3097 
Q 1578 3097 1268 2742 
Q 959 2388 959 1747 
Q 959 1106 1268 751 
Q 1578 397 2138 397 
Q 2388 397 2633 464 
Q 2878 531 3122 666 
L 3122 134 
Q 2881 22 2623 -34 
Q 2366 -91 2075 -91 
Q 1284 -91 818 406 
Q 353 903 353 1747 
Q 353 2603 823 3093 
Q 1294 3584 2113 3584 
Q 2378 3584 2631 3529 
Q 2884 3475 3122 3366 
z
" transform="scale(0.015625)"/>
       <path id="DejaVuSans-65" d="M 3597 1894 
L 3597 1613 
L 953 1613 
Q 991 1019 1311 708 
Q 1631 397 2203 397 
Q 2534 397 2845 478 
Q 3156 559 3463 722 
L 3463 178 
Q 3153 47 2828 -22 
Q 2503 -91 2169 -91 
Q 1331 -91 842 396 
Q 353 884 353 1716 
Q 353 2575 817 3079 
Q 1281 3584 2069 3584 
Q 2775 3584 3186 3129 
Q 3597 2675 3597 1894 
z
M 3022 2063 
Q 3016 2534 2758 2815 
Q 2500 3097 2075 3097 
Q 1594 3097 1305 2825 
Q 1016 2553 972 2059 
L 3022 2063 
z
" transform="scale(0.015625)"/>
       <path id="DejaVuSans-20" transform="scale(0.015625)"/>
       <path id="DejaVuSans-28" d="M 1984 4856 
Q 1566 4138 1362 3434 
Q 1159 2731 1159 2009 
Q 1159 1288 1364 580 
Q 1569 -128 1984 -844 
L 1484 -844 
Q 1016 -109 783 600 
Q 550 1309 550 2009 
Q 550 2706 781 3412 
Q 1013 4119 1484 4856 
L 1984 4856 
z
" transform="scale(0.015625)"/>
       <path id="DejaVuSans-6d" d="M 3328 2828 
Q 3544 3216 3844 3400 
Q 4144 3584 4550 3584 
Q 5097 3584 5394 3201 
Q 5691 2819 5691 2113 
L 5691 0 
L 5113 0 
L 5113 2094 
Q 5113 2597 4934 2840 
Q 4756 3084 4391 3084 
Q 3944 3084 3684 2787 
Q 3425 2491 3425 1978 
L 3425 0 
L 2847 0 
L 2847 2094 
Q 2847 2600 2669 2842 
Q 2491 3084 2119 3084 
Q 1678 3084 1418 2786 
Q 1159 2488 1159 1978 
L 1159 0 
L 581 0 
L 581 3500 
L 1159 3500 
L 1159 2956 
Q 1356 3278 1631 3431 
Q 1906 3584 2284 3584 
Q 2666 3584 2933 3390 
Q 3200 3197 3328 2828 
z
" transform="scale(0.015625)"/>
       <path id="DejaVuSans-29" d="M 513 4856 
L 1013 4856 
Q 1481 4119 1714 3412 
Q 1947 2706 1947 2009 
Q 1947 1309 1714 600 
Q 1481 -109 1013 -844 
L 513 -844 
Q 928 -128 1133 580 
Q 1338 1288 1338 2009 
Q 1338 2731 1133 3434 
Q 928 4138 513 4856 
z
" transform="scale(0.015625)"/>
      </defs>
      <use xlink:href="#DejaVuSans-44"/>
      <use xlink:href="#DejaVuSans-69" transform="translate(77.001953 0)"/>
      <use xlink:href="#DejaVuSans-73" transform="translate(104.785156 0)"/>
      <use xlink:href="#DejaVuSans-74" transform="translate(156.884766 0)"/>
      <use xlink:href="#DejaVuSans-61" transform="translate(196.09375 0)"/>
      <use xlink:href="#DejaVuSans-6e" transform="translate(257.373047 0)"/>
      <use xlink:href="#DejaVuSans-63" transform="translate(320.751953 0)"/>
      <use xlink:href="#DejaVuSans-65" transform="translate(375.732422 0)"/>
      <use xlink:href="#DejaVuSans-20" transform="translate(437.255859 0)"/>
      <use xlink:href="#DejaVuSans-28" transform="translate(469.042969 0)"/>
      <use xlink:href="#DejaVuSans-6d" transform="translate(508.056641 0)"/>
      <use xlink:href="#DejaVuSans-29" transform="translate(605.46875 0)"/>
     </g>
    </g>
   </g>
   <g id="matplotlib.axis_2">
    <g id="ytick_1">
     <g id="line2d_13">
      <path d="M 57.6 294.664119 
L 414.72 294.664119 
" clip-path="url(#p223a82e091)" style="fill: none; stroke: #b0b0b0; stroke-width: 0.8; stroke-linecap: square"/>
     </g>
     <g id="line2d_14">
      <defs>
       <path id="mc6cb007506" d="M 0 0 
L -3.5 0 
" style="stroke: #000000; stroke-width: 0.8"/>
      </defs>
      <g>
       <use xlink:href="#mc6cb007506" x="57.6" y="294.664119" style="stroke: #000000; stroke-width: 0.8"/>
      </g>
     </g>
     <g id="text_8">
      <!-- −15 -->
      <g transform="translate(29.495313 298.463338) scale(0.1 -0.1)">
       <defs>
        <path id="DejaVuSans-2212" d="M 678 2272 
L 4684 2272 
L 4684 1741 
L 678 1741 
L 678 2272 
z
" transform="scale(0.015625)"/>
       </defs>
       <use xlink:href="#DejaVuSans-2212"/>
       <use xlink:href="#DejaVuSans-31" transform="translate(83.789062 0)"/>
       <use xlink:href="#DejaVuSans-35" transform="translate(147.412109 0)"/>
      </g>
     </g>
    </g>
    <g id="ytick_2">
     <g id="line2d_15">
      <path d="M 57.6 256.914842 
L 414.72 256.914842 
" clip-path="url(#p223a82e091)" style="fill: none; stroke: #b0b0b0; stroke-width: 0.8; stroke-linecap: square"/>
     </g>
     <g id="line2d_16">
      <g>
       <use xlink:href="#mc6cb007506" x="57.6" y="256.914842" style="stroke: #000000; stroke-width: 0.8"/>
      </g>
     </g>
     <g id="text_9">
      <!-- −10 -->
      <g transform="translate(29.495313 260.714061) scale(0.1 -0.1)">
       <use xlink:href="#DejaVuSans-2212"/>
       <use xlink:href="#DejaVuSans-31" transform="translate(83.789062 0)"/>
       <use xlink:href="#DejaVuSans-30" transform="translate(147.412109 0)"/>
      </g>
     </g>
    </g>
    <g id="ytick_3">
     <g id="line2d_17">
      <path d="M 57.6 219.165565 
L 414.72 219.165565 
" clip-path="url(#p223a82e091)" style="fill: none; stroke: #b0b0b0; stroke-width: 0.8; stroke-linecap: square"/>
     </g>
     <g id="line2d_18">
      <g>
       <use xlink:href="#mc6cb007506" x="57.6" y="219.165565" style="stroke: #000000; stroke-width: 0.8"/>
      </g>
     </g>
     <g id="text_10">
      <!-- −5 -->
      <g transform="translate(35.857813 222.964784) scale(0.1 -0.1)">
       <use xlink:href="#DejaVuSans-2212"/>
       <use xlink:href="#DejaVuSans-35" transform="translate(83.789062 0)"/>
      </g>
     </g>
    </g>
    <g id="ytick_4">
     <g id="line2d_19">
      <path d="M 57.6 181.416288 
L 414.72 181.416288 
" clip-path="url(#p223a82e091)" style="fill: none; stroke: #b0b0b0; stroke-width: 0.8; stroke-linecap: square"/>
     </g>
     <g id="line2d_20">
      <g>
       <use xlink:href="#mc6cb007506" x="57.6" y="181.416288" style="stroke: #000000; stroke-width: 0.8"/>
      </g>
     </g>
     <g id="text_11">
      <!-- 0 -->
      <g transform="translate(44.2375 185.215507) scale(0.1 -0.1)">
       <use xlink:href="#DejaVuSans-30"/>
      </g>
     </g>
    </g>
    <g id="ytick_5">
     <g id="line2d_21">
      <path d="M 57.6 143.667011 
L 414.72 143.667011 
" clip-path="url(#p223a82e091)" style="fill: none; stroke: #b0b0b0; stroke-width: 0.8; stroke-linecap: square"/>
     </g>
     <g id="line2d_22">
      <g>
       <use xlink:href="#mc6cb007506" x="57.6" y="143.667011" style="stroke: #000000; stroke-width: 0.8"/>
      </g>
     </g>
     <g id="text_12">
      <!-- 5 -->
      <g transform="translate(44.2375 147.466229) scale(0.1 -0.1)">
       <use xlink:href="#DejaVuSans-35"/>
      </g>
     </g>
    </g>
    <g id="ytick_6">
     <g id="line2d_23">
      <path d="M 57.6 105.917734 
L 414.72 105.917734 
" clip-path="url(#p223a82e091)" style="fill: none; stroke: #b0b0b0; stroke-width: 0.8; stroke-linecap: square"/>
     </g>
     <g id="line2d_24">
      <g>
       <use xlink:href="#mc6cb007506" x="57.6" y="105.917734" style="stroke: #000000; stroke-width: 0.8"/>
      </g>
     </g>
     <g id="text_13">
      <!-- 10 -->
      <g transform="translate(37.875 109.716952) scale(0.1 -0.1)">
       <use xlink:href="#DejaVuSans-31"/>
       <use xlink:href="#DejaVuSans-30" transform="translate(63.623047 0)"/>
      </g>
     </g>
    </g>
    <g id="ytick_7">
     <g id="line2d_25">
      <path d="M 57.6 68.168456 
L 414.72 68.168456 
" clip-path="url(#p223a82e091)" style="fill: none; stroke: #b0b0b0; stroke-width: 0.8; stroke-linecap: square"/>
     </g>
     <g id="line2d_26">
      <g>
       <use xlink:href="#mc6cb007506" x="57.6" y="68.168456" style="stroke: #000000; stroke-width: 0.8"/>
      </g>
     </g>
     <g id="text_14">
      <!-- 15 -->
      <g transform="translate(37.875 71.967675) scale(0.1 -0.1)">
       <use xlink:href="#DejaVuSans-31"/>
       <use xlink:href="#DejaVuSans-35" transform="translate(63.623047 0)"/>
      </g>
     </g>
    </g>
    <g id="text_15">
     <!-- Acceleration (G) -->
     <g transform="translate(23.415625 214.963156) rotate(-90) scale(0.1 -0.1)">
      <defs>
       <path id="DejaVuSans-41" d="M 2188 4044 
L 1331 1722 
L 3047 1722 
L 2188 4044 
z
M 1831 4666 
L 2547 4666 
L 4325 0 
L 3669 0 
L 3244 1197 
L 1141 1197 
L 716 0 
L 50 0 
L 1831 4666 
z
" transform="scale(0.015625)"/>
       <path id="DejaVuSans-6c" d="M 603 4863 
L 1178 4863 
L 1178 0 
L 603 0 
L 603 4863 
z
" transform="scale(0.015625)"/>
       <path id="DejaVuSans-72" d="M 2631 2963 
Q 2534 3019 2420 3045 
Q 2306 3072 2169 3072 
Q 1681 3072 1420 2755 
Q 1159 2438 1159 1844 
L 1159 0 
L 581 0 
L 581 3500 
L 1159 3500 
L 1159 2956 
Q 1341 3275 1631 3429 
Q 1922 3584 2338 3584 
Q 2397 3584 2469 3576 
Q 2541 3569 2628 3553 
L 2631 2963 
z
" transform="scale(0.015625)"/>
       <path id="DejaVuSans-6f" d="M 1959 3097 
Q 1497 3097 1228 2736 
Q 959 2375 959 1747 
Q 959 1119 1226 758 
Q 1494 397 1959 397 
Q 2419 397 2687 759 
Q 2956 1122 2956 1747 
Q 2956 2369 2687 2733 
Q 2419 3097 1959 3097 
z
M 1959 3584 
Q 2709 3584 3137 3096 
Q 3566 2609 3566 1747 
Q 3566 888 3137 398 
Q 2709 -91 1959 -91 
Q 1206 -91 779 398 
Q 353 888 353 1747 
Q 353 2609 779 3096 
Q 1206 3584 1959 3584 
z
" transform="scale(0.015625)"/>
       <path id="DejaVuSans-47" d="M 3809 666 
L 3809 1919 
L 2778 1919 
L 2778 2438 
L 4434 2438 
L 4434 434 
Q 4069 175 3628 42 
Q 3188 -91 2688 -91 
Q 1594 -91 976 548 
Q 359 1188 359 2328 
Q 359 3472 976 4111 
Q 1594 4750 2688 4750 
Q 3144 4750 3555 4637 
Q 3966 4525 4313 4306 
L 4313 3634 
Q 3963 3931 3569 4081 
Q 3175 4231 2741 4231 
Q 1884 4231 1454 3753 
Q 1025 3275 1025 2328 
Q 1025 1384 1454 906 
Q 1884 428 2741 428 
Q 3075 428 3337 486 
Q 3600 544 3809 666 
z
" transform="scale(0.015625)"/>
      </defs>
      <use xlink:href="#DejaVuSans-41"/>
      <use xlink:href="#DejaVuSans-63" transform="translate(66.658203 0)"/>
      <use xlink:href="#DejaVuSans-63" transform="translate(121.638672 0)"/>
      <use xlink:href="#DejaVuSans-65" transform="translate(176.619141 0)"/>
      <use xlink:href="#DejaVuSans-6c" transform="translate(238.142578 0)"/>
      <use xlink:href="#DejaVuSans-65" transform="translate(265.925781 0)"/>
      <use xlink:href="#DejaVuSans-72" transform="translate(327.449219 0)"/>
      <use xlink:href="#DejaVuSans-61" transform="translate(368.5625 0)"/>
      <use xlink:href="#DejaVuSans-74" transform="translate(429.841797 0)"/>
      <use xlink:href="#DejaVuSans-69" transform="translate(469.050781 0)"/>
      <use xlink:href="#DejaVuSans-6f" transform="translate(496.833984 0)"/>
      <use xlink:href="#DejaVuSans-6e" transform="translate(558.015625 0)"/>
      <use xlink:href="#DejaVuSans-20" transform="translate(621.394531 0)"/>
      <use xlink:href="#DejaVuSans-28" transform="translate(653.181641 0)"/>
      <use xlink:href="#DejaVuSans-47" transform="translate(692.195312 0)"/>
      <use xlink:href="#DejaVuSans-29" transform="translate(769.685547 0)"/>
     </g>
    </g>
   </g>
   <g id="line2d_27">
    <path d="M 73.832727 181.416288 
L 74.929054 181.416288 
L 75.100183 189.956581 
L 75.271941 190.470229 
L 75.877801 190.415253 
L 76.052199 190.327463 
L 76.139615 189.804833 
L 76.314887 187.286717 
L 76.578837 161.613375 
L 76.755436 158.171238 
L 77.287807 158.171147 
L 77.734105 188.216825 
L 77.913332 190.349427 
L 78.092993 190.889663 
L 78.544167 190.829468 
L 78.7255 189.805238 
L 78.816362 187.294294 
L 78.998463 176.379195 
L 79.089694 174.198464 
L 79.45574 146.193952 
L 79.547512 143.486134 
L 79.823397 121.542035 
L 80.007768 111.325666 
L 80.4702 111.325666 
L 80.562944 113.238018 
L 81.028003 176.438042 
L 81.12129 179.375776 
L 81.401726 212.467156 
L 81.777014 212.467156 
L 82.059466 174.329415 
L 82.153794 171.10483 
L 82.531954 111.413356 
L 83.006559 67.642615 
L 83.483121 67.642615 
L 83.960894 150.800908 
L 84.15215 176.306038 
L 84.247791 185.202061 
L 84.439158 219.603098 
L 84.630732 227.233487 
L 85.014958 227.233487 
L 85.304284 195.555214 
L 85.98283 116.399365 
L 86.177476 100.520907 
L 86.763223 100.520907 
L 87.4501 195.555711 
L 87.74566 221.160669 
L 88.438108 221.073252 
L 89.033829 136.362916 
L 89.728572 136.363914 
L 89.927028 151.039235 
L 90.125697 181.787065 
L 91.121942 181.787065 
L 91.320916 186.189298 
L 92.776709 186.179308 
L 92.958915 186.868921 
L 93.947252 186.831689 
L 94.092489 193.076728 
L 94.232393 193.076728 
L 94.433762 193.595014 
L 94.563357 193.595014 
L 94.690036 195.103217 
L 94.998514 195.025246 
L 95.242484 193.969659 
L 95.303617 193.112843 
L 95.548292 184.0403 
L 95.974188 182.443556 
L 96.274532 182.443556 
L 96.393498 183.310978 
L 96.745587 196.04197 
L 96.918448 196.77371 
L 97.145849 196.70386 
L 97.370802 184.256493 
L 97.594348 173.04464 
L 97.761594 172.434386 
L 97.928868 172.434386 
L 98.320751 185.320862 
L 98.603332 189.482837 
L 98.717161 189.482837 
L 99.060952 175.625807 
L 99.350321 162.104607 
L 99.467429 158.542832 
L 99.765049 158.193821 
L 100.007403 157.915801 
L 100.129493 156.134604 
L 100.497235 155.966462 
L 100.681937 155.966462 
L 100.868469 165.862261 
L 101.777336 165.82304 
L 102.112242 187.788805 
L 102.314931 193.876512 
L 102.519162 193.936295 
L 102.7942 193.936295 
L 103.072753 188.163195 
L 103.3553 176.550002 
L 103.714995 176.558321 
L 103.934321 192.103851 
L 104.454498 200.803726 
L 104.907106 200.81275 
L 105.363184 192.174795 
L 105.592737 163.877265 
L 105.823612 122.867452 
L 105.978334 102.296118 
L 106.133725 81.828026 
L 106.525407 81.828026 
L 106.604334 85.628763 
L 107.082065 233.56363 
L 107.323581 259.910745 
L 107.72989 259.902636 
L 108.472114 127.573799 
L 108.889832 127.5288 
L 109.057878 127.573799 
L 109.142071 130.681005 
L 109.310745 155.049077 
L 109.395208 155.808913 
L 109.648982 196.704476 
L 109.733688 197.011237 
L 109.903276 198.158452 
L 110.243206 198.158452 
L 110.328349 198.043269 
L 110.58413 195.280143 
L 110.840385 192.025463 
L 111.011456 173.74225 
L 111.18274 173.14272 
L 111.612275 173.14272 
L 111.69846 177.522483 
L 111.871092 189.063936 
L 111.957521 189.138273 
L 112.130562 190.814279 
L 112.303778 192.087956 
L 112.476985 193.107706 
L 112.649992 193.281604 
L 113.167904 196.725266 
L 113.340957 196.783083 
L 113.689508 208.092699 
L 114.129714 208.092699 
L 114.306718 206.864678 
L 115.104405 200.447599 
L 115.370496 200.040615 
L 115.548249 200.040615 
L 115.63728 199.714479 
L 115.81572 198.432622 
L 116.174195 198.432622 
L 116.715634 219.162752 
L 116.806267 219.388806 
L 117.260933 245.003022 
L 118.361857 245.003022 
L 118.546517 251.511896 
L 119.566843 251.455707 
L 120.219852 250.081892 
L 120.406731 249.768117 
L 120.687151 249.768117 
L 120.780633 248.862127 
L 120.96759 237.433046 
L 121.341401 174.445699 
L 121.808355 174.445699 
L 121.901713 174.277999 
L 121.995065 173.830277 
L 122.835236 165.103037 
L 123.022037 163.819409 
L 123.302374 151.810933 
L 123.582833 133.48282 
L 123.769874 115.672861 
L 123.956996 107.115477 
L 124.331575 107.115477 
L 124.519078 112.272785 
L 124.612894 113.68304 
L 124.89463 142.414209 
L 125.082727 160.936426 
L 125.271068 183.051631 
L 125.459652 186.543628 
L 125.931779 186.47353 
L 126.120728 185.794468 
L 127.631737 179.92199 
L 127.915473 179.92199 
L 128.104787 180.103014 
L 128.294249 180.99175 
L 128.578782 181.189942 
L 128.768746 181.344799 
L 129.149475 181.344799 
L 129.34023 180.456001 
L 129.435676 180.446513 
L 129.62666 179.514479 
L 129.817701 178.44612 
L 130.199655 178.44612 
L 130.295079 178.817005 
L 130.581215 181.227082 
L 130.676558 181.355942 
L 131.057836 184.968811 
L 131.248494 185.127592 
L 131.630215 185.127592 
L 132.204759 179.603393 
L 132.589124 178.13779 
L 132.781662 169.448276 
L 132.974421 167.504577 
L 133.650661 167.584937 
L 133.941147 171.843732 
L 134.135 182.628192 
L 134.426058 183.085839 
L 134.912168 183.085839 
L 135.498034 179.988956 
L 137.066945 179.955052 
L 138.34664 180.382723 
L 138.839475 180.132329 
L 139.925507 179.77484 
L 140.224563 179.691086 
L 140.424056 179.606363 
L 140.722909 179.268215 
L 141.220438 179.268215 
L 141.41963 179.625864 
L 141.719064 179.76088 
L 141.919251 180.051065 
L 142.420944 180.762561 
L 142.722103 181.594939 
L 144.529265 181.55435 
L 145.334625 215.843532 
L 145.736981 225.911325 
L 146.746293 225.867086 
L 146.948943 215.373673 
L 147.354681 136.66799 
L 147.963643 136.66799 
L 148.0651 147.134451 
L 148.267926 176.086968 
L 148.470605 190.121911 
L 148.774486 190.192583 
L 149.281499 190.192583 
L 149.484701 187.875017 
L 149.78987 181.843513 
L 150.29927 181.735793 
L 150.401259 181.695417 
L 150.707424 179.954584 
L 150.809541 179.857688 
L 151.013857 179.156768 
L 151.422797 179.156768 
L 151.627419 179.961859 
L 151.729768 180.058367 
L 152.754376 182.542273 
L 153.987678 182.483949 
L 154.193687 183.292158 
L 154.296544 183.33454 
L 154.501715 184.39951 
L 154.705828 184.858394 
L 155.108644 184.858394 
L 155.305857 184.158038 
L 155.499258 184.071446 
L 155.871584 184.071446 
L 156.22051 191.229549 
L 156.30381 191.274234 
L 157.056726 210.110815 
L 157.455602 210.024997 
L 157.645564 209.746729 
L 158.011745 173.500267 
L 158.071281 173.417478 
L 158.30637 172.252981 
L 158.480534 172.252981 
L 158.652196 184.401329 
L 158.928684 184.33406 
L 159.087827 184.007989 
L 159.139797 184.007989 
L 159.292596 183.183248 
L 159.489397 182.934403 
L 159.678792 182.32389 
L 159.905305 182.32389 
L 160.036209 191.418336 
L 160.247752 191.357288 
L 160.452779 190.720951 
L 160.533343 190.296135 
L 160.652963 188.479655 
L 160.771352 187.176453 
L 160.888761 187.176453 
L 160.927723 187.904415 
L 161.044215 191.706193 
L 161.160311 191.706193 
L 161.314916 191.362747 
L 161.353556 191.357457 
L 161.582927 190.314131 
L 161.620402 190.268755 
L 162.222941 182.851052 
L 162.391024 180.841235 
L 162.902471 175.161144 
L 163.042816 175.198106 
L 163.329899 176.425006 
L 163.43978 176.425006 
L 163.740192 173.637776 
L 163.817844 171.813239 
L 164.102997 150.004691 
L 164.276218 150.004691 
L 164.501067 173.198491 
L 164.593016 182.827925 
L 164.873412 203.715678 
L 165.015177 203.715678 
L 165.062689 202.086114 
L 165.303711 171.818226 
L 165.352846 169.682567 
L 165.605045 139.4961 
L 165.869793 139.4961 
L 166.201925 167.76421 
L 166.431246 175.77149 
L 166.666284 175.77149 
L 167.149232 154.722115 
L 167.836857 154.71984 
L 167.901333 155.769979 
L 168.163049 164.635088 
L 168.497899 175.166569 
L 168.77078 181.836271 
L 169.185886 181.752297 
L 169.46603 171.553686 
L 169.821407 171.553686 
L 170.037764 176.870979 
L 170.256342 176.913537 
L 170.625226 177.26922 
L 170.999569 177.19594 
L 171.150814 176.761487 
L 171.532633 176.331509 
L 171.686803 176.252687 
L 172.23309 175.489488 
L 172.70779 175.576769 
L 173.185931 175.935287 
L 173.506902 176.238857 
L 175.914973 176.335932 
L 176.085459 176.575466 
L 176.170998 176.577595 
L 176.428909 177.134191 
L 178.459294 177.203938 
L 178.637652 176.296627 
L 178.995016 175.979607 
L 181.182674 175.792178 
L 181.737994 209.30489 
L 182.390078 209.304845 
L 182.670492 162.223577 
L 182.857381 156.631859 
L 183.137839 115.01332 
L 183.704299 115.013473 
L 183.895499 147.714135 
L 184.087599 162.159345 
L 184.376907 209.305217 
L 184.76355 237.799786 
L 185.245707 237.799786 
L 185.438002 227.447554 
L 185.630237 207.484309 
L 185.918917 207.473731 
L 186.01533 206.433871 
L 186.208584 185.824445 
L 186.305473 185.220205 
L 186.793427 147.715512 
L 187.883332 147.715109 
L 187.982943 153.092235 
L 188.182247 177.142842 
L 188.981725 235.205873 
L 189.383452 235.205873 
L 189.584962 208.035495 
L 189.685897 206.722919 
L 189.888154 177.135772 
L 189.989486 172.769003 
L 190.702514 53.568391 
L 191.418087 53.568785 
L 192.13331 180.656691 
L 192.337901 228.95356 
L 192.542743 231.206333 
L 193.056231 231.201202 
L 193.365355 221.397088 
L 193.882812 153.397253 
L 193.986708 152.613763 
L 194.194963 125.172105 
L 194.718202 125.172105 
L 194.823153 126.784344 
L 195.138319 180.670117 
L 195.243459 185.75007 
L 195.559068 221.392694 
L 195.874957 231.195835 
L 196.085715 232.193173 
L 196.507658 232.193173 
L 196.613237 231.222603 
L 196.930196 221.395283 
L 197.141688 202.548102 
L 197.459198 163.991237 
L 197.671053 156.362133 
L 198.201619 156.362133 
L 198.30795 156.572668 
L 198.520888 185.437267 
L 199.591756 185.437267 
L 199.806943 186.020124 
L 201.318225 186.020124 
L 201.426386 180.115089 
L 201.642784 156.362096 
L 201.85929 145.849557 
L 202.617914 145.849641 
L 203.051961 180.57443 
L 203.595196 180.573551 
L 203.81275 162.964459 
L 204.030456 138.261128 
L 204.684366 138.259118 
L 205.230047 179.822443 
L 206.870599 179.818752 
L 207.089682 174.100965 
L 208.187037 174.098246 
L 208.626994 138.168872 
L 209.06681 138.168872 
L 209.176697 147.619754 
L 209.396449 181.746015 
L 209.836168 244.092348 
L 210.056311 276.455897 
L 210.718666 276.455897 
L 210.829312 276.093554 
L 211.715892 96.089335 
L 212.604459 96.089285 
L 212.827087 104.457903 
L 213.049844 173.247864 
L 213.384068 212.785018 
L 213.829542 252.194859 
L 213.940868 252.41779 
L 214.163502 253.511568 
L 214.386154 254.554839 
L 215.277905 254.549361 
L 215.501225 252.926707 
L 215.724674 252.395707 
L 215.948241 252.325982 
L 218.190256 252.325091 
L 218.64 203.842661 
L 219.763924 203.842661 
L 220.213625 172.82575 
L 220.326141 171.942787 
L 220.7766 149.321293 
L 221.114773 126.202263 
L 221.904401 126.201902 
L 222.355568 161.869491 
L 222.581028 172.442122 
L 223.03179 208.24714 
L 224.388332 208.240257 
L 224.61471 163.913197 
L 224.727839 160.983126 
L 224.84091 149.80088 
L 225.62958 149.80088 
L 225.854092 164.430976 
L 226.078579 222.479253 
L 226.190879 223.50149 
L 226.528325 280.928083 
L 226.754008 285.593902 
L 226.867146 286.638785 
L 227.322437 295.444431 
L 227.667063 295.488 
L 228.012566 295.437108 
L 228.127551 294.918725 
L 228.470342 286.519133 
L 228.806571 282.433888 
L 230.115974 282.328025 
L 230.579049 282.311599 
L 230.671289 282.094477 
L 230.76294 278.492186 
L 231.283667 167.730463 
L 232.567205 167.724879 
L 232.877222 132.168351 
L 233.203166 120.57928 
L 233.355168 120.57928 
L 233.503334 121.385173 
L 233.969946 223.523097 
L 234.269208 223.466506 
L 234.310111 222.316475 
L 234.623634 175.45263 
L 234.772898 171.21932 
L 234.882055 171.21932 
L 235.301327 201.596491 
L 235.367934 201.596491 
L 235.433153 201.249122 
L 235.85915 170.170509 
L 235.973221 170.170509 
L 236.463747 194.646496 
L 236.714679 175.714509 
L 236.786626 175.673085 
L 237.090369 172.827327 
L 237.300098 187.390915 
L 237.394703 187.390915 
L 237.538774 172.298838 
L 237.685871 159.823146 
L 237.710818 159.220586 
L 237.837774 149.079667 
L 237.941987 149.080923 
L 238.21351 177.996327 
L 238.330149 178.825897 
L 238.391511 178.825897 
L 238.552513 178.366188 
L 238.685108 178.366188 
L 238.918221 179.739862 
L 239.122104 180.675181 
L 239.333458 180.770156 
L 239.621466 181.644422 
L 240.085374 181.553477 
L 240.156583 181.360701 
L 240.917589 172.112037 
L 241.067277 172.112037 
L 241.257125 172.985198 
L 241.411318 173.026226 
L 241.489228 173.026226 
L 241.928605 159.284913 
L 241.969752 159.121046 
L 242.095116 151.692861 
L 242.311172 151.277093 
L 242.49134 151.277093 
L 242.875992 229.139681 
L 243.080466 229.13466 
L 243.237388 209.367961 
L 243.715083 154.677199 
L 243.875307 154.677199 
L 244.093688 172.20821 
L 244.556578 172.20821 
L 244.736697 177.705234 
L 245.535571 177.700788 
L 245.599154 177.056818 
L 246.12502 136.410541 
L 246.535623 136.410541 
L 246.744434 152.441479 
L 246.814409 153.301146 
L 246.954831 160.998655 
L 247.237516 161.072061 
L 247.308563 162.66767 
L 247.522589 178.065612 
L 247.95446 178.065612 
L 248.026884 177.543315 
L 248.317588 168.353226 
L 248.683124 168.12442 
L 249.127921 168.100238 
L 249.203024 168.100238 
L 249.354126 173.73129 
L 249.659692 173.767629 
L 249.969379 173.657985 
L 250.520742 173.483568 
L 251.001982 173.403219 
L 251.983143 173.084488 
L 252.231866 172.981374 
L 252.398329 172.684754 
L 252.648975 171.744396 
L 253.667362 171.637819 
L 253.753501 172.099865 
L 254.273891 209.556705 
L 254.36117 210.176658 
L 254.799872 238.404914 
L 255.153622 238.439057 
L 255.331432 238.439057 
L 255.509865 230.006553 
L 255.77869 213.37588 
L 256.684823 213.314552 
L 256.959601 232.884922 
L 257.420498 232.884922 
L 258.259263 170.353539 
L 258.353167 168.950208 
L 258.635588 144.355081 
L 259.960414 144.376801 
L 260.150331 170.208872 
L 260.340736 175.481289 
L 261.400762 175.480428 
L 261.595411 166.873266 
L 261.790409 150.212417 
L 262.278771 150.227966 
L 262.4742 168.422828 
L 263.452517 168.425265 
L 263.649515 152.330049 
L 265.242625 152.330049 
L 265.443468 148.871951 
L 266.66176 148.874345 
L 266.866396 150.993969 
L 267.481413 150.99633 
L 267.789307 175.539373 
L 268.715171 175.539508 
L 268.818315 171.575471 
L 269.024864 161.569528 
L 270.381566 161.56979 
L 270.592723 151.55136 
L 271.968624 151.551071 
L 272.074384 148.075248 
L 272.391569 120.36203 
L 273.238665 120.367387 
L 273.451217 129.195618 
L 273.664134 150.578922 
L 273.770719 156.026664 
L 273.984126 179.426239 
L 274.411809 179.426239 
L 274.626044 158.566288 
L 275.808373 158.513409 
L 276.131979 173.188108 
L 277.53724 173.159436 
L 277.753687 181.524778 
L 277.970242 183.89117 
L 278.295324 196.923838 
L 279.164176 196.917704 
L 279.382005 183.848157 
L 279.927747 183.780275 
L 280.365269 183.55087 
L 280.912788 183.475101 
L 281.131915 183.252545 
L 281.351168 183.119738 
L 282.010197 182.999997 
L 282.890089 182.531803 
L 283.109832 182.473197 
L 283.329573 180.153216 
L 283.659403 180.080168 
L 283.989768 179.61494 
L 284.100055 179.572062 
L 284.431432 179.199795 
L 284.874145 179.199795 
L 285.317399 180.446055 
L 285.428255 180.469186 
L 285.649999 180.824236 
L 286.20463 180.824236 
L 286.759841 179.892091 
L 286.982151 179.80629 
L 287.204619 179.194137 
L 287.761355 178.150256 
L 287.98413 178.104246 
L 288.206872 177.739566 
L 288.540866 177.688661 
L 288.874757 177.688661 
L 289.097362 178.144667 
L 289.543053 179.078421 
L 289.877912 179.533858 
L 290.101346 180.160871 
L 290.660012 180.160871 
L 291.329471 176.238022 
L 291.441098 175.860163 
L 291.552832 174.956839 
L 292.001523 151.592661 
L 292.789616 151.56998 
L 292.90151 152.522017 
L 293.123988 170.573553 
L 293.234398 178.706045 
L 293.453127 210.088856 
L 293.561272 215.113221 
L 293.880087 252.84776 
L 294.593213 252.841666 
L 294.691258 243.94099 
L 294.884016 210.874479 
L 294.978676 209.329864 
L 295.256194 168.660349 
L 295.524968 154.480885 
L 295.871758 154.480885 
L 296.207378 181.086303 
L 296.533691 207.777089 
L 296.693546 208.032787 
L 297.006702 208.032787 
L 297.236489 196.432216 
L 297.462902 195.636844 
L 297.761093 189.694927 
L 298.05697 177.679794 
L 298.277498 169.050831 
L 298.640198 169.050831 
L 298.854051 172.492666 
L 299.134418 180.364997 
L 299.272264 180.69148 
L 299.475899 187.460861 
L 299.808585 187.460861 
L 299.874353 187.184925 
L 300.135513 173.967873 
L 300.200402 173.351813 
L 300.329768 168.876926 
L 300.394238 168.716154 
L 300.650615 164.967908 
L 300.904412 152.027923 
L 301.155235 152.027923 
L 301.217415 154.295156 
L 301.402746 165.729232 
L 301.830712 198.948929 
L 302.013489 198.948929 
L 302.257388 193.703333 
L 302.501839 190.608435 
L 302.56308 188.227444 
L 302.87033 159.668262 
L 302.932021 157.743799 
L 303.055662 149.912432 
L 303.117614 149.464309 
L 303.366331 145.633734 
L 303.616571 143.019629 
L 303.868452 143.019629 
L 304.058464 147.50785 
L 304.24936 158.841364 
L 304.505161 178.117162 
L 304.633534 181.763422 
L 304.891501 181.763422 
L 305.41686 178.406563 
L 305.685605 178.406563 
L 305.82141 194.81485 
L 305.958096 208.796875 
L 306.372918 208.750166 
L 306.512638 208.581832 
L 306.58275 208.57803 
L 307.077846 205.595834 
L 307.292109 205.144062 
L 307.651613 205.144062 
L 307.796259 206.792067 
L 308.087116 206.792067 
L 308.160152 206.302379 
L 309.191331 183.654425 
L 309.792428 178.82932 
L 310.330695 177.674861 
L 310.408333 177.627993 
L 310.720268 174.358711 
L 311.506753 164.204377 
L 311.98216 158.307237 
L 312.061627 158.269661 
L 312.300385 157.706139 
L 312.699822 157.706139 
L 312.860592 161.641466 
L 313.184832 169.708524 
L 313.430903 173.375373 
L 313.845247 173.375373 
L 314.011515 173.033542 
L 314.177659 161.380925 
L 314.343584 147.452185 
L 314.75771 147.452185 
L 314.840709 150.167536 
L 315.090807 184.100643 
L 315.258651 191.62597 
L 315.511982 214.603377 
L 316.194801 214.603377 
L 316.453012 168.32979 
L 316.625723 158.546287 
L 317.495941 158.439639 
L 317.759116 158.32 
L 317.935073 158.062163 
L 318.731497 158.040531 
L 319.088004 191.74245 
L 319.446641 191.74245 
L 319.717208 157.90698 
L 320.079917 118.895181 
L 320.262016 118.797359 
L 320.810846 118.797359 
L 321.178696 160.281809 
L 322.380675 160.263815 
L 322.565847 182.444671 
L 323.217427 182.389905 
L 323.404709 181.88496 
L 323.968304 137.013762 
L 324.34489 137.013762 
L 324.62774 161.066621 
L 324.722104 163.745709 
L 325.00544 191.861444 
L 325.194539 199.172178 
L 325.57325 199.172178 
L 325.668034 197.166048 
L 326.047614 169.188586 
L 326.618619 126.571272 
L 327.287894 126.672897 
L 327.479612 126.701609 
L 327.671375 140.707526 
L 327.767238 143.445044 
L 328.246136 178.672423 
L 328.43766 190.475311 
L 328.72516 214.042072 
L 329.205165 214.042072 
L 329.30135 212.095679 
L 329.783674 189.918679 
L 330.171063 189.918679 
L 330.268021 190.183767 
L 330.461977 196.168009 
L 330.558946 197.548897 
L 330.849744 207.556104 
L 331.237205 220.405011 
L 331.430818 228.010458 
L 331.914472 228.010458 
L 332.107652 224.820178 
L 332.397173 214.7024 
L 332.493664 213.191561 
L 333.267118 186.730472 
L 333.656166 174.350503 
L 334.145522 174.350503 
L 334.534662 187.582362 
L 334.726218 194.530637 
L 334.914674 199.72623 
L 335.007483 199.843533 
L 335.190006 204.117857 
L 335.543223 204.117857 
L 335.883785 183.417845 
L 335.967531 181.67014 
L 336.216677 158.060631 
L 336.381818 155.528236 
L 336.712579 155.528236 
L 336.795554 155.643581 
L 337.282707 215.5438 
L 337.655277 224.799207 
L 338.130459 224.763589 
L 338.322055 223.802241 
L 338.384624 222.73067 
L 338.446623 216.765813 
L 338.629651 193.224122 
L 338.749371 193.03494 
L 338.867203 192.839883 
L 339.09697 192.839883 
L 339.263904 198.148234 
L 339.685941 198.103671 
L 339.933395 194.149173 
L 340.392833 193.135966 
L 340.608247 193.198753 
L 340.650768 193.329792 
L 340.777703 194.039083 
L 340.819818 194.060514 
L 340.945475 194.220845 
L 341.069865 194.220845 
L 341.469871 192.662567 
L 341.736892 190.013271 
L 341.888871 186.449386 
L 342.186834 182.556148 
L 342.365118 181.101968 
L 342.470527 181.101968 
L 342.751999 185.016659 
L 342.822621 184.94949 
L 342.893481 182.970075 
L 343.182583 158.648899 
L 343.332051 158.648899 
L 343.560644 165.442136 
L 343.829528 165.442136 
L 343.944446 180.432985 
L 344.467712 180.483325 
L 344.595778 181.886942 
L 344.855203 181.909068 
L 344.899192 181.909068 
L 345.033641 182.087853 
L 345.125959 182.125915 
L 345.269089 188.234412 
L 345.568378 188.266687 
L 345.722266 192.631516 
L 345.877471 192.631516 
L 346.13599 191.577633 
L 346.442518 186.399578 
L 347.686044 174.137103 
L 347.931257 174.234338 
L 347.980269 174.282792 
L 348.421449 178.24435 
L 348.668025 180.769208 
L 348.967032 180.683484 
L 349.067641 179.772176 
L 349.577445 163.819924 
L 349.732204 159.418637 
L 349.940349 158.997302 
L 350.151253 158.997302 
L 350.473979 169.680309 
L 350.637876 169.620948 
L 350.80306 169.447076 
L 351.139321 169.353552 
L 351.196487 169.353552 
L 351.254054 170.357824 
L 351.370374 179.472272 
L 351.786207 179.412609 
L 351.966411 179.248497 
L 352.086491 170.300168 
L 352.325401 170.300168 
L 352.562768 191.188001 
L 352.680706 191.967915 
L 352.914433 191.967915 
L 353.201208 190.999636 
L 353.480587 185.121545 
L 353.964819 184.119997 
L 354.541304 184.113859 
L 354.910287 182.057025 
L 355.118628 181.661486 
L 355.272594 181.731341 
L 355.323566 181.731341 
L 355.475722 182.944178 
L 355.677604 183.364219 
L 355.930231 182.806226 
L 355.980992 182.806226 
L 356.18505 180.503937 
L 356.861013 177.34159 
L 357.128583 177.078943 
L 357.237916 176.986226 
L 357.576335 175.372325 
L 358.411354 170.322405 
L 358.595334 169.73766 
L 359.286898 167.180416 
L 359.679914 167.247669 
L 360.015304 171.164473 
L 360.286531 175.845151 
L 360.422792 176.503137 
L 360.628325 176.674118 
L 360.975212 176.777561 
L 361.257745 177.009007 
L 361.40051 177.04611 
L 361.688124 177.308402 
L 361.832791 177.428776 
L 362.12421 179.065552 
L 362.34513 179.313862 
L 363.256869 179.312226 
L 363.413051 181.775899 
L 363.728038 181.907928 
L 364.28512 181.909276 
L 364.606047 189.301604 
L 364.686596 189.652674 
L 364.848066 191.639437 
L 365.58065 191.63947 
L 365.662637 191.517675 
L 365.744743 189.462339 
L 365.909321 178.216406 
L 366.074409 164.225581 
L 366.489572 164.225581 
L 366.740506 189.47037 
L 366.824471 192.467921 
L 367.161883 228.020939 
L 367.331491 229.333101 
L 367.672427 229.333101 
L 367.758011 228.534826 
L 367.92962 221.217358 
L 368.188061 193.516289 
L 368.274449 190.863611 
L 368.968728 139.269018 
L 369.404789 139.269018 
L 369.93089 201.382113 
L 370.01896 206.079082 
L 370.283929 250.787082 
L 370.372486 251.007417 
L 370.549902 257.871997 
L 370.905704 257.871997 
L 371.083914 253.055071 
L 371.351332 216.636915 
L 371.885756 151.626185 
L 372.153407 141.935943 
L 372.422048 141.884068 
L 372.601862 141.739979 
L 372.782172 141.7639 
L 372.962865 141.916072 
L 373.143826 141.995786 
L 373.234372 142.346875 
L 373.687345 171.928975 
L 374.049825 171.928975 
L 374.23105 170.740429 
L 374.59347 155.178026 
L 375.318378 149.685838 
L 375.680625 149.685838 
L 375.861688 151.693448 
L 376.768903 181.444184 
L 377.407815 181.369446 
L 377.682138 181.296108 
L 377.865038 181.296108 
L 377.956489 180.766659 
L 378.139397 175.137532 
L 378.779912 175.137532 
L 379.23851 193.94158 
L 379.514547 196.965454 
L 379.883893 211.97154 
L 380.440624 211.97154 
L 380.533779 211.159672 
L 380.627055 207.377155 
L 380.907662 168.283832 
L 381.095653 156.156563 
L 381.190162 156.156563 
L 381.475555 155.851861 
L 381.666251 155.851861 
L 382.044594 156.230701 
L 382.23042 156.230701 
L 382.322099 156.56014 
L 382.50242 158.997031 
L 382.763605 183.772596 
L 383.624896 183.747361 
L 383.768428 183.66345 
L 383.908421 183.285453 
L 384.178345 163.567728 
L 384.308843 157.806111 
L 384.562534 157.806111 
L 384.808484 169.196879 
L 385.330205 193.510078 
L 385.491469 198.440941 
L 385.749763 208.539299 
L 386.003536 208.539299 
L 386.104579 206.958809 
L 386.304447 195.694518 
L 386.402858 193.787221 
L 386.596331 186.426443 
L 386.738364 185.293617 
L 386.924196 185.032578 
L 387.152486 184.326803 
L 387.333382 184.326803 
L 387.513406 185.508857 
L 387.736834 186.404371 
L 387.914302 186.547082 
L 388.046699 186.547082 
L 388.090702 186.290846 
L 388.396744 164.767226 
L 388.483675 162.188472 
L 388.657914 154.246216 
L 388.967219 144.873595 
L 389.238111 144.914683 
L 389.283854 145.43056 
L 389.51533 157.272714 
L 389.656476 158.93075 
L 389.79945 158.93075 
L 390.091364 158.357563 
L 390.240502 151.024055 
L 390.442745 140.737617 
L 390.545691 137.887044 
L 390.702943 134.706487 
L 390.864185 134.706487 
L 391.255323 168.077942 
L 391.426916 175.813303 
L 391.772472 175.709344 
L 391.888695 175.649431 
L 392.244501 175.275005 
L 392.553515 172.695292 
L 392.616722 172.654009 
L 392.808371 171.502189 
L 393.131383 171.566502 
L 393.196088 171.837555 
L 393.455711 174.066052 
L 393.586736 174.53501 
L 393.92078 176.593978 
L 394.125908 176.593978 
L 394.334191 174.224581 
L 394.404265 174.055143 
L 394.545306 172.996994 
L 394.902528 172.996994 
L 395.192202 176.569866 
L 395.265063 176.630756 
L 395.558381 179.100887 
L 395.929344 191.162979 
L 396.380052 191.054524 
L 396.760018 190.929592 
L 396.990078 181.245446 
L 397.691113 181.316956 
L 397.84927 181.416288 
L 398.487273 181.416288 
L 398.487273 181.416288 
" clip-path="url(#p223a82e091)" style="fill: none; stroke: #ffa500; stroke-width: 1.5; stroke-linecap: square"/>
   </g>
   <g id="patch_3">
    <path d="M 57.6 307.584 
L 57.6 41.472 
" style="fill: none; stroke: #000000; stroke-width: 0.8; stroke-linejoin: miter; stroke-linecap: square"/>
   </g>
   <g id="patch_4">
    <path d="M 414.72 307.584 
L 414.72 41.472 
" style="fill: none; stroke: #000000; stroke-width: 0.8; stroke-linejoin: miter; stroke-linecap: square"/>
   </g>
   <g id="patch_5">
    <path d="M 57.6 307.584 
L 414.72 307.584 
" style="fill: none; stroke: #000000; stroke-width: 0.8; stroke-linejoin: miter; stroke-linecap: square"/>
   </g>
   <g id="patch_6">
    <path d="M 57.6 41.472 
L 414.72 41.472 
" style="fill: none; stroke: #000000; stroke-width: 0.8; stroke-linejoin: miter; stroke-linecap: square"/>
   </g>
   <g id="text_16">
    <!-- Acceleration -->
    <g transform="translate(198.875625 35.472) scale(0.12 -0.12)">
     <use xlink:href="#DejaVuSans-41"/>
     <use xlink:href="#DejaVuSans-63" transform="translate(66.658203 0)"/>
     <use xlink:href="#DejaVuSans-63" transform="translate(121.638672 0)"/>
     <use xlink:href="#DejaVuSans-65" transform="translate(176.619141 0)"/>
     <use xlink:href="#DejaVuSans-6c" transform="translate(238.142578 0)"/>
     <use xlink:href="#DejaVuSans-65" transform="translate(265.925781 0)"/>
     <use xlink:href="#DejaVuSans-72" transform="translate(327.449219 0)"/>
     <use xlink:href="#DejaVuSans-61" transform="translate(368.5625 0)"/>
     <use xlink:href="#DejaVuSans-74" transform="translate(429.841797 0)"/>
     <use xlink:href="#DejaVuSans-69" transform="translate(469.050781 0)"/>
     <use xlink:href="#DejaVuSans-6f" transform="translate(496.833984 0)"/>
     <use xlink:href="#DejaVuSans-6e" transform="translate(558.015625 0)"/>
    </g>
   </g>
   <g id="legend_1">
    <g id="patch_7">
     <path d="M 313.579375 64.150125 
L 407.72 64.150125 
Q 409.72 64.150125 409.72 62.150125 
L 409.72 48.472 
Q 409.72 46.472 407.72 46.472 
L 313.579375 46.472 
Q 311.579375 46.472 311.579375 48.472 
L 311.579375 62.150125 
Q 311.579375 64.150125 313.579375 64.150125 
z
" style="fill: #ffffff; opacity: 0.8; stroke: #cccccc; stroke-linejoin: miter"/>
    </g>
    <g id="line2d_28">
     <path d="M 315.579375 54.570438 
L 325.579375 54.570438 
L 335.579375 54.570438 
" style="fill: none; stroke: #ffa500; stroke-width: 1.5; stroke-linecap: square"/>
    </g>
    <g id="text_17">
     <!-- Acceleration -->
     <g transform="translate(343.579375 58.070438) scale(0.1 -0.1)">
      <use xlink:href="#DejaVuSans-41"/>
      <use xlink:href="#DejaVuSans-63" transform="translate(66.658203 0)"/>
      <use xlink:href="#DejaVuSans-63" transform="translate(121.638672 0)"/>
      <use xlink:href="#DejaVuSans-65" transform="translate(176.619141 0)"/>
      <use xlink:href="#DejaVuSans-6c" transform="translate(238.142578 0)"/>
      <use xlink:href="#DejaVuSans-65" transform="translate(265.925781 0)"/>
      <use xlink:href="#DejaVuSans-72" transform="translate(327.449219 0)"/>
      <use xlink:href="#DejaVuSans-61" transform="translate(368.5625 0)"/>
      <use xlink:href="#DejaVuSans-74" transform="translate(429.841797 0)"/>
      <use xlink:href="#DejaVuSans-69" transform="translate(469.050781 0)"/>
      <use xlink:href="#DejaVuSans-6f" transform="translate(496.833984 0)"/>
      <use xlink:href="#DejaVuSans-6e" transform="translate(558.015625 0)"/>
     </g>
    </g>
   </g>
  </g>
 </g>
 <defs>
  <clipPath id="p223a82e091">
   <rect x="57.6" y="41.472" width="357.12" height="266.112"/>
  </clipPath>
 </defs>
</svg>
