<?xml version="1.0" encoding="utf-8" standalone="no"?>
<!DOCTYPE svg PUBLIC "-//W3C//DTD SVG 1.1//EN"
  "http://www.w3.org/Graphics/SVG/1.1/DTD/svg11.dtd">
<svg xmlns:xlink="http://www.w3.org/1999/xlink" width="460.8pt" height="345.6pt" viewBox="0 0 460.8 345.6" xmlns="http://www.w3.org/2000/svg" version="1.1">
 <metadata>
  <rdf:RDF xmlns:dc="http://purl.org/dc/elements/1.1/" xmlns:cc="http://creativecommons.org/ns#" xmlns:rdf="http://www.w3.org/1999/02/22-rdf-syntax-ns#">
   <cc:Work>
    <dc:type rdf:resource="http://purl.org/dc/dcmitype/StillImage"/>
    <dc:date>2025-06-11T00:22:39.797738</dc:date>
    <dc:format>image/svg+xml</dc:format>
    <dc:creator>
     <cc:Agent>
      <dc:title>Matplotlib v3.10.1, https://matplotlib.org/</dc:title>
     </cc:Agent>
    </dc:creator>
   </cc:Work>
  </rdf:RDF>
 </metadata>
 <defs>
  <style type="text/css">*{stroke-linejoin: round; stroke-linecap: butt}</style>
 </defs>
 <g id="figure_1">
  <g id="patch_1">
   <path d="M 0 345.6 
L 460.8 345.6 
L 460.8 0 
L 0 0 
z
" style="fill: #ffffff"/>
  </g>
  <g id="axes_1">
   <g id="patch_2">
    <path d="M 57.6 307.584 
L 414.72 307.584 
L 414.72 41.472 
L 57.6 41.472 
z
" style="fill: #ffffff"/>
   </g>
   <g id="matplotlib.axis_1">
    <g id="xtick_1">
     <g id="line2d_1">
      <path d="M 73.823333 307.584 
L 73.823333 41.472 
" clip-path="url(#paba76392fc)" style="fill: none; stroke: #b0b0b0; stroke-width: 0.8; stroke-linecap: square"/>
     </g>
     <g id="line2d_2">
      <defs>
       <path id="m7aa6f5f928" d="M 0 0 
L 0 3.5 
" style="stroke: #000000; stroke-width: 0.8"/>
      </defs>
      <g>
       <use xlink:href="#m7aa6f5f928" x="73.823333" y="307.584" style="stroke: #000000; stroke-width: 0.8"/>
      </g>
     </g>
     <g id="text_1">
      <!-- 0 -->
      <g transform="translate(70.642083 322.182437) scale(0.1 -0.1)">
       <defs>
        <path id="DejaVuSans-30" d="M 2034 4250 
Q 1547 4250 1301 3770 
Q 1056 3291 1056 2328 
Q 1056 1369 1301 889 
Q 1547 409 2034 409 
Q 2525 409 2770 889 
Q 3016 1369 3016 2328 
Q 3016 3291 2770 3770 
Q 2525 4250 2034 4250 
z
M 2034 4750 
Q 2819 4750 3233 4129 
Q 3647 3509 3647 2328 
Q 3647 1150 3233 529 
Q 2819 -91 2034 -91 
Q 1250 -91 836 529 
Q 422 1150 422 2328 
Q 422 3509 836 4129 
Q 1250 4750 2034 4750 
z
" transform="scale(0.015625)"/>
       </defs>
       <use xlink:href="#DejaVuSans-30"/>
      </g>
     </g>
    </g>
    <g id="xtick_2">
     <g id="line2d_3">
      <path d="M 136.073077 307.584 
L 136.073077 41.472 
" clip-path="url(#paba76392fc)" style="fill: none; stroke: #b0b0b0; stroke-width: 0.8; stroke-linecap: square"/>
     </g>
     <g id="line2d_4">
      <g>
       <use xlink:href="#m7aa6f5f928" x="136.073077" y="307.584" style="stroke: #000000; stroke-width: 0.8"/>
      </g>
     </g>
     <g id="text_2">
      <!-- 1000 -->
      <g transform="translate(123.348077 322.182437) scale(0.1 -0.1)">
       <defs>
        <path id="DejaVuSans-31" d="M 794 531 
L 1825 531 
L 1825 4091 
L 703 3866 
L 703 4441 
L 1819 4666 
L 2450 4666 
L 2450 531 
L 3481 531 
L 3481 0 
L 794 0 
L 794 531 
z
" transform="scale(0.015625)"/>
       </defs>
       <use xlink:href="#DejaVuSans-31"/>
       <use xlink:href="#DejaVuSans-30" transform="translate(63.623047 0)"/>
       <use xlink:href="#DejaVuSans-30" transform="translate(127.246094 0)"/>
       <use xlink:href="#DejaVuSans-30" transform="translate(190.869141 0)"/>
      </g>
     </g>
    </g>
    <g id="xtick_3">
     <g id="line2d_5">
      <path d="M 198.322822 307.584 
L 198.322822 41.472 
" clip-path="url(#paba76392fc)" style="fill: none; stroke: #b0b0b0; stroke-width: 0.8; stroke-linecap: square"/>
     </g>
     <g id="line2d_6">
      <g>
       <use xlink:href="#m7aa6f5f928" x="198.322822" y="307.584" style="stroke: #000000; stroke-width: 0.8"/>
      </g>
     </g>
     <g id="text_3">
      <!-- 2000 -->
      <g transform="translate(185.597822 322.182437) scale(0.1 -0.1)">
       <defs>
        <path id="DejaVuSans-32" d="M 1228 531 
L 3431 531 
L 3431 0 
L 469 0 
L 469 531 
Q 828 903 1448 1529 
Q 2069 2156 2228 2338 
Q 2531 2678 2651 2914 
Q 2772 3150 2772 3378 
Q 2772 3750 2511 3984 
Q 2250 4219 1831 4219 
Q 1534 4219 1204 4116 
Q 875 4013 500 3803 
L 500 4441 
Q 881 4594 1212 4672 
Q 1544 4750 1819 4750 
Q 2544 4750 2975 4387 
Q 3406 4025 3406 3419 
Q 3406 3131 3298 2873 
Q 3191 2616 2906 2266 
Q 2828 2175 2409 1742 
Q 1991 1309 1228 531 
z
" transform="scale(0.015625)"/>
       </defs>
       <use xlink:href="#DejaVuSans-32"/>
       <use xlink:href="#DejaVuSans-30" transform="translate(63.623047 0)"/>
       <use xlink:href="#DejaVuSans-30" transform="translate(127.246094 0)"/>
       <use xlink:href="#DejaVuSans-30" transform="translate(190.869141 0)"/>
      </g>
     </g>
    </g>
    <g id="xtick_4">
     <g id="line2d_7">
      <path d="M 260.572567 307.584 
L 260.572567 41.472 
" clip-path="url(#paba76392fc)" style="fill: none; stroke: #b0b0b0; stroke-width: 0.8; stroke-linecap: square"/>
     </g>
     <g id="line2d_8">
      <g>
       <use xlink:href="#m7aa6f5f928" x="260.572567" y="307.584" style="stroke: #000000; stroke-width: 0.8"/>
      </g>
     </g>
     <g id="text_4">
      <!-- 3000 -->
      <g transform="translate(247.847567 322.182437) scale(0.1 -0.1)">
       <defs>
        <path id="DejaVuSans-33" d="M 2597 2516 
Q 3050 2419 3304 2112 
Q 3559 1806 3559 1356 
Q 3559 666 3084 287 
Q 2609 -91 1734 -91 
Q 1441 -91 1130 -33 
Q 819 25 488 141 
L 488 750 
Q 750 597 1062 519 
Q 1375 441 1716 441 
Q 2309 441 2620 675 
Q 2931 909 2931 1356 
Q 2931 1769 2642 2001 
Q 2353 2234 1838 2234 
L 1294 2234 
L 1294 2753 
L 1863 2753 
Q 2328 2753 2575 2939 
Q 2822 3125 2822 3475 
Q 2822 3834 2567 4026 
Q 2313 4219 1838 4219 
Q 1578 4219 1281 4162 
Q 984 4106 628 3988 
L 628 4550 
Q 988 4650 1302 4700 
Q 1616 4750 1894 4750 
Q 2613 4750 3031 4423 
Q 3450 4097 3450 3541 
Q 3450 3153 3228 2886 
Q 3006 2619 2597 2516 
z
" transform="scale(0.015625)"/>
       </defs>
       <use xlink:href="#DejaVuSans-33"/>
       <use xlink:href="#DejaVuSans-30" transform="translate(63.623047 0)"/>
       <use xlink:href="#DejaVuSans-30" transform="translate(127.246094 0)"/>
       <use xlink:href="#DejaVuSans-30" transform="translate(190.869141 0)"/>
      </g>
     </g>
    </g>
    <g id="xtick_5">
     <g id="line2d_9">
      <path d="M 322.822312 307.584 
L 322.822312 41.472 
" clip-path="url(#paba76392fc)" style="fill: none; stroke: #b0b0b0; stroke-width: 0.8; stroke-linecap: square"/>
     </g>
     <g id="line2d_10">
      <g>
       <use xlink:href="#m7aa6f5f928" x="322.822312" y="307.584" style="stroke: #000000; stroke-width: 0.8"/>
      </g>
     </g>
     <g id="text_5">
      <!-- 4000 -->
      <g transform="translate(310.097312 322.182437) scale(0.1 -0.1)">
       <defs>
        <path id="DejaVuSans-34" d="M 2419 4116 
L 825 1625 
L 2419 1625 
L 2419 4116 
z
M 2253 4666 
L 3047 4666 
L 3047 1625 
L 3713 1625 
L 3713 1100 
L 3047 1100 
L 3047 0 
L 2419 0 
L 2419 1100 
L 313 1100 
L 313 1709 
L 2253 4666 
z
" transform="scale(0.015625)"/>
       </defs>
       <use xlink:href="#DejaVuSans-34"/>
       <use xlink:href="#DejaVuSans-30" transform="translate(63.623047 0)"/>
       <use xlink:href="#DejaVuSans-30" transform="translate(127.246094 0)"/>
       <use xlink:href="#DejaVuSans-30" transform="translate(190.869141 0)"/>
      </g>
     </g>
    </g>
    <g id="xtick_6">
     <g id="line2d_11">
      <path d="M 385.072056 307.584 
L 385.072056 41.472 
" clip-path="url(#paba76392fc)" style="fill: none; stroke: #b0b0b0; stroke-width: 0.8; stroke-linecap: square"/>
     </g>
     <g id="line2d_12">
      <g>
       <use xlink:href="#m7aa6f5f928" x="385.072056" y="307.584" style="stroke: #000000; stroke-width: 0.8"/>
      </g>
     </g>
     <g id="text_6">
      <!-- 5000 -->
      <g transform="translate(372.347056 322.182437) scale(0.1 -0.1)">
       <defs>
        <path id="DejaVuSans-35" d="M 691 4666 
L 3169 4666 
L 3169 4134 
L 1269 4134 
L 1269 2991 
Q 1406 3038 1543 3061 
Q 1681 3084 1819 3084 
Q 2600 3084 3056 2656 
Q 3513 2228 3513 1497 
Q 3513 744 3044 326 
Q 2575 -91 1722 -91 
Q 1428 -91 1123 -41 
Q 819 9 494 109 
L 494 744 
Q 775 591 1075 516 
Q 1375 441 1709 441 
Q 2250 441 2565 725 
Q 2881 1009 2881 1497 
Q 2881 1984 2565 2268 
Q 2250 2553 1709 2553 
Q 1456 2553 1204 2497 
Q 953 2441 691 2322 
L 691 4666 
z
" transform="scale(0.015625)"/>
       </defs>
       <use xlink:href="#DejaVuSans-35"/>
       <use xlink:href="#DejaVuSans-30" transform="translate(63.623047 0)"/>
       <use xlink:href="#DejaVuSans-30" transform="translate(127.246094 0)"/>
       <use xlink:href="#DejaVuSans-30" transform="translate(190.869141 0)"/>
      </g>
     </g>
    </g>
    <g id="text_7">
     <!-- Distance (m) -->
     <g transform="translate(203.936562 335.860562) scale(0.1 -0.1)">
      <defs>
       <path id="DejaVuSans-44" d="M 1259 4147 
L 1259 519 
L 2022 519 
Q 2988 519 3436 956 
Q 3884 1394 3884 2338 
Q 3884 3275 3436 3711 
Q 2988 4147 2022 4147 
L 1259 4147 
z
M 628 4666 
L 1925 4666 
Q 3281 4666 3915 4102 
Q 4550 3538 4550 2338 
Q 4550 1131 3912 565 
Q 3275 0 1925 0 
L 628 0 
L 628 4666 
z
" transform="scale(0.015625)"/>
       <path id="DejaVuSans-69" d="M 603 3500 
L 1178 3500 
L 1178 0 
L 603 0 
L 603 3500 
z
M 603 4863 
L 1178 4863 
L 1178 4134 
L 603 4134 
L 603 4863 
z
" transform="scale(0.015625)"/>
       <path id="DejaVuSans-73" d="M 2834 3397 
L 2834 2853 
Q 2591 2978 2328 3040 
Q 2066 3103 1784 3103 
Q 1356 3103 1142 2972 
Q 928 2841 928 2578 
Q 928 2378 1081 2264 
Q 1234 2150 1697 2047 
L 1894 2003 
Q 2506 1872 2764 1633 
Q 3022 1394 3022 966 
Q 3022 478 2636 193 
Q 2250 -91 1575 -91 
Q 1294 -91 989 -36 
Q 684 19 347 128 
L 347 722 
Q 666 556 975 473 
Q 1284 391 1588 391 
Q 1994 391 2212 530 
Q 2431 669 2431 922 
Q 2431 1156 2273 1281 
Q 2116 1406 1581 1522 
L 1381 1569 
Q 847 1681 609 1914 
Q 372 2147 372 2553 
Q 372 3047 722 3315 
Q 1072 3584 1716 3584 
Q 2034 3584 2315 3537 
Q 2597 3491 2834 3397 
z
" transform="scale(0.015625)"/>
       <path id="DejaVuSans-74" d="M 1172 4494 
L 1172 3500 
L 2356 3500 
L 2356 3053 
L 1172 3053 
L 1172 1153 
Q 1172 725 1289 603 
Q 1406 481 1766 481 
L 2356 481 
L 2356 0 
L 1766 0 
Q 1100 0 847 248 
Q 594 497 594 1153 
L 594 3053 
L 172 3053 
L 172 3500 
L 594 3500 
L 594 4494 
L 1172 4494 
z
" transform="scale(0.015625)"/>
       <path id="DejaVuSans-61" d="M 2194 1759 
Q 1497 1759 1228 1600 
Q 959 1441 959 1056 
Q 959 750 1161 570 
Q 1363 391 1709 391 
Q 2188 391 2477 730 
Q 2766 1069 2766 1631 
L 2766 1759 
L 2194 1759 
z
M 3341 1997 
L 3341 0 
L 2766 0 
L 2766 531 
Q 2569 213 2275 61 
Q 1981 -91 1556 -91 
Q 1019 -91 701 211 
Q 384 513 384 1019 
Q 384 1609 779 1909 
Q 1175 2209 1959 2209 
L 2766 2209 
L 2766 2266 
Q 2766 2663 2505 2880 
Q 2244 3097 1772 3097 
Q 1472 3097 1187 3025 
Q 903 2953 641 2809 
L 641 3341 
Q 956 3463 1253 3523 
Q 1550 3584 1831 3584 
Q 2591 3584 2966 3190 
Q 3341 2797 3341 1997 
z
" transform="scale(0.015625)"/>
       <path id="DejaVuSans-6e" d="M 3513 2113 
L 3513 0 
L 2938 0 
L 2938 2094 
Q 2938 2591 2744 2837 
Q 2550 3084 2163 3084 
Q 1697 3084 1428 2787 
Q 1159 2491 1159 1978 
L 1159 0 
L 581 0 
L 581 3500 
L 1159 3500 
L 1159 2956 
Q 1366 3272 1645 3428 
Q 1925 3584 2291 3584 
Q 2894 3584 3203 3211 
Q 3513 2838 3513 2113 
z
" transform="scale(0.015625)"/>
       <path id="DejaVuSans-63" d="M 3122 3366 
L 3122 2828 
Q 2878 2963 2633 3030 
Q 2388 3097 2138 3097 
Q 1578 3097 1268 2742 
Q 959 2388 959 1747 
Q 959 1106 1268 751 
Q 1578 397 2138 397 
Q 2388 397 2633 464 
Q 2878 531 3122 666 
L 3122 134 
Q 2881 22 2623 -34 
Q 2366 -91 2075 -91 
Q 1284 -91 818 406 
Q 353 903 353 1747 
Q 353 2603 823 3093 
Q 1294 3584 2113 3584 
Q 2378 3584 2631 3529 
Q 2884 3475 3122 3366 
z
" transform="scale(0.015625)"/>
       <path id="DejaVuSans-65" d="M 3597 1894 
L 3597 1613 
L 953 1613 
Q 991 1019 1311 708 
Q 1631 397 2203 397 
Q 2534 397 2845 478 
Q 3156 559 3463 722 
L 3463 178 
Q 3153 47 2828 -22 
Q 2503 -91 2169 -91 
Q 1331 -91 842 396 
Q 353 884 353 1716 
Q 353 2575 817 3079 
Q 1281 3584 2069 3584 
Q 2775 3584 3186 3129 
Q 3597 2675 3597 1894 
z
M 3022 2063 
Q 3016 2534 2758 2815 
Q 2500 3097 2075 3097 
Q 1594 3097 1305 2825 
Q 1016 2553 972 2059 
L 3022 2063 
z
" transform="scale(0.015625)"/>
       <path id="DejaVuSans-20" transform="scale(0.015625)"/>
       <path id="DejaVuSans-28" d="M 1984 4856 
Q 1566 4138 1362 3434 
Q 1159 2731 1159 2009 
Q 1159 1288 1364 580 
Q 1569 -128 1984 -844 
L 1484 -844 
Q 1016 -109 783 600 
Q 550 1309 550 2009 
Q 550 2706 781 3412 
Q 1013 4119 1484 4856 
L 1984 4856 
z
" transform="scale(0.015625)"/>
       <path id="DejaVuSans-6d" d="M 3328 2828 
Q 3544 3216 3844 3400 
Q 4144 3584 4550 3584 
Q 5097 3584 5394 3201 
Q 5691 2819 5691 2113 
L 5691 0 
L 5113 0 
L 5113 2094 
Q 5113 2597 4934 2840 
Q 4756 3084 4391 3084 
Q 3944 3084 3684 2787 
Q 3425 2491 3425 1978 
L 3425 0 
L 2847 0 
L 2847 2094 
Q 2847 2600 2669 2842 
Q 2491 3084 2119 3084 
Q 1678 3084 1418 2786 
Q 1159 2488 1159 1978 
L 1159 0 
L 581 0 
L 581 3500 
L 1159 3500 
L 1159 2956 
Q 1356 3278 1631 3431 
Q 1906 3584 2284 3584 
Q 2666 3584 2933 3390 
Q 3200 3197 3328 2828 
z
" transform="scale(0.015625)"/>
       <path id="DejaVuSans-29" d="M 513 4856 
L 1013 4856 
Q 1481 4119 1714 3412 
Q 1947 2706 1947 2009 
Q 1947 1309 1714 600 
Q 1481 -109 1013 -844 
L 513 -844 
Q 928 -128 1133 580 
Q 1338 1288 1338 2009 
Q 1338 2731 1133 3434 
Q 928 4138 513 4856 
z
" transform="scale(0.015625)"/>
      </defs>
      <use xlink:href="#DejaVuSans-44"/>
      <use xlink:href="#DejaVuSans-69" transform="translate(77.001953 0)"/>
      <use xlink:href="#DejaVuSans-73" transform="translate(104.785156 0)"/>
      <use xlink:href="#DejaVuSans-74" transform="translate(156.884766 0)"/>
      <use xlink:href="#DejaVuSans-61" transform="translate(196.09375 0)"/>
      <use xlink:href="#DejaVuSans-6e" transform="translate(257.373047 0)"/>
      <use xlink:href="#DejaVuSans-63" transform="translate(320.751953 0)"/>
      <use xlink:href="#DejaVuSans-65" transform="translate(375.732422 0)"/>
      <use xlink:href="#DejaVuSans-20" transform="translate(437.255859 0)"/>
      <use xlink:href="#DejaVuSans-28" transform="translate(469.042969 0)"/>
      <use xlink:href="#DejaVuSans-6d" transform="translate(508.056641 0)"/>
      <use xlink:href="#DejaVuSans-29" transform="translate(605.46875 0)"/>
     </g>
    </g>
   </g>
   <g id="matplotlib.axis_2">
    <g id="ytick_1">
     <g id="line2d_13">
      <path d="M 57.6 303.564314 
L 414.72 303.564314 
" clip-path="url(#paba76392fc)" style="fill: none; stroke: #b0b0b0; stroke-width: 0.8; stroke-linecap: square"/>
     </g>
     <g id="line2d_14">
      <defs>
       <path id="m5de2bf8ec6" d="M 0 0 
L -3.5 0 
" style="stroke: #000000; stroke-width: 0.8"/>
      </defs>
      <g>
       <use xlink:href="#m5de2bf8ec6" x="57.6" y="303.564314" style="stroke: #000000; stroke-width: 0.8"/>
      </g>
     </g>
     <g id="text_8">
      <!-- −0.06 -->
      <g transform="translate(19.954687 307.363532) scale(0.1 -0.1)">
       <defs>
        <path id="DejaVuSans-2212" d="M 678 2272 
L 4684 2272 
L 4684 1741 
L 678 1741 
L 678 2272 
z
" transform="scale(0.015625)"/>
        <path id="DejaVuSans-2e" d="M 684 794 
L 1344 794 
L 1344 0 
L 684 0 
L 684 794 
z
" transform="scale(0.015625)"/>
        <path id="DejaVuSans-36" d="M 2113 2584 
Q 1688 2584 1439 2293 
Q 1191 2003 1191 1497 
Q 1191 994 1439 701 
Q 1688 409 2113 409 
Q 2538 409 2786 701 
Q 3034 994 3034 1497 
Q 3034 2003 2786 2293 
Q 2538 2584 2113 2584 
z
M 3366 4563 
L 3366 3988 
Q 3128 4100 2886 4159 
Q 2644 4219 2406 4219 
Q 1781 4219 1451 3797 
Q 1122 3375 1075 2522 
Q 1259 2794 1537 2939 
Q 1816 3084 2150 3084 
Q 2853 3084 3261 2657 
Q 3669 2231 3669 1497 
Q 3669 778 3244 343 
Q 2819 -91 2113 -91 
Q 1303 -91 875 529 
Q 447 1150 447 2328 
Q 447 3434 972 4092 
Q 1497 4750 2381 4750 
Q 2619 4750 2861 4703 
Q 3103 4656 3366 4563 
z
" transform="scale(0.015625)"/>
       </defs>
       <use xlink:href="#DejaVuSans-2212"/>
       <use xlink:href="#DejaVuSans-30" transform="translate(83.789062 0)"/>
       <use xlink:href="#DejaVuSans-2e" transform="translate(147.412109 0)"/>
       <use xlink:href="#DejaVuSans-30" transform="translate(179.199219 0)"/>
       <use xlink:href="#DejaVuSans-36" transform="translate(242.822266 0)"/>
      </g>
     </g>
    </g>
    <g id="ytick_2">
     <g id="line2d_15">
      <path d="M 57.6 267.854174 
L 414.72 267.854174 
" clip-path="url(#paba76392fc)" style="fill: none; stroke: #b0b0b0; stroke-width: 0.8; stroke-linecap: square"/>
     </g>
     <g id="line2d_16">
      <g>
       <use xlink:href="#m5de2bf8ec6" x="57.6" y="267.854174" style="stroke: #000000; stroke-width: 0.8"/>
      </g>
     </g>
     <g id="text_9">
      <!-- −0.04 -->
      <g transform="translate(19.954687 271.653393) scale(0.1 -0.1)">
       <use xlink:href="#DejaVuSans-2212"/>
       <use xlink:href="#DejaVuSans-30" transform="translate(83.789062 0)"/>
       <use xlink:href="#DejaVuSans-2e" transform="translate(147.412109 0)"/>
       <use xlink:href="#DejaVuSans-30" transform="translate(179.199219 0)"/>
       <use xlink:href="#DejaVuSans-34" transform="translate(242.822266 0)"/>
      </g>
     </g>
    </g>
    <g id="ytick_3">
     <g id="line2d_17">
      <path d="M 57.6 232.144034 
L 414.72 232.144034 
" clip-path="url(#paba76392fc)" style="fill: none; stroke: #b0b0b0; stroke-width: 0.8; stroke-linecap: square"/>
     </g>
     <g id="line2d_18">
      <g>
       <use xlink:href="#m5de2bf8ec6" x="57.6" y="232.144034" style="stroke: #000000; stroke-width: 0.8"/>
      </g>
     </g>
     <g id="text_10">
      <!-- −0.02 -->
      <g transform="translate(19.954687 235.943253) scale(0.1 -0.1)">
       <use xlink:href="#DejaVuSans-2212"/>
       <use xlink:href="#DejaVuSans-30" transform="translate(83.789062 0)"/>
       <use xlink:href="#DejaVuSans-2e" transform="translate(147.412109 0)"/>
       <use xlink:href="#DejaVuSans-30" transform="translate(179.199219 0)"/>
       <use xlink:href="#DejaVuSans-32" transform="translate(242.822266 0)"/>
      </g>
     </g>
    </g>
    <g id="ytick_4">
     <g id="line2d_19">
      <path d="M 57.6 196.433894 
L 414.72 196.433894 
" clip-path="url(#paba76392fc)" style="fill: none; stroke: #b0b0b0; stroke-width: 0.8; stroke-linecap: square"/>
     </g>
     <g id="line2d_20">
      <g>
       <use xlink:href="#m5de2bf8ec6" x="57.6" y="196.433894" style="stroke: #000000; stroke-width: 0.8"/>
      </g>
     </g>
     <g id="text_11">
      <!-- 0.00 -->
      <g transform="translate(28.334375 200.233113) scale(0.1 -0.1)">
       <use xlink:href="#DejaVuSans-30"/>
       <use xlink:href="#DejaVuSans-2e" transform="translate(63.623047 0)"/>
       <use xlink:href="#DejaVuSans-30" transform="translate(95.410156 0)"/>
       <use xlink:href="#DejaVuSans-30" transform="translate(159.033203 0)"/>
      </g>
     </g>
    </g>
    <g id="ytick_5">
     <g id="line2d_21">
      <path d="M 57.6 160.723754 
L 414.72 160.723754 
" clip-path="url(#paba76392fc)" style="fill: none; stroke: #b0b0b0; stroke-width: 0.8; stroke-linecap: square"/>
     </g>
     <g id="line2d_22">
      <g>
       <use xlink:href="#m5de2bf8ec6" x="57.6" y="160.723754" style="stroke: #000000; stroke-width: 0.8"/>
      </g>
     </g>
     <g id="text_12">
      <!-- 0.02 -->
      <g transform="translate(28.334375 164.522973) scale(0.1 -0.1)">
       <use xlink:href="#DejaVuSans-30"/>
       <use xlink:href="#DejaVuSans-2e" transform="translate(63.623047 0)"/>
       <use xlink:href="#DejaVuSans-30" transform="translate(95.410156 0)"/>
       <use xlink:href="#DejaVuSans-32" transform="translate(159.033203 0)"/>
      </g>
     </g>
    </g>
    <g id="ytick_6">
     <g id="line2d_23">
      <path d="M 57.6 125.013614 
L 414.72 125.013614 
" clip-path="url(#paba76392fc)" style="fill: none; stroke: #b0b0b0; stroke-width: 0.8; stroke-linecap: square"/>
     </g>
     <g id="line2d_24">
      <g>
       <use xlink:href="#m5de2bf8ec6" x="57.6" y="125.013614" style="stroke: #000000; stroke-width: 0.8"/>
      </g>
     </g>
     <g id="text_13">
      <!-- 0.04 -->
      <g transform="translate(28.334375 128.812833) scale(0.1 -0.1)">
       <use xlink:href="#DejaVuSans-30"/>
       <use xlink:href="#DejaVuSans-2e" transform="translate(63.623047 0)"/>
       <use xlink:href="#DejaVuSans-30" transform="translate(95.410156 0)"/>
       <use xlink:href="#DejaVuSans-34" transform="translate(159.033203 0)"/>
      </g>
     </g>
    </g>
    <g id="ytick_7">
     <g id="line2d_25">
      <path d="M 57.6 89.303475 
L 414.72 89.303475 
" clip-path="url(#paba76392fc)" style="fill: none; stroke: #b0b0b0; stroke-width: 0.8; stroke-linecap: square"/>
     </g>
     <g id="line2d_26">
      <g>
       <use xlink:href="#m5de2bf8ec6" x="57.6" y="89.303475" style="stroke: #000000; stroke-width: 0.8"/>
      </g>
     </g>
     <g id="text_14">
      <!-- 0.06 -->
      <g transform="translate(28.334375 93.102693) scale(0.1 -0.1)">
       <use xlink:href="#DejaVuSans-30"/>
       <use xlink:href="#DejaVuSans-2e" transform="translate(63.623047 0)"/>
       <use xlink:href="#DejaVuSans-30" transform="translate(95.410156 0)"/>
       <use xlink:href="#DejaVuSans-36" transform="translate(159.033203 0)"/>
      </g>
     </g>
    </g>
    <g id="ytick_8">
     <g id="line2d_27">
      <path d="M 57.6 53.593335 
L 414.72 53.593335 
" clip-path="url(#paba76392fc)" style="fill: none; stroke: #b0b0b0; stroke-width: 0.8; stroke-linecap: square"/>
     </g>
     <g id="line2d_28">
      <g>
       <use xlink:href="#m5de2bf8ec6" x="57.6" y="53.593335" style="stroke: #000000; stroke-width: 0.8"/>
      </g>
     </g>
     <g id="text_15">
      <!-- 0.08 -->
      <g transform="translate(28.334375 57.392554) scale(0.1 -0.1)">
       <defs>
        <path id="DejaVuSans-38" d="M 2034 2216 
Q 1584 2216 1326 1975 
Q 1069 1734 1069 1313 
Q 1069 891 1326 650 
Q 1584 409 2034 409 
Q 2484 409 2743 651 
Q 3003 894 3003 1313 
Q 3003 1734 2745 1975 
Q 2488 2216 2034 2216 
z
M 1403 2484 
Q 997 2584 770 2862 
Q 544 3141 544 3541 
Q 544 4100 942 4425 
Q 1341 4750 2034 4750 
Q 2731 4750 3128 4425 
Q 3525 4100 3525 3541 
Q 3525 3141 3298 2862 
Q 3072 2584 2669 2484 
Q 3125 2378 3379 2068 
Q 3634 1759 3634 1313 
Q 3634 634 3220 271 
Q 2806 -91 2034 -91 
Q 1263 -91 848 271 
Q 434 634 434 1313 
Q 434 1759 690 2068 
Q 947 2378 1403 2484 
z
M 1172 3481 
Q 1172 3119 1398 2916 
Q 1625 2713 2034 2713 
Q 2441 2713 2670 2916 
Q 2900 3119 2900 3481 
Q 2900 3844 2670 4047 
Q 2441 4250 2034 4250 
Q 1625 4250 1398 4047 
Q 1172 3844 1172 3481 
z
" transform="scale(0.015625)"/>
       </defs>
       <use xlink:href="#DejaVuSans-30"/>
       <use xlink:href="#DejaVuSans-2e" transform="translate(63.623047 0)"/>
       <use xlink:href="#DejaVuSans-30" transform="translate(95.410156 0)"/>
       <use xlink:href="#DejaVuSans-38" transform="translate(159.033203 0)"/>
      </g>
     </g>
    </g>
    <g id="text_16">
     <!-- Curvature (1/m) -->
     <g transform="translate(13.875 214.642063) rotate(-90) scale(0.1 -0.1)">
      <defs>
       <path id="DejaVuSans-43" d="M 4122 4306 
L 4122 3641 
Q 3803 3938 3442 4084 
Q 3081 4231 2675 4231 
Q 1875 4231 1450 3742 
Q 1025 3253 1025 2328 
Q 1025 1406 1450 917 
Q 1875 428 2675 428 
Q 3081 428 3442 575 
Q 3803 722 4122 1019 
L 4122 359 
Q 3791 134 3420 21 
Q 3050 -91 2638 -91 
Q 1578 -91 968 557 
Q 359 1206 359 2328 
Q 359 3453 968 4101 
Q 1578 4750 2638 4750 
Q 3056 4750 3426 4639 
Q 3797 4528 4122 4306 
z
" transform="scale(0.015625)"/>
       <path id="DejaVuSans-75" d="M 544 1381 
L 544 3500 
L 1119 3500 
L 1119 1403 
Q 1119 906 1312 657 
Q 1506 409 1894 409 
Q 2359 409 2629 706 
Q 2900 1003 2900 1516 
L 2900 3500 
L 3475 3500 
L 3475 0 
L 2900 0 
L 2900 538 
Q 2691 219 2414 64 
Q 2138 -91 1772 -91 
Q 1169 -91 856 284 
Q 544 659 544 1381 
z
M 1991 3584 
L 1991 3584 
z
" transform="scale(0.015625)"/>
       <path id="DejaVuSans-72" d="M 2631 2963 
Q 2534 3019 2420 3045 
Q 2306 3072 2169 3072 
Q 1681 3072 1420 2755 
Q 1159 2438 1159 1844 
L 1159 0 
L 581 0 
L 581 3500 
L 1159 3500 
L 1159 2956 
Q 1341 3275 1631 3429 
Q 1922 3584 2338 3584 
Q 2397 3584 2469 3576 
Q 2541 3569 2628 3553 
L 2631 2963 
z
" transform="scale(0.015625)"/>
       <path id="DejaVuSans-76" d="M 191 3500 
L 800 3500 
L 1894 563 
L 2988 3500 
L 3597 3500 
L 2284 0 
L 1503 0 
L 191 3500 
z
" transform="scale(0.015625)"/>
       <path id="DejaVuSans-2f" d="M 1625 4666 
L 2156 4666 
L 531 -594 
L 0 -594 
L 1625 4666 
z
" transform="scale(0.015625)"/>
      </defs>
      <use xlink:href="#DejaVuSans-43"/>
      <use xlink:href="#DejaVuSans-75" transform="translate(69.824219 0)"/>
      <use xlink:href="#DejaVuSans-72" transform="translate(133.203125 0)"/>
      <use xlink:href="#DejaVuSans-76" transform="translate(174.316406 0)"/>
      <use xlink:href="#DejaVuSans-61" transform="translate(233.496094 0)"/>
      <use xlink:href="#DejaVuSans-74" transform="translate(294.775391 0)"/>
      <use xlink:href="#DejaVuSans-75" transform="translate(333.984375 0)"/>
      <use xlink:href="#DejaVuSans-72" transform="translate(397.363281 0)"/>
      <use xlink:href="#DejaVuSans-65" transform="translate(436.226562 0)"/>
      <use xlink:href="#DejaVuSans-20" transform="translate(497.75 0)"/>
      <use xlink:href="#DejaVuSans-28" transform="translate(529.537109 0)"/>
      <use xlink:href="#DejaVuSans-31" transform="translate(568.550781 0)"/>
      <use xlink:href="#DejaVuSans-2f" transform="translate(632.173828 0)"/>
      <use xlink:href="#DejaVuSans-6d" transform="translate(665.865234 0)"/>
      <use xlink:href="#DejaVuSans-29" transform="translate(763.277344 0)"/>
     </g>
    </g>
   </g>
   <g id="line2d_29">
    <path d="M 73.832727 196.660952 
L 74.673573 196.180535 
L 75.617273 195.889602 
L 77.021176 195.730898 
L 79.089694 195.829475 
L 79.639382 196.050078 
L 80.100084 196.291863 
L 81.495402 196.609316 
L 88.735856 196.451646 
L 89.728572 196.824697 
L 90.225155 197.164582 
L 90.922758 197.76775 
L 91.320916 197.735942 
L 92.305203 197.27291 
L 92.868356 196.524324 
L 93.13642 195.745908 
L 93.476531 193.760778 
L 93.872423 189.791047 
L 94.300561 183.166207 
L 95.120429 166.171853 
L 95.487142 160.636425 
L 95.792283 159.078273 
L 95.853041 159.033311 
L 95.913679 159.116353 
L 96.09479 159.688059 
L 96.570502 162.497122 
L 97.202272 166.773671 
L 97.984681 172.572569 
L 98.152407 172.966035 
L 98.433443 174.000691 
L 98.717161 175.905165 
L 100.806015 190.106611 
L 101.25084 190.138904 
L 101.777336 190.774055 
L 102.314931 191.273693 
L 102.7942 191.803318 
L 103.213491 192.736202 
L 104.230282 195.475066 
L 104.907106 195.573703 
L 105.363184 195.492516 
L 105.746496 195.470518 
L 105.90089 195.302346 
L 105.978334 195.354209 
L 106.604334 194.461565 
L 107.162375 193.211736 
L 107.485552 192.605845 
L 107.811694 192.270773 
L 108.140619 191.40783 
L 108.889832 188.659551 
L 111.011456 179.404574 
L 111.18274 179.261674 
L 111.354298 179.318256 
L 111.526187 179.64029 
L 112.390398 182.762202 
L 112.822735 184.353723 
L 113.254357 184.971197 
L 113.60202 185.226047 
L 113.865093 185.188003 
L 114.041367 184.850939 
L 114.749974 183.268446 
L 115.01579 182.997523 
L 115.193051 183.164078 
L 115.459326 183.884781 
L 115.81572 185.637676 
L 116.534691 191.247602 
L 117.352157 197.195575 
L 117.809748 199.085356 
L 118.361857 200.059889 
L 119.10208 201.287278 
L 119.473758 202.840651 
L 120.033076 206.507254 
L 121.247968 215.040157 
L 121.52822 215.887024 
L 121.714987 215.974584 
L 121.901713 215.670637 
L 122.181753 214.56252 
L 123.582833 208.050685 
L 123.956996 207.595257 
L 124.144222 207.615206 
L 124.425306 207.99994 
L 125.271068 210.351824 
L 125.742855 211.640992 
L 125.931779 211.481926 
L 126.970469 208.663463 
L 127.159316 208.225093 
L 128.389044 204.500897 
L 131.248494 198.319652 
L 131.821431 197.828735 
L 135.400215 194.895241 
L 136.968756 194.179443 
L 139.134788 192.594397 
L 139.62771 192.58971 
L 140.124809 192.806939 
L 141.320003 193.744752 
L 142.320535 194.483346 
L 143.524203 195.008046 
L 144.227302 195.214974 
L 144.629956 195.177823 
L 145.334625 194.890382 
L 146.039028 194.857745 
L 146.847594 194.926289 
L 147.456171 195.199205 
L 148.166529 195.839801 
L 148.774486 196.279551 
L 149.281499 196.386078 
L 150.809541 196.294177 
L 152.754376 196.110237 
L 153.472905 195.8245 
L 156.22051 194.309346 
L 156.916324 192.92459 
L 157.25987 191.495931 
L 157.645564 188.631953 
L 158.189345 182.221331 
L 159.035324 172.732548 
L 159.440913 170.233335 
L 159.81605 170.880315 
L 160.036209 167.578141 
L 160.412213 157.373491 
L 161.082945 138.038534 
L 161.353556 134.628341 
L 161.430641 134.384174 
L 161.469008 134.45766 
L 161.620402 135.178027 
L 161.657632 135.152304 
L 161.768002 134.401861 
L 162.086755 131.573987 
L 162.189107 131.49053 
L 162.222941 131.553083 
L 162.391024 132.208195 
L 162.661364 134.875337 
L 162.902471 140.001799 
L 163.403015 153.044466 
L 163.701851 158.405568 
L 164.188762 167.186937 
L 164.410175 168.219465 
L 164.732531 170.106779 
L 165.605045 180.380875 
L 165.924122 185.237076 
L 166.548091 193.860249 
L 166.966614 195.005296 
L 167.271848 195.245046 
L 167.582597 195.678906 
L 167.772757 195.736369 
L 168.097066 195.760875 
L 168.83955 195.466175 
L 170.774314 197.087088 
L 171.302912 197.052734 
L 172.154464 197.157467 
L 172.70779 197.373836 
L 173.185931 197.307483 
L 173.830603 197.262064 
L 176.428909 197.498846 
L 178.90556 197.277166 
L 179.444035 197.123168 
L 180.5375 196.929852 
L 182.2033 196.496901 
L 184.76355 196.212769 
L 185.630237 196.025243 
L 186.99027 195.995177 
L 187.485359 196.1263 
L 187.783751 196.056541 
L 188.581436 195.74997 
L 189.082008 195.533419 
L 190.192577 195.539558 
L 190.804719 195.807259 
L 191.418087 196.368887 
L 192.031084 196.867394 
L 192.850593 197.023654 
L 193.262216 196.998057 
L 194.718202 197.012614 
L 195.033217 196.940714 
L 196.718853 197.066664 
L 197.141688 196.978219 
L 197.777046 196.806593 
L 198.41437 196.512437 
L 199.699317 196.357686 
L 201.85929 196.415909 
L 204.139362 196.273466 
L 205.011694 196.477312 
L 206.104427 196.551672 
L 206.761088 196.473963 
L 208.516991 196.28408 
L 209.616243 196.33897 
L 210.276761 196.351401 
L 211.604982 196.354874 
L 212.604459 196.565681 
L 214.274823 197.044836 
L 216.619579 197.383685 
L 217.516296 197.173321 
L 218.415111 196.818518 
L 219.651559 196.412251 
L 220.551298 196.358234 
L 221.791582 196.344936 
L 222.242801 196.29354 
L 223.257308 196.129641 
L 223.709146 196.060055 
L 225.854092 196.038953 
L 226.867146 195.663669 
L 227.551983 195.477672 
L 227.897436 195.424901 
L 228.127551 195.287792 
L 228.916448 194.161956 
L 229.44235 193.91869 
L 229.928509 194.015958 
L 230.486524 194.465198 
L 230.671289 194.79845 
L 231.031301 195.73507 
L 231.520429 196.382641 
L 231.827643 196.772543 
L 231.981698 196.735405 
L 232.990235 193.792086 
L 233.503334 191.691875 
L 233.695194 188.837429 
L 234.014134 179.975056 
L 234.43037 169.003545 
L 235.23346 157.502253 
L 235.400713 157.748912 
L 235.433153 157.721543 
L 235.497079 157.724525 
L 235.559836 157.374709 
L 235.590816 157.451272 
L 235.771719 159.053171 
L 235.85915 158.824512 
L 235.973221 156.35376 
L 236.195725 149.304691 
L 236.223104 149.881638 
L 236.331461 154.475737 
L 236.384844 156.427822 
L 236.437613 154.802951 
L 236.566444 137.895442 
L 237.136687 53.946277 
L 237.159887 53.568 
L 237.18313 54.103771 
L 237.276601 65.172451 
L 237.49046 132.570693 
L 237.735912 175.719343 
L 237.994958 194.80497 
L 238.102609 197.309448 
L 238.157507 196.431836 
L 238.242026 194.386639 
L 238.300296 194.489442 
L 238.360553 194.852311 
L 238.48712 197.74265 
L 238.818162 213.621691 
L 239.657487 258.2088 
L 240.049813 267.490752 
L 240.371187 270.540537 
L 240.479101 270.641683 
L 240.551331 270.277736 
L 240.880469 265.508946 
L 241.029677 265.857975 
L 241.104999 265.999148 
L 241.142842 265.868339 
L 241.257125 264.441317 
L 241.450203 258.678254 
L 241.887732 235.932101 
L 242.584264 200.432714 
L 242.825991 195.976647 
L 242.875992 195.839132 
L 242.92648 195.938669 
L 243.343095 197.583517 
L 243.502488 197.52473 
L 243.608836 197.385991 
L 244.263384 196.358078 
L 245.47244 195.090108 
L 247.166617 191.76846 
L 248.172049 190.777197 
L 248.390479 190.932841 
L 248.756672 191.014296 
L 249.127921 191.010346 
L 249.659692 191.291889 
L 250.441269 191.832506 
L 251.407916 192.329507 
L 251.983143 192.481588 
L 252.231866 192.559035 
L 252.398329 192.551421 
L 252.900965 192.049842 
L 253.154597 192.20093 
L 253.410078 192.419937 
L 254.536188 195.567973 
L 255.064952 196.380288 
L 255.242449 196.642855 
L 255.688925 197.358 
L 256.139308 197.724014 
L 256.320541 197.641907 
L 256.593528 197.173309 
L 257.14352 196.102758 
L 257.791845 195.585313 
L 257.978385 195.57701 
L 258.353167 195.235509 
L 259.297306 194.51771 
L 259.865587 194.943566 
L 260.916312 196.202403 
L 261.400762 196.425346 
L 262.18105 196.531031 
L 264.244158 196.315594 
L 265.242625 196.798711 
L 265.948468 196.738026 
L 266.866396 196.616425 
L 269.024864 196.364734 
L 270.592723 196.66781 
L 271.545399 196.173799 
L 272.497299 195.612424 
L 273.877384 194.627749 
L 274.518896 194.442533 
L 275.485247 194.309822 
L 276.239939 194.078235 
L 276.996449 194.219852 
L 277.861949 194.211828 
L 280.146428 193.959288 
L 281.680422 193.312207 
L 282.670245 192.913309 
L 283.329573 192.856726 
L 284.100055 193.049688 
L 287.64997 195.120232 
L 289.208706 195.962268 
L 289.877912 196.064182 
L 290.883294 195.935278 
L 291.217914 195.904722 
L 292.114157 195.82647 
L 292.564953 195.707119 
L 293.453127 195.651084 
L 293.880087 195.363531 
L 294.691258 194.545099 
L 294.978676 193.660409 
L 295.256194 192.179029 
L 295.871758 187.123027 
L 297.006702 175.661446 
L 297.612414 170.718228 
L 298.05697 168.606521 
L 298.495971 167.942896 
L 298.640198 167.784388 
L 298.854051 167.649751 
L 299.064875 167.857032 
L 299.272264 169.131375 
L 299.609845 170.914919 
L 299.808585 171.339609 
L 299.939914 171.392292 
L 300.070479 170.968803 
L 300.265155 169.601077 
L 300.650615 163.22286 
L 301.647782 147.388162 
L 301.891635 146.152813 
L 302.013489 146.365821 
L 302.196376 147.434732 
L 302.56308 149.811961 
L 303.304013 154.109524 
L 303.491254 154.681126 
L 303.679382 155.955351 
L 304.185634 161.610825 
L 305.284028 177.069446 
L 305.618051 179.003837 
L 305.82141 179.339927 
L 306.026753 179.129201 
L 306.303318 178.10231 
L 306.86478 174.540528 
L 308.160152 164.443419 
L 308.526833 162.888146 
L 308.969048 161.984782 
L 309.191331 161.761909 
L 309.340284 161.806444 
L 309.565236 162.214174 
L 309.868674 163.266074 
L 310.330695 165.852714 
L 311.427767 173.125586 
L 313.430903 188.15812 
L 314.426441 193.125563 
L 315.007227 195.106642 
L 315.342896 195.544738 
L 315.596802 195.528095 
L 317.495941 193.474277 
L 317.759116 193.42095 
L 318.111419 193.624851 
L 318.465219 194.210264 
L 318.909515 194.83579 
L 320.627506 196.822236 
L 321.270886 197.600147 
L 321.82544 198.138027 
L 322.473232 198.867028 
L 322.844289 199.549467 
L 323.592342 201.632312 
L 323.968304 203.289847 
L 325.00544 208.160818 
L 325.289153 208.768331 
L 325.57325 208.945977 
L 326.332841 208.665752 
L 326.618619 208.201868 
L 327.958864 205.286389 
L 328.246136 204.986097 
L 328.533455 204.961294 
L 329.30135 204.957197 
L 329.783674 204.797467 
L 330.171063 204.636616 
L 330.558946 204.826811 
L 331.527594 206.62526 
L 332.879885 210.634479 
L 333.364178 211.839124 
L 333.753806 212.259533 
L 334.047579 212.313902 
L 334.340823 212.118888 
L 334.630776 211.631946 
L 335.007483 210.687378 
L 335.629358 208.245486 
L 336.464338 205.04406 
L 337.583451 202.921545 
L 337.725952 202.871644 
L 337.86424 202.906905 
L 338.130459 203.338632 
L 338.569102 205.064485 
L 340.214776 213.652369 
L 340.73549 218.870362 
L 341.273243 227.44779 
L 341.62302 239.179283 
L 342.575844 295.488 
L 342.646233 294.412441 
L 342.822621 285.002759 
L 343.791164 217.210738 
L 343.982854 213.177961 
L 344.178431 211.123058 
L 344.383396 204.34221 
L 345.125959 177.086335 
L 345.773911 161.310004 
L 346.084497 157.219299 
L 346.594467 155.482474 
L 346.695208 155.369199 
L 346.74541 155.422403 
L 346.995005 156.734635 
L 348.668025 169.224706 
L 348.91692 169.468372 
L 349.118137 169.118993 
L 349.270335 168.914826 
L 349.372345 168.995559 
L 349.526052 169.509243 
L 349.784024 171.487901 
L 350.914069 182.887017 
L 351.139321 183.177677 
L 351.429057 183.455675 
L 351.606765 183.270934 
L 351.966411 182.311418 
L 352.444289 180.463184 
L 353.805989 174.718381 
L 353.964819 174.633945 
L 354.488671 170.88104 
L 355.728035 162.173582 
L 355.87957 162.168084 
L 356.031854 162.48476 
L 356.390767 163.324347 
L 356.494303 163.280485 
L 356.59835 162.904263 
L 356.65058 162.926703 
L 356.808169 163.124039 
L 357.020727 163.705946 
L 357.928355 167.409355 
L 358.228833 169.718241 
L 358.843189 177.063038 
L 359.54756 184.710787 
L 360.150709 189.021194 
L 360.559636 190.791994 
L 361.472186 193.72678 
L 362.197595 196.507344 
L 362.719256 197.681532 
L 363.10173 198.062845 
L 363.413051 198.096121 
L 363.886592 197.848934 
L 364.445328 197.302079 
L 365.58065 196.618942 
L 366.824471 195.214771 
L 366.99287 195.339998 
L 367.246613 195.91225 
L 367.758011 198.21824 
L 368.447539 201.145602 
L 368.881707 202.103119 
L 369.055808 202.433851 
L 369.317434 203.259539 
L 369.755106 205.806107 
L 370.638745 210.924615 
L 371.618581 215.219656 
L 371.974893 215.950298 
L 372.153407 216.051538 
L 372.422048 215.836044 
L 372.691962 215.290674 
L 373.687345 212.772255 
L 374.049825 212.315574 
L 374.502865 211.008217 
L 374.955933 208.986109 
L 375.680625 204.418151 
L 376.133343 201.949863 
L 376.496093 200.779881 
L 376.859999 200.416152 
L 377.407815 200.358879 
L 378.505298 199.024108 
L 378.779912 198.626776 
L 379.422444 197.80402 
L 379.606746 197.914438 
L 379.883893 198.453445 
L 380.254652 199.686212 
L 380.720456 202.04965 
L 381.666251 206.629888 
L 382.137881 208.112843 
L 382.590834 208.991682 
L 382.930721 209.408936 
L 383.171829 209.270554 
L 383.624896 208.715251 
L 383.768428 208.734793 
L 384.178345 209.383372 
L 384.436798 210.22358 
L 384.987932 211.777136 
L 385.330205 212.197535 
L 385.438422 212.078797 
L 385.749763 210.601807 
L 386.104579 208.989802 
L 386.154877 209.02802 
L 386.304447 210.182117 
L 386.596331 216.491337 
L 386.970147 223.636651 
L 387.107083 223.655752 
L 387.1978 223.358614 
L 387.736834 218.882082 
L 387.914302 217.790735 
L 388.046699 219.025721 
L 388.222321 223.314875 
L 388.483675 236.984922 
L 388.878162 257.092225 
L 389.011968 258.881573 
L 389.05687 258.864205 
L 389.192547 257.031947 
L 389.562184 245.86085 
L 390.391765 215.56243 
L 390.756215 210.649603 
L 392.124385 200.609581 
L 392.680301 198.563904 
L 393.131383 197.664343 
L 393.39058 197.601814 
L 393.85316 197.90907 
L 394.125908 197.969221 
L 395.192202 197.504461 
L 395.780413 196.637059 
L 396.380052 195.483072 
L 397.14439 194.611334 
L 397.37738 194.605177 
L 397.612338 194.787334 
L 397.928616 195.380488 
L 398.327265 196.79546 
L 398.487273 197.60253 
L 398.487273 197.60253 
" clip-path="url(#paba76392fc)" style="fill: none; stroke: #008000; stroke-width: 1.5; stroke-linecap: square"/>
   </g>
   <g id="patch_3">
    <path d="M 57.6 307.584 
L 57.6 41.472 
" style="fill: none; stroke: #000000; stroke-width: 0.8; stroke-linejoin: miter; stroke-linecap: square"/>
   </g>
   <g id="patch_4">
    <path d="M 414.72 307.584 
L 414.72 41.472 
" style="fill: none; stroke: #000000; stroke-width: 0.8; stroke-linejoin: miter; stroke-linecap: square"/>
   </g>
   <g id="patch_5">
    <path d="M 57.6 307.584 
L 414.72 307.584 
" style="fill: none; stroke: #000000; stroke-width: 0.8; stroke-linejoin: miter; stroke-linecap: square"/>
   </g>
   <g id="patch_6">
    <path d="M 57.6 41.472 
L 414.72 41.472 
" style="fill: none; stroke: #000000; stroke-width: 0.8; stroke-linejoin: miter; stroke-linecap: square"/>
   </g>
   <g id="text_17">
    <!-- Curvature -->
    <g transform="translate(206.295 35.472) scale(0.12 -0.12)">
     <use xlink:href="#DejaVuSans-43"/>
     <use xlink:href="#DejaVuSans-75" transform="translate(69.824219 0)"/>
     <use xlink:href="#DejaVuSans-72" transform="translate(133.203125 0)"/>
     <use xlink:href="#DejaVuSans-76" transform="translate(174.316406 0)"/>
     <use xlink:href="#DejaVuSans-61" transform="translate(233.496094 0)"/>
     <use xlink:href="#DejaVuSans-74" transform="translate(294.775391 0)"/>
     <use xlink:href="#DejaVuSans-75" transform="translate(333.984375 0)"/>
     <use xlink:href="#DejaVuSans-72" transform="translate(397.363281 0)"/>
     <use xlink:href="#DejaVuSans-65" transform="translate(436.226562 0)"/>
    </g>
   </g>
   <g id="legend_1">
    <g id="patch_7">
     <path d="M 325.945 64.150125 
L 407.72 64.150125 
Q 409.72 64.150125 409.72 62.150125 
L 409.72 48.472 
Q 409.72 46.472 407.72 46.472 
L 325.945 46.472 
Q 323.945 46.472 323.945 48.472 
L 323.945 62.150125 
Q 323.945 64.150125 325.945 64.150125 
z
" style="fill: #ffffff; opacity: 0.8; stroke: #cccccc; stroke-linejoin: miter"/>
    </g>
    <g id="line2d_30">
     <path d="M 327.945 54.570438 
L 337.945 54.570438 
L 347.945 54.570438 
" style="fill: none; stroke: #008000; stroke-width: 1.5; stroke-linecap: square"/>
    </g>
    <g id="text_18">
     <!-- Curvature -->
     <g transform="translate(355.945 58.070438) scale(0.1 -0.1)">
      <use xlink:href="#DejaVuSans-43"/>
      <use xlink:href="#DejaVuSans-75" transform="translate(69.824219 0)"/>
      <use xlink:href="#DejaVuSans-72" transform="translate(133.203125 0)"/>
      <use xlink:href="#DejaVuSans-76" transform="translate(174.316406 0)"/>
      <use xlink:href="#DejaVuSans-61" transform="translate(233.496094 0)"/>
      <use xlink:href="#DejaVuSans-74" transform="translate(294.775391 0)"/>
      <use xlink:href="#DejaVuSans-75" transform="translate(333.984375 0)"/>
      <use xlink:href="#DejaVuSans-72" transform="translate(397.363281 0)"/>
      <use xlink:href="#DejaVuSans-65" transform="translate(436.226562 0)"/>
     </g>
    </g>
   </g>
  </g>
 </g>
 <defs>
  <clipPath id="paba76392fc">
   <rect x="57.6" y="41.472" width="357.12" height="266.112"/>
  </clipPath>
 </defs>
</svg>
