<?xml version="1.0" encoding="utf-8" standalone="no"?>
<!DOCTYPE svg PUBLIC "-//W3C//DTD SVG 1.1//EN"
  "http://www.w3.org/Graphics/SVG/1.1/DTD/svg11.dtd">
<svg xmlns:xlink="http://www.w3.org/1999/xlink" width="460.8pt" height="345.6pt" viewBox="0 0 460.8 345.6" xmlns="http://www.w3.org/2000/svg" version="1.1">
 <metadata>
  <rdf:RDF xmlns:dc="http://purl.org/dc/elements/1.1/" xmlns:cc="http://creativecommons.org/ns#" xmlns:rdf="http://www.w3.org/1999/02/22-rdf-syntax-ns#">
   <cc:Work>
    <dc:type rdf:resource="http://purl.org/dc/dcmitype/StillImage"/>
    <dc:date>2025-06-11T00:22:39.685884</dc:date>
    <dc:format>image/svg+xml</dc:format>
    <dc:creator>
     <cc:Agent>
      <dc:title>Matplotlib v3.10.1, https://matplotlib.org/</dc:title>
     </cc:Agent>
    </dc:creator>
   </cc:Work>
  </rdf:RDF>
 </metadata>
 <defs>
  <style type="text/css">*{stroke-linejoin: round; stroke-linecap: butt}</style>
 </defs>
 <g id="figure_1">
  <g id="patch_1">
   <path d="M 0 345.6 
L 460.8 345.6 
L 460.8 0 
L 0 0 
z
" style="fill: #ffffff"/>
  </g>
  <g id="axes_1">
   <g id="patch_2">
    <path d="M 57.6 307.584 
L 414.72 307.584 
L 414.72 41.472 
L 57.6 41.472 
z
" style="fill: #ffffff"/>
   </g>
   <g id="matplotlib.axis_1">
    <g id="xtick_1">
     <g id="line2d_1">
      <path d="M 73.823333 307.584 
L 73.823333 41.472 
" clip-path="url(#pce959dffb7)" style="fill: none; stroke: #b0b0b0; stroke-width: 0.8; stroke-linecap: square"/>
     </g>
     <g id="line2d_2">
      <defs>
       <path id="m0dfe39983a" d="M 0 0 
L 0 3.5 
" style="stroke: #000000; stroke-width: 0.8"/>
      </defs>
      <g>
       <use xlink:href="#m0dfe39983a" x="73.823333" y="307.584" style="stroke: #000000; stroke-width: 0.8"/>
      </g>
     </g>
     <g id="text_1">
      <!-- 0 -->
      <g transform="translate(70.642083 322.182437) scale(0.1 -0.1)">
       <defs>
        <path id="DejaVuSans-30" d="M 2034 4250 
Q 1547 4250 1301 3770 
Q 1056 3291 1056 2328 
Q 1056 1369 1301 889 
Q 1547 409 2034 409 
Q 2525 409 2770 889 
Q 3016 1369 3016 2328 
Q 3016 3291 2770 3770 
Q 2525 4250 2034 4250 
z
M 2034 4750 
Q 2819 4750 3233 4129 
Q 3647 3509 3647 2328 
Q 3647 1150 3233 529 
Q 2819 -91 2034 -91 
Q 1250 -91 836 529 
Q 422 1150 422 2328 
Q 422 3509 836 4129 
Q 1250 4750 2034 4750 
z
" transform="scale(0.015625)"/>
       </defs>
       <use xlink:href="#DejaVuSans-30"/>
      </g>
     </g>
    </g>
    <g id="xtick_2">
     <g id="line2d_3">
      <path d="M 136.073077 307.584 
L 136.073077 41.472 
" clip-path="url(#pce959dffb7)" style="fill: none; stroke: #b0b0b0; stroke-width: 0.8; stroke-linecap: square"/>
     </g>
     <g id="line2d_4">
      <g>
       <use xlink:href="#m0dfe39983a" x="136.073077" y="307.584" style="stroke: #000000; stroke-width: 0.8"/>
      </g>
     </g>
     <g id="text_2">
      <!-- 1000 -->
      <g transform="translate(123.348077 322.182437) scale(0.1 -0.1)">
       <defs>
        <path id="DejaVuSans-31" d="M 794 531 
L 1825 531 
L 1825 4091 
L 703 3866 
L 703 4441 
L 1819 4666 
L 2450 4666 
L 2450 531 
L 3481 531 
L 3481 0 
L 794 0 
L 794 531 
z
" transform="scale(0.015625)"/>
       </defs>
       <use xlink:href="#DejaVuSans-31"/>
       <use xlink:href="#DejaVuSans-30" transform="translate(63.623047 0)"/>
       <use xlink:href="#DejaVuSans-30" transform="translate(127.246094 0)"/>
       <use xlink:href="#DejaVuSans-30" transform="translate(190.869141 0)"/>
      </g>
     </g>
    </g>
    <g id="xtick_3">
     <g id="line2d_5">
      <path d="M 198.322822 307.584 
L 198.322822 41.472 
" clip-path="url(#pce959dffb7)" style="fill: none; stroke: #b0b0b0; stroke-width: 0.8; stroke-linecap: square"/>
     </g>
     <g id="line2d_6">
      <g>
       <use xlink:href="#m0dfe39983a" x="198.322822" y="307.584" style="stroke: #000000; stroke-width: 0.8"/>
      </g>
     </g>
     <g id="text_3">
      <!-- 2000 -->
      <g transform="translate(185.597822 322.182437) scale(0.1 -0.1)">
       <defs>
        <path id="DejaVuSans-32" d="M 1228 531 
L 3431 531 
L 3431 0 
L 469 0 
L 469 531 
Q 828 903 1448 1529 
Q 2069 2156 2228 2338 
Q 2531 2678 2651 2914 
Q 2772 3150 2772 3378 
Q 2772 3750 2511 3984 
Q 2250 4219 1831 4219 
Q 1534 4219 1204 4116 
Q 875 4013 500 3803 
L 500 4441 
Q 881 4594 1212 4672 
Q 1544 4750 1819 4750 
Q 2544 4750 2975 4387 
Q 3406 4025 3406 3419 
Q 3406 3131 3298 2873 
Q 3191 2616 2906 2266 
Q 2828 2175 2409 1742 
Q 1991 1309 1228 531 
z
" transform="scale(0.015625)"/>
       </defs>
       <use xlink:href="#DejaVuSans-32"/>
       <use xlink:href="#DejaVuSans-30" transform="translate(63.623047 0)"/>
       <use xlink:href="#DejaVuSans-30" transform="translate(127.246094 0)"/>
       <use xlink:href="#DejaVuSans-30" transform="translate(190.869141 0)"/>
      </g>
     </g>
    </g>
    <g id="xtick_4">
     <g id="line2d_7">
      <path d="M 260.572567 307.584 
L 260.572567 41.472 
" clip-path="url(#pce959dffb7)" style="fill: none; stroke: #b0b0b0; stroke-width: 0.8; stroke-linecap: square"/>
     </g>
     <g id="line2d_8">
      <g>
       <use xlink:href="#m0dfe39983a" x="260.572567" y="307.584" style="stroke: #000000; stroke-width: 0.8"/>
      </g>
     </g>
     <g id="text_4">
      <!-- 3000 -->
      <g transform="translate(247.847567 322.182437) scale(0.1 -0.1)">
       <defs>
        <path id="DejaVuSans-33" d="M 2597 2516 
Q 3050 2419 3304 2112 
Q 3559 1806 3559 1356 
Q 3559 666 3084 287 
Q 2609 -91 1734 -91 
Q 1441 -91 1130 -33 
Q 819 25 488 141 
L 488 750 
Q 750 597 1062 519 
Q 1375 441 1716 441 
Q 2309 441 2620 675 
Q 2931 909 2931 1356 
Q 2931 1769 2642 2001 
Q 2353 2234 1838 2234 
L 1294 2234 
L 1294 2753 
L 1863 2753 
Q 2328 2753 2575 2939 
Q 2822 3125 2822 3475 
Q 2822 3834 2567 4026 
Q 2313 4219 1838 4219 
Q 1578 4219 1281 4162 
Q 984 4106 628 3988 
L 628 4550 
Q 988 4650 1302 4700 
Q 1616 4750 1894 4750 
Q 2613 4750 3031 4423 
Q 3450 4097 3450 3541 
Q 3450 3153 3228 2886 
Q 3006 2619 2597 2516 
z
" transform="scale(0.015625)"/>
       </defs>
       <use xlink:href="#DejaVuSans-33"/>
       <use xlink:href="#DejaVuSans-30" transform="translate(63.623047 0)"/>
       <use xlink:href="#DejaVuSans-30" transform="translate(127.246094 0)"/>
       <use xlink:href="#DejaVuSans-30" transform="translate(190.869141 0)"/>
      </g>
     </g>
    </g>
    <g id="xtick_5">
     <g id="line2d_9">
      <path d="M 322.822312 307.584 
L 322.822312 41.472 
" clip-path="url(#pce959dffb7)" style="fill: none; stroke: #b0b0b0; stroke-width: 0.8; stroke-linecap: square"/>
     </g>
     <g id="line2d_10">
      <g>
       <use xlink:href="#m0dfe39983a" x="322.822312" y="307.584" style="stroke: #000000; stroke-width: 0.8"/>
      </g>
     </g>
     <g id="text_5">
      <!-- 4000 -->
      <g transform="translate(310.097312 322.182437) scale(0.1 -0.1)">
       <defs>
        <path id="DejaVuSans-34" d="M 2419 4116 
L 825 1625 
L 2419 1625 
L 2419 4116 
z
M 2253 4666 
L 3047 4666 
L 3047 1625 
L 3713 1625 
L 3713 1100 
L 3047 1100 
L 3047 0 
L 2419 0 
L 2419 1100 
L 313 1100 
L 313 1709 
L 2253 4666 
z
" transform="scale(0.015625)"/>
       </defs>
       <use xlink:href="#DejaVuSans-34"/>
       <use xlink:href="#DejaVuSans-30" transform="translate(63.623047 0)"/>
       <use xlink:href="#DejaVuSans-30" transform="translate(127.246094 0)"/>
       <use xlink:href="#DejaVuSans-30" transform="translate(190.869141 0)"/>
      </g>
     </g>
    </g>
    <g id="xtick_6">
     <g id="line2d_11">
      <path d="M 385.072056 307.584 
L 385.072056 41.472 
" clip-path="url(#pce959dffb7)" style="fill: none; stroke: #b0b0b0; stroke-width: 0.8; stroke-linecap: square"/>
     </g>
     <g id="line2d_12">
      <g>
       <use xlink:href="#m0dfe39983a" x="385.072056" y="307.584" style="stroke: #000000; stroke-width: 0.8"/>
      </g>
     </g>
     <g id="text_6">
      <!-- 5000 -->
      <g transform="translate(372.347056 322.182437) scale(0.1 -0.1)">
       <defs>
        <path id="DejaVuSans-35" d="M 691 4666 
L 3169 4666 
L 3169 4134 
L 1269 4134 
L 1269 2991 
Q 1406 3038 1543 3061 
Q 1681 3084 1819 3084 
Q 2600 3084 3056 2656 
Q 3513 2228 3513 1497 
Q 3513 744 3044 326 
Q 2575 -91 1722 -91 
Q 1428 -91 1123 -41 
Q 819 9 494 109 
L 494 744 
Q 775 591 1075 516 
Q 1375 441 1709 441 
Q 2250 441 2565 725 
Q 2881 1009 2881 1497 
Q 2881 1984 2565 2268 
Q 2250 2553 1709 2553 
Q 1456 2553 1204 2497 
Q 953 2441 691 2322 
L 691 4666 
z
" transform="scale(0.015625)"/>
       </defs>
       <use xlink:href="#DejaVuSans-35"/>
       <use xlink:href="#DejaVuSans-30" transform="translate(63.623047 0)"/>
       <use xlink:href="#DejaVuSans-30" transform="translate(127.246094 0)"/>
       <use xlink:href="#DejaVuSans-30" transform="translate(190.869141 0)"/>
      </g>
     </g>
    </g>
    <g id="text_7">
     <!-- Distance (m) -->
     <g transform="translate(203.936562 335.860562) scale(0.1 -0.1)">
      <defs>
       <path id="DejaVuSans-44" d="M 1259 4147 
L 1259 519 
L 2022 519 
Q 2988 519 3436 956 
Q 3884 1394 3884 2338 
Q 3884 3275 3436 3711 
Q 2988 4147 2022 4147 
L 1259 4147 
z
M 628 4666 
L 1925 4666 
Q 3281 4666 3915 4102 
Q 4550 3538 4550 2338 
Q 4550 1131 3912 565 
Q 3275 0 1925 0 
L 628 0 
L 628 4666 
z
" transform="scale(0.015625)"/>
       <path id="DejaVuSans-69" d="M 603 3500 
L 1178 3500 
L 1178 0 
L 603 0 
L 603 3500 
z
M 603 4863 
L 1178 4863 
L 1178 4134 
L 603 4134 
L 603 4863 
z
" transform="scale(0.015625)"/>
       <path id="DejaVuSans-73" d="M 2834 3397 
L 2834 2853 
Q 2591 2978 2328 3040 
Q 2066 3103 1784 3103 
Q 1356 3103 1142 2972 
Q 928 2841 928 2578 
Q 928 2378 1081 2264 
Q 1234 2150 1697 2047 
L 1894 2003 
Q 2506 1872 2764 1633 
Q 3022 1394 3022 966 
Q 3022 478 2636 193 
Q 2250 -91 1575 -91 
Q 1294 -91 989 -36 
Q 684 19 347 128 
L 347 722 
Q 666 556 975 473 
Q 1284 391 1588 391 
Q 1994 391 2212 530 
Q 2431 669 2431 922 
Q 2431 1156 2273 1281 
Q 2116 1406 1581 1522 
L 1381 1569 
Q 847 1681 609 1914 
Q 372 2147 372 2553 
Q 372 3047 722 3315 
Q 1072 3584 1716 3584 
Q 2034 3584 2315 3537 
Q 2597 3491 2834 3397 
z
" transform="scale(0.015625)"/>
       <path id="DejaVuSans-74" d="M 1172 4494 
L 1172 3500 
L 2356 3500 
L 2356 3053 
L 1172 3053 
L 1172 1153 
Q 1172 725 1289 603 
Q 1406 481 1766 481 
L 2356 481 
L 2356 0 
L 1766 0 
Q 1100 0 847 248 
Q 594 497 594 1153 
L 594 3053 
L 172 3053 
L 172 3500 
L 594 3500 
L 594 4494 
L 1172 4494 
z
" transform="scale(0.015625)"/>
       <path id="DejaVuSans-61" d="M 2194 1759 
Q 1497 1759 1228 1600 
Q 959 1441 959 1056 
Q 959 750 1161 570 
Q 1363 391 1709 391 
Q 2188 391 2477 730 
Q 2766 1069 2766 1631 
L 2766 1759 
L 2194 1759 
z
M 3341 1997 
L 3341 0 
L 2766 0 
L 2766 531 
Q 2569 213 2275 61 
Q 1981 -91 1556 -91 
Q 1019 -91 701 211 
Q 384 513 384 1019 
Q 384 1609 779 1909 
Q 1175 2209 1959 2209 
L 2766 2209 
L 2766 2266 
Q 2766 2663 2505 2880 
Q 2244 3097 1772 3097 
Q 1472 3097 1187 3025 
Q 903 2953 641 2809 
L 641 3341 
Q 956 3463 1253 3523 
Q 1550 3584 1831 3584 
Q 2591 3584 2966 3190 
Q 3341 2797 3341 1997 
z
" transform="scale(0.015625)"/>
       <path id="DejaVuSans-6e" d="M 3513 2113 
L 3513 0 
L 2938 0 
L 2938 2094 
Q 2938 2591 2744 2837 
Q 2550 3084 2163 3084 
Q 1697 3084 1428 2787 
Q 1159 2491 1159 1978 
L 1159 0 
L 581 0 
L 581 3500 
L 1159 3500 
L 1159 2956 
Q 1366 3272 1645 3428 
Q 1925 3584 2291 3584 
Q 2894 3584 3203 3211 
Q 3513 2838 3513 2113 
z
" transform="scale(0.015625)"/>
       <path id="DejaVuSans-63" d="M 3122 3366 
L 3122 2828 
Q 2878 2963 2633 3030 
Q 2388 3097 2138 3097 
Q 1578 3097 1268 2742 
Q 959 2388 959 1747 
Q 959 1106 1268 751 
Q 1578 397 2138 397 
Q 2388 397 2633 464 
Q 2878 531 3122 666 
L 3122 134 
Q 2881 22 2623 -34 
Q 2366 -91 2075 -91 
Q 1284 -91 818 406 
Q 353 903 353 1747 
Q 353 2603 823 3093 
Q 1294 3584 2113 3584 
Q 2378 3584 2631 3529 
Q 2884 3475 3122 3366 
z
" transform="scale(0.015625)"/>
       <path id="DejaVuSans-65" d="M 3597 1894 
L 3597 1613 
L 953 1613 
Q 991 1019 1311 708 
Q 1631 397 2203 397 
Q 2534 397 2845 478 
Q 3156 559 3463 722 
L 3463 178 
Q 3153 47 2828 -22 
Q 2503 -91 2169 -91 
Q 1331 -91 842 396 
Q 353 884 353 1716 
Q 353 2575 817 3079 
Q 1281 3584 2069 3584 
Q 2775 3584 3186 3129 
Q 3597 2675 3597 1894 
z
M 3022 2063 
Q 3016 2534 2758 2815 
Q 2500 3097 2075 3097 
Q 1594 3097 1305 2825 
Q 1016 2553 972 2059 
L 3022 2063 
z
" transform="scale(0.015625)"/>
       <path id="DejaVuSans-20" transform="scale(0.015625)"/>
       <path id="DejaVuSans-28" d="M 1984 4856 
Q 1566 4138 1362 3434 
Q 1159 2731 1159 2009 
Q 1159 1288 1364 580 
Q 1569 -128 1984 -844 
L 1484 -844 
Q 1016 -109 783 600 
Q 550 1309 550 2009 
Q 550 2706 781 3412 
Q 1013 4119 1484 4856 
L 1984 4856 
z
" transform="scale(0.015625)"/>
       <path id="DejaVuSans-6d" d="M 3328 2828 
Q 3544 3216 3844 3400 
Q 4144 3584 4550 3584 
Q 5097 3584 5394 3201 
Q 5691 2819 5691 2113 
L 5691 0 
L 5113 0 
L 5113 2094 
Q 5113 2597 4934 2840 
Q 4756 3084 4391 3084 
Q 3944 3084 3684 2787 
Q 3425 2491 3425 1978 
L 3425 0 
L 2847 0 
L 2847 2094 
Q 2847 2600 2669 2842 
Q 2491 3084 2119 3084 
Q 1678 3084 1418 2786 
Q 1159 2488 1159 1978 
L 1159 0 
L 581 0 
L 581 3500 
L 1159 3500 
L 1159 2956 
Q 1356 3278 1631 3431 
Q 1906 3584 2284 3584 
Q 2666 3584 2933 3390 
Q 3200 3197 3328 2828 
z
" transform="scale(0.015625)"/>
       <path id="DejaVuSans-29" d="M 513 4856 
L 1013 4856 
Q 1481 4119 1714 3412 
Q 1947 2706 1947 2009 
Q 1947 1309 1714 600 
Q 1481 -109 1013 -844 
L 513 -844 
Q 928 -128 1133 580 
Q 1338 1288 1338 2009 
Q 1338 2731 1133 3434 
Q 928 4138 513 4856 
z
" transform="scale(0.015625)"/>
      </defs>
      <use xlink:href="#DejaVuSans-44"/>
      <use xlink:href="#DejaVuSans-69" transform="translate(77.001953 0)"/>
      <use xlink:href="#DejaVuSans-73" transform="translate(104.785156 0)"/>
      <use xlink:href="#DejaVuSans-74" transform="translate(156.884766 0)"/>
      <use xlink:href="#DejaVuSans-61" transform="translate(196.09375 0)"/>
      <use xlink:href="#DejaVuSans-6e" transform="translate(257.373047 0)"/>
      <use xlink:href="#DejaVuSans-63" transform="translate(320.751953 0)"/>
      <use xlink:href="#DejaVuSans-65" transform="translate(375.732422 0)"/>
      <use xlink:href="#DejaVuSans-20" transform="translate(437.255859 0)"/>
      <use xlink:href="#DejaVuSans-28" transform="translate(469.042969 0)"/>
      <use xlink:href="#DejaVuSans-6d" transform="translate(508.056641 0)"/>
      <use xlink:href="#DejaVuSans-29" transform="translate(605.46875 0)"/>
     </g>
    </g>
   </g>
   <g id="matplotlib.axis_2">
    <g id="ytick_1">
     <g id="line2d_13">
      <path d="M 57.6 292.449697 
L 414.72 292.449697 
" clip-path="url(#pce959dffb7)" style="fill: none; stroke: #b0b0b0; stroke-width: 0.8; stroke-linecap: square"/>
     </g>
     <g id="line2d_14">
      <defs>
       <path id="m84cfa98f9a" d="M 0 0 
L -3.5 0 
" style="stroke: #000000; stroke-width: 0.8"/>
      </defs>
      <g>
       <use xlink:href="#m84cfa98f9a" x="57.6" y="292.449697" style="stroke: #000000; stroke-width: 0.8"/>
      </g>
     </g>
     <g id="text_8">
      <!-- −4 -->
      <g transform="translate(35.857813 296.248916) scale(0.1 -0.1)">
       <defs>
        <path id="DejaVuSans-2212" d="M 678 2272 
L 4684 2272 
L 4684 1741 
L 678 1741 
L 678 2272 
z
" transform="scale(0.015625)"/>
       </defs>
       <use xlink:href="#DejaVuSans-2212"/>
       <use xlink:href="#DejaVuSans-34" transform="translate(83.789062 0)"/>
      </g>
     </g>
    </g>
    <g id="ytick_2">
     <g id="line2d_15">
      <path d="M 57.6 248.445941 
L 414.72 248.445941 
" clip-path="url(#pce959dffb7)" style="fill: none; stroke: #b0b0b0; stroke-width: 0.8; stroke-linecap: square"/>
     </g>
     <g id="line2d_16">
      <g>
       <use xlink:href="#m84cfa98f9a" x="57.6" y="248.445941" style="stroke: #000000; stroke-width: 0.8"/>
      </g>
     </g>
     <g id="text_9">
      <!-- −2 -->
      <g transform="translate(35.857813 252.24516) scale(0.1 -0.1)">
       <use xlink:href="#DejaVuSans-2212"/>
       <use xlink:href="#DejaVuSans-32" transform="translate(83.789062 0)"/>
      </g>
     </g>
    </g>
    <g id="ytick_3">
     <g id="line2d_17">
      <path d="M 57.6 204.442186 
L 414.72 204.442186 
" clip-path="url(#pce959dffb7)" style="fill: none; stroke: #b0b0b0; stroke-width: 0.8; stroke-linecap: square"/>
     </g>
     <g id="line2d_18">
      <g>
       <use xlink:href="#m84cfa98f9a" x="57.6" y="204.442186" style="stroke: #000000; stroke-width: 0.8"/>
      </g>
     </g>
     <g id="text_10">
      <!-- 0 -->
      <g transform="translate(44.2375 208.241405) scale(0.1 -0.1)">
       <use xlink:href="#DejaVuSans-30"/>
      </g>
     </g>
    </g>
    <g id="ytick_4">
     <g id="line2d_19">
      <path d="M 57.6 160.438431 
L 414.72 160.438431 
" clip-path="url(#pce959dffb7)" style="fill: none; stroke: #b0b0b0; stroke-width: 0.8; stroke-linecap: square"/>
     </g>
     <g id="line2d_20">
      <g>
       <use xlink:href="#m84cfa98f9a" x="57.6" y="160.438431" style="stroke: #000000; stroke-width: 0.8"/>
      </g>
     </g>
     <g id="text_11">
      <!-- 2 -->
      <g transform="translate(44.2375 164.23765) scale(0.1 -0.1)">
       <use xlink:href="#DejaVuSans-32"/>
      </g>
     </g>
    </g>
    <g id="ytick_5">
     <g id="line2d_21">
      <path d="M 57.6 116.434676 
L 414.72 116.434676 
" clip-path="url(#pce959dffb7)" style="fill: none; stroke: #b0b0b0; stroke-width: 0.8; stroke-linecap: square"/>
     </g>
     <g id="line2d_22">
      <g>
       <use xlink:href="#m84cfa98f9a" x="57.6" y="116.434676" style="stroke: #000000; stroke-width: 0.8"/>
      </g>
     </g>
     <g id="text_12">
      <!-- 4 -->
      <g transform="translate(44.2375 120.233894) scale(0.1 -0.1)">
       <use xlink:href="#DejaVuSans-34"/>
      </g>
     </g>
    </g>
    <g id="ytick_6">
     <g id="line2d_23">
      <path d="M 57.6 72.43092 
L 414.72 72.43092 
" clip-path="url(#pce959dffb7)" style="fill: none; stroke: #b0b0b0; stroke-width: 0.8; stroke-linecap: square"/>
     </g>
     <g id="line2d_24">
      <g>
       <use xlink:href="#m84cfa98f9a" x="57.6" y="72.43092" style="stroke: #000000; stroke-width: 0.8"/>
      </g>
     </g>
     <g id="text_13">
      <!-- 6 -->
      <g transform="translate(44.2375 76.230139) scale(0.1 -0.1)">
       <defs>
        <path id="DejaVuSans-36" d="M 2113 2584 
Q 1688 2584 1439 2293 
Q 1191 2003 1191 1497 
Q 1191 994 1439 701 
Q 1688 409 2113 409 
Q 2538 409 2786 701 
Q 3034 994 3034 1497 
Q 3034 2003 2786 2293 
Q 2538 2584 2113 2584 
z
M 3366 4563 
L 3366 3988 
Q 3128 4100 2886 4159 
Q 2644 4219 2406 4219 
Q 1781 4219 1451 3797 
Q 1122 3375 1075 2522 
Q 1259 2794 1537 2939 
Q 1816 3084 2150 3084 
Q 2853 3084 3261 2657 
Q 3669 2231 3669 1497 
Q 3669 778 3244 343 
Q 2819 -91 2113 -91 
Q 1303 -91 875 529 
Q 447 1150 447 2328 
Q 447 3434 972 4092 
Q 1497 4750 2381 4750 
Q 2619 4750 2861 4703 
Q 3103 4656 3366 4563 
z
" transform="scale(0.015625)"/>
       </defs>
       <use xlink:href="#DejaVuSans-36"/>
      </g>
     </g>
    </g>
    <g id="text_14">
     <!-- Lateral Acceleration (g) -->
     <g transform="translate(29.778125 233.247531) rotate(-90) scale(0.1 -0.1)">
      <defs>
       <path id="DejaVuSans-4c" d="M 628 4666 
L 1259 4666 
L 1259 531 
L 3531 531 
L 3531 0 
L 628 0 
L 628 4666 
z
" transform="scale(0.015625)"/>
       <path id="DejaVuSans-72" d="M 2631 2963 
Q 2534 3019 2420 3045 
Q 2306 3072 2169 3072 
Q 1681 3072 1420 2755 
Q 1159 2438 1159 1844 
L 1159 0 
L 581 0 
L 581 3500 
L 1159 3500 
L 1159 2956 
Q 1341 3275 1631 3429 
Q 1922 3584 2338 3584 
Q 2397 3584 2469 3576 
Q 2541 3569 2628 3553 
L 2631 2963 
z
" transform="scale(0.015625)"/>
       <path id="DejaVuSans-6c" d="M 603 4863 
L 1178 4863 
L 1178 0 
L 603 0 
L 603 4863 
z
" transform="scale(0.015625)"/>
       <path id="DejaVuSans-41" d="M 2188 4044 
L 1331 1722 
L 3047 1722 
L 2188 4044 
z
M 1831 4666 
L 2547 4666 
L 4325 0 
L 3669 0 
L 3244 1197 
L 1141 1197 
L 716 0 
L 50 0 
L 1831 4666 
z
" transform="scale(0.015625)"/>
       <path id="DejaVuSans-6f" d="M 1959 3097 
Q 1497 3097 1228 2736 
Q 959 2375 959 1747 
Q 959 1119 1226 758 
Q 1494 397 1959 397 
Q 2419 397 2687 759 
Q 2956 1122 2956 1747 
Q 2956 2369 2687 2733 
Q 2419 3097 1959 3097 
z
M 1959 3584 
Q 2709 3584 3137 3096 
Q 3566 2609 3566 1747 
Q 3566 888 3137 398 
Q 2709 -91 1959 -91 
Q 1206 -91 779 398 
Q 353 888 353 1747 
Q 353 2609 779 3096 
Q 1206 3584 1959 3584 
z
" transform="scale(0.015625)"/>
       <path id="DejaVuSans-67" d="M 2906 1791 
Q 2906 2416 2648 2759 
Q 2391 3103 1925 3103 
Q 1463 3103 1205 2759 
Q 947 2416 947 1791 
Q 947 1169 1205 825 
Q 1463 481 1925 481 
Q 2391 481 2648 825 
Q 2906 1169 2906 1791 
z
M 3481 434 
Q 3481 -459 3084 -895 
Q 2688 -1331 1869 -1331 
Q 1566 -1331 1297 -1286 
Q 1028 -1241 775 -1147 
L 775 -588 
Q 1028 -725 1275 -790 
Q 1522 -856 1778 -856 
Q 2344 -856 2625 -561 
Q 2906 -266 2906 331 
L 2906 616 
Q 2728 306 2450 153 
Q 2172 0 1784 0 
Q 1141 0 747 490 
Q 353 981 353 1791 
Q 353 2603 747 3093 
Q 1141 3584 1784 3584 
Q 2172 3584 2450 3431 
Q 2728 3278 2906 2969 
L 2906 3500 
L 3481 3500 
L 3481 434 
z
" transform="scale(0.015625)"/>
      </defs>
      <use xlink:href="#DejaVuSans-4c"/>
      <use xlink:href="#DejaVuSans-61" transform="translate(55.712891 0)"/>
      <use xlink:href="#DejaVuSans-74" transform="translate(116.992188 0)"/>
      <use xlink:href="#DejaVuSans-65" transform="translate(156.201172 0)"/>
      <use xlink:href="#DejaVuSans-72" transform="translate(217.724609 0)"/>
      <use xlink:href="#DejaVuSans-61" transform="translate(258.837891 0)"/>
      <use xlink:href="#DejaVuSans-6c" transform="translate(320.117188 0)"/>
      <use xlink:href="#DejaVuSans-20" transform="translate(347.900391 0)"/>
      <use xlink:href="#DejaVuSans-41" transform="translate(379.6875 0)"/>
      <use xlink:href="#DejaVuSans-63" transform="translate(446.345703 0)"/>
      <use xlink:href="#DejaVuSans-63" transform="translate(501.326172 0)"/>
      <use xlink:href="#DejaVuSans-65" transform="translate(556.306641 0)"/>
      <use xlink:href="#DejaVuSans-6c" transform="translate(617.830078 0)"/>
      <use xlink:href="#DejaVuSans-65" transform="translate(645.613281 0)"/>
      <use xlink:href="#DejaVuSans-72" transform="translate(707.136719 0)"/>
      <use xlink:href="#DejaVuSans-61" transform="translate(748.25 0)"/>
      <use xlink:href="#DejaVuSans-74" transform="translate(809.529297 0)"/>
      <use xlink:href="#DejaVuSans-69" transform="translate(848.738281 0)"/>
      <use xlink:href="#DejaVuSans-6f" transform="translate(876.521484 0)"/>
      <use xlink:href="#DejaVuSans-6e" transform="translate(937.703125 0)"/>
      <use xlink:href="#DejaVuSans-20" transform="translate(1001.082031 0)"/>
      <use xlink:href="#DejaVuSans-28" transform="translate(1032.869141 0)"/>
      <use xlink:href="#DejaVuSans-67" transform="translate(1071.882812 0)"/>
      <use xlink:href="#DejaVuSans-29" transform="translate(1135.359375 0)"/>
     </g>
    </g>
   </g>
   <g id="line2d_25">
    <path d="M 73.832727 206.39204 
L 74.588742 203.403232 
L 75.271941 201.624185 
L 75.877801 200.658829 
L 76.402737 200.214543 
L 76.932491 200.077096 
L 77.466034 200.202102 
L 78.092993 200.620442 
L 78.907351 201.476446 
L 81.214672 204.259989 
L 82.059466 204.915498 
L 82.721541 205.173651 
L 83.292303 205.225147 
L 83.865284 205.028931 
L 84.918736 204.320147 
L 86.080114 203.618854 
L 86.47001 203.647024 
L 86.861115 203.922857 
L 87.4501 204.632752 
L 88.041945 205.691652 
L 88.537315 207.029761 
L 89.23246 209.871318 
L 89.62938 211.211044 
L 90.225155 211.867653 
L 90.424316 211.850036 
L 90.723387 211.45004 
L 91.121942 210.47544 
L 91.519896 208.769574 
L 91.916068 206.01922 
L 92.400984 200.846752 
L 92.958915 191.697361 
L 93.639053 176.307052 
L 94.563357 149.920475 
L 95.303617 130.781561 
L 95.731414 124.56106 
L 96.034562 122.672371 
L 96.154867 122.549989 
L 96.274532 122.783683 
L 96.452699 123.847261 
L 96.803463 127.868647 
L 97.370802 137.178277 
L 98.660193 160.950333 
L 99.526384 170.342734 
L 100.129493 175.126638 
L 103.142993 193.462373 
L 104.755748 200.16372 
L 105.210793 200.899479 
L 105.439565 200.939334 
L 105.66954 200.669239 
L 105.978334 199.790374 
L 106.289822 198.35772 
L 106.683461 195.532239 
L 107.162375 190.257965 
L 107.72989 181.200054 
L 108.722304 161.349008 
L 109.903276 138.915013 
L 110.669499 128.805032 
L 112.130562 114.088367 
L 112.649992 110.382914 
L 112.909013 109.480537 
L 113.081556 109.366668 
L 113.254357 109.645849 
L 113.51476 110.882555 
L 113.865093 114.064481 
L 114.306718 120.315467 
L 115.281743 138.555739 
L 116.264137 160.895178 
L 117.260933 187.887405 
L 119.659988 260.235967 
L 120.126449 266.291177 
L 120.593671 269.79853 
L 121.901713 277.293865 
L 123.769874 292.508474 
L 124.331575 294.577199 
L 124.706756 295.391664 
L 124.89463 295.488 
L 125.176865 295.349836 
L 125.554018 294.873934 
L 126.404084 293.143741 
L 126.781676 291.638274 
L 127.159316 289.028771 
L 127.631737 283.960592 
L 128.199498 274.987958 
L 130.86721 226.626199 
L 131.821431 215.913311 
L 132.781662 207.780909 
L 133.747449 201.437971 
L 137.26341 182.344932 
L 137.952263 179.78055 
L 138.445247 178.635213 
L 138.937943 178.013774 
L 139.331666 177.876067 
L 139.62771 178.00056 
L 140.02511 178.514394 
L 140.523728 179.624866 
L 141.220438 181.829544 
L 143.624502 190.357679 
L 144.529265 192.259734 
L 145.636379 194.101661 
L 147.253207 196.760058 
L 148.470605 199.246829 
L 150.095402 202.780033 
L 150.605337 203.304633 
L 151.013857 203.439255 
L 151.422797 203.323697 
L 151.729768 203.060612 
L 152.241863 202.257019 
L 153.062088 200.434643 
L 153.884627 198.739318 
L 154.090715 198.242591 
L 154.705828 194.906052 
L 155.688087 188.964045 
L 156.544169 182.234024 
L 159.087827 158.885356 
L 160.164016 150.809793 
L 160.493151 148.08472 
L 160.810585 145.204787 
L 161.620402 140.972691 
L 161.731429 141.060017 
L 161.912041 141.644722 
L 162.627291 145.173926 
L 164.060804 159.615965 
L 164.54692 164.442666 
L 165.553622 177.756295 
L 166.607027 190.81587 
L 167.333474 197.983776 
L 167.836857 201.174593 
L 168.363027 203.221409 
L 168.77078 204.03731 
L 169.046897 204.219181 
L 169.749805 204.439938 
L 170.329672 205.400519 
L 171.686803 207.633202 
L 172.311877 208.425308 
L 172.946493 208.878255 
L 175.745193 210.410432 
L 176.688879 210.542672 
L 177.480577 210.531109 
L 178.01402 210.276802 
L 178.726892 209.658306 
L 179.80609 208.336568 
L 183.704299 203.734208 
L 184.570201 203.268984 
L 185.438002 202.833442 
L 186.01533 202.290705 
L 186.99027 200.892473 
L 187.684216 200.103676 
L 188.182247 199.879027 
L 188.681392 199.934726 
L 189.082008 200.207007 
L 189.685897 200.927489 
L 191.315889 203.507966 
L 192.337901 205.631277 
L 194.090756 209.684205 
L 194.508537 210.140652 
L 194.92816 210.277936 
L 195.243459 210.182098 
L 195.769628 209.702344 
L 200.66976 203.894308 
L 201.210089 203.524913 
L 201.642784 203.4395 
L 202.401036 203.590409 
L 204.248303 204.205583 
L 206.213821 204.088641 
L 207.199257 203.963268 
L 209.946207 203.331394 
L 210.497562 203.549 
L 211.050757 204.068667 
L 211.604982 204.959632 
L 212.715753 207.462766 
L 214.052186 210.353881 
L 214.720279 211.318314 
L 215.277905 211.783791 
L 215.724674 211.934453 
L 216.283795 211.883289 
L 216.731561 211.621491 
L 217.404092 210.872139 
L 218.190256 209.589029 
L 219.089728 207.673834 
L 220.551298 204.53252 
L 221.34033 203.359816 
L 222.130014 202.636717 
L 222.693721 202.309442 
L 223.935448 202.015325 
L 224.275108 201.58896 
L 224.727839 200.494413 
L 226.98052 193.84128 
L 227.43708 193.193582 
L 227.897436 192.880369 
L 228.242279 192.865819 
L 228.695488 193.063051 
L 229.23726 193.528454 
L 229.833624 194.348253 
L 230.301519 195.477862 
L 231.363882 198.580246 
L 231.904675 199.34355 
L 232.134705 199.324182 
L 232.429481 199.023574 
L 232.758499 198.138103 
L 232.990235 196.768043 
L 233.355168 192.615067 
L 234.547304 176.639893 
L 234.91798 175.034977 
L 235.024601 174.995731 
L 235.129809 175.32531 
L 235.334802 176.952349 
L 235.712346 180.054714 
L 235.771719 180.143994 
L 235.830207 180.071183 
L 236.029424 179.158126 
L 236.195725 177.129884 
L 236.857604 167.394359 
L 236.904545 167.421593 
L 236.997737 168.101815 
L 237.206422 171.845779 
L 237.636393 184.078018 
L 239.907629 266.41889 
L 240.335317 277.182536 
L 240.587544 279.454174 
L 240.660198 279.525173 
L 240.696652 279.448393 
L 240.806606 278.715217 
L 240.992197 275.705472 
L 241.372569 264.800628 
L 242.977415 213.55293 
L 243.4493 205.876236 
L 243.821685 202.955111 
L 244.093688 202.213485 
L 244.497117 201.800072 
L 244.918465 201.393938 
L 245.223764 200.473093 
L 245.535571 198.772606 
L 247.882152 182.909836 
L 248.463456 180.620532 
L 248.830422 179.907174 
L 249.278429 179.54125 
L 250.441269 179.0487 
L 250.921295 179.411938 
L 251.326391 179.950236 
L 251.735686 180.908146 
L 252.148825 182.378948 
L 252.648975 185.14101 
L 255.153622 200.451804 
L 255.688925 202.185424 
L 256.139308 202.941014 
L 256.593528 203.295 
L 256.959601 203.324057 
L 257.2357 203.088936 
L 257.69879 202.272928 
L 259.297306 198.988381 
L 259.960414 198.380094 
L 260.245462 198.35783 
L 260.531797 198.55742 
L 260.916312 199.198662 
L 261.985655 201.888864 
L 263.550927 205.560442 
L 263.94624 205.995467 
L 264.244158 206.055632 
L 264.642699 205.894047 
L 265.544114 205.285772 
L 265.948468 205.288982 
L 266.66176 205.545302 
L 268.3032 206.263868 
L 268.715171 206.111089 
L 269.128293 205.725546 
L 269.54332 205.022196 
L 270.69845 202.40626 
L 271.439548 200.154787 
L 272.708832 195.291365 
L 275.0552 186.054061 
L 275.700609 184.497749 
L 276.347936 183.554767 
L 276.996449 182.947761 
L 278.403761 181.890544 
L 278.94663 181.02246 
L 279.709267 179.298076 
L 281.900227 173.923689 
L 282.450261 173.068999 
L 282.890089 172.716109 
L 283.219696 172.667132 
L 283.549414 172.828121 
L 283.87957 173.210118 
L 284.320896 174.104845 
L 284.874145 175.874424 
L 285.649999 179.385397 
L 286.870977 186.206288 
L 288.095507 192.763763 
L 288.986051 196.577416 
L 289.877912 199.042404 
L 291.329471 202.629881 
L 291.664709 202.780243 
L 291.889039 202.604124 
L 292.22688 201.88761 
L 292.677402 200.279585 
L 293.123988 197.750409 
L 293.668489 193.159087 
L 294.292973 185.55369 
L 294.978676 174.110423 
L 295.699889 158.140604 
L 297.612414 112.479597 
L 298.277498 101.593455 
L 298.99495 93.449872 
L 301.030228 72.575594 
L 301.647782 63.569673 
L 302.318435 54.645007 
L 302.56308 53.568 
L 302.685754 53.794991 
L 302.87033 55.125028 
L 303.179656 59.843791 
L 303.805322 74.752042 
L 304.441082 93.17016 
L 305.152246 110.426943 
L 305.82141 120.752834 
L 306.16466 123.606934 
L 306.442693 124.473329 
L 306.58275 124.419931 
L 306.723457 123.970122 
L 307.006686 121.764161 
L 307.363777 116.621435 
L 308.087116 101.442308 
L 308.969048 83.787766 
L 309.490024 77.790588 
L 309.792428 76.127437 
L 310.021868 75.796951 
L 310.17591 76.0223 
L 310.408333 77.024147 
L 310.720268 79.699632 
L 311.191271 87.043638 
L 311.744147 99.714055 
L 312.619695 125.883372 
L 313.845247 162.700183 
L 314.59202 178.616019 
L 315.174618 187.18759 
L 315.681793 191.872122 
L 316.108971 194.017237 
L 316.539311 195.019393 
L 316.885629 195.344291 
L 317.146534 195.180326 
L 318.111419 194.474399 
L 318.465219 194.453449 
L 318.731497 194.653149 
L 318.998697 195.126119 
L 319.446641 196.484561 
L 319.989046 198.975969 
L 320.535984 202.764274 
L 321.086593 208.479363 
L 321.917994 220.182406 
L 325.383808 273.798484 
L 326.047614 279.962478 
L 326.618619 283.546804 
L 327.000647 284.64277 
L 327.192087 284.76911 
L 327.38374 284.64941 
L 327.671375 284.08898 
L 328.054634 282.762818 
L 328.72516 279.452884 
L 329.397618 276.486359 
L 329.783674 275.643807 
L 330.074135 275.508092 
L 330.364997 275.733642 
L 330.75283 276.417927 
L 332.493664 280.21463 
L 332.783266 280.287556 
L 333.073325 280.009136 
L 333.461365 279.080428 
L 333.949578 277.163012 
L 334.534662 274.003223 
L 335.368495 267.789623 
L 335.967531 261.463121 
L 338.258869 234.183359 
L 338.689743 231.537655 
L 339.040284 230.624723 
L 339.318488 230.426892 
L 339.835843 230.451331 
L 339.98148 230.675257 
L 340.214776 231.708758 
L 340.565591 234.372111 
L 340.861826 239.023632 
L 341.273243 249.97676 
L 342.150504 272.435109 
L 342.400318 274.308829 
L 342.470527 274.368144 
L 342.505602 274.338568 
L 342.646233 273.821055 
L 342.822621 272.153867 
L 343.072752 267.102389 
L 343.445872 254.293684 
L 344.099246 222.324252 
L 344.899192 184.78129 
L 345.670768 156.736628 
L 346.340721 140.034945 
L 346.695208 135.543566 
L 346.995005 134.193035 
L 347.193417 134.021508 
L 347.341682 134.267491 
L 347.735115 135.951239 
L 348.372347 139.979849 
L 348.967032 145.602274 
L 350.637876 162.449302 
L 351.254054 166.181935 
L 351.72626 167.879581 
L 351.966411 168.129616 
L 352.146405 167.958476 
L 352.384888 167.196308 
L 352.739431 164.935489 
L 353.369739 158.540202 
L 354.593995 146.008648 
L 356.65058 130.445842 
L 356.914028 129.828878 
L 357.07449 129.823844 
L 357.237916 130.118548 
L 357.461806 131.018219 
L 357.750926 133.069809 
L 358.411354 140.546059 
L 359.094932 150.928592 
L 360.015304 169.332557 
L 361.257745 192.835781 
L 361.905364 200.92699 
L 362.493804 205.769556 
L 362.94776 208.050043 
L 363.256869 208.835871 
L 363.491493 208.974353 
L 363.728038 208.743013 
L 364.045685 208.012852 
L 364.928986 205.673663 
L 365.58065 204.457412 
L 365.82697 204.36984 
L 366.074409 204.591745 
L 366.323068 205.143792 
L 366.656701 206.500961 
L 367.077301 209.504794 
L 367.586983 215.091824 
L 368.188061 224.424855 
L 369.142949 243.454428 
L 370.549902 270.813856 
L 371.262196 279.851733 
L 371.796672 284.698885 
L 372.153407 286.579537 
L 372.422048 287.204959 
L 372.601862 287.250638 
L 372.782172 287.049884 
L 373.053319 286.286352 
L 373.415527 284.345572 
L 373.868585 280.239984 
L 374.684078 270.001288 
L 375.771158 253.070926 
L 376.859999 236.569455 
L 377.499245 229.791191 
L 378.139397 225.162557 
L 378.505298 223.720385 
L 378.688343 223.467086 
L 378.87152 223.546129 
L 379.146665 224.142153 
L 379.606746 225.977587 
L 379.976449 228.528002 
L 381.001518 235.857674 
L 383.249865 250.36385 
L 383.477736 250.813946 
L 383.624896 250.720897 
L 383.838861 250.025685 
L 384.243933 247.920672 
L 384.868827 242.803989 
L 386.451654 227.688274 
L 386.924196 223.17358 
L 387.015932 222.988746 
L 387.061571 223.024094 
L 387.1978 223.656267 
L 387.468499 226.944828 
L 387.781304 232.197888 
L 388.878162 255.038877 
L 389.238111 259.283906 
L 389.51533 260.622122 
L 389.609231 260.654656 
L 389.751581 260.249361 
L 389.944372 258.780135 
L 390.240502 254.4261 
L 390.756215 242.399034 
L 391.484346 226.73449 
L 392.064956 218.877909 
L 392.553515 214.690937 
L 393.260821 211.730679 
L 394.195001 207.342765 
L 394.902528 205.52882 
L 395.706215 204.169018 
L 396.760018 202.884177 
L 398.167496 201.165026 
L 398.487273 200.670284 
L 398.487273 200.670284 
" clip-path="url(#pce959dffb7)" style="fill: none; stroke: #0000ff; stroke-width: 1.5; stroke-linecap: square"/>
   </g>
   <g id="patch_3">
    <path d="M 57.6 307.584 
L 57.6 41.472 
" style="fill: none; stroke: #000000; stroke-width: 0.8; stroke-linejoin: miter; stroke-linecap: square"/>
   </g>
   <g id="patch_4">
    <path d="M 414.72 307.584 
L 414.72 41.472 
" style="fill: none; stroke: #000000; stroke-width: 0.8; stroke-linejoin: miter; stroke-linecap: square"/>
   </g>
   <g id="patch_5">
    <path d="M 57.6 307.584 
L 414.72 307.584 
" style="fill: none; stroke: #000000; stroke-width: 0.8; stroke-linejoin: miter; stroke-linecap: square"/>
   </g>
   <g id="patch_6">
    <path d="M 57.6 41.472 
L 414.72 41.472 
" style="fill: none; stroke: #000000; stroke-width: 0.8; stroke-linejoin: miter; stroke-linecap: square"/>
   </g>
   <g id="text_15">
    <!-- Lateral Acceleration -->
    <g transform="translate(176.094375 35.472) scale(0.12 -0.12)">
     <use xlink:href="#DejaVuSans-4c"/>
     <use xlink:href="#DejaVuSans-61" transform="translate(55.712891 0)"/>
     <use xlink:href="#DejaVuSans-74" transform="translate(116.992188 0)"/>
     <use xlink:href="#DejaVuSans-65" transform="translate(156.201172 0)"/>
     <use xlink:href="#DejaVuSans-72" transform="translate(217.724609 0)"/>
     <use xlink:href="#DejaVuSans-61" transform="translate(258.837891 0)"/>
     <use xlink:href="#DejaVuSans-6c" transform="translate(320.117188 0)"/>
     <use xlink:href="#DejaVuSans-20" transform="translate(347.900391 0)"/>
     <use xlink:href="#DejaVuSans-41" transform="translate(379.6875 0)"/>
     <use xlink:href="#DejaVuSans-63" transform="translate(446.345703 0)"/>
     <use xlink:href="#DejaVuSans-63" transform="translate(501.326172 0)"/>
     <use xlink:href="#DejaVuSans-65" transform="translate(556.306641 0)"/>
     <use xlink:href="#DejaVuSans-6c" transform="translate(617.830078 0)"/>
     <use xlink:href="#DejaVuSans-65" transform="translate(645.613281 0)"/>
     <use xlink:href="#DejaVuSans-72" transform="translate(707.136719 0)"/>
     <use xlink:href="#DejaVuSans-61" transform="translate(748.25 0)"/>
     <use xlink:href="#DejaVuSans-74" transform="translate(809.529297 0)"/>
     <use xlink:href="#DejaVuSans-69" transform="translate(848.738281 0)"/>
     <use xlink:href="#DejaVuSans-6f" transform="translate(876.521484 0)"/>
     <use xlink:href="#DejaVuSans-6e" transform="translate(937.703125 0)"/>
    </g>
   </g>
   <g id="legend_1">
    <g id="patch_7">
     <path d="M 64.6 64.150125 
L 196.709375 64.150125 
Q 198.709375 64.150125 198.709375 62.150125 
L 198.709375 48.472 
Q 198.709375 46.472 196.709375 46.472 
L 64.6 46.472 
Q 62.6 46.472 62.6 48.472 
L 62.6 62.150125 
Q 62.6 64.150125 64.6 64.150125 
z
" style="fill: #ffffff; opacity: 0.8; stroke: #cccccc; stroke-linejoin: miter"/>
    </g>
    <g id="line2d_26">
     <path d="M 66.6 54.570438 
L 76.6 54.570438 
L 86.6 54.570438 
" style="fill: none; stroke: #0000ff; stroke-width: 1.5; stroke-linecap: square"/>
    </g>
    <g id="text_16">
     <!-- Lateral Acceleration -->
     <g transform="translate(94.6 58.070438) scale(0.1 -0.1)">
      <use xlink:href="#DejaVuSans-4c"/>
      <use xlink:href="#DejaVuSans-61" transform="translate(55.712891 0)"/>
      <use xlink:href="#DejaVuSans-74" transform="translate(116.992188 0)"/>
      <use xlink:href="#DejaVuSans-65" transform="translate(156.201172 0)"/>
      <use xlink:href="#DejaVuSans-72" transform="translate(217.724609 0)"/>
      <use xlink:href="#DejaVuSans-61" transform="translate(258.837891 0)"/>
      <use xlink:href="#DejaVuSans-6c" transform="translate(320.117188 0)"/>
      <use xlink:href="#DejaVuSans-20" transform="translate(347.900391 0)"/>
      <use xlink:href="#DejaVuSans-41" transform="translate(379.6875 0)"/>
      <use xlink:href="#DejaVuSans-63" transform="translate(446.345703 0)"/>
      <use xlink:href="#DejaVuSans-63" transform="translate(501.326172 0)"/>
      <use xlink:href="#DejaVuSans-65" transform="translate(556.306641 0)"/>
      <use xlink:href="#DejaVuSans-6c" transform="translate(617.830078 0)"/>
      <use xlink:href="#DejaVuSans-65" transform="translate(645.613281 0)"/>
      <use xlink:href="#DejaVuSans-72" transform="translate(707.136719 0)"/>
      <use xlink:href="#DejaVuSans-61" transform="translate(748.25 0)"/>
      <use xlink:href="#DejaVuSans-74" transform="translate(809.529297 0)"/>
      <use xlink:href="#DejaVuSans-69" transform="translate(848.738281 0)"/>
      <use xlink:href="#DejaVuSans-6f" transform="translate(876.521484 0)"/>
      <use xlink:href="#DejaVuSans-6e" transform="translate(937.703125 0)"/>
     </g>
    </g>
   </g>
  </g>
 </g>
 <defs>
  <clipPath id="pce959dffb7">
   <rect x="57.6" y="41.472" width="357.12" height="266.112"/>
  </clipPath>
 </defs>
</svg>
