<?xml version="1.0" encoding="utf-8" standalone="no"?>
<!DOCTYPE svg PUBLIC "-//W3C//DTD SVG 1.1//EN"
  "http://www.w3.org/Graphics/SVG/1.1/DTD/svg11.dtd">
<svg xmlns:xlink="http://www.w3.org/1999/xlink" width="460.8pt" height="345.6pt" viewBox="0 0 460.8 345.6" xmlns="http://www.w3.org/2000/svg" version="1.1">
 <metadata>
  <rdf:RDF xmlns:dc="http://purl.org/dc/elements/1.1/" xmlns:cc="http://creativecommons.org/ns#" xmlns:rdf="http://www.w3.org/1999/02/22-rdf-syntax-ns#">
   <cc:Work>
    <dc:type rdf:resource="http://purl.org/dc/dcmitype/StillImage"/>
    <dc:date>2025-06-11T00:22:39.956836</dc:date>
    <dc:format>image/svg+xml</dc:format>
    <dc:creator>
     <cc:Agent>
      <dc:title>Matplotlib v3.10.1, https://matplotlib.org/</dc:title>
     </cc:Agent>
    </dc:creator>
   </cc:Work>
  </rdf:RDF>
 </metadata>
 <defs>
  <style type="text/css">*{stroke-linejoin: round; stroke-linecap: butt}</style>
 </defs>
 <g id="figure_1">
  <g id="patch_1">
   <path d="M 0 345.6 
L 460.8 345.6 
L 460.8 0 
L 0 0 
z
" style="fill: #ffffff"/>
  </g>
  <g id="axes_1">
   <g id="patch_2">
    <path d="M 57.6 307.584 
L 414.72 307.584 
L 414.72 41.472 
L 57.6 41.472 
z
" style="fill: #ffffff"/>
   </g>
   <g id="matplotlib.axis_1">
    <g id="xtick_1">
     <g id="line2d_1">
      <path d="M 73.823333 307.584 
L 73.823333 41.472 
" clip-path="url(#p299756215d)" style="fill: none; stroke: #b0b0b0; stroke-width: 0.8; stroke-linecap: square"/>
     </g>
     <g id="line2d_2">
      <defs>
       <path id="m81d7c9b5eb" d="M 0 0 
L 0 3.5 
" style="stroke: #000000; stroke-width: 0.8"/>
      </defs>
      <g>
       <use xlink:href="#m81d7c9b5eb" x="73.823333" y="307.584" style="stroke: #000000; stroke-width: 0.8"/>
      </g>
     </g>
     <g id="text_1">
      <!-- 0 -->
      <g transform="translate(70.642083 322.182437) scale(0.1 -0.1)">
       <defs>
        <path id="DejaVuSans-30" d="M 2034 4250 
Q 1547 4250 1301 3770 
Q 1056 3291 1056 2328 
Q 1056 1369 1301 889 
Q 1547 409 2034 409 
Q 2525 409 2770 889 
Q 3016 1369 3016 2328 
Q 3016 3291 2770 3770 
Q 2525 4250 2034 4250 
z
M 2034 4750 
Q 2819 4750 3233 4129 
Q 3647 3509 3647 2328 
Q 3647 1150 3233 529 
Q 2819 -91 2034 -91 
Q 1250 -91 836 529 
Q 422 1150 422 2328 
Q 422 3509 836 4129 
Q 1250 4750 2034 4750 
z
" transform="scale(0.015625)"/>
       </defs>
       <use xlink:href="#DejaVuSans-30"/>
      </g>
     </g>
    </g>
    <g id="xtick_2">
     <g id="line2d_3">
      <path d="M 136.073077 307.584 
L 136.073077 41.472 
" clip-path="url(#p299756215d)" style="fill: none; stroke: #b0b0b0; stroke-width: 0.8; stroke-linecap: square"/>
     </g>
     <g id="line2d_4">
      <g>
       <use xlink:href="#m81d7c9b5eb" x="136.073077" y="307.584" style="stroke: #000000; stroke-width: 0.8"/>
      </g>
     </g>
     <g id="text_2">
      <!-- 1000 -->
      <g transform="translate(123.348077 322.182437) scale(0.1 -0.1)">
       <defs>
        <path id="DejaVuSans-31" d="M 794 531 
L 1825 531 
L 1825 4091 
L 703 3866 
L 703 4441 
L 1819 4666 
L 2450 4666 
L 2450 531 
L 3481 531 
L 3481 0 
L 794 0 
L 794 531 
z
" transform="scale(0.015625)"/>
       </defs>
       <use xlink:href="#DejaVuSans-31"/>
       <use xlink:href="#DejaVuSans-30" transform="translate(63.623047 0)"/>
       <use xlink:href="#DejaVuSans-30" transform="translate(127.246094 0)"/>
       <use xlink:href="#DejaVuSans-30" transform="translate(190.869141 0)"/>
      </g>
     </g>
    </g>
    <g id="xtick_3">
     <g id="line2d_5">
      <path d="M 198.322822 307.584 
L 198.322822 41.472 
" clip-path="url(#p299756215d)" style="fill: none; stroke: #b0b0b0; stroke-width: 0.8; stroke-linecap: square"/>
     </g>
     <g id="line2d_6">
      <g>
       <use xlink:href="#m81d7c9b5eb" x="198.322822" y="307.584" style="stroke: #000000; stroke-width: 0.8"/>
      </g>
     </g>
     <g id="text_3">
      <!-- 2000 -->
      <g transform="translate(185.597822 322.182437) scale(0.1 -0.1)">
       <defs>
        <path id="DejaVuSans-32" d="M 1228 531 
L 3431 531 
L 3431 0 
L 469 0 
L 469 531 
Q 828 903 1448 1529 
Q 2069 2156 2228 2338 
Q 2531 2678 2651 2914 
Q 2772 3150 2772 3378 
Q 2772 3750 2511 3984 
Q 2250 4219 1831 4219 
Q 1534 4219 1204 4116 
Q 875 4013 500 3803 
L 500 4441 
Q 881 4594 1212 4672 
Q 1544 4750 1819 4750 
Q 2544 4750 2975 4387 
Q 3406 4025 3406 3419 
Q 3406 3131 3298 2873 
Q 3191 2616 2906 2266 
Q 2828 2175 2409 1742 
Q 1991 1309 1228 531 
z
" transform="scale(0.015625)"/>
       </defs>
       <use xlink:href="#DejaVuSans-32"/>
       <use xlink:href="#DejaVuSans-30" transform="translate(63.623047 0)"/>
       <use xlink:href="#DejaVuSans-30" transform="translate(127.246094 0)"/>
       <use xlink:href="#DejaVuSans-30" transform="translate(190.869141 0)"/>
      </g>
     </g>
    </g>
    <g id="xtick_4">
     <g id="line2d_7">
      <path d="M 260.572567 307.584 
L 260.572567 41.472 
" clip-path="url(#p299756215d)" style="fill: none; stroke: #b0b0b0; stroke-width: 0.8; stroke-linecap: square"/>
     </g>
     <g id="line2d_8">
      <g>
       <use xlink:href="#m81d7c9b5eb" x="260.572567" y="307.584" style="stroke: #000000; stroke-width: 0.8"/>
      </g>
     </g>
     <g id="text_4">
      <!-- 3000 -->
      <g transform="translate(247.847567 322.182437) scale(0.1 -0.1)">
       <defs>
        <path id="DejaVuSans-33" d="M 2597 2516 
Q 3050 2419 3304 2112 
Q 3559 1806 3559 1356 
Q 3559 666 3084 287 
Q 2609 -91 1734 -91 
Q 1441 -91 1130 -33 
Q 819 25 488 141 
L 488 750 
Q 750 597 1062 519 
Q 1375 441 1716 441 
Q 2309 441 2620 675 
Q 2931 909 2931 1356 
Q 2931 1769 2642 2001 
Q 2353 2234 1838 2234 
L 1294 2234 
L 1294 2753 
L 1863 2753 
Q 2328 2753 2575 2939 
Q 2822 3125 2822 3475 
Q 2822 3834 2567 4026 
Q 2313 4219 1838 4219 
Q 1578 4219 1281 4162 
Q 984 4106 628 3988 
L 628 4550 
Q 988 4650 1302 4700 
Q 1616 4750 1894 4750 
Q 2613 4750 3031 4423 
Q 3450 4097 3450 3541 
Q 3450 3153 3228 2886 
Q 3006 2619 2597 2516 
z
" transform="scale(0.015625)"/>
       </defs>
       <use xlink:href="#DejaVuSans-33"/>
       <use xlink:href="#DejaVuSans-30" transform="translate(63.623047 0)"/>
       <use xlink:href="#DejaVuSans-30" transform="translate(127.246094 0)"/>
       <use xlink:href="#DejaVuSans-30" transform="translate(190.869141 0)"/>
      </g>
     </g>
    </g>
    <g id="xtick_5">
     <g id="line2d_9">
      <path d="M 322.822312 307.584 
L 322.822312 41.472 
" clip-path="url(#p299756215d)" style="fill: none; stroke: #b0b0b0; stroke-width: 0.8; stroke-linecap: square"/>
     </g>
     <g id="line2d_10">
      <g>
       <use xlink:href="#m81d7c9b5eb" x="322.822312" y="307.584" style="stroke: #000000; stroke-width: 0.8"/>
      </g>
     </g>
     <g id="text_5">
      <!-- 4000 -->
      <g transform="translate(310.097312 322.182437) scale(0.1 -0.1)">
       <defs>
        <path id="DejaVuSans-34" d="M 2419 4116 
L 825 1625 
L 2419 1625 
L 2419 4116 
z
M 2253 4666 
L 3047 4666 
L 3047 1625 
L 3713 1625 
L 3713 1100 
L 3047 1100 
L 3047 0 
L 2419 0 
L 2419 1100 
L 313 1100 
L 313 1709 
L 2253 4666 
z
" transform="scale(0.015625)"/>
       </defs>
       <use xlink:href="#DejaVuSans-34"/>
       <use xlink:href="#DejaVuSans-30" transform="translate(63.623047 0)"/>
       <use xlink:href="#DejaVuSans-30" transform="translate(127.246094 0)"/>
       <use xlink:href="#DejaVuSans-30" transform="translate(190.869141 0)"/>
      </g>
     </g>
    </g>
    <g id="xtick_6">
     <g id="line2d_11">
      <path d="M 385.072056 307.584 
L 385.072056 41.472 
" clip-path="url(#p299756215d)" style="fill: none; stroke: #b0b0b0; stroke-width: 0.8; stroke-linecap: square"/>
     </g>
     <g id="line2d_12">
      <g>
       <use xlink:href="#m81d7c9b5eb" x="385.072056" y="307.584" style="stroke: #000000; stroke-width: 0.8"/>
      </g>
     </g>
     <g id="text_6">
      <!-- 5000 -->
      <g transform="translate(372.347056 322.182437) scale(0.1 -0.1)">
       <defs>
        <path id="DejaVuSans-35" d="M 691 4666 
L 3169 4666 
L 3169 4134 
L 1269 4134 
L 1269 2991 
Q 1406 3038 1543 3061 
Q 1681 3084 1819 3084 
Q 2600 3084 3056 2656 
Q 3513 2228 3513 1497 
Q 3513 744 3044 326 
Q 2575 -91 1722 -91 
Q 1428 -91 1123 -41 
Q 819 9 494 109 
L 494 744 
Q 775 591 1075 516 
Q 1375 441 1709 441 
Q 2250 441 2565 725 
Q 2881 1009 2881 1497 
Q 2881 1984 2565 2268 
Q 2250 2553 1709 2553 
Q 1456 2553 1204 2497 
Q 953 2441 691 2322 
L 691 4666 
z
" transform="scale(0.015625)"/>
       </defs>
       <use xlink:href="#DejaVuSans-35"/>
       <use xlink:href="#DejaVuSans-30" transform="translate(63.623047 0)"/>
       <use xlink:href="#DejaVuSans-30" transform="translate(127.246094 0)"/>
       <use xlink:href="#DejaVuSans-30" transform="translate(190.869141 0)"/>
      </g>
     </g>
    </g>
    <g id="text_7">
     <!-- Distance (m) -->
     <g transform="translate(203.936562 335.860562) scale(0.1 -0.1)">
      <defs>
       <path id="DejaVuSans-44" d="M 1259 4147 
L 1259 519 
L 2022 519 
Q 2988 519 3436 956 
Q 3884 1394 3884 2338 
Q 3884 3275 3436 3711 
Q 2988 4147 2022 4147 
L 1259 4147 
z
M 628 4666 
L 1925 4666 
Q 3281 4666 3915 4102 
Q 4550 3538 4550 2338 
Q 4550 1131 3912 565 
Q 3275 0 1925 0 
L 628 0 
L 628 4666 
z
" transform="scale(0.015625)"/>
       <path id="DejaVuSans-69" d="M 603 3500 
L 1178 3500 
L 1178 0 
L 603 0 
L 603 3500 
z
M 603 4863 
L 1178 4863 
L 1178 4134 
L 603 4134 
L 603 4863 
z
" transform="scale(0.015625)"/>
       <path id="DejaVuSans-73" d="M 2834 3397 
L 2834 2853 
Q 2591 2978 2328 3040 
Q 2066 3103 1784 3103 
Q 1356 3103 1142 2972 
Q 928 2841 928 2578 
Q 928 2378 1081 2264 
Q 1234 2150 1697 2047 
L 1894 2003 
Q 2506 1872 2764 1633 
Q 3022 1394 3022 966 
Q 3022 478 2636 193 
Q 2250 -91 1575 -91 
Q 1294 -91 989 -36 
Q 684 19 347 128 
L 347 722 
Q 666 556 975 473 
Q 1284 391 1588 391 
Q 1994 391 2212 530 
Q 2431 669 2431 922 
Q 2431 1156 2273 1281 
Q 2116 1406 1581 1522 
L 1381 1569 
Q 847 1681 609 1914 
Q 372 2147 372 2553 
Q 372 3047 722 3315 
Q 1072 3584 1716 3584 
Q 2034 3584 2315 3537 
Q 2597 3491 2834 3397 
z
" transform="scale(0.015625)"/>
       <path id="DejaVuSans-74" d="M 1172 4494 
L 1172 3500 
L 2356 3500 
L 2356 3053 
L 1172 3053 
L 1172 1153 
Q 1172 725 1289 603 
Q 1406 481 1766 481 
L 2356 481 
L 2356 0 
L 1766 0 
Q 1100 0 847 248 
Q 594 497 594 1153 
L 594 3053 
L 172 3053 
L 172 3500 
L 594 3500 
L 594 4494 
L 1172 4494 
z
" transform="scale(0.015625)"/>
       <path id="DejaVuSans-61" d="M 2194 1759 
Q 1497 1759 1228 1600 
Q 959 1441 959 1056 
Q 959 750 1161 570 
Q 1363 391 1709 391 
Q 2188 391 2477 730 
Q 2766 1069 2766 1631 
L 2766 1759 
L 2194 1759 
z
M 3341 1997 
L 3341 0 
L 2766 0 
L 2766 531 
Q 2569 213 2275 61 
Q 1981 -91 1556 -91 
Q 1019 -91 701 211 
Q 384 513 384 1019 
Q 384 1609 779 1909 
Q 1175 2209 1959 2209 
L 2766 2209 
L 2766 2266 
Q 2766 2663 2505 2880 
Q 2244 3097 1772 3097 
Q 1472 3097 1187 3025 
Q 903 2953 641 2809 
L 641 3341 
Q 956 3463 1253 3523 
Q 1550 3584 1831 3584 
Q 2591 3584 2966 3190 
Q 3341 2797 3341 1997 
z
" transform="scale(0.015625)"/>
       <path id="DejaVuSans-6e" d="M 3513 2113 
L 3513 0 
L 2938 0 
L 2938 2094 
Q 2938 2591 2744 2837 
Q 2550 3084 2163 3084 
Q 1697 3084 1428 2787 
Q 1159 2491 1159 1978 
L 1159 0 
L 581 0 
L 581 3500 
L 1159 3500 
L 1159 2956 
Q 1366 3272 1645 3428 
Q 1925 3584 2291 3584 
Q 2894 3584 3203 3211 
Q 3513 2838 3513 2113 
z
" transform="scale(0.015625)"/>
       <path id="DejaVuSans-63" d="M 3122 3366 
L 3122 2828 
Q 2878 2963 2633 3030 
Q 2388 3097 2138 3097 
Q 1578 3097 1268 2742 
Q 959 2388 959 1747 
Q 959 1106 1268 751 
Q 1578 397 2138 397 
Q 2388 397 2633 464 
Q 2878 531 3122 666 
L 3122 134 
Q 2881 22 2623 -34 
Q 2366 -91 2075 -91 
Q 1284 -91 818 406 
Q 353 903 353 1747 
Q 353 2603 823 3093 
Q 1294 3584 2113 3584 
Q 2378 3584 2631 3529 
Q 2884 3475 3122 3366 
z
" transform="scale(0.015625)"/>
       <path id="DejaVuSans-65" d="M 3597 1894 
L 3597 1613 
L 953 1613 
Q 991 1019 1311 708 
Q 1631 397 2203 397 
Q 2534 397 2845 478 
Q 3156 559 3463 722 
L 3463 178 
Q 3153 47 2828 -22 
Q 2503 -91 2169 -91 
Q 1331 -91 842 396 
Q 353 884 353 1716 
Q 353 2575 817 3079 
Q 1281 3584 2069 3584 
Q 2775 3584 3186 3129 
Q 3597 2675 3597 1894 
z
M 3022 2063 
Q 3016 2534 2758 2815 
Q 2500 3097 2075 3097 
Q 1594 3097 1305 2825 
Q 1016 2553 972 2059 
L 3022 2063 
z
" transform="scale(0.015625)"/>
       <path id="DejaVuSans-20" transform="scale(0.015625)"/>
       <path id="DejaVuSans-28" d="M 1984 4856 
Q 1566 4138 1362 3434 
Q 1159 2731 1159 2009 
Q 1159 1288 1364 580 
Q 1569 -128 1984 -844 
L 1484 -844 
Q 1016 -109 783 600 
Q 550 1309 550 2009 
Q 550 2706 781 3412 
Q 1013 4119 1484 4856 
L 1984 4856 
z
" transform="scale(0.015625)"/>
       <path id="DejaVuSans-6d" d="M 3328 2828 
Q 3544 3216 3844 3400 
Q 4144 3584 4550 3584 
Q 5097 3584 5394 3201 
Q 5691 2819 5691 2113 
L 5691 0 
L 5113 0 
L 5113 2094 
Q 5113 2597 4934 2840 
Q 4756 3084 4391 3084 
Q 3944 3084 3684 2787 
Q 3425 2491 3425 1978 
L 3425 0 
L 2847 0 
L 2847 2094 
Q 2847 2600 2669 2842 
Q 2491 3084 2119 3084 
Q 1678 3084 1418 2786 
Q 1159 2488 1159 1978 
L 1159 0 
L 581 0 
L 581 3500 
L 1159 3500 
L 1159 2956 
Q 1356 3278 1631 3431 
Q 1906 3584 2284 3584 
Q 2666 3584 2933 3390 
Q 3200 3197 3328 2828 
z
" transform="scale(0.015625)"/>
       <path id="DejaVuSans-29" d="M 513 4856 
L 1013 4856 
Q 1481 4119 1714 3412 
Q 1947 2706 1947 2009 
Q 1947 1309 1714 600 
Q 1481 -109 1013 -844 
L 513 -844 
Q 928 -128 1133 580 
Q 1338 1288 1338 2009 
Q 1338 2731 1133 3434 
Q 928 4138 513 4856 
z
" transform="scale(0.015625)"/>
      </defs>
      <use xlink:href="#DejaVuSans-44"/>
      <use xlink:href="#DejaVuSans-69" transform="translate(77.001953 0)"/>
      <use xlink:href="#DejaVuSans-73" transform="translate(104.785156 0)"/>
      <use xlink:href="#DejaVuSans-74" transform="translate(156.884766 0)"/>
      <use xlink:href="#DejaVuSans-61" transform="translate(196.09375 0)"/>
      <use xlink:href="#DejaVuSans-6e" transform="translate(257.373047 0)"/>
      <use xlink:href="#DejaVuSans-63" transform="translate(320.751953 0)"/>
      <use xlink:href="#DejaVuSans-65" transform="translate(375.732422 0)"/>
      <use xlink:href="#DejaVuSans-20" transform="translate(437.255859 0)"/>
      <use xlink:href="#DejaVuSans-28" transform="translate(469.042969 0)"/>
      <use xlink:href="#DejaVuSans-6d" transform="translate(508.056641 0)"/>
      <use xlink:href="#DejaVuSans-29" transform="translate(605.46875 0)"/>
     </g>
    </g>
   </g>
   <g id="matplotlib.axis_2">
    <g id="ytick_1">
     <g id="line2d_13">
      <path d="M 57.6 299.767643 
L 414.72 299.767643 
" clip-path="url(#p299756215d)" style="fill: none; stroke: #b0b0b0; stroke-width: 0.8; stroke-linecap: square"/>
     </g>
     <g id="line2d_14">
      <defs>
       <path id="m51cfe1a9f8" d="M 0 0 
L -3.5 0 
" style="stroke: #000000; stroke-width: 0.8"/>
      </defs>
      <g>
       <use xlink:href="#m51cfe1a9f8" x="57.6" y="299.767643" style="stroke: #000000; stroke-width: 0.8"/>
      </g>
     </g>
     <g id="text_8">
      <!-- 50 -->
      <g transform="translate(37.875 303.566862) scale(0.1 -0.1)">
       <use xlink:href="#DejaVuSans-35"/>
       <use xlink:href="#DejaVuSans-30" transform="translate(63.623047 0)"/>
      </g>
     </g>
    </g>
    <g id="ytick_2">
     <g id="line2d_15">
      <path d="M 57.6 259.747253 
L 414.72 259.747253 
" clip-path="url(#p299756215d)" style="fill: none; stroke: #b0b0b0; stroke-width: 0.8; stroke-linecap: square"/>
     </g>
     <g id="line2d_16">
      <g>
       <use xlink:href="#m51cfe1a9f8" x="57.6" y="259.747253" style="stroke: #000000; stroke-width: 0.8"/>
      </g>
     </g>
     <g id="text_9">
      <!-- 100 -->
      <g transform="translate(31.5125 263.546471) scale(0.1 -0.1)">
       <use xlink:href="#DejaVuSans-31"/>
       <use xlink:href="#DejaVuSans-30" transform="translate(63.623047 0)"/>
       <use xlink:href="#DejaVuSans-30" transform="translate(127.246094 0)"/>
      </g>
     </g>
    </g>
    <g id="ytick_3">
     <g id="line2d_17">
      <path d="M 57.6 219.726862 
L 414.72 219.726862 
" clip-path="url(#p299756215d)" style="fill: none; stroke: #b0b0b0; stroke-width: 0.8; stroke-linecap: square"/>
     </g>
     <g id="line2d_18">
      <g>
       <use xlink:href="#m51cfe1a9f8" x="57.6" y="219.726862" style="stroke: #000000; stroke-width: 0.8"/>
      </g>
     </g>
     <g id="text_10">
      <!-- 150 -->
      <g transform="translate(31.5125 223.526081) scale(0.1 -0.1)">
       <use xlink:href="#DejaVuSans-31"/>
       <use xlink:href="#DejaVuSans-35" transform="translate(63.623047 0)"/>
       <use xlink:href="#DejaVuSans-30" transform="translate(127.246094 0)"/>
      </g>
     </g>
    </g>
    <g id="ytick_4">
     <g id="line2d_19">
      <path d="M 57.6 179.706471 
L 414.72 179.706471 
" clip-path="url(#p299756215d)" style="fill: none; stroke: #b0b0b0; stroke-width: 0.8; stroke-linecap: square"/>
     </g>
     <g id="line2d_20">
      <g>
       <use xlink:href="#m51cfe1a9f8" x="57.6" y="179.706471" style="stroke: #000000; stroke-width: 0.8"/>
      </g>
     </g>
     <g id="text_11">
      <!-- 200 -->
      <g transform="translate(31.5125 183.50569) scale(0.1 -0.1)">
       <use xlink:href="#DejaVuSans-32"/>
       <use xlink:href="#DejaVuSans-30" transform="translate(63.623047 0)"/>
       <use xlink:href="#DejaVuSans-30" transform="translate(127.246094 0)"/>
      </g>
     </g>
    </g>
    <g id="ytick_5">
     <g id="line2d_21">
      <path d="M 57.6 139.686081 
L 414.72 139.686081 
" clip-path="url(#p299756215d)" style="fill: none; stroke: #b0b0b0; stroke-width: 0.8; stroke-linecap: square"/>
     </g>
     <g id="line2d_22">
      <g>
       <use xlink:href="#m51cfe1a9f8" x="57.6" y="139.686081" style="stroke: #000000; stroke-width: 0.8"/>
      </g>
     </g>
     <g id="text_12">
      <!-- 250 -->
      <g transform="translate(31.5125 143.485299) scale(0.1 -0.1)">
       <use xlink:href="#DejaVuSans-32"/>
       <use xlink:href="#DejaVuSans-35" transform="translate(63.623047 0)"/>
       <use xlink:href="#DejaVuSans-30" transform="translate(127.246094 0)"/>
      </g>
     </g>
    </g>
    <g id="ytick_6">
     <g id="line2d_23">
      <path d="M 57.6 99.66569 
L 414.72 99.66569 
" clip-path="url(#p299756215d)" style="fill: none; stroke: #b0b0b0; stroke-width: 0.8; stroke-linecap: square"/>
     </g>
     <g id="line2d_24">
      <g>
       <use xlink:href="#m51cfe1a9f8" x="57.6" y="99.66569" style="stroke: #000000; stroke-width: 0.8"/>
      </g>
     </g>
     <g id="text_13">
      <!-- 300 -->
      <g transform="translate(31.5125 103.464909) scale(0.1 -0.1)">
       <use xlink:href="#DejaVuSans-33"/>
       <use xlink:href="#DejaVuSans-30" transform="translate(63.623047 0)"/>
       <use xlink:href="#DejaVuSans-30" transform="translate(127.246094 0)"/>
      </g>
     </g>
    </g>
    <g id="ytick_7">
     <g id="line2d_25">
      <path d="M 57.6 59.645299 
L 414.72 59.645299 
" clip-path="url(#p299756215d)" style="fill: none; stroke: #b0b0b0; stroke-width: 0.8; stroke-linecap: square"/>
     </g>
     <g id="line2d_26">
      <g>
       <use xlink:href="#m51cfe1a9f8" x="57.6" y="59.645299" style="stroke: #000000; stroke-width: 0.8"/>
      </g>
     </g>
     <g id="text_14">
      <!-- 350 -->
      <g transform="translate(31.5125 63.444518) scale(0.1 -0.1)">
       <use xlink:href="#DejaVuSans-33"/>
       <use xlink:href="#DejaVuSans-35" transform="translate(63.623047 0)"/>
       <use xlink:href="#DejaVuSans-30" transform="translate(127.246094 0)"/>
      </g>
     </g>
    </g>
    <g id="text_15">
     <!-- Speed (km/h) -->
     <g transform="translate(25.432812 208.313156) rotate(-90) scale(0.1 -0.1)">
      <defs>
       <path id="DejaVuSans-53" d="M 3425 4513 
L 3425 3897 
Q 3066 4069 2747 4153 
Q 2428 4238 2131 4238 
Q 1616 4238 1336 4038 
Q 1056 3838 1056 3469 
Q 1056 3159 1242 3001 
Q 1428 2844 1947 2747 
L 2328 2669 
Q 3034 2534 3370 2195 
Q 3706 1856 3706 1288 
Q 3706 609 3251 259 
Q 2797 -91 1919 -91 
Q 1588 -91 1214 -16 
Q 841 59 441 206 
L 441 856 
Q 825 641 1194 531 
Q 1563 422 1919 422 
Q 2459 422 2753 634 
Q 3047 847 3047 1241 
Q 3047 1584 2836 1778 
Q 2625 1972 2144 2069 
L 1759 2144 
Q 1053 2284 737 2584 
Q 422 2884 422 3419 
Q 422 4038 858 4394 
Q 1294 4750 2059 4750 
Q 2388 4750 2728 4690 
Q 3069 4631 3425 4513 
z
" transform="scale(0.015625)"/>
       <path id="DejaVuSans-70" d="M 1159 525 
L 1159 -1331 
L 581 -1331 
L 581 3500 
L 1159 3500 
L 1159 2969 
Q 1341 3281 1617 3432 
Q 1894 3584 2278 3584 
Q 2916 3584 3314 3078 
Q 3713 2572 3713 1747 
Q 3713 922 3314 415 
Q 2916 -91 2278 -91 
Q 1894 -91 1617 61 
Q 1341 213 1159 525 
z
M 3116 1747 
Q 3116 2381 2855 2742 
Q 2594 3103 2138 3103 
Q 1681 3103 1420 2742 
Q 1159 2381 1159 1747 
Q 1159 1113 1420 752 
Q 1681 391 2138 391 
Q 2594 391 2855 752 
Q 3116 1113 3116 1747 
z
" transform="scale(0.015625)"/>
       <path id="DejaVuSans-64" d="M 2906 2969 
L 2906 4863 
L 3481 4863 
L 3481 0 
L 2906 0 
L 2906 525 
Q 2725 213 2448 61 
Q 2172 -91 1784 -91 
Q 1150 -91 751 415 
Q 353 922 353 1747 
Q 353 2572 751 3078 
Q 1150 3584 1784 3584 
Q 2172 3584 2448 3432 
Q 2725 3281 2906 2969 
z
M 947 1747 
Q 947 1113 1208 752 
Q 1469 391 1925 391 
Q 2381 391 2643 752 
Q 2906 1113 2906 1747 
Q 2906 2381 2643 2742 
Q 2381 3103 1925 3103 
Q 1469 3103 1208 2742 
Q 947 2381 947 1747 
z
" transform="scale(0.015625)"/>
       <path id="DejaVuSans-6b" d="M 581 4863 
L 1159 4863 
L 1159 1991 
L 2875 3500 
L 3609 3500 
L 1753 1863 
L 3688 0 
L 2938 0 
L 1159 1709 
L 1159 0 
L 581 0 
L 581 4863 
z
" transform="scale(0.015625)"/>
       <path id="DejaVuSans-2f" d="M 1625 4666 
L 2156 4666 
L 531 -594 
L 0 -594 
L 1625 4666 
z
" transform="scale(0.015625)"/>
       <path id="DejaVuSans-68" d="M 3513 2113 
L 3513 0 
L 2938 0 
L 2938 2094 
Q 2938 2591 2744 2837 
Q 2550 3084 2163 3084 
Q 1697 3084 1428 2787 
Q 1159 2491 1159 1978 
L 1159 0 
L 581 0 
L 581 4863 
L 1159 4863 
L 1159 2956 
Q 1366 3272 1645 3428 
Q 1925 3584 2291 3584 
Q 2894 3584 3203 3211 
Q 3513 2838 3513 2113 
z
" transform="scale(0.015625)"/>
      </defs>
      <use xlink:href="#DejaVuSans-53"/>
      <use xlink:href="#DejaVuSans-70" transform="translate(63.476562 0)"/>
      <use xlink:href="#DejaVuSans-65" transform="translate(126.953125 0)"/>
      <use xlink:href="#DejaVuSans-65" transform="translate(188.476562 0)"/>
      <use xlink:href="#DejaVuSans-64" transform="translate(250 0)"/>
      <use xlink:href="#DejaVuSans-20" transform="translate(313.476562 0)"/>
      <use xlink:href="#DejaVuSans-28" transform="translate(345.263672 0)"/>
      <use xlink:href="#DejaVuSans-6b" transform="translate(384.277344 0)"/>
      <use xlink:href="#DejaVuSans-6d" transform="translate(442.1875 0)"/>
      <use xlink:href="#DejaVuSans-2f" transform="translate(539.599609 0)"/>
      <use xlink:href="#DejaVuSans-68" transform="translate(573.291016 0)"/>
      <use xlink:href="#DejaVuSans-29" transform="translate(636.669922 0)"/>
     </g>
    </g>
   </g>
   <g id="line2d_27">
    <path d="M 73.832727 247.662413 
L 73.916166 247.517286 
L 74.251104 239.181064 
L 74.673573 209.319006 
L 74.758569 206.575783 
L 75.185985 156.270782 
L 75.271941 156.08936 
L 75.44431 145.264051 
L 75.617273 144.528142 
L 75.703972 144.526744 
L 75.964928 142.918798 
L 76.402737 142.918798 
L 76.84391 140.96064 
L 77.109958 140.96064 
L 77.287807 140.499844 
L 77.555292 140.23707 
L 77.734105 140.029038 
L 78.003107 137.759306 
L 78.092993 137.759306 
L 78.273106 137.229855 
L 78.363338 137.186886 
L 78.907351 134.918161 
L 80.007768 134.926887 
L 80.192485 135.22621 
L 80.377542 137.186886 
L 80.4702 137.229855 
L 80.562944 137.759306 
L 80.748698 138.953883 
L 80.841708 138.953883 
L 81.12129 135.22621 
L 81.214672 135.164992 
L 81.30815 133.077141 
L 81.589176 123.753743 
L 81.683047 123.663453 
L 81.871074 123.168741 
L 81.965226 123.059923 
L 82.153794 122.462649 
L 82.342705 122.462649 
L 82.531954 123.059923 
L 82.721541 123.168741 
L 82.816462 123.168741 
L 83.101733 124.94882 
L 83.292303 135.254338 
L 83.483121 140.285245 
L 83.674133 142.111291 
L 84.15215 142.111291 
L 84.343456 139.039755 
L 84.534912 135.254338 
L 84.726633 124.94882 
L 84.918736 123.29395 
L 85.207735 123.059923 
L 85.400935 123.059923 
L 85.594535 109.383399 
L 85.98283 109.383399 
L 86.177476 123.059923 
L 86.47001 123.29395 
L 86.665409 124.94882 
L 86.763223 124.94882 
L 86.959084 125.330142 
L 87.351739 125.302929 
L 87.54854 124.94882 
L 87.74566 123.29395 
L 89.033829 123.29395 
L 89.23246 125.302929 
L 89.430981 125.341834 
L 89.62938 125.581346 
L 90.823086 125.581346 
L 91.022383 127.862522 
L 91.916068 127.862522 
L 92.111807 132.026157 
L 92.68406 132.331899 
L 93.30889 132.381647 
L 93.558455 132.381647 
L 93.947252 149.351732 
L 94.092489 151.90847 
L 94.300561 195.545081 
L 94.563357 198.780593 
L 95.05949 210.225658 
L 95.913679 210.225658 
L 95.974188 210.478174 
L 96.214783 214.80411 
L 96.274532 215.042792 
L 96.570502 217.943044 
L 96.745587 218.077665 
L 96.803463 218.077665 
L 96.975591 217.876291 
L 97.594348 217.876291 
L 97.761594 219.359577 
L 97.873089 220.023321 
L 98.152407 222.407709 
L 99.118546 222.407709 
L 99.40875 219.263584 
L 99.467429 219.166165 
L 99.645165 212.764033 
L 99.704979 212.304924 
L 99.885858 197.496403 
L 100.374543 190.47711 
L 100.994426 190.219472 
L 101.25084 190.181251 
L 101.512232 190.105255 
L 101.578208 190.068078 
L 101.710779 188.536546 
L 101.777336 188.366777 
L 101.977876 186.509327 
L 102.247206 186.110257 
L 102.725128 185.253584 
L 104.155947 185.152041 
L 104.982919 177.788557 
L 105.134755 172.459359 
L 105.516081 171.004957 
L 105.90089 170.991941 
L 105.978334 172.102415 
L 106.133725 178.187123 
L 106.446679 181.998808 
L 106.525407 182.854373 
L 107.162375 176.438629 
L 107.404472 164.792355 
L 107.72989 156.140299 
L 107.811694 155.862512 
L 108.058138 151.026187 
L 108.389011 151.026187 
L 108.805999 154.369733 
L 109.564334 154.369733 
L 109.903276 153.742999 
L 110.158126 150.290475 
L 110.243206 150.257453 
L 110.669499 148.735149 
L 110.754919 148.675661 
L 110.840385 148.4387 
L 111.011456 147.603256 
L 111.097067 147.54414 
L 111.440197 146.570763 
L 111.526187 146.546513 
L 111.957521 142.322973 
L 112.217156 138.844188 
L 112.476985 132.293721 
L 112.995273 132.184043 
L 113.254357 126.554875 
L 113.51476 125.493063 
L 117.078776 125.493063 
L 117.260933 121.683679 
L 119.566843 121.683679 
L 119.846441 136.412879 
L 120.313281 160.308424 
L 120.500195 161.460497 
L 120.593671 161.784349 
L 120.687151 162.719403 
L 120.874114 165.348138 
L 122.741857 165.337244 
L 122.928628 161.784349 
L 123.302374 160.308424 
L 123.863423 146.906784 
L 124.050595 136.80701 
L 124.144222 134.882199 
L 124.331575 122.395414 
L 124.425306 122.323306 
L 124.706756 121.781305 
L 124.988649 118.731949 
L 125.176865 118.367422 
L 126.120728 118.266368 
L 126.592897 117.785515 
L 126.970469 117.603147 
L 127.348227 117.524198 
L 127.537211 117.405284 
L 129.149475 117.372483 
L 129.913219 116.67727 
L 130.771889 116.67727 
L 130.962523 116.485734 
L 132.300757 115.951414 
L 132.781662 115.60563 
L 132.974421 115.259216 
L 133.263952 115.259216 
L 133.553916 113.527812 
L 134.038055 113.389017 
L 134.814809 113.185408 
L 135.204765 112.969814 
L 135.400215 112.72003 
L 135.498034 112.689811 
L 135.79178 112.210917 
L 135.889769 112.209747 
L 136.085825 112.000379 
L 136.968756 111.898831 
L 138.24803 111.439513 
L 138.839475 111.279145 
L 139.036374 111.208381 
L 139.134788 111.156125 
L 139.826044 109.850053 
L 140.224563 109.449442 
L 140.623343 109.123657 
L 141.120917 108.097564 
L 145.234012 108.170084 
L 145.435215 110.036932 
L 147.963643 110.036932 
L 148.166529 105.392259 
L 149.078533 105.381247 
L 149.484701 104.594782 
L 149.586378 104.572536 
L 149.78987 104.054001 
L 150.401259 103.790508 
L 150.605337 103.672882 
L 151.422797 103.576522 
L 151.627419 103.490526 
L 152.856921 103.469336 
L 154.603928 103.536295 
L 155.008846 103.676872 
L 155.108644 104.128868 
L 155.499258 109.323658 
L 155.688087 110.978624 
L 156.049144 111.061809 
L 156.771344 127.614736 
L 157.25987 148.865631 
L 157.769496 167.424729 
L 158.071281 169.394343 
L 158.30637 219.894102 
L 158.538109 220.426536 
L 158.595349 220.439059 
L 158.708592 221.290256 
L 159.087827 229.871163 
L 159.292596 229.880057 
L 159.440913 230.439476 
L 159.489397 230.478397 
L 159.632108 233.408574 
L 159.770767 233.526722 
L 160.164016 233.631864 
L 160.371441 237.276116 
L 160.452779 237.469861 
L 160.533343 238.197165 
L 160.966613 255.195682 
L 161.198965 256.370304 
L 161.912041 260.29572 
L 162.593297 260.29572 
L 162.937356 256.154594 
L 163.185288 255.774538 
L 163.221239 255.695654 
L 163.329899 252.535234 
L 163.476693 250.077313 
L 163.701851 249.524517 
L 163.817844 249.168152 
L 164.019102 247.156408 
L 164.102997 247.156408 
L 164.188762 246.403272 
L 164.365183 243.866515 
L 164.410175 243.773183 
L 164.593016 241.229716 
L 164.639332 240.968357 
L 164.826337 236.556608 
L 165.015177 235.114611 
L 165.206474 233.773838 
L 165.254932 233.765693 
L 165.303711 233.477268 
L 165.452318 231.844827 
L 165.605045 231.453554 
L 166.034026 210.826652 
L 166.089591 210.273087 
L 166.373355 199.358731 
L 166.966614 199.270375 
L 167.0882 193.672945 
L 167.333474 184.770914 
L 167.395341 184.677593 
L 167.966195 181.955117 
L 168.497899 181.372945 
L 169.46603 181.372945 
L 169.607409 178.058338 
L 169.965392 170.312047 
L 170.110383 168.077846 
L 170.256342 165.36592 
L 171.379278 165.36592 
L 171.686803 162.494468 
L 171.841831 162.105164 
L 172.86685 157.041935 
L 173.506902 154.294235 
L 173.830603 153.230503 
L 174.157276 151.409966 
L 174.819457 147.648246 
L 175.575984 144.89803 
L 175.914973 144.336547 
L 176.170998 144.051931 
L 176.428909 143.37755 
L 176.688879 142.082843 
L 177.038689 139.198347 
L 177.303325 136.954794 
L 177.65824 136.474212 
L 177.836101 136.047139 
L 178.103008 135.901327 
L 178.726892 135.901327 
L 179.084569 135.459095 
L 179.444035 134.993916 
L 179.988135 133.873657 
L 180.721468 133.805967 
L 181.182674 132.003962 
L 181.460035 131.535968 
L 181.645257 131.433585 
L 181.923775 130.015346 
L 182.016839 129.970249 
L 182.2033 129.408324 
L 183.514239 129.408324 
L 183.609111 129.970249 
L 183.799771 131.535968 
L 183.895499 131.650877 
L 184.183911 133.596245 
L 184.280357 133.873657 
L 184.570201 140.038174 
L 184.666884 140.579267 
L 184.86017 142.159465 
L 184.956714 142.159465 
L 185.149474 140.038174 
L 185.341875 133.596245 
L 185.534114 132.441076 
L 186.40257 132.441076 
L 186.597486 133.596245 
L 186.695334 133.596245 
L 186.891745 140.967493 
L 186.99027 142.159465 
L 187.187866 147.614895 
L 187.386071 150.163952 
L 187.485359 150.163952 
L 187.684216 157.613849 
L 187.883332 159.099966 
L 187.982943 159.235101 
L 188.182247 159.099966 
L 188.381726 155.902046 
L 188.981725 140.967493 
L 189.082008 140.967493 
L 189.282867 133.439422 
L 189.484149 132.441076 
L 189.685897 120.215524 
L 189.786959 120.215524 
L 190.09096 114.669157 
L 190.396237 114.306559 
L 190.600349 114.559076 
L 192.031084 114.517551 
L 192.542743 107.090508 
L 192.747896 103.16273 
L 192.953371 102.625537 
L 193.056231 102.549321 
L 193.159177 101.542338 
L 193.365355 98.424575 
L 193.675447 94.540989 
L 194.090756 94.540989 
L 194.194963 94.868656 
L 194.403867 98.424575 
L 194.508537 98.660153 
L 194.718202 101.742616 
L 194.92816 102.625537 
L 195.138319 103.16273 
L 195.453835 103.16273 
L 195.559068 103.0376 
L 195.664332 102.625537 
L 195.874957 101.542338 
L 196.085715 100.993284 
L 197.141688 100.993284 
L 197.353325 103.0376 
L 197.565106 104.233914 
L 202.184258 104.233914 
L 202.292634 104.004937 
L 202.509463 98.642301 
L 202.617914 98.642301 
L 202.94341 95.382016 
L 203.051961 95.382016 
L 203.595196 93.698032 
L 203.921584 90.501296 
L 204.139362 90.501296 
L 204.357274 90.256283 
L 205.995053 90.256283 
L 206.213821 87.053086 
L 208.406989 87.053086 
L 208.846959 90.256283 
L 209.286573 90.256283 
L 209.506335 87.969166 
L 209.616243 87.969166 
L 210.056311 84.128932 
L 210.276761 84.128932 
L 210.497562 75.269556 
L 210.60808 75.269556 
L 211.161543 63.222697 
L 211.383215 63.194222 
L 211.826825 53.568 
L 211.937786 53.568 
L 212.159815 60.734823 
L 212.382026 63.194222 
L 212.493214 63.382785 
L 212.827087 65.752478 
L 212.938454 71.219608 
L 216.731561 71.219608 
L 216.843572 71.440582 
L 217.404092 99.395259 
L 220.101151 99.395259 
L 220.326141 98.463374 
L 220.438699 97.927511 
L 221.453131 79.57829 
L 221.565943 79.06737 
L 221.678762 77.487271 
L 222.581028 77.487271 
L 222.693721 77.192834 
L 222.806402 76.054657 
L 222.919087 76.054657 
L 223.257308 73.234642 
L 223.596074 71.147403 
L 225.966326 71.147403 
L 226.641077 77.487271 
L 227.551983 77.487271 
L 228.012566 99.619012 
L 229.542275 99.619012 
L 229.64068 100.664709 
L 230.2089 163.069262 
L 230.394004 175.137231 
L 231.597497 175.137231 
L 231.750837 175.737057 
L 231.827643 176.796209 
L 232.058459 187.865146 
L 232.210183 196.731287 
L 232.499358 207.152827 
L 232.990235 211.710868 
L 233.151272 211.903906 
L 233.551922 211.903906 
L 233.647858 213.684269 
L 234.43037 255.695066 
L 234.547304 255.698208 
L 234.735998 259.968078 
L 234.80953 260.307661 
L 234.953702 265.000639 
L 235.024601 265.11939 
L 235.094881 265.299979 
L 235.23346 269.462088 
L 235.400713 269.781727 
L 235.433153 270.238635 
L 235.590816 275.943559 
L 235.652049 276.106326 
L 235.830207 278.006528 
L 236.304558 280.737888 
L 236.41131 280.798244 
L 236.714679 283.769195 
L 236.738791 283.770966 
L 236.83403 284.538679 
L 236.974513 291.807888 
L 237.090369 294.19975 
L 237.206422 295.488 
L 237.514582 295.488 
L 237.685871 291.807888 
L 237.735912 291.691196 
L 237.761155 291.66171 
L 237.968401 276.489943 
L 238.157507 266.203427 
L 238.48712 266.190371 
L 238.651856 263.953237 
L 239.019265 262.693711 
L 239.191812 262.558033 
L 239.621466 262.101443 
L 239.657487 262.101443 
L 239.765071 261.444497 
L 240.014268 260.188891 
L 240.192251 259.920224 
L 240.479101 258.95996 
L 240.62383 258.898413 
L 241.72642 253.980661 
L 241.766476 253.978757 
L 242.011201 252.456618 
L 242.137609 248.966169 
L 242.180444 248.966169 
L 242.267208 248.297434 
L 242.400358 242.027227 
L 242.445615 241.595791 
L 242.6315 233.850747 
L 242.679276 233.754413 
L 243.028758 224.460553 
L 243.080466 224.185718 
L 243.237388 214.890093 
L 243.502488 209.631143 
L 243.715083 208.862178 
L 244.038359 208.862178 
L 244.20621 202.984713 
L 245.101158 202.984713 
L 245.285437 201.944727 
L 245.924431 201.888213 
L 246.12502 201.721362 
L 246.328951 198.627384 
L 246.744434 192.965881 
L 247.166617 170.57325 
L 247.237516 170.550703 
L 247.379759 170.267595 
L 247.665996 170.267595 
L 247.809967 169.508986 
L 248.026884 168.242237 
L 248.536539 166.035265 
L 248.609754 165.947257 
L 248.756672 164.05233 
L 249.053124 163.889926 
L 249.354126 163.793667 
L 249.582899 162.565483 
L 249.969379 158.525324 
L 250.283014 155.909489 
L 250.840788 153.879415 
L 250.921295 153.841154 
L 251.08284 153.550833 
L 251.163859 153.489112 
L 251.735686 151.191932 
L 251.900511 150.783811 
L 253.154597 145.79074 
L 255.242449 145.871728 
L 255.509865 151.20578 
L 255.688925 152.511898 
L 258.259263 152.511898 
L 259.297306 130.471914 
L 259.676091 130.471914 
L 259.77082 130.300402 
L 260.055322 127.094628 
L 260.340736 122.4863 
L 261.985655 122.4863 
L 262.18105 115.946025 
L 266.151654 115.946025 
L 266.457416 106.910867 
L 267.071257 106.910867 
L 267.276282 105.384251 
L 268.715171 105.384251 
L 269.128293 101.117722 
L 271.439548 101.117722 
L 271.545399 100.839971 
L 271.757048 99.138479 
L 272.603049 99.138479 
L 272.814661 94.287835 
L 273.026501 93.55558 
L 273.344893 93.55558 
L 273.664134 91.851452 
L 273.877384 91.697726 
L 273.984126 91.649925 
L 274.090942 91.220142 
L 274.411809 88.111437 
L 275.37765 88.111437 
L 275.700609 87.843691 
L 276.131979 87.910377 
L 276.780209 88.111437 
L 278.837953 88.111437 
L 279.164176 87.843691 
L 279.600115 86.012591 
L 279.818479 85.665265 
L 280.037065 86.15745 
L 280.146428 86.178583 
L 280.474735 87.044919 
L 280.803255 87.928558 
L 281.241522 88.459904 
L 281.680422 88.459904 
L 282.999967 86.099188 
L 283.329573 84.869829 
L 283.659403 84.65624 
L 283.989768 83.616641 
L 284.984923 83.607361 
L 285.206555 82.534511 
L 286.759841 82.04675 
L 287.315914 81.842342 
L 287.761355 81.764855 
L 288.095507 81.494049 
L 288.874757 81.441888 
L 289.208706 80.83879 
L 289.65462 80.384382 
L 290.660012 80.285523 
L 291.329471 80.098374 
L 292.677402 80.171934 
L 293.123988 80.323034 
L 293.984555 80.388712 
L 294.088194 82.098764 
L 294.191015 87.997579 
L 294.394024 102.179219 
L 295.16472 150.190123 
L 295.346697 154.392082 
L 295.436273 154.496487 
L 295.699889 156.057281 
L 295.786189 156.070832 
L 296.040834 156.635587 
L 296.371634 160.839767 
L 296.613894 168.051514 
L 296.772646 171.536332 
L 297.006702 175.938287 
L 297.38775 175.938287 
L 297.612414 177.117479 
L 298.99495 177.117479 
L 299.134418 176.758318 
L 300.522733 176.758318 
L 300.714316 178.041729 
L 300.904412 190.501775 
L 301.464187 196.137455 
L 302.440655 196.137455 
L 302.501839 196.019861 
L 302.808723 193.610921 
L 302.87033 193.595074 
L 303.055662 193.122931 
L 303.428745 190.612541 
L 303.491254 190.501775 
L 303.805322 186.287317 
L 304.058464 180.821304 
L 304.313179 179.882664 
L 304.826803 176.416144 
L 305.685605 176.396322 
L 306.026753 176.46042 
L 306.233897 177.7011 
L 306.794044 181.158095 
L 307.077846 190.815995 
L 308.895184 190.815995 
L 309.565236 179.594938 
L 309.640702 179.51532 
L 309.868674 177.004038 
L 310.642096 167.211055 
L 311.033958 163.366691 
L 312.061627 151.222705 
L 312.220744 151.091864 
L 312.459846 150.15556 
L 312.619695 145.065766 
L 312.860592 138.293742 
L 313.022203 138.264342 
L 313.430903 137.64369 
L 313.762144 137.611823 
L 314.923869 137.64369 
L 315.342896 138.264342 
L 315.596802 138.293742 
L 315.681793 138.720063 
L 315.852248 141.476642 
L 316.108971 141.591328 
L 316.539311 141.616177 
L 318.909515 141.531913 
L 319.177445 141.451396 
L 319.356757 138.856817 
L 319.53668 138.732788 
L 319.989046 138.645475 
L 320.079917 138.527396 
L 320.444559 125.858606 
L 323.123947 125.858606 
L 323.311018 126.333164 
L 323.404709 126.356563 
L 323.592342 129.149193 
L 324.250685 130.442217 
L 325.668034 130.442217 
L 325.952647 129.539073 
L 326.332841 128.773658 
L 326.523293 126.333164 
L 326.618619 126.29345 
L 326.714015 126.071593 
L 326.809483 125.508533 
L 327.000647 120.891255 
L 327.671375 106.46596 
L 328.246136 103.558797 
L 330.461977 103.558797 
L 330.558946 103.726087 
L 330.655898 105.571159 
L 331.140369 123.364956 
L 331.527594 130.378747 
L 331.721084 132.584197 
L 331.817798 132.768589 
L 332.590168 143.973325 
L 333.461365 157.135324 
L 335.79956 157.135324 
L 336.133898 153.812275 
L 337.932045 153.812275 
L 337.999017 154.505642 
L 338.130459 160.432781 
L 338.322055 173.390196 
L 338.384624 173.703497 
L 338.629651 181.012546 
L 338.808527 210.010971 
L 339.479074 226.933277 
L 339.58353 229.058919 
L 339.884852 235.074697 
L 339.933395 235.140135 
L 340.214776 238.709611 
L 340.819818 239.517434 
L 341.736892 255.479022 
L 341.850871 255.589226 
L 341.888871 255.704302 
L 342.32981 264.550506 
L 343.109134 264.550506 
L 343.294403 253.820255 
L 343.445872 253.409044 
L 343.484047 253.260136 
L 343.637453 248.450405 
L 344.138639 248.427063 
L 344.259275 244.332162 
L 344.811528 244.311899 
L 344.899192 244.311899 
L 345.125959 243.28101 
L 345.317905 243.28101 
L 345.467077 239.009229 
L 346.493271 233.391025 
L 346.74541 230.859604 
L 347.094319 230.859604 
L 347.58783 224.070669 
L 347.882237 224.070669 
L 347.980269 223.793159 
L 348.127276 222.833236 
L 348.421449 222.833236 
L 348.618533 222.084358 
L 348.668025 222.083754 
L 349.067641 220.533319 
L 349.270335 220.426474 
L 349.423497 220.223118 
L 349.628927 220.223118 
L 349.940349 212.751675 
L 350.151253 212.629047 
L 350.419684 212.211611 
L 350.473979 212.121544 
L 350.692799 211.186015 
L 351.254054 210.837382 
L 352.265841 210.918655 
L 352.680706 211.267571 
L 352.914433 214.963928 
L 353.369739 214.963928 
L 353.425313 215.1819 
L 353.644621 216.932282 
L 353.964819 217.743847 
L 354.017336 217.765108 
L 354.226499 218.122542 
L 354.699527 218.171254 
L 354.962691 219.938805 
L 355.066887 220.301124 
L 355.221461 223.909207 
L 355.980992 223.916974 
L 356.494303 223.875908 
L 356.59835 223.629581 
L 356.755484 222.140293 
L 357.183046 215.37489 
L 357.634181 212.796205 
L 357.988028 208.843562 
L 359.54756 187.654766 
L 360.628325 183.20544 
L 360.835691 178.105729 
L 361.115918 169.50267 
L 361.186703 169.458447 
L 361.472186 168.144362 
L 361.544027 168.054325 
L 361.760382 165.865455 
L 362.051055 164.936295 
L 362.493804 164.936295 
L 362.568614 164.758076 
L 362.719256 163.727868 
L 362.795084 163.617126 
L 362.94776 162.611514 
L 363.334837 162.286148 
L 363.80724 162.286148 
L 364.205202 160.738408 
L 364.28512 160.701482 
L 364.445328 160.448028 
L 364.686596 160.341486 
L 364.928986 159.524939 
L 365.498781 159.417482 
L 365.744743 153.40032 
L 366.740506 153.40032 
L 366.824471 152.355611 
L 366.99287 148.830785 
L 367.077301 148.738197 
L 367.246613 147.154006 
L 367.416513 146.670682 
L 367.501678 145.440864 
L 367.672427 140.72126 
L 367.843742 140.449243 
L 368.188061 134.548349 
L 368.360944 132.440919 
L 368.794741 140.61578 
L 368.881707 141.20458 
L 369.055808 145.440864 
L 369.230156 146.925093 
L 369.404789 147.539331 
L 369.579756 148.738197 
L 369.667379 149.056655 
L 369.84294 155.804268 
L 369.93089 156.024612 
L 370.107158 160.686694 
L 370.283929 161.376298 
L 370.461147 161.520694 
L 370.994794 161.520694 
L 371.173053 164.195588 
L 371.529529 164.195588 
L 371.796672 165.785714 
L 371.974893 166.182012 
L 372.064104 166.245042 
L 372.332362 167.199887 
L 372.511886 167.43825 
L 373.415527 167.43825 
L 374.049825 165.666094 
L 374.321657 164.195588 
L 374.412262 164.161269 
L 374.59347 163.330438 
L 374.684078 163.305768 
L 374.865311 161.391032 
L 374.955933 158.563954 
L 375.408963 129.710008 
L 375.499531 129.420343 
L 375.680625 127.584924 
L 375.952222 127.027512 
L 376.223952 126.788089 
L 376.314606 126.771972 
L 376.859999 124.908 
L 376.951168 124.786117 
L 377.316407 122.930381 
L 377.407815 122.930381 
L 377.590689 122.431957 
L 379.791422 122.431957 
L 379.883893 122.973945 
L 380.161822 129.085919 
L 380.254652 130.015286 
L 380.533779 143.664747 
L 380.627055 145.384619 
L 381.001518 156.946137 
L 381.190162 157.037522 
L 381.285054 157.037522 
L 381.950674 178.060442 
L 382.137881 178.54283 
L 382.930721 179.170152 
L 383.092662 179.522347 
L 383.171829 180.606781 
L 383.477736 189.395177 
L 383.908421 196.144055 
L 384.112041 196.366132 
L 384.178345 196.413161 
L 384.499923 197.575534 
L 384.928653 199.225832 
L 385.162147 216.919757 
L 385.218896 217.04514 
L 385.749763 222.776595 
L 386.402858 237.877988 
L 386.596331 239.602307 
L 386.970147 267.450393 
L 388.046699 267.44316 
L 388.309683 258.838984 
L 388.396744 258.610898 
L 388.657914 256.685647 
L 388.701692 256.644793 
L 389.011968 254.343444 
L 389.101931 254.176768 
L 389.238111 252.410117 
L 389.562184 251.302588 
L 389.751581 236.01508 
L 389.89584 232.835538 
L 390.240502 231.984597 
L 390.442745 231.675399 
L 390.650115 221.138544 
L 390.702943 221.090539 
L 390.864185 214.705164 
L 391.085623 204.116573 
L 391.426916 196.160966 
L 392.744202 195.53322 
L 392.937301 195.090438 
L 393.001956 194.964099 
L 393.652735 188.698678 
L 394.057165 188.687903 
L 394.264433 188.116389 
L 394.334191 188.026593 
L 394.474641 187.292594 
L 394.902528 184.096031 
L 396.683688 184.096031 
L 396.760018 184.710519 
L 397.067136 193.0021 
L 397.533791 203.131401 
L 397.612338 203.131401 
L 397.691113 204.069491 
L 398.167496 221.78117 
L 398.487273 225.71007 
L 398.487273 225.71007 
" clip-path="url(#p299756215d)" style="fill: none; stroke: #800080; stroke-width: 1.5; stroke-linecap: square"/>
   </g>
   <g id="patch_3">
    <path d="M 57.6 307.584 
L 57.6 41.472 
" style="fill: none; stroke: #000000; stroke-width: 0.8; stroke-linejoin: miter; stroke-linecap: square"/>
   </g>
   <g id="patch_4">
    <path d="M 414.72 307.584 
L 414.72 41.472 
" style="fill: none; stroke: #000000; stroke-width: 0.8; stroke-linejoin: miter; stroke-linecap: square"/>
   </g>
   <g id="patch_5">
    <path d="M 57.6 307.584 
L 414.72 307.584 
" style="fill: none; stroke: #000000; stroke-width: 0.8; stroke-linejoin: miter; stroke-linecap: square"/>
   </g>
   <g id="patch_6">
    <path d="M 57.6 41.472 
L 414.72 41.472 
" style="fill: none; stroke: #000000; stroke-width: 0.8; stroke-linejoin: miter; stroke-linecap: square"/>
   </g>
   <g id="text_16">
    <!-- Speed -->
    <g transform="translate(217.349063 35.472) scale(0.12 -0.12)">
     <use xlink:href="#DejaVuSans-53"/>
     <use xlink:href="#DejaVuSans-70" transform="translate(63.476562 0)"/>
     <use xlink:href="#DejaVuSans-65" transform="translate(126.953125 0)"/>
     <use xlink:href="#DejaVuSans-65" transform="translate(188.476562 0)"/>
     <use xlink:href="#DejaVuSans-64" transform="translate(250 0)"/>
    </g>
   </g>
   <g id="legend_1">
    <g id="patch_7">
     <path d="M 344.368438 64.150125 
L 407.72 64.150125 
Q 409.72 64.150125 409.72 62.150125 
L 409.72 48.472 
Q 409.72 46.472 407.72 46.472 
L 344.368438 46.472 
Q 342.368438 46.472 342.368438 48.472 
L 342.368438 62.150125 
Q 342.368438 64.150125 344.368438 64.150125 
z
" style="fill: #ffffff; opacity: 0.8; stroke: #cccccc; stroke-linejoin: miter"/>
    </g>
    <g id="line2d_28">
     <path d="M 346.368438 54.570438 
L 356.368438 54.570438 
L 366.368438 54.570438 
" style="fill: none; stroke: #800080; stroke-width: 1.5; stroke-linecap: square"/>
    </g>
    <g id="text_17">
     <!-- Speed -->
     <g transform="translate(374.368438 58.070438) scale(0.1 -0.1)">
      <use xlink:href="#DejaVuSans-53"/>
      <use xlink:href="#DejaVuSans-70" transform="translate(63.476562 0)"/>
      <use xlink:href="#DejaVuSans-65" transform="translate(126.953125 0)"/>
      <use xlink:href="#DejaVuSans-65" transform="translate(188.476562 0)"/>
      <use xlink:href="#DejaVuSans-64" transform="translate(250 0)"/>
     </g>
    </g>
   </g>
  </g>
 </g>
 <defs>
  <clipPath id="p299756215d">
   <rect x="57.6" y="41.472" width="357.12" height="266.112"/>
  </clipPath>
 </defs>
</svg>
