<?xml version="1.0" encoding="utf-8" standalone="no"?>
<!DOCTYPE svg PUBLIC "-//W3C//DTD SVG 1.1//EN"
  "http://www.w3.org/Graphics/SVG/1.1/DTD/svg11.dtd">
<svg xmlns:xlink="http://www.w3.org/1999/xlink" width="460.8pt" height="345.6pt" viewBox="0 0 460.8 345.6" xmlns="http://www.w3.org/2000/svg" version="1.1">
 <metadata>
  <rdf:RDF xmlns:dc="http://purl.org/dc/elements/1.1/" xmlns:cc="http://creativecommons.org/ns#" xmlns:rdf="http://www.w3.org/1999/02/22-rdf-syntax-ns#">
   <cc:Work>
    <dc:type rdf:resource="http://purl.org/dc/dcmitype/StillImage"/>
    <dc:date>2025-06-11T00:18:21.015503</dc:date>
    <dc:format>image/svg+xml</dc:format>
    <dc:creator>
     <cc:Agent>
      <dc:title>Matplotlib v3.10.1, https://matplotlib.org/</dc:title>
     </cc:Agent>
    </dc:creator>
   </cc:Work>
  </rdf:RDF>
 </metadata>
 <defs>
  <style type="text/css">*{stroke-linejoin: round; stroke-linecap: butt}</style>
 </defs>
 <g id="figure_1">
  <g id="patch_1">
   <path d="M 0 345.6 
L 460.8 345.6 
L 460.8 0 
L 0 0 
z
" style="fill: #ffffff"/>
  </g>
  <g id="axes_1">
   <g id="patch_2">
    <path d="M 57.6 307.584 
L 414.72 307.584 
L 414.72 41.472 
L 57.6 41.472 
z
" style="fill: #ffffff"/>
   </g>
   <g id="matplotlib.axis_1">
    <g id="xtick_1">
     <g id="line2d_1">
      <path d="M 73.823333 307.584 
L 73.823333 41.472 
" clip-path="url(#pf2898922ed)" style="fill: none; stroke: #b0b0b0; stroke-width: 0.8; stroke-linecap: square"/>
     </g>
     <g id="line2d_2">
      <defs>
       <path id="mdf1f260f93" d="M 0 0 
L 0 3.5 
" style="stroke: #000000; stroke-width: 0.8"/>
      </defs>
      <g>
       <use xlink:href="#mdf1f260f93" x="73.823333" y="307.584" style="stroke: #000000; stroke-width: 0.8"/>
      </g>
     </g>
     <g id="text_1">
      <!-- 0 -->
      <g transform="translate(70.642083 322.182437) scale(0.1 -0.1)">
       <defs>
        <path id="DejaVuSans-30" d="M 2034 4250 
Q 1547 4250 1301 3770 
Q 1056 3291 1056 2328 
Q 1056 1369 1301 889 
Q 1547 409 2034 409 
Q 2525 409 2770 889 
Q 3016 1369 3016 2328 
Q 3016 3291 2770 3770 
Q 2525 4250 2034 4250 
z
M 2034 4750 
Q 2819 4750 3233 4129 
Q 3647 3509 3647 2328 
Q 3647 1150 3233 529 
Q 2819 -91 2034 -91 
Q 1250 -91 836 529 
Q 422 1150 422 2328 
Q 422 3509 836 4129 
Q 1250 4750 2034 4750 
z
" transform="scale(0.015625)"/>
       </defs>
       <use xlink:href="#DejaVuSans-30"/>
      </g>
     </g>
    </g>
    <g id="xtick_2">
     <g id="line2d_3">
      <path d="M 136.073077 307.584 
L 136.073077 41.472 
" clip-path="url(#pf2898922ed)" style="fill: none; stroke: #b0b0b0; stroke-width: 0.8; stroke-linecap: square"/>
     </g>
     <g id="line2d_4">
      <g>
       <use xlink:href="#mdf1f260f93" x="136.073077" y="307.584" style="stroke: #000000; stroke-width: 0.8"/>
      </g>
     </g>
     <g id="text_2">
      <!-- 1000 -->
      <g transform="translate(123.348077 322.182437) scale(0.1 -0.1)">
       <defs>
        <path id="DejaVuSans-31" d="M 794 531 
L 1825 531 
L 1825 4091 
L 703 3866 
L 703 4441 
L 1819 4666 
L 2450 4666 
L 2450 531 
L 3481 531 
L 3481 0 
L 794 0 
L 794 531 
z
" transform="scale(0.015625)"/>
       </defs>
       <use xlink:href="#DejaVuSans-31"/>
       <use xlink:href="#DejaVuSans-30" transform="translate(63.623047 0)"/>
       <use xlink:href="#DejaVuSans-30" transform="translate(127.246094 0)"/>
       <use xlink:href="#DejaVuSans-30" transform="translate(190.869141 0)"/>
      </g>
     </g>
    </g>
    <g id="xtick_3">
     <g id="line2d_5">
      <path d="M 198.322822 307.584 
L 198.322822 41.472 
" clip-path="url(#pf2898922ed)" style="fill: none; stroke: #b0b0b0; stroke-width: 0.8; stroke-linecap: square"/>
     </g>
     <g id="line2d_6">
      <g>
       <use xlink:href="#mdf1f260f93" x="198.322822" y="307.584" style="stroke: #000000; stroke-width: 0.8"/>
      </g>
     </g>
     <g id="text_3">
      <!-- 2000 -->
      <g transform="translate(185.597822 322.182437) scale(0.1 -0.1)">
       <defs>
        <path id="DejaVuSans-32" d="M 1228 531 
L 3431 531 
L 3431 0 
L 469 0 
L 469 531 
Q 828 903 1448 1529 
Q 2069 2156 2228 2338 
Q 2531 2678 2651 2914 
Q 2772 3150 2772 3378 
Q 2772 3750 2511 3984 
Q 2250 4219 1831 4219 
Q 1534 4219 1204 4116 
Q 875 4013 500 3803 
L 500 4441 
Q 881 4594 1212 4672 
Q 1544 4750 1819 4750 
Q 2544 4750 2975 4387 
Q 3406 4025 3406 3419 
Q 3406 3131 3298 2873 
Q 3191 2616 2906 2266 
Q 2828 2175 2409 1742 
Q 1991 1309 1228 531 
z
" transform="scale(0.015625)"/>
       </defs>
       <use xlink:href="#DejaVuSans-32"/>
       <use xlink:href="#DejaVuSans-30" transform="translate(63.623047 0)"/>
       <use xlink:href="#DejaVuSans-30" transform="translate(127.246094 0)"/>
       <use xlink:href="#DejaVuSans-30" transform="translate(190.869141 0)"/>
      </g>
     </g>
    </g>
    <g id="xtick_4">
     <g id="line2d_7">
      <path d="M 260.572567 307.584 
L 260.572567 41.472 
" clip-path="url(#pf2898922ed)" style="fill: none; stroke: #b0b0b0; stroke-width: 0.8; stroke-linecap: square"/>
     </g>
     <g id="line2d_8">
      <g>
       <use xlink:href="#mdf1f260f93" x="260.572567" y="307.584" style="stroke: #000000; stroke-width: 0.8"/>
      </g>
     </g>
     <g id="text_4">
      <!-- 3000 -->
      <g transform="translate(247.847567 322.182437) scale(0.1 -0.1)">
       <defs>
        <path id="DejaVuSans-33" d="M 2597 2516 
Q 3050 2419 3304 2112 
Q 3559 1806 3559 1356 
Q 3559 666 3084 287 
Q 2609 -91 1734 -91 
Q 1441 -91 1130 -33 
Q 819 25 488 141 
L 488 750 
Q 750 597 1062 519 
Q 1375 441 1716 441 
Q 2309 441 2620 675 
Q 2931 909 2931 1356 
Q 2931 1769 2642 2001 
Q 2353 2234 1838 2234 
L 1294 2234 
L 1294 2753 
L 1863 2753 
Q 2328 2753 2575 2939 
Q 2822 3125 2822 3475 
Q 2822 3834 2567 4026 
Q 2313 4219 1838 4219 
Q 1578 4219 1281 4162 
Q 984 4106 628 3988 
L 628 4550 
Q 988 4650 1302 4700 
Q 1616 4750 1894 4750 
Q 2613 4750 3031 4423 
Q 3450 4097 3450 3541 
Q 3450 3153 3228 2886 
Q 3006 2619 2597 2516 
z
" transform="scale(0.015625)"/>
       </defs>
       <use xlink:href="#DejaVuSans-33"/>
       <use xlink:href="#DejaVuSans-30" transform="translate(63.623047 0)"/>
       <use xlink:href="#DejaVuSans-30" transform="translate(127.246094 0)"/>
       <use xlink:href="#DejaVuSans-30" transform="translate(190.869141 0)"/>
      </g>
     </g>
    </g>
    <g id="xtick_5">
     <g id="line2d_9">
      <path d="M 322.822312 307.584 
L 322.822312 41.472 
" clip-path="url(#pf2898922ed)" style="fill: none; stroke: #b0b0b0; stroke-width: 0.8; stroke-linecap: square"/>
     </g>
     <g id="line2d_10">
      <g>
       <use xlink:href="#mdf1f260f93" x="322.822312" y="307.584" style="stroke: #000000; stroke-width: 0.8"/>
      </g>
     </g>
     <g id="text_5">
      <!-- 4000 -->
      <g transform="translate(310.097312 322.182437) scale(0.1 -0.1)">
       <defs>
        <path id="DejaVuSans-34" d="M 2419 4116 
L 825 1625 
L 2419 1625 
L 2419 4116 
z
M 2253 4666 
L 3047 4666 
L 3047 1625 
L 3713 1625 
L 3713 1100 
L 3047 1100 
L 3047 0 
L 2419 0 
L 2419 1100 
L 313 1100 
L 313 1709 
L 2253 4666 
z
" transform="scale(0.015625)"/>
       </defs>
       <use xlink:href="#DejaVuSans-34"/>
       <use xlink:href="#DejaVuSans-30" transform="translate(63.623047 0)"/>
       <use xlink:href="#DejaVuSans-30" transform="translate(127.246094 0)"/>
       <use xlink:href="#DejaVuSans-30" transform="translate(190.869141 0)"/>
      </g>
     </g>
    </g>
    <g id="xtick_6">
     <g id="line2d_11">
      <path d="M 385.072056 307.584 
L 385.072056 41.472 
" clip-path="url(#pf2898922ed)" style="fill: none; stroke: #b0b0b0; stroke-width: 0.8; stroke-linecap: square"/>
     </g>
     <g id="line2d_12">
      <g>
       <use xlink:href="#mdf1f260f93" x="385.072056" y="307.584" style="stroke: #000000; stroke-width: 0.8"/>
      </g>
     </g>
     <g id="text_6">
      <!-- 5000 -->
      <g transform="translate(372.347056 322.182437) scale(0.1 -0.1)">
       <defs>
        <path id="DejaVuSans-35" d="M 691 4666 
L 3169 4666 
L 3169 4134 
L 1269 4134 
L 1269 2991 
Q 1406 3038 1543 3061 
Q 1681 3084 1819 3084 
Q 2600 3084 3056 2656 
Q 3513 2228 3513 1497 
Q 3513 744 3044 326 
Q 2575 -91 1722 -91 
Q 1428 -91 1123 -41 
Q 819 9 494 109 
L 494 744 
Q 775 591 1075 516 
Q 1375 441 1709 441 
Q 2250 441 2565 725 
Q 2881 1009 2881 1497 
Q 2881 1984 2565 2268 
Q 2250 2553 1709 2553 
Q 1456 2553 1204 2497 
Q 953 2441 691 2322 
L 691 4666 
z
" transform="scale(0.015625)"/>
       </defs>
       <use xlink:href="#DejaVuSans-35"/>
       <use xlink:href="#DejaVuSans-30" transform="translate(63.623047 0)"/>
       <use xlink:href="#DejaVuSans-30" transform="translate(127.246094 0)"/>
       <use xlink:href="#DejaVuSans-30" transform="translate(190.869141 0)"/>
      </g>
     </g>
    </g>
    <g id="text_7">
     <!-- Distance (m) -->
     <g transform="translate(203.936562 335.860562) scale(0.1 -0.1)">
      <defs>
       <path id="DejaVuSans-44" d="M 1259 4147 
L 1259 519 
L 2022 519 
Q 2988 519 3436 956 
Q 3884 1394 3884 2338 
Q 3884 3275 3436 3711 
Q 2988 4147 2022 4147 
L 1259 4147 
z
M 628 4666 
L 1925 4666 
Q 3281 4666 3915 4102 
Q 4550 3538 4550 2338 
Q 4550 1131 3912 565 
Q 3275 0 1925 0 
L 628 0 
L 628 4666 
z
" transform="scale(0.015625)"/>
       <path id="DejaVuSans-69" d="M 603 3500 
L 1178 3500 
L 1178 0 
L 603 0 
L 603 3500 
z
M 603 4863 
L 1178 4863 
L 1178 4134 
L 603 4134 
L 603 4863 
z
" transform="scale(0.015625)"/>
       <path id="DejaVuSans-73" d="M 2834 3397 
L 2834 2853 
Q 2591 2978 2328 3040 
Q 2066 3103 1784 3103 
Q 1356 3103 1142 2972 
Q 928 2841 928 2578 
Q 928 2378 1081 2264 
Q 1234 2150 1697 2047 
L 1894 2003 
Q 2506 1872 2764 1633 
Q 3022 1394 3022 966 
Q 3022 478 2636 193 
Q 2250 -91 1575 -91 
Q 1294 -91 989 -36 
Q 684 19 347 128 
L 347 722 
Q 666 556 975 473 
Q 1284 391 1588 391 
Q 1994 391 2212 530 
Q 2431 669 2431 922 
Q 2431 1156 2273 1281 
Q 2116 1406 1581 1522 
L 1381 1569 
Q 847 1681 609 1914 
Q 372 2147 372 2553 
Q 372 3047 722 3315 
Q 1072 3584 1716 3584 
Q 2034 3584 2315 3537 
Q 2597 3491 2834 3397 
z
" transform="scale(0.015625)"/>
       <path id="DejaVuSans-74" d="M 1172 4494 
L 1172 3500 
L 2356 3500 
L 2356 3053 
L 1172 3053 
L 1172 1153 
Q 1172 725 1289 603 
Q 1406 481 1766 481 
L 2356 481 
L 2356 0 
L 1766 0 
Q 1100 0 847 248 
Q 594 497 594 1153 
L 594 3053 
L 172 3053 
L 172 3500 
L 594 3500 
L 594 4494 
L 1172 4494 
z
" transform="scale(0.015625)"/>
       <path id="DejaVuSans-61" d="M 2194 1759 
Q 1497 1759 1228 1600 
Q 959 1441 959 1056 
Q 959 750 1161 570 
Q 1363 391 1709 391 
Q 2188 391 2477 730 
Q 2766 1069 2766 1631 
L 2766 1759 
L 2194 1759 
z
M 3341 1997 
L 3341 0 
L 2766 0 
L 2766 531 
Q 2569 213 2275 61 
Q 1981 -91 1556 -91 
Q 1019 -91 701 211 
Q 384 513 384 1019 
Q 384 1609 779 1909 
Q 1175 2209 1959 2209 
L 2766 2209 
L 2766 2266 
Q 2766 2663 2505 2880 
Q 2244 3097 1772 3097 
Q 1472 3097 1187 3025 
Q 903 2953 641 2809 
L 641 3341 
Q 956 3463 1253 3523 
Q 1550 3584 1831 3584 
Q 2591 3584 2966 3190 
Q 3341 2797 3341 1997 
z
" transform="scale(0.015625)"/>
       <path id="DejaVuSans-6e" d="M 3513 2113 
L 3513 0 
L 2938 0 
L 2938 2094 
Q 2938 2591 2744 2837 
Q 2550 3084 2163 3084 
Q 1697 3084 1428 2787 
Q 1159 2491 1159 1978 
L 1159 0 
L 581 0 
L 581 3500 
L 1159 3500 
L 1159 2956 
Q 1366 3272 1645 3428 
Q 1925 3584 2291 3584 
Q 2894 3584 3203 3211 
Q 3513 2838 3513 2113 
z
" transform="scale(0.015625)"/>
       <path id="DejaVuSans-63" d="M 3122 3366 
L 3122 2828 
Q 2878 2963 2633 3030 
Q 2388 3097 2138 3097 
Q 1578 3097 1268 2742 
Q 959 2388 959 1747 
Q 959 1106 1268 751 
Q 1578 397 2138 397 
Q 2388 397 2633 464 
Q 2878 531 3122 666 
L 3122 134 
Q 2881 22 2623 -34 
Q 2366 -91 2075 -91 
Q 1284 -91 818 406 
Q 353 903 353 1747 
Q 353 2603 823 3093 
Q 1294 3584 2113 3584 
Q 2378 3584 2631 3529 
Q 2884 3475 3122 3366 
z
" transform="scale(0.015625)"/>
       <path id="DejaVuSans-65" d="M 3597 1894 
L 3597 1613 
L 953 1613 
Q 991 1019 1311 708 
Q 1631 397 2203 397 
Q 2534 397 2845 478 
Q 3156 559 3463 722 
L 3463 178 
Q 3153 47 2828 -22 
Q 2503 -91 2169 -91 
Q 1331 -91 842 396 
Q 353 884 353 1716 
Q 353 2575 817 3079 
Q 1281 3584 2069 3584 
Q 2775 3584 3186 3129 
Q 3597 2675 3597 1894 
z
M 3022 2063 
Q 3016 2534 2758 2815 
Q 2500 3097 2075 3097 
Q 1594 3097 1305 2825 
Q 1016 2553 972 2059 
L 3022 2063 
z
" transform="scale(0.015625)"/>
       <path id="DejaVuSans-20" transform="scale(0.015625)"/>
       <path id="DejaVuSans-28" d="M 1984 4856 
Q 1566 4138 1362 3434 
Q 1159 2731 1159 2009 
Q 1159 1288 1364 580 
Q 1569 -128 1984 -844 
L 1484 -844 
Q 1016 -109 783 600 
Q 550 1309 550 2009 
Q 550 2706 781 3412 
Q 1013 4119 1484 4856 
L 1984 4856 
z
" transform="scale(0.015625)"/>
       <path id="DejaVuSans-6d" d="M 3328 2828 
Q 3544 3216 3844 3400 
Q 4144 3584 4550 3584 
Q 5097 3584 5394 3201 
Q 5691 2819 5691 2113 
L 5691 0 
L 5113 0 
L 5113 2094 
Q 5113 2597 4934 2840 
Q 4756 3084 4391 3084 
Q 3944 3084 3684 2787 
Q 3425 2491 3425 1978 
L 3425 0 
L 2847 0 
L 2847 2094 
Q 2847 2600 2669 2842 
Q 2491 3084 2119 3084 
Q 1678 3084 1418 2786 
Q 1159 2488 1159 1978 
L 1159 0 
L 581 0 
L 581 3500 
L 1159 3500 
L 1159 2956 
Q 1356 3278 1631 3431 
Q 1906 3584 2284 3584 
Q 2666 3584 2933 3390 
Q 3200 3197 3328 2828 
z
" transform="scale(0.015625)"/>
       <path id="DejaVuSans-29" d="M 513 4856 
L 1013 4856 
Q 1481 4119 1714 3412 
Q 1947 2706 1947 2009 
Q 1947 1309 1714 600 
Q 1481 -109 1013 -844 
L 513 -844 
Q 928 -128 1133 580 
Q 1338 1288 1338 2009 
Q 1338 2731 1133 3434 
Q 928 4138 513 4856 
z
" transform="scale(0.015625)"/>
      </defs>
      <use xlink:href="#DejaVuSans-44"/>
      <use xlink:href="#DejaVuSans-69" transform="translate(77.001953 0)"/>
      <use xlink:href="#DejaVuSans-73" transform="translate(104.785156 0)"/>
      <use xlink:href="#DejaVuSans-74" transform="translate(156.884766 0)"/>
      <use xlink:href="#DejaVuSans-61" transform="translate(196.09375 0)"/>
      <use xlink:href="#DejaVuSans-6e" transform="translate(257.373047 0)"/>
      <use xlink:href="#DejaVuSans-63" transform="translate(320.751953 0)"/>
      <use xlink:href="#DejaVuSans-65" transform="translate(375.732422 0)"/>
      <use xlink:href="#DejaVuSans-20" transform="translate(437.255859 0)"/>
      <use xlink:href="#DejaVuSans-28" transform="translate(469.042969 0)"/>
      <use xlink:href="#DejaVuSans-6d" transform="translate(508.056641 0)"/>
      <use xlink:href="#DejaVuSans-29" transform="translate(605.46875 0)"/>
     </g>
    </g>
   </g>
   <g id="matplotlib.axis_2">
    <g id="ytick_1">
     <g id="line2d_13">
      <path d="M 57.6 292.851562 
L 414.72 292.851562 
" clip-path="url(#pf2898922ed)" style="fill: none; stroke: #b0b0b0; stroke-width: 0.8; stroke-linecap: square"/>
     </g>
     <g id="line2d_14">
      <defs>
       <path id="m4c1cfea95b" d="M 0 0 
L -3.5 0 
" style="stroke: #000000; stroke-width: 0.8"/>
      </defs>
      <g>
       <use xlink:href="#m4c1cfea95b" x="57.6" y="292.851562" style="stroke: #000000; stroke-width: 0.8"/>
      </g>
     </g>
     <g id="text_8">
      <!-- −100 -->
      <g transform="translate(23.132812 296.650781) scale(0.1 -0.1)">
       <defs>
        <path id="DejaVuSans-2212" d="M 678 2272 
L 4684 2272 
L 4684 1741 
L 678 1741 
L 678 2272 
z
" transform="scale(0.015625)"/>
       </defs>
       <use xlink:href="#DejaVuSans-2212"/>
       <use xlink:href="#DejaVuSans-31" transform="translate(83.789062 0)"/>
       <use xlink:href="#DejaVuSans-30" transform="translate(147.412109 0)"/>
       <use xlink:href="#DejaVuSans-30" transform="translate(211.035156 0)"/>
      </g>
     </g>
    </g>
    <g id="ytick_2">
     <g id="line2d_15">
      <path d="M 57.6 257.267502 
L 414.72 257.267502 
" clip-path="url(#pf2898922ed)" style="fill: none; stroke: #b0b0b0; stroke-width: 0.8; stroke-linecap: square"/>
     </g>
     <g id="line2d_16">
      <g>
       <use xlink:href="#m4c1cfea95b" x="57.6" y="257.267502" style="stroke: #000000; stroke-width: 0.8"/>
      </g>
     </g>
     <g id="text_9">
      <!-- −75 -->
      <g transform="translate(29.495313 261.066721) scale(0.1 -0.1)">
       <defs>
        <path id="DejaVuSans-37" d="M 525 4666 
L 3525 4666 
L 3525 4397 
L 1831 0 
L 1172 0 
L 2766 4134 
L 525 4134 
L 525 4666 
z
" transform="scale(0.015625)"/>
       </defs>
       <use xlink:href="#DejaVuSans-2212"/>
       <use xlink:href="#DejaVuSans-37" transform="translate(83.789062 0)"/>
       <use xlink:href="#DejaVuSans-35" transform="translate(147.412109 0)"/>
      </g>
     </g>
    </g>
    <g id="ytick_3">
     <g id="line2d_17">
      <path d="M 57.6 221.683442 
L 414.72 221.683442 
" clip-path="url(#pf2898922ed)" style="fill: none; stroke: #b0b0b0; stroke-width: 0.8; stroke-linecap: square"/>
     </g>
     <g id="line2d_18">
      <g>
       <use xlink:href="#m4c1cfea95b" x="57.6" y="221.683442" style="stroke: #000000; stroke-width: 0.8"/>
      </g>
     </g>
     <g id="text_10">
      <!-- −50 -->
      <g transform="translate(29.495313 225.482661) scale(0.1 -0.1)">
       <use xlink:href="#DejaVuSans-2212"/>
       <use xlink:href="#DejaVuSans-35" transform="translate(83.789062 0)"/>
       <use xlink:href="#DejaVuSans-30" transform="translate(147.412109 0)"/>
      </g>
     </g>
    </g>
    <g id="ytick_4">
     <g id="line2d_19">
      <path d="M 57.6 186.099382 
L 414.72 186.099382 
" clip-path="url(#pf2898922ed)" style="fill: none; stroke: #b0b0b0; stroke-width: 0.8; stroke-linecap: square"/>
     </g>
     <g id="line2d_20">
      <g>
       <use xlink:href="#m4c1cfea95b" x="57.6" y="186.099382" style="stroke: #000000; stroke-width: 0.8"/>
      </g>
     </g>
     <g id="text_11">
      <!-- −25 -->
      <g transform="translate(29.495313 189.898601) scale(0.1 -0.1)">
       <use xlink:href="#DejaVuSans-2212"/>
       <use xlink:href="#DejaVuSans-32" transform="translate(83.789062 0)"/>
       <use xlink:href="#DejaVuSans-35" transform="translate(147.412109 0)"/>
      </g>
     </g>
    </g>
    <g id="ytick_5">
     <g id="line2d_21">
      <path d="M 57.6 150.515322 
L 414.72 150.515322 
" clip-path="url(#pf2898922ed)" style="fill: none; stroke: #b0b0b0; stroke-width: 0.8; stroke-linecap: square"/>
     </g>
     <g id="line2d_22">
      <g>
       <use xlink:href="#m4c1cfea95b" x="57.6" y="150.515322" style="stroke: #000000; stroke-width: 0.8"/>
      </g>
     </g>
     <g id="text_12">
      <!-- 0 -->
      <g transform="translate(44.2375 154.314541) scale(0.1 -0.1)">
       <use xlink:href="#DejaVuSans-30"/>
      </g>
     </g>
    </g>
    <g id="ytick_6">
     <g id="line2d_23">
      <path d="M 57.6 114.931262 
L 414.72 114.931262 
" clip-path="url(#pf2898922ed)" style="fill: none; stroke: #b0b0b0; stroke-width: 0.8; stroke-linecap: square"/>
     </g>
     <g id="line2d_24">
      <g>
       <use xlink:href="#m4c1cfea95b" x="57.6" y="114.931262" style="stroke: #000000; stroke-width: 0.8"/>
      </g>
     </g>
     <g id="text_13">
      <!-- 25 -->
      <g transform="translate(37.875 118.730481) scale(0.1 -0.1)">
       <use xlink:href="#DejaVuSans-32"/>
       <use xlink:href="#DejaVuSans-35" transform="translate(63.623047 0)"/>
      </g>
     </g>
    </g>
    <g id="ytick_7">
     <g id="line2d_25">
      <path d="M 57.6 79.347202 
L 414.72 79.347202 
" clip-path="url(#pf2898922ed)" style="fill: none; stroke: #b0b0b0; stroke-width: 0.8; stroke-linecap: square"/>
     </g>
     <g id="line2d_26">
      <g>
       <use xlink:href="#m4c1cfea95b" x="57.6" y="79.347202" style="stroke: #000000; stroke-width: 0.8"/>
      </g>
     </g>
     <g id="text_14">
      <!-- 50 -->
      <g transform="translate(37.875 83.14642) scale(0.1 -0.1)">
       <use xlink:href="#DejaVuSans-35"/>
       <use xlink:href="#DejaVuSans-30" transform="translate(63.623047 0)"/>
      </g>
     </g>
    </g>
    <g id="ytick_8">
     <g id="line2d_27">
      <path d="M 57.6 43.763142 
L 414.72 43.763142 
" clip-path="url(#pf2898922ed)" style="fill: none; stroke: #b0b0b0; stroke-width: 0.8; stroke-linecap: square"/>
     </g>
     <g id="line2d_28">
      <g>
       <use xlink:href="#m4c1cfea95b" x="57.6" y="43.763142" style="stroke: #000000; stroke-width: 0.8"/>
      </g>
     </g>
     <g id="text_15">
      <!-- 75 -->
      <g transform="translate(37.875 47.56236) scale(0.1 -0.1)">
       <use xlink:href="#DejaVuSans-37"/>
       <use xlink:href="#DejaVuSans-35" transform="translate(63.623047 0)"/>
      </g>
     </g>
    </g>
    <g id="text_16">
     <!-- Acceleration (G) -->
     <g transform="translate(17.053125 214.963156) rotate(-90) scale(0.1 -0.1)">
      <defs>
       <path id="DejaVuSans-41" d="M 2188 4044 
L 1331 1722 
L 3047 1722 
L 2188 4044 
z
M 1831 4666 
L 2547 4666 
L 4325 0 
L 3669 0 
L 3244 1197 
L 1141 1197 
L 716 0 
L 50 0 
L 1831 4666 
z
" transform="scale(0.015625)"/>
       <path id="DejaVuSans-6c" d="M 603 4863 
L 1178 4863 
L 1178 0 
L 603 0 
L 603 4863 
z
" transform="scale(0.015625)"/>
       <path id="DejaVuSans-72" d="M 2631 2963 
Q 2534 3019 2420 3045 
Q 2306 3072 2169 3072 
Q 1681 3072 1420 2755 
Q 1159 2438 1159 1844 
L 1159 0 
L 581 0 
L 581 3500 
L 1159 3500 
L 1159 2956 
Q 1341 3275 1631 3429 
Q 1922 3584 2338 3584 
Q 2397 3584 2469 3576 
Q 2541 3569 2628 3553 
L 2631 2963 
z
" transform="scale(0.015625)"/>
       <path id="DejaVuSans-6f" d="M 1959 3097 
Q 1497 3097 1228 2736 
Q 959 2375 959 1747 
Q 959 1119 1226 758 
Q 1494 397 1959 397 
Q 2419 397 2687 759 
Q 2956 1122 2956 1747 
Q 2956 2369 2687 2733 
Q 2419 3097 1959 3097 
z
M 1959 3584 
Q 2709 3584 3137 3096 
Q 3566 2609 3566 1747 
Q 3566 888 3137 398 
Q 2709 -91 1959 -91 
Q 1206 -91 779 398 
Q 353 888 353 1747 
Q 353 2609 779 3096 
Q 1206 3584 1959 3584 
z
" transform="scale(0.015625)"/>
       <path id="DejaVuSans-47" d="M 3809 666 
L 3809 1919 
L 2778 1919 
L 2778 2438 
L 4434 2438 
L 4434 434 
Q 4069 175 3628 42 
Q 3188 -91 2688 -91 
Q 1594 -91 976 548 
Q 359 1188 359 2328 
Q 359 3472 976 4111 
Q 1594 4750 2688 4750 
Q 3144 4750 3555 4637 
Q 3966 4525 4313 4306 
L 4313 3634 
Q 3963 3931 3569 4081 
Q 3175 4231 2741 4231 
Q 1884 4231 1454 3753 
Q 1025 3275 1025 2328 
Q 1025 1384 1454 906 
Q 1884 428 2741 428 
Q 3075 428 3337 486 
Q 3600 544 3809 666 
z
" transform="scale(0.015625)"/>
      </defs>
      <use xlink:href="#DejaVuSans-41"/>
      <use xlink:href="#DejaVuSans-63" transform="translate(66.658203 0)"/>
      <use xlink:href="#DejaVuSans-63" transform="translate(121.638672 0)"/>
      <use xlink:href="#DejaVuSans-65" transform="translate(176.619141 0)"/>
      <use xlink:href="#DejaVuSans-6c" transform="translate(238.142578 0)"/>
      <use xlink:href="#DejaVuSans-65" transform="translate(265.925781 0)"/>
      <use xlink:href="#DejaVuSans-72" transform="translate(327.449219 0)"/>
      <use xlink:href="#DejaVuSans-61" transform="translate(368.5625 0)"/>
      <use xlink:href="#DejaVuSans-74" transform="translate(429.841797 0)"/>
      <use xlink:href="#DejaVuSans-69" transform="translate(469.050781 0)"/>
      <use xlink:href="#DejaVuSans-6f" transform="translate(496.833984 0)"/>
      <use xlink:href="#DejaVuSans-6e" transform="translate(558.015625 0)"/>
      <use xlink:href="#DejaVuSans-20" transform="translate(621.394531 0)"/>
      <use xlink:href="#DejaVuSans-28" transform="translate(653.181641 0)"/>
      <use xlink:href="#DejaVuSans-47" transform="translate(692.195312 0)"/>
      <use xlink:href="#DejaVuSans-29" transform="translate(769.685547 0)"/>
     </g>
    </g>
   </g>
   <g id="line2d_29">
    <path d="M 73.832727 150.515322 
L 74.08331 217.142814 
L 75.617273 105.52351 
L 76.052199 146.218787 
L 76.227178 155.521014 
L 77.109958 152.084041 
L 77.376873 152.392641 
L 77.466034 151.626935 
L 78.544167 127.774796 
L 78.634768 128.482098 
L 78.816362 137.644674 
L 79.731344 195.446951 
L 80.377542 153.419716 
L 80.841708 135.254798 
L 81.495402 119.151981 
L 82.153794 75.629717 
L 82.248208 79.733687 
L 83.006559 253.906044 
L 84.534912 121.340746 
L 84.918736 96.924594 
L 85.014958 99.343877 
L 86.372424 187.920907 
L 86.47001 189.014481 
L 88.140868 87.485125 
L 88.239874 89.185092 
L 89.331739 229.690295 
L 89.430981 226.460806 
L 90.623679 131.406224 
L 91.121942 104.08773 
L 92.111807 176.711306 
L 92.305203 172.586444 
L 92.49611 158.218291 
L 93.223262 93.045978 
L 93.30889 98.664731 
L 93.947252 229.903056 
L 94.8761 139.266165 
L 95.181414 113.272602 
L 95.6094 152.811613 
L 95.792283 163.500242 
L 96.687455 134.316196 
L 96.745587 136.143691 
L 97.032527 152.69501 
L 97.314731 168.400553 
L 97.370802 167.059663 
L 98.208441 149.138447 
L 98.433443 145.920369 
L 98.546584 150.828827 
L 99.003443 101.203488 
L 99.060952 102.437362 
L 99.645165 213.137999 
L 100.43587 119.217504 
L 100.497235 120.235745 
L 101.186217 155.698473 
L 101.315773 158.225108 
L 101.910898 134.177186 
L 103.072753 168.360402 
L 103.142993 166.289207 
L 103.642448 154.355481 
L 104.155947 152.708735 
L 104.230282 151.197039 
L 105.210793 94.68628 
L 105.28693 88.307012 
L 105.363184 90.235245 
L 105.90089 195.670699 
L 106.368153 224.649922 
L 106.446679 222.493097 
L 107.323581 103.153051 
L 107.811694 87.273155 
L 107.893672 90.45244 
L 108.722304 216.112028 
L 109.733688 135.992418 
L 110.158126 117.55799 
L 110.925897 157.223477 
L 111.612275 152.570765 
L 112.044014 153.032594 
L 112.130562 153.061696 
L 112.217156 149.542876 
L 112.563518 121.93332 
L 112.736399 116.312275 
L 112.822735 117.052501 
L 113.51476 163.125933 
L 114.041367 160.837739 
L 114.129714 160.902357 
L 114.39533 161.369079 
L 114.661328 162.207781 
L 114.92719 164.63407 
L 115.726434 173.963304 
L 115.905139 172.087043 
L 116.084379 163.19045 
L 117.078776 101.756229 
L 118.731449 174.763987 
L 118.82401 173.22115 
L 119.473758 163.317108 
L 120.593671 171.878547 
L 120.687151 170.916279 
L 121.52822 144.052903 
L 122.088411 132.228936 
L 122.835236 107.267489 
L 123.208909 90.143908 
L 123.302374 80.411661 
L 123.39585 82.168327 
L 124.237881 243.167338 
L 125.365333 140.2264 
L 125.931779 118.640374 
L 126.876067 156.820726 
L 126.970469 158.150566 
L 127.442709 151.703187 
L 128.104787 148.228141 
L 128.199498 148.119607 
L 129.054186 151.760415 
L 130.104203 149.758977 
L 130.199655 149.889656 
L 130.86721 154.918951 
L 130.962523 154.598406 
L 131.821431 135.192712 
L 132.012956 135.480307 
L 132.108824 137.058249 
L 133.263952 178.970222 
L 134.231981 137.234365 
L 134.426058 136.414685 
L 134.523161 136.50298 
L 135.107148 143.543762 
L 135.79178 154.626807 
L 136.478118 150.969406 
L 137.361691 149.916073 
L 137.952263 150.34534 
L 138.445247 150.471553 
L 139.233208 149.96856 
L 140.224563 150.357851 
L 140.424056 150.390394 
L 140.822435 149.717083 
L 141.819105 150.765818 
L 143.022963 149.347155 
L 143.123207 149.622977 
L 144.428587 160.768895 
L 144.730654 163.039876 
L 144.83135 162.955954 
L 145.234012 157.568896 
L 145.334625 151.934374 
L 146.139835 60.225762 
L 146.240722 58.861697 
L 146.34169 67.822718 
L 147.151756 250.509329 
L 149.179983 102.032341 
L 149.484701 117.674651 
L 150.095402 151.953962 
L 150.29927 156.224053 
L 151.320524 150.863203 
L 151.832142 148.981237 
L 152.651849 151.23484 
L 153.575744 149.57289 
L 154.090715 150.298969 
L 154.705828 151.030231 
L 155.780549 155.962363 
L 155.961125 158.503918 
L 156.22051 164.634801 
L 156.3855 170.913752 
L 157.25987 130.896671 
L 157.455602 120.715758 
L 157.519498 122.559226 
L 158.071281 205.147162 
L 158.130466 202.131824 
L 158.364608 187.708814 
L 158.819799 123.605946 
L 159.087827 137.885459 
L 159.678792 162.300848 
L 159.72502 160.463198 
L 160.164016 130.702586 
L 160.573369 175.616341 
L 160.613239 173.503028 
L 161.276262 139.077989 
L 161.314916 140.568725 
L 161.657632 153.418394 
L 161.694637 153.477757 
L 162.017582 150.498663 
L 162.052278 150.514306 
L 162.391024 150.543621 
L 162.525561 150.417831 
L 162.798539 149.3404 
L 162.867713 150.608591 
L 163.00753 154.271956 
L 163.042816 154.230718 
L 163.550991 136.027258 
L 163.588393 136.483804 
L 164.019102 169.325515 
L 164.060804 167.211858 
L 164.920571 127.469719 
L 165.762451 173.544642 
L 165.869793 177.160357 
L 165.924122 176.468933 
L 166.607027 124.549035 
L 167.395341 148.449638 
L 167.645638 153.555713 
L 168.363027 141.682819 
L 168.430318 141.467724 
L 169.185886 153.722287 
L 169.749805 166.057748 
L 169.965392 162.09917 
L 170.999569 138.229586 
L 171.226757 132.59292 
L 171.302912 133.425927 
L 171.609615 150.879975 
L 171.919683 149.63139 
L 172.86685 149.500075 
L 173.749398 149.614167 
L 174.404212 149.581645 
L 175.070635 149.499994 
L 175.745193 150.155159 
L 176.00012 150.355817 
L 176.515336 149.532954 
L 177.126701 148.309405 
L 177.836101 151.060985 
L 178.370164 149.686059 
L 178.548457 150.132398 
L 179.53428 148.408616 
L 179.624704 148.971132 
L 180.353912 162.126269 
L 180.445655 161.453759 
L 181.367529 115.166041 
L 181.645257 109.384406 
L 181.923775 116.511204 
L 182.11002 134.215184 
L 182.763951 207.33724 
L 182.950803 198.106135 
L 183.609111 177.994007 
L 185.053151 113.021023 
L 185.630237 111.618785 
L 185.726395 114.097441 
L 186.891745 199.244016 
L 186.99027 201.163376 
L 187.982943 148.886326 
L 188.28196 163.940276 
L 190.09096 56.293232 
L 190.192577 53.568 
L 190.294339 69.076959 
L 190.804719 295.488 
L 191.52026 222.934534 
L 192.542743 77.014257 
L 193.262216 130.057285 
L 194.090756 166.855194 
L 194.299335 159.841583 
L 194.718202 161.755545 
L 194.823153 161.671337 
L 195.243459 157.968953 
L 195.348632 154.495738 
L 196.402117 81.552128 
L 196.507658 83.916462 
L 197.459198 222.797176 
L 197.565106 227.077055 
L 199.376848 123.618343 
L 199.806943 106.750969 
L 200.885823 177.252973 
L 201.85929 76.923925 
L 201.967585 78.628964 
L 202.726388 207.125338 
L 202.834886 210.627135 
L 203.703953 184.307177 
L 204.793449 105.718618 
L 205.667057 163.368511 
L 205.776367 165.7381 
L 206.98013 113.83251 
L 208.187037 176.339625 
L 208.736987 193.894698 
L 208.956901 203.93987 
L 210.38712 94.708802 
L 210.829312 77.382211 
L 210.940012 81.939303 
L 211.826825 207.920538 
L 212.048781 225.358811 
L 212.382026 227.165194 
L 212.493214 221.707783 
L 213.606846 82.864146 
L 213.829542 86.877744 
L 214.052186 98.561382 
L 215.054728 158.88385 
L 215.389549 165.311096 
L 216.171918 163.885378 
L 216.283795 163.998131 
L 217.516296 170.461073 
L 217.740813 176.441726 
L 219.314492 135.881059 
L 219.988712 128.86655 
L 220.438699 135.746514 
L 221.565943 155.573737 
L 222.468312 161.349064 
L 222.581028 158.010966 
L 223.370152 87.936723 
L 223.483072 88.959095 
L 224.953912 233.241796 
L 225.292298 214.436161 
L 226.867146 65.899933 
L 227.551983 135.468585 
L 228.127551 178.299055 
L 229.340732 169.509432 
L 230.394004 182.698222 
L 230.486524 181.700015 
L 231.520429 137.89037 
L 231.597497 137.079195 
L 231.827643 141.169927 
L 232.567205 127.56356 
L 232.877222 117.030193 
L 232.934373 121.236066 
L 233.355168 222.591917 
L 233.404951 215.899203 
L 234.143822 114.716556 
L 234.18608 121.11012 
L 234.698816 171.912485 
L 234.735998 169.612284 
L 235.367934 138.473473 
L 235.433153 139.451379 
L 235.771719 164.467517 
L 235.830207 161.75637 
L 236.250373 146.811928 
L 236.489703 143.628122 
L 236.515475 144.16781 
L 236.641402 148.964807 
L 236.857604 164.401249 
L 236.904545 162.630276 
L 237.067228 152.285704 
L 237.18313 146.022366 
L 237.206422 147.46081 
L 237.253157 150.324014 
L 237.300098 147.429276 
L 237.514582 119.0972 
L 237.56304 129.144086 
L 237.786547 180.172691 
L 237.812087 178.904615 
L 238.157507 140.580364 
L 238.242026 139.885707 
L 238.27094 139.895337 
L 238.391511 142.807085 
L 238.61865 150.952205 
L 238.685108 150.171691 
L 238.751646 149.638179 
L 238.7849 149.867467 
L 238.884799 150.460023 
L 238.951753 150.430308 
L 239.191812 150.175125 
L 239.333458 149.968074 
L 239.369237 150.06984 
L 239.693438 150.702639 
L 239.907629 150.485003 
L 240.120961 150.37209 
L 240.192251 150.202395 
L 240.227962 150.040601 
L 240.299492 150.128023 
L 240.515185 150.546816 
L 240.551331 150.504577 
L 240.880469 147.483902 
L 240.954834 146.133321 
L 241.257125 163.00954 
L 241.295475 162.561347 
L 241.72642 103.134669 
L 241.766476 104.685526 
L 242.095116 215.483102 
L 242.137609 214.285644 
L 242.72761 103.620397 
L 242.825991 110.081968 
L 243.608836 181.101118 
L 244.797161 126.094851 
L 244.857761 126.281688 
L 245.285437 152.08462 
L 245.409733 158.694603 
L 245.47244 155.153746 
L 245.727788 114.289894 
L 246.814409 191.407488 
L 247.737913 122.384342 
L 248.683124 149.749948 
L 249.127921 157.805855 
L 249.73674 141.883368 
L 250.441269 153.26192 
L 250.600437 154.406047 
L 251.163859 148.984186 
L 251.326391 149.033379 
L 252.231866 148.085703 
L 252.398329 147.100233 
L 252.481746 147.268054 
L 253.154597 159.351433 
L 253.324712 165.77071 
L 253.410078 164.316069 
L 254.273891 83.687256 
L 254.448602 103.191108 
L 255.153622 200.299009 
L 255.868612 176.838358 
L 257.14352 155.606715 
L 257.605881 143.198538 
L 258.259263 114.323346 
L 259.391988 169.829182 
L 259.676091 157.207651 
L 260.531797 79.999294 
L 260.72366 102.991153 
L 261.595411 234.100008 
L 263.06036 129.891365 
L 263.550927 104.432827 
L 264.642699 174.269328 
L 264.84235 155.668184 
L 265.544114 81.57233 
L 265.745926 96.766983 
L 266.66176 232.146054 
L 267.584015 167.58261 
L 268.406117 101.932369 
L 268.818315 123.247987 
L 269.856288 166.044815 
L 269.960978 168.977175 
L 270.065862 168.139324 
L 271.121896 103.20525 
L 271.227795 104.593516 
L 272.074384 205.556891 
L 272.180123 208.621938 
L 273.344893 137.053876 
L 273.770719 128.822252 
L 274.94783 139.03144 
L 275.0552 138.991422 
L 275.162626 140.669987 
L 275.916191 171.604802 
L 276.996449 142.92093 
L 277.320878 145.777453 
L 278.295324 161.130753 
L 278.51224 165.822121 
L 278.620763 164.516688 
L 279.273054 121.711153 
L 279.818479 73.685184 
L 280.912788 234.995898 
L 281.131915 241.353357 
L 281.680422 192.84084 
L 282.560266 72.333778 
L 282.999967 123.191956 
L 283.549414 167.861121 
L 284.100055 153.134802 
L 284.874145 147.996173 
L 285.539121 149.748011 
L 286.315618 150.474081 
L 287.315914 150.4176 
L 287.98413 150.568598 
L 288.42955 149.972837 
L 288.763467 149.361022 
L 288.874757 149.468005 
L 289.543053 152.958003 
L 289.65462 152.408851 
L 290.994862 125.77207 
L 292.22688 183.565286 
L 292.677402 202.841467 
L 293.984555 102.299832 
L 294.088194 100.603029 
L 295.16472 179.196937 
L 295.612827 213.147587 
L 296.693546 132.74185 
L 296.851193 125.800136 
L 297.983128 161.362112 
L 298.277498 155.895533 
L 298.783105 147.300441 
L 298.854051 146.980917 
L 298.924668 147.583547 
L 299.203556 153.85944 
L 299.272264 152.790385 
L 299.808585 129.971359 
L 300.265155 151.764692 
L 300.777853 185.657748 
L 301.586684 138.298043 
L 301.891635 122.471404 
L 302.379522 142.092022 
L 303.179656 163.002947 
L 303.428745 171.435016 
L 303.868452 159.383139 
L 304.441082 136.497102 
L 304.505161 136.872565 
L 304.569314 139.631528 
L 304.633534 139.024832 
L 305.086726 134.351488 
L 305.152246 134.925034 
L 305.35031 137.378923 
L 306.16466 162.602986 
L 306.723457 160.178148 
L 307.292109 158.691883 
L 307.363777 158.550439 
L 307.50746 160.475531 
L 308.087116 149.92644 
L 308.74769 132.186892 
L 309.640702 154.874707 
L 309.868674 152.722266 
L 310.564043 149.294169 
L 311.112583 147.808808 
L 311.270025 146.893284 
L 311.664945 148.348335 
L 312.141156 150.730925 
L 312.300385 152.609032 
L 313.184832 126.451469 
L 313.266566 126.028896 
L 313.348594 127.108804 
L 314.59202 180.720077 
L 314.923869 200.128602 
L 315.090807 191.960962 
L 315.93769 115.151218 
L 316.625723 143.596352 
L 317.32102 179.194434 
L 317.408426 178.338548 
L 318.465219 56.083365 
L 318.642646 104.00817 
L 319.177445 276.408 
L 319.53668 231.515244 
L 320.535984 70.16334 
L 321.086593 150.920444 
L 321.36316 175.651266 
L 322.288151 126.660498 
L 322.751353 115.159003 
L 322.844289 115.596276 
L 322.937367 119.451798 
L 323.874252 205.083963 
L 324.15652 193.1174 
L 325.57325 119.473829 
L 325.85773 129.710313 
L 327.192087 165.269763 
L 328.054634 130.23256 
L 328.629287 104.513469 
L 328.821068 113.334962 
L 329.59044 186.161287 
L 329.880427 179.533817 
L 330.849744 162.067961 
L 331.817798 143.893547 
L 332.107652 148.14696 
L 333.753806 166.352083 
L 333.851621 166.038428 
L 335.279746 129.095259 
L 335.368495 129.097908 
L 336.546928 162.618781 
L 336.629667 162.076398 
L 336.712579 159.582675 
L 337.282707 167.775493 
L 337.360097 165.586068 
L 337.932045 107.158221 
L 337.999017 107.635852 
L 338.569102 211.7283 
L 338.629651 205.914708 
L 339.479074 132.846455 
L 339.58353 127.684645 
L 339.634989 127.78069 
L 340.029116 158.526165 
L 340.076292 157.219903 
L 340.259925 154.517365 
L 340.650768 152.481377 
L 340.69318 152.615733 
L 340.777703 152.775756 
L 340.819818 152.651818 
L 341.028563 152.093258 
L 341.069865 152.197891 
L 341.35278 152.842107 
L 341.392093 152.803689 
L 341.661012 151.440809 
L 341.812849 150.294946 
L 341.850871 150.642037 
L 342.113889 153.957821 
L 342.222903 157.090447 
L 342.258736 157.001966 
L 342.575844 136.135855 
L 342.751999 123.209165 
L 343.145741 188.350975 
L 343.182583 185.714304 
L 343.714336 126.908906 
L 343.752763 128.76917 
L 343.982854 144.339036 
L 344.30029 164.07887 
L 344.341673 162.072508 
L 344.681767 99.978277 
L 345.079489 194.723311 
L 345.125959 192.410776 
L 346.13599 123.83957 
L 346.442518 150.907966 
L 346.543922 156.17448 
L 346.594467 154.219806 
L 346.795507 151.781194 
L 347.143893 149.652431 
L 347.341682 149.921069 
L 347.784168 148.874511 
L 347.882237 150.686219 
L 348.176271 158.686188 
L 348.717607 125.88807 
L 349.372345 186.60304 
L 349.423497 183.853841 
L 349.628927 167.829782 
L 350.204499 121.903383 
L 350.637876 158.196179 
L 351.026075 140.92583 
L 351.254054 132.770509 
L 352.20619 172.591686 
L 352.444289 164.562591 
L 353.201208 134.550087 
L 353.752494 162.474906 
L 353.805989 165.362261 
L 353.859191 165.152671 
L 354.278793 128.651743 
L 354.331159 131.556253 
L 355.066887 174.938427 
L 355.118628 172.294251 
L 355.930231 133.65593 
L 356.287695 152.578188 
L 356.339176 153.017326 
L 356.390767 152.541163 
L 356.808169 148.961335 
L 356.861013 149.018585 
L 357.237916 149.880382 
L 357.405166 149.805397 
L 358.228833 148.152783 
L 359.094932 148.077996 
L 359.54756 149.859426 
L 360.150709 149.58525 
L 360.286531 150.050805 
L 360.422792 150.739498 
L 360.491132 150.516779 
L 361.045414 141.386015 
L 361.760382 154.303054 
L 361.905364 155.384061 
L 362.643763 147.880336 
L 362.719256 147.871964 
L 362.871253 147.57688 
L 364.045685 154.909463 
L 364.125394 154.605349 
L 364.365159 146.945161 
L 364.848066 106.437355 
L 365.662637 173.213108 
L 365.82697 178.799614 
L 367.077301 144.63023 
L 367.672427 127.054076 
L 367.758011 127.282923 
L 367.843742 129.147439 
L 369.142949 190.884464 
L 369.230156 190.353646 
L 370.727667 86.864337 
L 371.618581 173.501849 
L 372.064104 187.708086 
L 372.332362 192.107333 
L 372.422048 191.327763 
L 373.415527 143.675379 
L 374.049825 134.301637 
L 374.321657 138.059843 
L 374.865311 128.35827 
L 375.22778 117.640648 
L 375.318378 118.953721 
L 375.499531 137.414743 
L 375.861688 189.690734 
L 376.586948 145.034945 
L 376.859999 143.329831 
L 377.682138 153.556757 
L 377.956489 152.812911 
L 378.047942 154.343354 
L 378.505298 171.399407 
L 379.883893 92.962148 
L 379.976449 95.221405 
L 380.907662 212.308994 
L 381.475555 189.709303 
L 382.677933 135.942254 
L 382.763605 137.078461 
L 382.930721 143.134007 
L 383.402764 146.029073 
L 383.477736 145.83912 
L 383.908421 138.761109 
L 383.977119 138.977418 
L 384.928653 171.634269 
L 384.987932 171.580884 
L 385.698729 141.467974 
L 386.204977 152.195418 
L 386.402858 155.242571 
L 386.643966 165.959574 
L 386.691304 164.788425 
L 387.288234 150.62505 
L 387.333382 150.919372 
L 387.468499 151.840695 
L 387.513406 151.572824 
L 388.002632 136.351063 
L 388.134643 132.432273 
L 388.178518 133.561779 
L 388.309683 138.134411 
L 388.745606 171.693293 
L 388.78966 169.415863 
L 389.329778 141.917598 
L 389.37589 142.15975 
L 389.422188 144.162133 
L 389.468667 143.359449 
L 390.091364 131.608602 
L 390.240502 125.06888 
L 390.864185 184.346625 
L 391.656939 139.284634 
L 391.888695 134.391861 
L 392.490728 150.816235 
L 392.616722 151.786753 
L 393.131383 148.292594 
L 393.196088 148.373961 
L 393.785939 150.053662 
L 394.334191 146.267144 
L 394.404265 146.326803 
L 395.192202 156.474316 
L 395.41133 164.85205 
L 395.484755 163.902265 
L 396.229197 99.329184 
L 396.304547 102.310618 
L 396.91321 197.645494 
L 398.407248 122.830526 
L 398.487273 123.535413 
" clip-path="url(#pf2898922ed)" style="fill: none; stroke: #ffa500; stroke-width: 1.5; stroke-linecap: square"/>
   </g>
   <g id="patch_3">
    <path d="M 57.6 307.584 
L 57.6 41.472 
" style="fill: none; stroke: #000000; stroke-width: 0.8; stroke-linejoin: miter; stroke-linecap: square"/>
   </g>
   <g id="patch_4">
    <path d="M 414.72 307.584 
L 414.72 41.472 
" style="fill: none; stroke: #000000; stroke-width: 0.8; stroke-linejoin: miter; stroke-linecap: square"/>
   </g>
   <g id="patch_5">
    <path d="M 57.6 307.584 
L 414.72 307.584 
" style="fill: none; stroke: #000000; stroke-width: 0.8; stroke-linejoin: miter; stroke-linecap: square"/>
   </g>
   <g id="patch_6">
    <path d="M 57.6 41.472 
L 414.72 41.472 
" style="fill: none; stroke: #000000; stroke-width: 0.8; stroke-linejoin: miter; stroke-linecap: square"/>
   </g>
   <g id="text_17">
    <!-- Acceleration No Filter -->
    <g transform="translate(172.041562 35.472) scale(0.12 -0.12)">
     <defs>
      <path id="DejaVuSans-4e" d="M 628 4666 
L 1478 4666 
L 3547 763 
L 3547 4666 
L 4159 4666 
L 4159 0 
L 3309 0 
L 1241 3903 
L 1241 0 
L 628 0 
L 628 4666 
z
" transform="scale(0.015625)"/>
      <path id="DejaVuSans-46" d="M 628 4666 
L 3309 4666 
L 3309 4134 
L 1259 4134 
L 1259 2759 
L 3109 2759 
L 3109 2228 
L 1259 2228 
L 1259 0 
L 628 0 
L 628 4666 
z
" transform="scale(0.015625)"/>
     </defs>
     <use xlink:href="#DejaVuSans-41"/>
     <use xlink:href="#DejaVuSans-63" transform="translate(66.658203 0)"/>
     <use xlink:href="#DejaVuSans-63" transform="translate(121.638672 0)"/>
     <use xlink:href="#DejaVuSans-65" transform="translate(176.619141 0)"/>
     <use xlink:href="#DejaVuSans-6c" transform="translate(238.142578 0)"/>
     <use xlink:href="#DejaVuSans-65" transform="translate(265.925781 0)"/>
     <use xlink:href="#DejaVuSans-72" transform="translate(327.449219 0)"/>
     <use xlink:href="#DejaVuSans-61" transform="translate(368.5625 0)"/>
     <use xlink:href="#DejaVuSans-74" transform="translate(429.841797 0)"/>
     <use xlink:href="#DejaVuSans-69" transform="translate(469.050781 0)"/>
     <use xlink:href="#DejaVuSans-6f" transform="translate(496.833984 0)"/>
     <use xlink:href="#DejaVuSans-6e" transform="translate(558.015625 0)"/>
     <use xlink:href="#DejaVuSans-20" transform="translate(621.394531 0)"/>
     <use xlink:href="#DejaVuSans-4e" transform="translate(653.181641 0)"/>
     <use xlink:href="#DejaVuSans-6f" transform="translate(727.986328 0)"/>
     <use xlink:href="#DejaVuSans-20" transform="translate(789.167969 0)"/>
     <use xlink:href="#DejaVuSans-46" transform="translate(820.955078 0)"/>
     <use xlink:href="#DejaVuSans-69" transform="translate(871.224609 0)"/>
     <use xlink:href="#DejaVuSans-6c" transform="translate(899.007812 0)"/>
     <use xlink:href="#DejaVuSans-74" transform="translate(926.791016 0)"/>
     <use xlink:href="#DejaVuSans-65" transform="translate(966 0)"/>
     <use xlink:href="#DejaVuSans-72" transform="translate(1027.523438 0)"/>
    </g>
   </g>
   <g id="legend_1">
    <g id="patch_7">
     <path d="M 64.6 302.584 
L 158.740625 302.584 
Q 160.740625 302.584 160.740625 300.584 
L 160.740625 286.905875 
Q 160.740625 284.905875 158.740625 284.905875 
L 64.6 284.905875 
Q 62.6 284.905875 62.6 286.905875 
L 62.6 300.584 
Q 62.6 302.584 64.6 302.584 
z
" style="fill: #ffffff; opacity: 0.8; stroke: #cccccc; stroke-linejoin: miter"/>
    </g>
    <g id="line2d_30">
     <path d="M 66.6 293.004312 
L 76.6 293.004312 
L 86.6 293.004312 
" style="fill: none; stroke: #ffa500; stroke-width: 1.5; stroke-linecap: square"/>
    </g>
    <g id="text_18">
     <!-- Acceleration -->
     <g transform="translate(94.6 296.504312) scale(0.1 -0.1)">
      <use xlink:href="#DejaVuSans-41"/>
      <use xlink:href="#DejaVuSans-63" transform="translate(66.658203 0)"/>
      <use xlink:href="#DejaVuSans-63" transform="translate(121.638672 0)"/>
      <use xlink:href="#DejaVuSans-65" transform="translate(176.619141 0)"/>
      <use xlink:href="#DejaVuSans-6c" transform="translate(238.142578 0)"/>
      <use xlink:href="#DejaVuSans-65" transform="translate(265.925781 0)"/>
      <use xlink:href="#DejaVuSans-72" transform="translate(327.449219 0)"/>
      <use xlink:href="#DejaVuSans-61" transform="translate(368.5625 0)"/>
      <use xlink:href="#DejaVuSans-74" transform="translate(429.841797 0)"/>
      <use xlink:href="#DejaVuSans-69" transform="translate(469.050781 0)"/>
      <use xlink:href="#DejaVuSans-6f" transform="translate(496.833984 0)"/>
      <use xlink:href="#DejaVuSans-6e" transform="translate(558.015625 0)"/>
     </g>
    </g>
   </g>
  </g>
 </g>
 <defs>
  <clipPath id="pf2898922ed">
   <rect x="57.6" y="41.472" width="357.12" height="266.112"/>
  </clipPath>
 </defs>
</svg>
