<?xml version="1.0" encoding="utf-8" standalone="no"?>
<!DOCTYPE svg PUBLIC "-//W3C//DTD SVG 1.1//EN"
  "http://www.w3.org/Graphics/SVG/1.1/DTD/svg11.dtd">
<svg xmlns:xlink="http://www.w3.org/1999/xlink" width="460.8pt" height="345.6pt" viewBox="0 0 460.8 345.6" xmlns="http://www.w3.org/2000/svg" version="1.1">
 <metadata>
  <rdf:RDF xmlns:dc="http://purl.org/dc/elements/1.1/" xmlns:cc="http://creativecommons.org/ns#" xmlns:rdf="http://www.w3.org/1999/02/22-rdf-syntax-ns#">
   <cc:Work>
    <dc:type rdf:resource="http://purl.org/dc/dcmitype/StillImage"/>
    <dc:date>2025-06-11T00:18:20.939134</dc:date>
    <dc:format>image/svg+xml</dc:format>
    <dc:creator>
     <cc:Agent>
      <dc:title>Matplotlib v3.10.1, https://matplotlib.org/</dc:title>
     </cc:Agent>
    </dc:creator>
   </cc:Work>
  </rdf:RDF>
 </metadata>
 <defs>
  <style type="text/css">*{stroke-linejoin: round; stroke-linecap: butt}</style>
 </defs>
 <g id="figure_1">
  <g id="patch_1">
   <path d="M 0 345.6 
L 460.8 345.6 
L 460.8 0 
L 0 0 
z
" style="fill: #ffffff"/>
  </g>
  <g id="axes_1">
   <g id="patch_2">
    <path d="M 57.6 307.584 
L 414.72 307.584 
L 414.72 41.472 
L 57.6 41.472 
z
" style="fill: #ffffff"/>
   </g>
   <g id="matplotlib.axis_1">
    <g id="xtick_1">
     <g id="line2d_1">
      <path d="M 73.823333 307.584 
L 73.823333 41.472 
" clip-path="url(#p2ee89c65a4)" style="fill: none; stroke: #b0b0b0; stroke-width: 0.8; stroke-linecap: square"/>
     </g>
     <g id="line2d_2">
      <defs>
       <path id="m402aa9d9df" d="M 0 0 
L 0 3.5 
" style="stroke: #000000; stroke-width: 0.8"/>
      </defs>
      <g>
       <use xlink:href="#m402aa9d9df" x="73.823333" y="307.584" style="stroke: #000000; stroke-width: 0.8"/>
      </g>
     </g>
     <g id="text_1">
      <!-- 0 -->
      <g transform="translate(70.642083 322.182437) scale(0.1 -0.1)">
       <defs>
        <path id="DejaVuSans-30" d="M 2034 4250 
Q 1547 4250 1301 3770 
Q 1056 3291 1056 2328 
Q 1056 1369 1301 889 
Q 1547 409 2034 409 
Q 2525 409 2770 889 
Q 3016 1369 3016 2328 
Q 3016 3291 2770 3770 
Q 2525 4250 2034 4250 
z
M 2034 4750 
Q 2819 4750 3233 4129 
Q 3647 3509 3647 2328 
Q 3647 1150 3233 529 
Q 2819 -91 2034 -91 
Q 1250 -91 836 529 
Q 422 1150 422 2328 
Q 422 3509 836 4129 
Q 1250 4750 2034 4750 
z
" transform="scale(0.015625)"/>
       </defs>
       <use xlink:href="#DejaVuSans-30"/>
      </g>
     </g>
    </g>
    <g id="xtick_2">
     <g id="line2d_3">
      <path d="M 136.073077 307.584 
L 136.073077 41.472 
" clip-path="url(#p2ee89c65a4)" style="fill: none; stroke: #b0b0b0; stroke-width: 0.8; stroke-linecap: square"/>
     </g>
     <g id="line2d_4">
      <g>
       <use xlink:href="#m402aa9d9df" x="136.073077" y="307.584" style="stroke: #000000; stroke-width: 0.8"/>
      </g>
     </g>
     <g id="text_2">
      <!-- 1000 -->
      <g transform="translate(123.348077 322.182437) scale(0.1 -0.1)">
       <defs>
        <path id="DejaVuSans-31" d="M 794 531 
L 1825 531 
L 1825 4091 
L 703 3866 
L 703 4441 
L 1819 4666 
L 2450 4666 
L 2450 531 
L 3481 531 
L 3481 0 
L 794 0 
L 794 531 
z
" transform="scale(0.015625)"/>
       </defs>
       <use xlink:href="#DejaVuSans-31"/>
       <use xlink:href="#DejaVuSans-30" transform="translate(63.623047 0)"/>
       <use xlink:href="#DejaVuSans-30" transform="translate(127.246094 0)"/>
       <use xlink:href="#DejaVuSans-30" transform="translate(190.869141 0)"/>
      </g>
     </g>
    </g>
    <g id="xtick_3">
     <g id="line2d_5">
      <path d="M 198.322822 307.584 
L 198.322822 41.472 
" clip-path="url(#p2ee89c65a4)" style="fill: none; stroke: #b0b0b0; stroke-width: 0.8; stroke-linecap: square"/>
     </g>
     <g id="line2d_6">
      <g>
       <use xlink:href="#m402aa9d9df" x="198.322822" y="307.584" style="stroke: #000000; stroke-width: 0.8"/>
      </g>
     </g>
     <g id="text_3">
      <!-- 2000 -->
      <g transform="translate(185.597822 322.182437) scale(0.1 -0.1)">
       <defs>
        <path id="DejaVuSans-32" d="M 1228 531 
L 3431 531 
L 3431 0 
L 469 0 
L 469 531 
Q 828 903 1448 1529 
Q 2069 2156 2228 2338 
Q 2531 2678 2651 2914 
Q 2772 3150 2772 3378 
Q 2772 3750 2511 3984 
Q 2250 4219 1831 4219 
Q 1534 4219 1204 4116 
Q 875 4013 500 3803 
L 500 4441 
Q 881 4594 1212 4672 
Q 1544 4750 1819 4750 
Q 2544 4750 2975 4387 
Q 3406 4025 3406 3419 
Q 3406 3131 3298 2873 
Q 3191 2616 2906 2266 
Q 2828 2175 2409 1742 
Q 1991 1309 1228 531 
z
" transform="scale(0.015625)"/>
       </defs>
       <use xlink:href="#DejaVuSans-32"/>
       <use xlink:href="#DejaVuSans-30" transform="translate(63.623047 0)"/>
       <use xlink:href="#DejaVuSans-30" transform="translate(127.246094 0)"/>
       <use xlink:href="#DejaVuSans-30" transform="translate(190.869141 0)"/>
      </g>
     </g>
    </g>
    <g id="xtick_4">
     <g id="line2d_7">
      <path d="M 260.572567 307.584 
L 260.572567 41.472 
" clip-path="url(#p2ee89c65a4)" style="fill: none; stroke: #b0b0b0; stroke-width: 0.8; stroke-linecap: square"/>
     </g>
     <g id="line2d_8">
      <g>
       <use xlink:href="#m402aa9d9df" x="260.572567" y="307.584" style="stroke: #000000; stroke-width: 0.8"/>
      </g>
     </g>
     <g id="text_4">
      <!-- 3000 -->
      <g transform="translate(247.847567 322.182437) scale(0.1 -0.1)">
       <defs>
        <path id="DejaVuSans-33" d="M 2597 2516 
Q 3050 2419 3304 2112 
Q 3559 1806 3559 1356 
Q 3559 666 3084 287 
Q 2609 -91 1734 -91 
Q 1441 -91 1130 -33 
Q 819 25 488 141 
L 488 750 
Q 750 597 1062 519 
Q 1375 441 1716 441 
Q 2309 441 2620 675 
Q 2931 909 2931 1356 
Q 2931 1769 2642 2001 
Q 2353 2234 1838 2234 
L 1294 2234 
L 1294 2753 
L 1863 2753 
Q 2328 2753 2575 2939 
Q 2822 3125 2822 3475 
Q 2822 3834 2567 4026 
Q 2313 4219 1838 4219 
Q 1578 4219 1281 4162 
Q 984 4106 628 3988 
L 628 4550 
Q 988 4650 1302 4700 
Q 1616 4750 1894 4750 
Q 2613 4750 3031 4423 
Q 3450 4097 3450 3541 
Q 3450 3153 3228 2886 
Q 3006 2619 2597 2516 
z
" transform="scale(0.015625)"/>
       </defs>
       <use xlink:href="#DejaVuSans-33"/>
       <use xlink:href="#DejaVuSans-30" transform="translate(63.623047 0)"/>
       <use xlink:href="#DejaVuSans-30" transform="translate(127.246094 0)"/>
       <use xlink:href="#DejaVuSans-30" transform="translate(190.869141 0)"/>
      </g>
     </g>
    </g>
    <g id="xtick_5">
     <g id="line2d_9">
      <path d="M 322.822312 307.584 
L 322.822312 41.472 
" clip-path="url(#p2ee89c65a4)" style="fill: none; stroke: #b0b0b0; stroke-width: 0.8; stroke-linecap: square"/>
     </g>
     <g id="line2d_10">
      <g>
       <use xlink:href="#m402aa9d9df" x="322.822312" y="307.584" style="stroke: #000000; stroke-width: 0.8"/>
      </g>
     </g>
     <g id="text_5">
      <!-- 4000 -->
      <g transform="translate(310.097312 322.182437) scale(0.1 -0.1)">
       <defs>
        <path id="DejaVuSans-34" d="M 2419 4116 
L 825 1625 
L 2419 1625 
L 2419 4116 
z
M 2253 4666 
L 3047 4666 
L 3047 1625 
L 3713 1625 
L 3713 1100 
L 3047 1100 
L 3047 0 
L 2419 0 
L 2419 1100 
L 313 1100 
L 313 1709 
L 2253 4666 
z
" transform="scale(0.015625)"/>
       </defs>
       <use xlink:href="#DejaVuSans-34"/>
       <use xlink:href="#DejaVuSans-30" transform="translate(63.623047 0)"/>
       <use xlink:href="#DejaVuSans-30" transform="translate(127.246094 0)"/>
       <use xlink:href="#DejaVuSans-30" transform="translate(190.869141 0)"/>
      </g>
     </g>
    </g>
    <g id="xtick_6">
     <g id="line2d_11">
      <path d="M 385.072056 307.584 
L 385.072056 41.472 
" clip-path="url(#p2ee89c65a4)" style="fill: none; stroke: #b0b0b0; stroke-width: 0.8; stroke-linecap: square"/>
     </g>
     <g id="line2d_12">
      <g>
       <use xlink:href="#m402aa9d9df" x="385.072056" y="307.584" style="stroke: #000000; stroke-width: 0.8"/>
      </g>
     </g>
     <g id="text_6">
      <!-- 5000 -->
      <g transform="translate(372.347056 322.182437) scale(0.1 -0.1)">
       <defs>
        <path id="DejaVuSans-35" d="M 691 4666 
L 3169 4666 
L 3169 4134 
L 1269 4134 
L 1269 2991 
Q 1406 3038 1543 3061 
Q 1681 3084 1819 3084 
Q 2600 3084 3056 2656 
Q 3513 2228 3513 1497 
Q 3513 744 3044 326 
Q 2575 -91 1722 -91 
Q 1428 -91 1123 -41 
Q 819 9 494 109 
L 494 744 
Q 775 591 1075 516 
Q 1375 441 1709 441 
Q 2250 441 2565 725 
Q 2881 1009 2881 1497 
Q 2881 1984 2565 2268 
Q 2250 2553 1709 2553 
Q 1456 2553 1204 2497 
Q 953 2441 691 2322 
L 691 4666 
z
" transform="scale(0.015625)"/>
       </defs>
       <use xlink:href="#DejaVuSans-35"/>
       <use xlink:href="#DejaVuSans-30" transform="translate(63.623047 0)"/>
       <use xlink:href="#DejaVuSans-30" transform="translate(127.246094 0)"/>
       <use xlink:href="#DejaVuSans-30" transform="translate(190.869141 0)"/>
      </g>
     </g>
    </g>
    <g id="text_7">
     <!-- Distance (m) -->
     <g transform="translate(203.936562 335.860562) scale(0.1 -0.1)">
      <defs>
       <path id="DejaVuSans-44" d="M 1259 4147 
L 1259 519 
L 2022 519 
Q 2988 519 3436 956 
Q 3884 1394 3884 2338 
Q 3884 3275 3436 3711 
Q 2988 4147 2022 4147 
L 1259 4147 
z
M 628 4666 
L 1925 4666 
Q 3281 4666 3915 4102 
Q 4550 3538 4550 2338 
Q 4550 1131 3912 565 
Q 3275 0 1925 0 
L 628 0 
L 628 4666 
z
" transform="scale(0.015625)"/>
       <path id="DejaVuSans-69" d="M 603 3500 
L 1178 3500 
L 1178 0 
L 603 0 
L 603 3500 
z
M 603 4863 
L 1178 4863 
L 1178 4134 
L 603 4134 
L 603 4863 
z
" transform="scale(0.015625)"/>
       <path id="DejaVuSans-73" d="M 2834 3397 
L 2834 2853 
Q 2591 2978 2328 3040 
Q 2066 3103 1784 3103 
Q 1356 3103 1142 2972 
Q 928 2841 928 2578 
Q 928 2378 1081 2264 
Q 1234 2150 1697 2047 
L 1894 2003 
Q 2506 1872 2764 1633 
Q 3022 1394 3022 966 
Q 3022 478 2636 193 
Q 2250 -91 1575 -91 
Q 1294 -91 989 -36 
Q 684 19 347 128 
L 347 722 
Q 666 556 975 473 
Q 1284 391 1588 391 
Q 1994 391 2212 530 
Q 2431 669 2431 922 
Q 2431 1156 2273 1281 
Q 2116 1406 1581 1522 
L 1381 1569 
Q 847 1681 609 1914 
Q 372 2147 372 2553 
Q 372 3047 722 3315 
Q 1072 3584 1716 3584 
Q 2034 3584 2315 3537 
Q 2597 3491 2834 3397 
z
" transform="scale(0.015625)"/>
       <path id="DejaVuSans-74" d="M 1172 4494 
L 1172 3500 
L 2356 3500 
L 2356 3053 
L 1172 3053 
L 1172 1153 
Q 1172 725 1289 603 
Q 1406 481 1766 481 
L 2356 481 
L 2356 0 
L 1766 0 
Q 1100 0 847 248 
Q 594 497 594 1153 
L 594 3053 
L 172 3053 
L 172 3500 
L 594 3500 
L 594 4494 
L 1172 4494 
z
" transform="scale(0.015625)"/>
       <path id="DejaVuSans-61" d="M 2194 1759 
Q 1497 1759 1228 1600 
Q 959 1441 959 1056 
Q 959 750 1161 570 
Q 1363 391 1709 391 
Q 2188 391 2477 730 
Q 2766 1069 2766 1631 
L 2766 1759 
L 2194 1759 
z
M 3341 1997 
L 3341 0 
L 2766 0 
L 2766 531 
Q 2569 213 2275 61 
Q 1981 -91 1556 -91 
Q 1019 -91 701 211 
Q 384 513 384 1019 
Q 384 1609 779 1909 
Q 1175 2209 1959 2209 
L 2766 2209 
L 2766 2266 
Q 2766 2663 2505 2880 
Q 2244 3097 1772 3097 
Q 1472 3097 1187 3025 
Q 903 2953 641 2809 
L 641 3341 
Q 956 3463 1253 3523 
Q 1550 3584 1831 3584 
Q 2591 3584 2966 3190 
Q 3341 2797 3341 1997 
z
" transform="scale(0.015625)"/>
       <path id="DejaVuSans-6e" d="M 3513 2113 
L 3513 0 
L 2938 0 
L 2938 2094 
Q 2938 2591 2744 2837 
Q 2550 3084 2163 3084 
Q 1697 3084 1428 2787 
Q 1159 2491 1159 1978 
L 1159 0 
L 581 0 
L 581 3500 
L 1159 3500 
L 1159 2956 
Q 1366 3272 1645 3428 
Q 1925 3584 2291 3584 
Q 2894 3584 3203 3211 
Q 3513 2838 3513 2113 
z
" transform="scale(0.015625)"/>
       <path id="DejaVuSans-63" d="M 3122 3366 
L 3122 2828 
Q 2878 2963 2633 3030 
Q 2388 3097 2138 3097 
Q 1578 3097 1268 2742 
Q 959 2388 959 1747 
Q 959 1106 1268 751 
Q 1578 397 2138 397 
Q 2388 397 2633 464 
Q 2878 531 3122 666 
L 3122 134 
Q 2881 22 2623 -34 
Q 2366 -91 2075 -91 
Q 1284 -91 818 406 
Q 353 903 353 1747 
Q 353 2603 823 3093 
Q 1294 3584 2113 3584 
Q 2378 3584 2631 3529 
Q 2884 3475 3122 3366 
z
" transform="scale(0.015625)"/>
       <path id="DejaVuSans-65" d="M 3597 1894 
L 3597 1613 
L 953 1613 
Q 991 1019 1311 708 
Q 1631 397 2203 397 
Q 2534 397 2845 478 
Q 3156 559 3463 722 
L 3463 178 
Q 3153 47 2828 -22 
Q 2503 -91 2169 -91 
Q 1331 -91 842 396 
Q 353 884 353 1716 
Q 353 2575 817 3079 
Q 1281 3584 2069 3584 
Q 2775 3584 3186 3129 
Q 3597 2675 3597 1894 
z
M 3022 2063 
Q 3016 2534 2758 2815 
Q 2500 3097 2075 3097 
Q 1594 3097 1305 2825 
Q 1016 2553 972 2059 
L 3022 2063 
z
" transform="scale(0.015625)"/>
       <path id="DejaVuSans-20" transform="scale(0.015625)"/>
       <path id="DejaVuSans-28" d="M 1984 4856 
Q 1566 4138 1362 3434 
Q 1159 2731 1159 2009 
Q 1159 1288 1364 580 
Q 1569 -128 1984 -844 
L 1484 -844 
Q 1016 -109 783 600 
Q 550 1309 550 2009 
Q 550 2706 781 3412 
Q 1013 4119 1484 4856 
L 1984 4856 
z
" transform="scale(0.015625)"/>
       <path id="DejaVuSans-6d" d="M 3328 2828 
Q 3544 3216 3844 3400 
Q 4144 3584 4550 3584 
Q 5097 3584 5394 3201 
Q 5691 2819 5691 2113 
L 5691 0 
L 5113 0 
L 5113 2094 
Q 5113 2597 4934 2840 
Q 4756 3084 4391 3084 
Q 3944 3084 3684 2787 
Q 3425 2491 3425 1978 
L 3425 0 
L 2847 0 
L 2847 2094 
Q 2847 2600 2669 2842 
Q 2491 3084 2119 3084 
Q 1678 3084 1418 2786 
Q 1159 2488 1159 1978 
L 1159 0 
L 581 0 
L 581 3500 
L 1159 3500 
L 1159 2956 
Q 1356 3278 1631 3431 
Q 1906 3584 2284 3584 
Q 2666 3584 2933 3390 
Q 3200 3197 3328 2828 
z
" transform="scale(0.015625)"/>
       <path id="DejaVuSans-29" d="M 513 4856 
L 1013 4856 
Q 1481 4119 1714 3412 
Q 1947 2706 1947 2009 
Q 1947 1309 1714 600 
Q 1481 -109 1013 -844 
L 513 -844 
Q 928 -128 1133 580 
Q 1338 1288 1338 2009 
Q 1338 2731 1133 3434 
Q 928 4138 513 4856 
z
" transform="scale(0.015625)"/>
      </defs>
      <use xlink:href="#DejaVuSans-44"/>
      <use xlink:href="#DejaVuSans-69" transform="translate(77.001953 0)"/>
      <use xlink:href="#DejaVuSans-73" transform="translate(104.785156 0)"/>
      <use xlink:href="#DejaVuSans-74" transform="translate(156.884766 0)"/>
      <use xlink:href="#DejaVuSans-61" transform="translate(196.09375 0)"/>
      <use xlink:href="#DejaVuSans-6e" transform="translate(257.373047 0)"/>
      <use xlink:href="#DejaVuSans-63" transform="translate(320.751953 0)"/>
      <use xlink:href="#DejaVuSans-65" transform="translate(375.732422 0)"/>
      <use xlink:href="#DejaVuSans-20" transform="translate(437.255859 0)"/>
      <use xlink:href="#DejaVuSans-28" transform="translate(469.042969 0)"/>
      <use xlink:href="#DejaVuSans-6d" transform="translate(508.056641 0)"/>
      <use xlink:href="#DejaVuSans-29" transform="translate(605.46875 0)"/>
     </g>
    </g>
   </g>
   <g id="matplotlib.axis_2">
    <g id="ytick_1">
     <g id="line2d_13">
      <path d="M 57.6 278.955664 
L 414.72 278.955664 
" clip-path="url(#p2ee89c65a4)" style="fill: none; stroke: #b0b0b0; stroke-width: 0.8; stroke-linecap: square"/>
     </g>
     <g id="line2d_14">
      <defs>
       <path id="m62833d3f97" d="M 0 0 
L -3.5 0 
" style="stroke: #000000; stroke-width: 0.8"/>
      </defs>
      <g>
       <use xlink:href="#m62833d3f97" x="57.6" y="278.955664" style="stroke: #000000; stroke-width: 0.8"/>
      </g>
     </g>
     <g id="text_8">
      <!-- −0.2 -->
      <g transform="translate(26.317187 282.754882) scale(0.1 -0.1)">
       <defs>
        <path id="DejaVuSans-2212" d="M 678 2272 
L 4684 2272 
L 4684 1741 
L 678 1741 
L 678 2272 
z
" transform="scale(0.015625)"/>
        <path id="DejaVuSans-2e" d="M 684 794 
L 1344 794 
L 1344 0 
L 684 0 
L 684 794 
z
" transform="scale(0.015625)"/>
       </defs>
       <use xlink:href="#DejaVuSans-2212"/>
       <use xlink:href="#DejaVuSans-30" transform="translate(83.789062 0)"/>
       <use xlink:href="#DejaVuSans-2e" transform="translate(147.412109 0)"/>
       <use xlink:href="#DejaVuSans-32" transform="translate(179.199219 0)"/>
      </g>
     </g>
    </g>
    <g id="ytick_2">
     <g id="line2d_15">
      <path d="M 57.6 237.866448 
L 414.72 237.866448 
" clip-path="url(#p2ee89c65a4)" style="fill: none; stroke: #b0b0b0; stroke-width: 0.8; stroke-linecap: square"/>
     </g>
     <g id="line2d_16">
      <g>
       <use xlink:href="#m62833d3f97" x="57.6" y="237.866448" style="stroke: #000000; stroke-width: 0.8"/>
      </g>
     </g>
     <g id="text_9">
      <!-- −0.1 -->
      <g transform="translate(26.317187 241.665667) scale(0.1 -0.1)">
       <use xlink:href="#DejaVuSans-2212"/>
       <use xlink:href="#DejaVuSans-30" transform="translate(83.789062 0)"/>
       <use xlink:href="#DejaVuSans-2e" transform="translate(147.412109 0)"/>
       <use xlink:href="#DejaVuSans-31" transform="translate(179.199219 0)"/>
      </g>
     </g>
    </g>
    <g id="ytick_3">
     <g id="line2d_17">
      <path d="M 57.6 196.777233 
L 414.72 196.777233 
" clip-path="url(#p2ee89c65a4)" style="fill: none; stroke: #b0b0b0; stroke-width: 0.8; stroke-linecap: square"/>
     </g>
     <g id="line2d_18">
      <g>
       <use xlink:href="#m62833d3f97" x="57.6" y="196.777233" style="stroke: #000000; stroke-width: 0.8"/>
      </g>
     </g>
     <g id="text_10">
      <!-- 0.0 -->
      <g transform="translate(34.696875 200.576452) scale(0.1 -0.1)">
       <use xlink:href="#DejaVuSans-30"/>
       <use xlink:href="#DejaVuSans-2e" transform="translate(63.623047 0)"/>
       <use xlink:href="#DejaVuSans-30" transform="translate(95.410156 0)"/>
      </g>
     </g>
    </g>
    <g id="ytick_4">
     <g id="line2d_19">
      <path d="M 57.6 155.688017 
L 414.72 155.688017 
" clip-path="url(#p2ee89c65a4)" style="fill: none; stroke: #b0b0b0; stroke-width: 0.8; stroke-linecap: square"/>
     </g>
     <g id="line2d_20">
      <g>
       <use xlink:href="#m62833d3f97" x="57.6" y="155.688017" style="stroke: #000000; stroke-width: 0.8"/>
      </g>
     </g>
     <g id="text_11">
      <!-- 0.1 -->
      <g transform="translate(34.696875 159.487236) scale(0.1 -0.1)">
       <use xlink:href="#DejaVuSans-30"/>
       <use xlink:href="#DejaVuSans-2e" transform="translate(63.623047 0)"/>
       <use xlink:href="#DejaVuSans-31" transform="translate(95.410156 0)"/>
      </g>
     </g>
    </g>
    <g id="ytick_5">
     <g id="line2d_21">
      <path d="M 57.6 114.598802 
L 414.72 114.598802 
" clip-path="url(#p2ee89c65a4)" style="fill: none; stroke: #b0b0b0; stroke-width: 0.8; stroke-linecap: square"/>
     </g>
     <g id="line2d_22">
      <g>
       <use xlink:href="#m62833d3f97" x="57.6" y="114.598802" style="stroke: #000000; stroke-width: 0.8"/>
      </g>
     </g>
     <g id="text_12">
      <!-- 0.2 -->
      <g transform="translate(34.696875 118.398021) scale(0.1 -0.1)">
       <use xlink:href="#DejaVuSans-30"/>
       <use xlink:href="#DejaVuSans-2e" transform="translate(63.623047 0)"/>
       <use xlink:href="#DejaVuSans-32" transform="translate(95.410156 0)"/>
      </g>
     </g>
    </g>
    <g id="ytick_6">
     <g id="line2d_23">
      <path d="M 57.6 73.509587 
L 414.72 73.509587 
" clip-path="url(#p2ee89c65a4)" style="fill: none; stroke: #b0b0b0; stroke-width: 0.8; stroke-linecap: square"/>
     </g>
     <g id="line2d_24">
      <g>
       <use xlink:href="#m62833d3f97" x="57.6" y="73.509587" style="stroke: #000000; stroke-width: 0.8"/>
      </g>
     </g>
     <g id="text_13">
      <!-- 0.3 -->
      <g transform="translate(34.696875 77.308805) scale(0.1 -0.1)">
       <use xlink:href="#DejaVuSans-30"/>
       <use xlink:href="#DejaVuSans-2e" transform="translate(63.623047 0)"/>
       <use xlink:href="#DejaVuSans-33" transform="translate(95.410156 0)"/>
      </g>
     </g>
    </g>
    <g id="text_14">
     <!-- Curvature (1/m) -->
     <g transform="translate(20.2375 214.642063) rotate(-90) scale(0.1 -0.1)">
      <defs>
       <path id="DejaVuSans-43" d="M 4122 4306 
L 4122 3641 
Q 3803 3938 3442 4084 
Q 3081 4231 2675 4231 
Q 1875 4231 1450 3742 
Q 1025 3253 1025 2328 
Q 1025 1406 1450 917 
Q 1875 428 2675 428 
Q 3081 428 3442 575 
Q 3803 722 4122 1019 
L 4122 359 
Q 3791 134 3420 21 
Q 3050 -91 2638 -91 
Q 1578 -91 968 557 
Q 359 1206 359 2328 
Q 359 3453 968 4101 
Q 1578 4750 2638 4750 
Q 3056 4750 3426 4639 
Q 3797 4528 4122 4306 
z
" transform="scale(0.015625)"/>
       <path id="DejaVuSans-75" d="M 544 1381 
L 544 3500 
L 1119 3500 
L 1119 1403 
Q 1119 906 1312 657 
Q 1506 409 1894 409 
Q 2359 409 2629 706 
Q 2900 1003 2900 1516 
L 2900 3500 
L 3475 3500 
L 3475 0 
L 2900 0 
L 2900 538 
Q 2691 219 2414 64 
Q 2138 -91 1772 -91 
Q 1169 -91 856 284 
Q 544 659 544 1381 
z
M 1991 3584 
L 1991 3584 
z
" transform="scale(0.015625)"/>
       <path id="DejaVuSans-72" d="M 2631 2963 
Q 2534 3019 2420 3045 
Q 2306 3072 2169 3072 
Q 1681 3072 1420 2755 
Q 1159 2438 1159 1844 
L 1159 0 
L 581 0 
L 581 3500 
L 1159 3500 
L 1159 2956 
Q 1341 3275 1631 3429 
Q 1922 3584 2338 3584 
Q 2397 3584 2469 3576 
Q 2541 3569 2628 3553 
L 2631 2963 
z
" transform="scale(0.015625)"/>
       <path id="DejaVuSans-76" d="M 191 3500 
L 800 3500 
L 1894 563 
L 2988 3500 
L 3597 3500 
L 2284 0 
L 1503 0 
L 191 3500 
z
" transform="scale(0.015625)"/>
       <path id="DejaVuSans-2f" d="M 1625 4666 
L 2156 4666 
L 531 -594 
L 0 -594 
L 1625 4666 
z
" transform="scale(0.015625)"/>
      </defs>
      <use xlink:href="#DejaVuSans-43"/>
      <use xlink:href="#DejaVuSans-75" transform="translate(69.824219 0)"/>
      <use xlink:href="#DejaVuSans-72" transform="translate(133.203125 0)"/>
      <use xlink:href="#DejaVuSans-76" transform="translate(174.316406 0)"/>
      <use xlink:href="#DejaVuSans-61" transform="translate(233.496094 0)"/>
      <use xlink:href="#DejaVuSans-74" transform="translate(294.775391 0)"/>
      <use xlink:href="#DejaVuSans-75" transform="translate(333.984375 0)"/>
      <use xlink:href="#DejaVuSans-72" transform="translate(397.363281 0)"/>
      <use xlink:href="#DejaVuSans-65" transform="translate(436.226562 0)"/>
      <use xlink:href="#DejaVuSans-20" transform="translate(497.75 0)"/>
      <use xlink:href="#DejaVuSans-28" transform="translate(529.537109 0)"/>
      <use xlink:href="#DejaVuSans-31" transform="translate(568.550781 0)"/>
      <use xlink:href="#DejaVuSans-2f" transform="translate(632.173828 0)"/>
      <use xlink:href="#DejaVuSans-6d" transform="translate(665.865234 0)"/>
      <use xlink:href="#DejaVuSans-29" transform="translate(763.277344 0)"/>
     </g>
    </g>
   </g>
   <g id="line2d_25">
    <path d="M 73.832727 196.777233 
L 74.251104 197.0358 
L 74.84373 197.509011 
L 75.44431 196.381016 
L 75.617273 196.533921 
L 75.964928 196.99339 
L 76.227178 197.24795 
L 77.287807 196.48881 
L 78.544167 196.779484 
L 78.998463 196.786282 
L 79.639382 196.931747 
L 80.007768 197.058023 
L 80.655777 196.874922 
L 81.214672 196.682625 
L 82.059466 196.688546 
L 83.387684 196.943679 
L 83.865284 197.130841 
L 84.056518 196.821722 
L 84.343456 196.366237 
L 84.534912 196.381229 
L 85.304284 196.7497 
L 86.959084 196.879667 
L 87.64706 196.593686 
L 88.438108 196.741959 
L 89.331739 196.958928 
L 89.927028 197.288054 
L 90.125697 197.023089 
L 90.623679 196.038196 
L 90.823086 196.103865 
L 91.221441 196.612062 
L 91.619298 197.150853 
L 91.916068 197.73353 
L 92.305203 198.668872 
L 92.400984 198.603798 
L 93.048298 195.236252 
L 93.223262 195.771876 
L 93.476531 196.36018 
L 93.718278 196.49268 
L 93.872423 196.459571 
L 94.02058 196.007163 
L 94.163064 194.653795 
L 94.300561 191.169667 
L 94.498967 176.000099 
L 94.690036 157.983971 
L 94.814491 174.766358 
L 95.05949 206.415868 
L 95.120429 206.066727 
L 95.425967 194.949213 
L 95.670447 191.914023 
L 95.974188 187.117621 
L 96.09479 186.027683 
L 96.334106 182.853759 
L 96.393498 182.957786 
L 96.570502 185.085841 
L 96.975591 191.23376 
L 97.032527 191.348282 
L 97.089274 191.28255 
L 97.202272 190.534512 
L 97.482697 185.29283 
L 97.817334 180.323667 
L 97.984681 182.977123 
L 98.489954 198.04287 
L 98.546584 196.149952 
L 98.774233 188.944213 
L 98.888663 189.957926 
L 99.350321 195.962707 
L 99.526384 196.338618 
L 99.645165 195.92293 
L 99.765049 193.984632 
L 99.946551 185.368017 
L 100.068392 181.001893 
L 100.190683 189.111914 
L 100.374543 198.742574 
L 100.743853 196.18358 
L 101.446488 194.466519 
L 101.578208 194.455241 
L 101.777336 194.918666 
L 102.179646 195.935425 
L 102.587616 196.215542 
L 102.93301 196.24638 
L 103.142993 196.071004 
L 103.498262 195.690089 
L 103.642448 195.949328 
L 104.230282 197.69681 
L 104.604842 195.210885 
L 104.755748 195.050807 
L 104.982919 195.368659 
L 105.592737 196.566496 
L 105.90089 196.651941 
L 106.211682 196.52663 
L 106.368153 196.209963 
L 106.525407 194.655586 
L 106.683461 189.234748 
L 106.84231 182.394928 
L 107.00195 193.444146 
L 107.162375 200.828206 
L 107.566816 197.333282 
L 107.893672 196.937005 
L 108.306059 196.708328 
L 108.722304 196.515343 
L 108.889832 196.024543 
L 109.142071 194.392435 
L 109.395208 192.759035 
L 109.47974 192.854781 
L 109.818452 195.077538 
L 110.073111 196.43646 
L 110.158126 196.522691 
L 111.69846 192.805137 
L 112.130562 191.112389 
L 112.390398 187.848373 
L 112.476985 188.174578 
L 112.995273 193.153929 
L 113.167904 193.5769 
L 113.340957 193.531734 
L 113.60202 192.740834 
L 114.041367 191.121318 
L 114.129714 191.177605 
L 114.661328 191.547598 
L 114.83859 192.0786 
L 115.281743 194.29975 
L 115.548249 196.825039 
L 115.726434 198.804209 
L 115.994693 193.995151 
L 116.084379 194.209664 
L 116.354203 196.434075 
L 116.625107 198.351287 
L 116.806267 198.481367 
L 116.987841 198.148761 
L 117.352157 197.20407 
L 117.718036 196.96751 
L 118.361857 196.919837 
L 118.82401 197.044701 
L 119.473758 197.625935 
L 119.846441 198.306625 
L 120.126449 199.234653 
L 120.406731 200.971091 
L 120.687151 204.57523 
L 121.06106 209.571558 
L 121.15452 209.806356 
L 121.247968 209.406409 
L 121.434818 204.763484 
L 121.901713 192.94145 
L 121.995065 193.723097 
L 122.275095 201.731963 
L 122.461782 203.682753 
L 122.555132 203.954189 
L 122.64849 203.905684 
L 122.835236 203.217754 
L 123.302374 200.170023 
L 123.582833 198.29271 
L 123.863423 197.875605 
L 124.050595 198.03044 
L 124.237881 198.881686 
L 124.425306 200.936213 
L 124.706756 207.005016 
L 124.988649 212.837107 
L 125.082727 212.139356 
L 125.742855 195.745815 
L 125.83731 194.813189 
L 125.931779 195.004323 
L 126.30965 198.161834 
L 126.970469 201.736848 
L 127.064885 201.606673 
L 127.915473 200.110543 
L 128.578782 199.084793 
L 129.435676 198.031391 
L 130.104203 197.034395 
L 130.390478 197.094427 
L 131.248494 196.994945 
L 131.917156 196.761972 
L 132.396819 196.876068 
L 132.974421 197.168518 
L 133.457215 197.505164 
L 133.747449 197.217283 
L 134.231981 196.464632 
L 135.107148 196.577499 
L 136.478118 196.453432 
L 137.755224 196.177495 
L 138.445247 195.583107 
L 139.134788 195.757893 
L 140.424056 195.730663 
L 140.921934 196.451805 
L 141.819105 195.968009 
L 143.022963 196.951355 
L 143.223444 196.834271 
L 144.026161 196.145273 
L 144.932038 196.476263 
L 145.535795 196.247537 
L 146.34169 196.716121 
L 147.050332 196.732095 
L 147.456171 196.556865 
L 147.760674 196.083083 
L 148.267926 194.538343 
L 148.369284 194.641045 
L 148.571904 195.604104 
L 148.875798 197.085762 
L 149.078533 197.305947 
L 149.586378 196.794282 
L 150.401259 196.677031 
L 151.525095 196.908793 
L 151.832142 196.939117 
L 152.651849 196.178131 
L 153.575744 197.002057 
L 154.807343 196.372802 
L 155.961125 196.118421 
L 156.22051 196.518542 
L 156.3855 197.14442 
L 156.696978 195.251833 
L 157.056726 193.266244 
L 157.193065 193.244956 
L 157.391075 193.880405 
L 157.89149 195.851796 
L 158.011745 195.719255 
L 158.130466 194.674689 
L 158.247964 191.65729 
L 158.364608 182.891842 
L 158.538109 162.494309 
L 158.595349 166.814702 
L 158.764479 202.187092 
L 158.819799 201.940124 
L 158.982279 195.619265 
L 159.391957 193.926905 
L 159.584986 191.461374 
L 159.949317 182.994572 
L 159.992945 183.484726 
L 160.412213 193.425053 
L 160.493151 192.968472 
L 160.613239 189.371028 
L 160.849719 170.654166 
L 160.966613 166.034872 
L 161.082945 176.702508 
L 161.276262 197.681646 
L 161.314916 195.546523 
L 161.694637 177.391107 
L 161.731429 177.499165 
L 161.840481 178.746463 
L 162.017582 182.924629 
L 162.121037 182.520664 
L 162.525561 180.511949 
L 162.559385 180.922024 
L 162.798539 185.246404 
L 163.00753 194.66751 
L 163.078235 192.205753 
L 163.293544 182.980228 
L 163.329899 182.985466 
L 163.43978 185.273265 
L 163.857218 194.883298 
L 163.97791 195.752814 
L 164.019102 195.573826 
L 164.188762 187.544849 
L 164.410175 176.456219 
L 164.455477 176.503639 
L 164.593016 181.639545 
L 164.920571 194.463714 
L 165.110387 195.705401 
L 165.303711 195.951 
L 165.452318 195.854729 
L 165.70948 195.213382 
L 165.869793 194.018235 
L 166.034026 188.873376 
L 166.201925 184.30718 
L 166.315831 187.775726 
L 166.607027 197.52694 
L 166.845767 196.57562 
L 167.149232 196.255273 
L 167.519882 195.958056 
L 167.645638 195.852345 
L 168.430318 197.300709 
L 168.497899 197.230287 
L 168.977627 196.917575 
L 170.110383 196.551197 
L 170.774314 196.435902 
L 171.226757 196.57626 
L 171.455853 197.007604 
L 171.686803 197.251281 
L 171.919683 197.135521 
L 172.70779 196.499262 
L 173.265961 197.150565 
L 173.587549 197.462778 
L 173.749398 197.125717 
L 174.239404 195.574566 
L 174.819457 197.221597 
L 174.986763 197.28235 
L 175.660526 197.10867 
L 176.515336 196.985684 
L 177.126701 196.766281 
L 177.836101 197.288974 
L 178.548457 196.500715 
L 179.624704 197.167938 
L 180.5375 196.665527 
L 183.991451 196.765661 
L 184.956714 196.821655 
L 185.822613 196.750686 
L 186.891745 197.000306 
L 187.187866 197.100628 
L 187.485359 196.943723 
L 188.082578 195.990102 
L 188.28196 195.563315 
L 188.481549 195.837259 
L 188.981725 197.04562 
L 189.282867 197.149409 
L 191.009187 196.593174 
L 191.213667 196.332302 
L 191.418087 195.468531 
L 191.622417 192.999644 
L 191.826723 189.993666 
L 191.928892 192.786937 
L 192.13331 203.301103 
L 192.235579 203.094629 
L 192.542743 198.157913 
L 192.747896 197.175883 
L 193.056231 196.872945 
L 193.986708 196.514774 
L 194.194963 196.485111 
L 194.403867 196.665475 
L 194.92816 197.207421 
L 195.348632 197.146832 
L 196.191147 196.630675 
L 196.718853 196.718284 
L 197.671053 196.77898 
L 203.269153 196.68304 
L 203.81275 196.70009 
L 204.466277 197.133734 
L 205.011694 196.926608 
L 205.776367 196.407343 
L 206.323236 196.753021 
L 206.761088 196.952327 
L 207.089682 196.911688 
L 207.967226 196.780503 
L 209.726184 196.715971 
L 210.166492 196.864131 
L 212.270895 196.853504 
L 212.827087 196.981479 
L 213.495467 196.573637 
L 214.274823 196.784731 
L 216.060066 196.919374 
L 216.955613 196.804177 
L 218.077855 196.633456 
L 218.864886 196.93053 
L 219.314492 196.999414 
L 221.002024 196.739485 
L 222.130014 196.671201 
L 222.806402 196.738613 
L 223.370152 196.836147 
L 224.388332 196.810004 
L 225.066826 196.941667 
L 225.292298 197.093912 
L 225.854092 197.876144 
L 226.078579 197.466623 
L 226.415725 196.740456 
L 226.641077 196.622314 
L 227.897436 196.546505 
L 228.356596 196.423443 
L 230.486524 196.227847 
L 230.671289 196.204271 
L 230.853696 196.396162 
L 231.674209 198.466619 
L 231.750837 198.881794 
L 231.827643 198.67301 
L 232.210183 194.961274 
L 232.429481 194.224404 
L 232.499358 194.147608 
L 232.567205 194.217807 
L 233.254368 196.408146 
L 233.304996 196.450654 
L 233.355168 196.372595 
L 233.454342 195.157275 
L 233.551922 190.71372 
L 233.647858 173.915364 
L 233.834593 80.131985 
L 234.014134 235.571633 
L 234.057847 227.893155 
L 234.310111 197.815274 
L 234.80953 192.308969 
L 235.094881 181.428562 
L 235.129809 181.790282 
L 235.301327 190.099346 
L 235.46527 193.572055 
L 235.559836 194.261461 
L 235.62155 194.211584 
L 235.682313 193.982181 
L 235.771719 192.131056 
L 236.029424 179.366235 
L 236.085215 181.551133 
L 236.250373 193.98038 
L 236.277526 192.070441 
L 236.463747 165.964622 
L 236.714679 185.565141 
L 236.786626 183.035851 
L 236.857604 170.696495 
L 236.974513 93.349068 
L 237.020924 53.568 
L 237.067228 71.47537 
L 237.18313 238.123097 
L 237.276601 226.022255 
L 237.370951 142.191372 
L 237.41853 151.468017 
L 237.636393 193.759636 
L 237.685871 194.601719 
L 237.710818 194.330128 
L 237.786547 185.857199 
L 237.88959 121.186596 
L 237.941987 61.561577 
L 237.968401 72.921629 
L 238.048495 285.162913 
L 238.12994 235.927167 
L 238.300296 204.255541 
L 238.552513 195.699311 
L 238.61865 195.047525 
L 238.951753 202.687483 
L 239.80078 212.529025 
L 240.192251 215.410843 
L 240.227962 215.186154 
L 240.515185 212.224405 
L 240.551331 212.331397 
L 240.769849 214.860348 
L 240.806606 214.883911 
L 240.843477 214.790944 
L 240.954834 213.715336 
L 241.257125 195.960368 
L 241.295475 195.465444 
L 241.489228 215.715532 
L 241.928605 197.544158 
L 242.05298 197.291248 
L 242.095116 197.352459 
L 242.180444 199.653702 
L 242.267208 213.628524 
L 242.400358 295.488 
L 242.445615 255.333045 
L 242.53755 168.408121 
L 242.584264 172.384649 
L 242.776517 194.938426 
L 242.977415 196.457176 
L 243.237388 196.729821 
L 243.55568 197.002465 
L 244.038359 197.53677 
L 244.14963 197.415359 
L 244.556578 195.837652 
L 244.61636 195.855988 
L 244.857761 196.290471 
L 245.101158 196.761112 
L 245.409733 197.136093 
L 245.47244 196.735566 
L 245.663219 194.550398 
L 245.990886 196.095752 
L 246.26064 196.333009 
L 246.535623 196.279178 
L 246.67463 196.082504 
L 246.814409 195.492201 
L 247.095869 192.357883 
L 247.237516 191.215072 
L 247.308563 191.403511 
L 247.522589 194.612509 
L 247.737913 196.823961 
L 248.026884 196.302974 
L 248.978625 195.236502 
L 249.127921 194.935971 
L 249.354126 195.231591 
L 249.73674 196.090321 
L 250.441269 194.676261 
L 250.600437 194.377323 
L 251.001982 195.403803 
L 251.24504 195.866172 
L 251.489613 195.842184 
L 252.398329 195.718615 
L 253.23955 196.198035 
L 253.324712 196.379944 
L 253.410078 196.233877 
L 253.753501 194.198663 
L 253.839818 194.191189 
L 254.012966 194.654119 
L 254.448602 196.108592 
L 254.711823 196.271979 
L 254.976436 196.139546 
L 255.599317 195.008178 
L 255.868612 194.625011 
L 256.139308 194.608362 
L 256.320541 194.879561 
L 256.502381 195.523363 
L 256.776268 197.48741 
L 256.959601 199.027074 
L 257.2357 197.103315 
L 257.605881 194.375353 
L 257.791845 194.625228 
L 258.447196 196.267133 
L 258.824351 196.389142 
L 259.202639 196.268654 
L 259.581381 196.065748 
L 259.77082 196.119766 
L 260.531797 196.804111 
L 260.916312 196.781404 
L 262.278771 196.739893 
L 262.571881 196.400422 
L 262.864869 196.031022 
L 263.06036 196.117299 
L 263.847183 196.85782 
L 264.44328 197.191984 
L 264.742495 197.394011 
L 265.443468 196.35325 
L 266.253457 196.75973 
L 266.968802 197.016393 
L 267.481413 197.281788 
L 267.686645 197.040858 
L 268.097513 196.330549 
L 268.3032 196.383087 
L 268.715171 196.687318 
L 269.54332 196.773098 
L 270.381566 196.847616 
L 270.910104 196.95926 
L 271.33368 196.850278 
L 272.708832 196.388462 
L 273.026501 196.782962 
L 273.344893 197.128476 
L 273.664134 197.217767 
L 273.877384 197.014539 
L 274.411809 196.583819 
L 274.94783 196.381401 
L 275.485247 196.56778 
L 275.916191 196.583195 
L 276.888324 196.144903 
L 277.753687 196.304072 
L 278.620763 196.339444 
L 279.05537 195.904043 
L 279.382005 195.932002 
L 280.474735 196.63093 
L 280.912788 196.493558 
L 281.131915 196.169146 
L 281.351168 195.319994 
L 281.57061 193.281064 
L 281.790298 190.784733 
L 281.900227 191.506007 
L 282.34024 198.969099 
L 282.450261 198.742595 
L 282.780186 196.904324 
L 283.439474 196.046118 
L 283.659403 195.886689 
L 285.095728 195.968188 
L 285.871798 195.973814 
L 286.42663 196.020138 
L 287.98413 196.764011 
L 288.652171 196.640456 
L 288.986051 196.720947 
L 289.543053 196.957628 
L 289.766243 196.815624 
L 290.436584 196.234018 
L 290.771676 196.136233 
L 292.001523 196.595463 
L 292.564953 196.489614 
L 292.90151 196.385411 
L 293.123988 196.484451 
L 293.774747 197.055665 
L 294.191015 196.93192 
L 294.788207 196.802055 
L 295.256194 196.869113 
L 295.699889 197.050504 
L 295.871758 196.590663 
L 296.124406 194.558146 
L 296.371634 192.980027 
L 296.533691 193.600791 
L 296.851193 195.593309 
L 297.761093 191.257658 
L 298.130672 187.742538 
L 298.277498 187.730258 
L 298.42341 188.31126 
L 298.924668 191.401957 
L 299.272264 189.556918 
L 299.475899 187.880047 
L 299.543035 187.882168 
L 299.676355 188.634541 
L 300.329768 194.307935 
L 300.522733 194.595968 
L 300.650615 194.429732 
L 300.777853 193.526246 
L 300.967417 188.327522 
L 301.341151 173.947922 
L 301.464187 177.48783 
L 301.891635 196.821569 
L 302.257388 192.766496 
L 302.808723 186.621888 
L 303.179656 191.169676 
L 303.366331 192.760516 
L 303.428745 192.744279 
L 303.742299 185.801143 
L 303.931687 183.721364 
L 304.058464 185.10207 
L 304.505161 195.628505 
L 304.569314 194.147502 
L 304.891501 190.428377 
L 305.021441 189.990142 
L 305.152246 191.351362 
L 305.41686 193.521161 
L 305.618051 193.759334 
L 305.753394 193.661152 
L 305.958096 193.111613 
L 306.303318 191.994236 
L 306.512638 192.076965 
L 306.723457 192.395805 
L 307.006686 193.315525 
L 307.292109 195.021006 
L 307.363777 195.608645 
L 307.435561 195.593906 
L 307.796259 192.572568 
L 308.087116 191.150032 
L 308.233301 191.571884 
L 308.74769 194.91353 
L 308.821404 194.704057 
L 309.265718 193.275602 
L 309.868674 190.819848 
L 310.253216 190.129925 
L 310.79855 189.809007 
L 311.191271 189.800937 
L 311.270025 189.917704 
L 311.823418 192.552606 
L 312.220744 193.617156 
L 312.300385 193.413886 
L 312.380079 193.447184 
L 312.539711 193.731422 
L 313.103381 195.546739 
L 313.184832 195.424032 
L 313.266566 195.332504 
L 313.348594 195.648712 
L 313.845247 199.380159 
L 314.011515 200.186333 
L 314.923869 195.721037 
L 315.090807 196.440597 
L 315.342896 194.153972 
L 315.596802 192.583315 
L 315.766945 193.610682 
L 316.023266 195.416365 
L 316.280754 195.906671 
L 317.059455 196.401889 
L 317.32102 196.342279 
L 317.495941 195.835706 
L 317.759116 195.259912 
L 317.935073 195.583693 
L 318.376635 196.55108 
L 318.731497 196.728325 
L 319.356757 196.943524 
L 319.53668 197.302377 
L 319.717208 198.563633 
L 319.8983 200.054878 
L 320.170909 194.405398 
L 320.262016 194.835589 
L 320.535984 196.403386 
L 320.719127 196.678707 
L 320.902665 196.698443 
L 321.36316 196.156971 
L 321.45551 196.277045 
L 321.82544 197.142384 
L 322.103103 197.683439 
L 322.288151 197.710949 
L 322.751353 197.425768 
L 323.123947 197.145102 
L 323.498487 197.194779 
L 323.686263 197.361276 
L 324.062393 197.995642 
L 324.34489 200.273758 
L 324.816508 205.090465 
L 324.910954 205.058141 
L 325.099969 203.428555 
L 325.57325 197.916074 
L 325.85773 198.417525 
L 326.428035 199.596591 
L 326.809483 201.054048 
L 326.905028 200.872294 
L 327.192087 197.126636 
L 327.863069 198.701071 
L 328.054634 198.735874 
L 328.34189 198.351945 
L 328.917014 197.402014 
L 329.205165 197.339781 
L 329.493979 197.521597 
L 330.074135 198.28172 
L 331.237205 200.159127 
L 331.430818 200.008757 
L 331.721084 199.424774 
L 331.817798 199.530798 
L 331.914472 199.890088 
L 332.300682 199.348054 
L 332.686698 199.153002 
L 332.976567 199.208219 
L 333.267118 199.47544 
L 333.55869 200.072337 
L 333.851621 201.353674 
L 334.243304 203.68504 
L 334.437976 203.907486 
L 334.630776 203.292288 
L 335.456295 198.821976 
L 335.714777 198.426201 
L 335.967531 198.353621 
L 336.216677 198.518721 
L 336.464338 198.973772 
L 336.712579 199.441649 
L 337.203872 197.620639 
L 337.360097 197.078895 
L 337.725952 199.210553 
L 337.86424 198.94654 
L 338.322055 197.338589 
L 338.446623 197.395095 
L 338.569102 197.829088 
L 338.749371 200.329385 
L 338.925393 207.295622 
L 339.09697 213.860201 
L 339.208788 206.864602 
L 339.426069 195.499976 
L 339.58353 193.919965 
L 340.076292 201.221511 
L 340.169139 201.04697 
L 340.348914 200.597815 
L 340.650768 199.167407 
L 340.69318 199.616712 
L 341.069865 202.674782 
L 341.392093 204.859711 
L 341.77485 216.109051 
L 341.812849 215.973542 
L 342.222903 198.330097 
L 342.258736 198.871143 
L 342.505602 237.559846 
L 342.540702 235.988162 
L 343.072752 198.951013 
L 343.109134 198.775953 
L 343.145741 199.211747 
L 343.256931 211.905526 
L 343.445872 290.53926 
L 343.484047 275.362087 
L 343.675894 176.718538 
L 343.906129 197.112219 
L 344.383396 205.132094 
L 344.425422 206.386871 
L 344.467712 205.954459 
L 344.768104 197.261176 
L 345.033641 196.496869 
L 345.079489 196.465648 
L 345.125959 196.637441 
L 345.269089 194.202946 
L 345.416941 185.062306 
L 345.670768 159.173305 
L 345.773911 170.527542 
L 346.032858 199.781082 
L 346.084497 200.603314 
L 346.391667 189.732719 
L 346.543922 183.88617 
L 346.594467 184.471577 
L 346.74541 185.126055 
L 346.94525 186.068593 
L 347.292313 187.909514 
L 347.440268 188.98331 
L 347.931257 194.397814 
L 348.176271 199.149263 
L 348.519832 185.008889 
L 348.569137 185.227333 
L 348.717607 189.230987 
L 348.91692 193.296223 
L 349.067641 193.991664 
L 349.118137 193.981385 
L 349.219489 193.48069 
L 349.321289 191.720475 
L 349.474735 182.889929 
L 349.732204 143.093732 
L 349.83598 152.717083 
L 350.151253 205.651909 
L 350.473979 193.397855 
L 350.637876 189.98603 
L 350.692799 190.427059 
L 350.747851 190.35306 
L 350.858455 190.826571 
L 351.48804 195.853274 
L 351.72626 195.890098 
L 351.906318 195.682229 
L 352.086491 195.091386 
L 352.384888 193.016137 
L 352.739431 188.783449 
L 352.797971 188.879284 
L 352.972322 190.902299 
L 353.201208 194.249447 
L 353.25769 194.044939 
L 353.698705 191.845804 
L 353.859191 187.352172 
L 354.069717 181.199633 
L 354.174252 183.87865 
L 354.436101 191.879494 
L 354.646742 193.089258 
L 354.752312 193.241686 
L 354.857731 192.884437 
L 354.962691 191.750018 
L 355.170146 185.218713 
L 355.425109 177.794478 
L 355.526257 180.268122 
L 355.87957 199.083993 
L 355.930231 198.814198 
L 356.23632 191.465968 
L 356.442474 190.611065 
L 356.54626 190.632814 
L 356.702956 190.946002 
L 356.861013 191.4183 
L 357.348969 189.722178 
L 357.868932 189.661683 
L 358.108041 189.945137 
L 358.656993 191.438188 
L 359.094932 192.285398 
L 359.481874 194.56151 
L 359.679914 194.752242 
L 360.354598 195.02382 
L 360.491132 195.052489 
L 361.186703 196.721963 
L 361.688124 196.811423 
L 361.905364 196.771221 
L 362.568614 198.286926 
L 362.643763 198.205246 
L 362.871253 196.02798 
L 362.94776 196.135148 
L 364.125394 197.517787 
L 364.445328 196.658863 
L 364.686596 196.13993 
L 364.848066 196.180081 
L 365.09119 196.429749 
L 365.417028 196.449505 
L 365.662637 196.242506 
L 365.991799 195.895831 
L 366.323068 195.822191 
L 366.573057 195.992298 
L 366.824471 196.534779 
L 367.331491 197.665746 
L 367.586983 197.798372 
L 367.758011 197.526483 
L 368.188061 196.935256 
L 368.794741 196.282655 
L 368.968728 195.016941 
L 369.230156 189.945705 
L 369.317434 190.141902 
L 369.492228 193.974796 
L 370.01896 216.883335 
L 370.195484 212.496389 
L 370.638745 200.714052 
L 370.905704 198.358193 
L 371.173053 197.841606 
L 371.351332 197.826422 
L 371.618581 198.134582 
L 371.885756 198.849621 
L 372.153407 200.35097 
L 372.332362 202.462017 
L 372.962865 212.360355 
L 373.053319 211.506296 
L 373.777964 197.770903 
L 374.049825 195.738283 
L 374.23105 195.43543 
L 374.321657 196.059115 
L 374.684078 201.011529 
L 375.046554 203.447399 
L 375.137171 203.527651 
L 375.22778 203.439287 
L 375.590084 200.239528 
L 375.680625 200.31532 
L 376.133343 202.016022 
L 376.314606 201.273643 
L 376.677885 198.588925 
L 377.22503 197.635204 
L 377.865038 197.03996 
L 378.047942 196.830598 
L 378.505298 195.174341 
L 378.596808 195.343869 
L 378.87152 196.429197 
L 379.23851 197.841079 
L 379.422444 198.023048 
L 379.606746 197.781812 
L 380.06909 197.206394 
L 380.347584 197.180098 
L 380.627055 197.359367 
L 380.813989 197.716043 
L 381.190162 199.2166 
L 381.570935 201.931384 
L 381.950674 204.536195 
L 382.044594 204.453885 
L 382.23042 202.666591 
L 382.677933 193.880177 
L 382.763605 194.354923 
L 383.012311 197.389874 
L 383.477736 200.171923 
L 383.69711 200.510528 
L 383.838861 200.477187 
L 383.908421 200.396324 
L 384.499923 198.442872 
L 384.624672 198.418749 
L 384.747656 198.687367 
L 384.928653 199.769917 
L 385.218896 201.884974 
L 385.274927 201.906935 
L 385.384697 201.282997 
L 385.698729 197.432873 
L 385.749763 197.850372 
L 386.104579 201.115639 
L 386.254841 202.711563 
L 386.402858 201.334811 
L 386.451654 201.475674 
L 386.548397 202.339108 
L 386.831724 205.476223 
L 386.924196 204.444363 
L 387.061571 199.102136 
L 387.288234 184.519449 
L 387.333382 186.546335 
L 387.513406 196.845077 
L 387.781304 231.341788 
L 387.825705 231.650856 
L 387.9585 225.532216 
L 388.353242 202.554676 
L 388.440214 202.169717 
L 388.483675 202.340635 
L 388.614247 204.665484 
L 388.78966 216.457799 
L 389.011968 234.230795 
L 389.05687 233.996423 
L 389.192547 220.94724 
L 389.37589 198.145643 
L 389.422188 198.659149 
L 389.656476 204.918838 
L 389.751581 205.347613 
L 389.79945 205.279355 
L 389.944372 204.394249 
L 390.19056 201.760695 
L 390.494045 198.098653 
L 391.198492 194.707893 
L 391.426916 193.364759 
L 391.541825 193.620422 
L 391.599346 193.520924 
L 391.714636 193.639469 
L 391.830481 194.024376 
L 392.366567 198.234818 
L 392.872755 198.996812 
L 393.131383 199.117102 
L 393.196088 199.035483 
L 393.719128 196.440679 
L 394.334191 197.234368 
L 394.474641 197.186203 
L 395.192202 196.738776 
L 395.484755 196.79451 
L 395.854791 196.483467 
L 396.153998 196.575345 
L 396.455715 196.642924 
L 396.760018 196.508556 
L 396.990078 196.10987 
L 397.299506 195.002641 
L 397.770097 193.226253 
L 397.928616 193.697291 
L 398.487273 196.685752 
L 398.487273 196.685752 
" clip-path="url(#p2ee89c65a4)" style="fill: none; stroke: #008000; stroke-width: 1.5; stroke-linecap: square"/>
   </g>
   <g id="patch_3">
    <path d="M 57.6 307.584 
L 57.6 41.472 
" style="fill: none; stroke: #000000; stroke-width: 0.8; stroke-linejoin: miter; stroke-linecap: square"/>
   </g>
   <g id="patch_4">
    <path d="M 414.72 307.584 
L 414.72 41.472 
" style="fill: none; stroke: #000000; stroke-width: 0.8; stroke-linejoin: miter; stroke-linecap: square"/>
   </g>
   <g id="patch_5">
    <path d="M 57.6 307.584 
L 414.72 307.584 
" style="fill: none; stroke: #000000; stroke-width: 0.8; stroke-linejoin: miter; stroke-linecap: square"/>
   </g>
   <g id="patch_6">
    <path d="M 57.6 41.472 
L 414.72 41.472 
" style="fill: none; stroke: #000000; stroke-width: 0.8; stroke-linejoin: miter; stroke-linecap: square"/>
   </g>
   <g id="text_15">
    <!-- Curvature No Filter -->
    <g transform="translate(179.460938 35.472) scale(0.12 -0.12)">
     <defs>
      <path id="DejaVuSans-4e" d="M 628 4666 
L 1478 4666 
L 3547 763 
L 3547 4666 
L 4159 4666 
L 4159 0 
L 3309 0 
L 1241 3903 
L 1241 0 
L 628 0 
L 628 4666 
z
" transform="scale(0.015625)"/>
      <path id="DejaVuSans-6f" d="M 1959 3097 
Q 1497 3097 1228 2736 
Q 959 2375 959 1747 
Q 959 1119 1226 758 
Q 1494 397 1959 397 
Q 2419 397 2687 759 
Q 2956 1122 2956 1747 
Q 2956 2369 2687 2733 
Q 2419 3097 1959 3097 
z
M 1959 3584 
Q 2709 3584 3137 3096 
Q 3566 2609 3566 1747 
Q 3566 888 3137 398 
Q 2709 -91 1959 -91 
Q 1206 -91 779 398 
Q 353 888 353 1747 
Q 353 2609 779 3096 
Q 1206 3584 1959 3584 
z
" transform="scale(0.015625)"/>
      <path id="DejaVuSans-46" d="M 628 4666 
L 3309 4666 
L 3309 4134 
L 1259 4134 
L 1259 2759 
L 3109 2759 
L 3109 2228 
L 1259 2228 
L 1259 0 
L 628 0 
L 628 4666 
z
" transform="scale(0.015625)"/>
      <path id="DejaVuSans-6c" d="M 603 4863 
L 1178 4863 
L 1178 0 
L 603 0 
L 603 4863 
z
" transform="scale(0.015625)"/>
     </defs>
     <use xlink:href="#DejaVuSans-43"/>
     <use xlink:href="#DejaVuSans-75" transform="translate(69.824219 0)"/>
     <use xlink:href="#DejaVuSans-72" transform="translate(133.203125 0)"/>
     <use xlink:href="#DejaVuSans-76" transform="translate(174.316406 0)"/>
     <use xlink:href="#DejaVuSans-61" transform="translate(233.496094 0)"/>
     <use xlink:href="#DejaVuSans-74" transform="translate(294.775391 0)"/>
     <use xlink:href="#DejaVuSans-75" transform="translate(333.984375 0)"/>
     <use xlink:href="#DejaVuSans-72" transform="translate(397.363281 0)"/>
     <use xlink:href="#DejaVuSans-65" transform="translate(436.226562 0)"/>
     <use xlink:href="#DejaVuSans-20" transform="translate(497.75 0)"/>
     <use xlink:href="#DejaVuSans-4e" transform="translate(529.537109 0)"/>
     <use xlink:href="#DejaVuSans-6f" transform="translate(604.341797 0)"/>
     <use xlink:href="#DejaVuSans-20" transform="translate(665.523438 0)"/>
     <use xlink:href="#DejaVuSans-46" transform="translate(697.310547 0)"/>
     <use xlink:href="#DejaVuSans-69" transform="translate(747.580078 0)"/>
     <use xlink:href="#DejaVuSans-6c" transform="translate(775.363281 0)"/>
     <use xlink:href="#DejaVuSans-74" transform="translate(803.146484 0)"/>
     <use xlink:href="#DejaVuSans-65" transform="translate(842.355469 0)"/>
     <use xlink:href="#DejaVuSans-72" transform="translate(903.878906 0)"/>
    </g>
   </g>
   <g id="legend_1">
    <g id="patch_7">
     <path d="M 325.945 64.150125 
L 407.72 64.150125 
Q 409.72 64.150125 409.72 62.150125 
L 409.72 48.472 
Q 409.72 46.472 407.72 46.472 
L 325.945 46.472 
Q 323.945 46.472 323.945 48.472 
L 323.945 62.150125 
Q 323.945 64.150125 325.945 64.150125 
z
" style="fill: #ffffff; opacity: 0.8; stroke: #cccccc; stroke-linejoin: miter"/>
    </g>
    <g id="line2d_26">
     <path d="M 327.945 54.570438 
L 337.945 54.570438 
L 347.945 54.570438 
" style="fill: none; stroke: #008000; stroke-width: 1.5; stroke-linecap: square"/>
    </g>
    <g id="text_16">
     <!-- Curvature -->
     <g transform="translate(355.945 58.070438) scale(0.1 -0.1)">
      <use xlink:href="#DejaVuSans-43"/>
      <use xlink:href="#DejaVuSans-75" transform="translate(69.824219 0)"/>
      <use xlink:href="#DejaVuSans-72" transform="translate(133.203125 0)"/>
      <use xlink:href="#DejaVuSans-76" transform="translate(174.316406 0)"/>
      <use xlink:href="#DejaVuSans-61" transform="translate(233.496094 0)"/>
      <use xlink:href="#DejaVuSans-74" transform="translate(294.775391 0)"/>
      <use xlink:href="#DejaVuSans-75" transform="translate(333.984375 0)"/>
      <use xlink:href="#DejaVuSans-72" transform="translate(397.363281 0)"/>
      <use xlink:href="#DejaVuSans-65" transform="translate(436.226562 0)"/>
     </g>
    </g>
   </g>
  </g>
 </g>
 <defs>
  <clipPath id="p2ee89c65a4">
   <rect x="57.6" y="41.472" width="357.12" height="266.112"/>
  </clipPath>
 </defs>
</svg>
