<?xml version="1.0" encoding="utf-8" standalone="no"?>
<!DOCTYPE svg PUBLIC "-//W3C//DTD SVG 1.1//EN"
  "http://www.w3.org/Graphics/SVG/1.1/DTD/svg11.dtd">
<svg xmlns:xlink="http://www.w3.org/1999/xlink" width="460.8pt" height="345.6pt" viewBox="0 0 460.8 345.6" xmlns="http://www.w3.org/2000/svg" version="1.1">
 <metadata>
  <rdf:RDF xmlns:dc="http://purl.org/dc/elements/1.1/" xmlns:cc="http://creativecommons.org/ns#" xmlns:rdf="http://www.w3.org/1999/02/22-rdf-syntax-ns#">
   <cc:Work>
    <dc:type rdf:resource="http://purl.org/dc/dcmitype/StillImage"/>
    <dc:date>2025-06-11T00:18:20.828262</dc:date>
    <dc:format>image/svg+xml</dc:format>
    <dc:creator>
     <cc:Agent>
      <dc:title>Matplotlib v3.10.1, https://matplotlib.org/</dc:title>
     </cc:Agent>
    </dc:creator>
   </cc:Work>
  </rdf:RDF>
 </metadata>
 <defs>
  <style type="text/css">*{stroke-linejoin: round; stroke-linecap: butt}</style>
 </defs>
 <g id="figure_1">
  <g id="patch_1">
   <path d="M 0 345.6 
L 460.8 345.6 
L 460.8 0 
L 0 0 
z
" style="fill: #ffffff"/>
  </g>
  <g id="axes_1">
   <g id="patch_2">
    <path d="M 57.6 307.584 
L 414.72 307.584 
L 414.72 41.472 
L 57.6 41.472 
z
" style="fill: #ffffff"/>
   </g>
   <g id="matplotlib.axis_1">
    <g id="xtick_1">
     <g id="line2d_1">
      <path d="M 73.823333 307.584 
L 73.823333 41.472 
" clip-path="url(#pe91b825672)" style="fill: none; stroke: #b0b0b0; stroke-width: 0.8; stroke-linecap: square"/>
     </g>
     <g id="line2d_2">
      <defs>
       <path id="m8d54273ee0" d="M 0 0 
L 0 3.5 
" style="stroke: #000000; stroke-width: 0.8"/>
      </defs>
      <g>
       <use xlink:href="#m8d54273ee0" x="73.823333" y="307.584" style="stroke: #000000; stroke-width: 0.8"/>
      </g>
     </g>
     <g id="text_1">
      <!-- 0 -->
      <g transform="translate(70.642083 322.182437) scale(0.1 -0.1)">
       <defs>
        <path id="DejaVuSans-30" d="M 2034 4250 
Q 1547 4250 1301 3770 
Q 1056 3291 1056 2328 
Q 1056 1369 1301 889 
Q 1547 409 2034 409 
Q 2525 409 2770 889 
Q 3016 1369 3016 2328 
Q 3016 3291 2770 3770 
Q 2525 4250 2034 4250 
z
M 2034 4750 
Q 2819 4750 3233 4129 
Q 3647 3509 3647 2328 
Q 3647 1150 3233 529 
Q 2819 -91 2034 -91 
Q 1250 -91 836 529 
Q 422 1150 422 2328 
Q 422 3509 836 4129 
Q 1250 4750 2034 4750 
z
" transform="scale(0.015625)"/>
       </defs>
       <use xlink:href="#DejaVuSans-30"/>
      </g>
     </g>
    </g>
    <g id="xtick_2">
     <g id="line2d_3">
      <path d="M 136.073077 307.584 
L 136.073077 41.472 
" clip-path="url(#pe91b825672)" style="fill: none; stroke: #b0b0b0; stroke-width: 0.8; stroke-linecap: square"/>
     </g>
     <g id="line2d_4">
      <g>
       <use xlink:href="#m8d54273ee0" x="136.073077" y="307.584" style="stroke: #000000; stroke-width: 0.8"/>
      </g>
     </g>
     <g id="text_2">
      <!-- 1000 -->
      <g transform="translate(123.348077 322.182437) scale(0.1 -0.1)">
       <defs>
        <path id="DejaVuSans-31" d="M 794 531 
L 1825 531 
L 1825 4091 
L 703 3866 
L 703 4441 
L 1819 4666 
L 2450 4666 
L 2450 531 
L 3481 531 
L 3481 0 
L 794 0 
L 794 531 
z
" transform="scale(0.015625)"/>
       </defs>
       <use xlink:href="#DejaVuSans-31"/>
       <use xlink:href="#DejaVuSans-30" transform="translate(63.623047 0)"/>
       <use xlink:href="#DejaVuSans-30" transform="translate(127.246094 0)"/>
       <use xlink:href="#DejaVuSans-30" transform="translate(190.869141 0)"/>
      </g>
     </g>
    </g>
    <g id="xtick_3">
     <g id="line2d_5">
      <path d="M 198.322822 307.584 
L 198.322822 41.472 
" clip-path="url(#pe91b825672)" style="fill: none; stroke: #b0b0b0; stroke-width: 0.8; stroke-linecap: square"/>
     </g>
     <g id="line2d_6">
      <g>
       <use xlink:href="#m8d54273ee0" x="198.322822" y="307.584" style="stroke: #000000; stroke-width: 0.8"/>
      </g>
     </g>
     <g id="text_3">
      <!-- 2000 -->
      <g transform="translate(185.597822 322.182437) scale(0.1 -0.1)">
       <defs>
        <path id="DejaVuSans-32" d="M 1228 531 
L 3431 531 
L 3431 0 
L 469 0 
L 469 531 
Q 828 903 1448 1529 
Q 2069 2156 2228 2338 
Q 2531 2678 2651 2914 
Q 2772 3150 2772 3378 
Q 2772 3750 2511 3984 
Q 2250 4219 1831 4219 
Q 1534 4219 1204 4116 
Q 875 4013 500 3803 
L 500 4441 
Q 881 4594 1212 4672 
Q 1544 4750 1819 4750 
Q 2544 4750 2975 4387 
Q 3406 4025 3406 3419 
Q 3406 3131 3298 2873 
Q 3191 2616 2906 2266 
Q 2828 2175 2409 1742 
Q 1991 1309 1228 531 
z
" transform="scale(0.015625)"/>
       </defs>
       <use xlink:href="#DejaVuSans-32"/>
       <use xlink:href="#DejaVuSans-30" transform="translate(63.623047 0)"/>
       <use xlink:href="#DejaVuSans-30" transform="translate(127.246094 0)"/>
       <use xlink:href="#DejaVuSans-30" transform="translate(190.869141 0)"/>
      </g>
     </g>
    </g>
    <g id="xtick_4">
     <g id="line2d_7">
      <path d="M 260.572567 307.584 
L 260.572567 41.472 
" clip-path="url(#pe91b825672)" style="fill: none; stroke: #b0b0b0; stroke-width: 0.8; stroke-linecap: square"/>
     </g>
     <g id="line2d_8">
      <g>
       <use xlink:href="#m8d54273ee0" x="260.572567" y="307.584" style="stroke: #000000; stroke-width: 0.8"/>
      </g>
     </g>
     <g id="text_4">
      <!-- 3000 -->
      <g transform="translate(247.847567 322.182437) scale(0.1 -0.1)">
       <defs>
        <path id="DejaVuSans-33" d="M 2597 2516 
Q 3050 2419 3304 2112 
Q 3559 1806 3559 1356 
Q 3559 666 3084 287 
Q 2609 -91 1734 -91 
Q 1441 -91 1130 -33 
Q 819 25 488 141 
L 488 750 
Q 750 597 1062 519 
Q 1375 441 1716 441 
Q 2309 441 2620 675 
Q 2931 909 2931 1356 
Q 2931 1769 2642 2001 
Q 2353 2234 1838 2234 
L 1294 2234 
L 1294 2753 
L 1863 2753 
Q 2328 2753 2575 2939 
Q 2822 3125 2822 3475 
Q 2822 3834 2567 4026 
Q 2313 4219 1838 4219 
Q 1578 4219 1281 4162 
Q 984 4106 628 3988 
L 628 4550 
Q 988 4650 1302 4700 
Q 1616 4750 1894 4750 
Q 2613 4750 3031 4423 
Q 3450 4097 3450 3541 
Q 3450 3153 3228 2886 
Q 3006 2619 2597 2516 
z
" transform="scale(0.015625)"/>
       </defs>
       <use xlink:href="#DejaVuSans-33"/>
       <use xlink:href="#DejaVuSans-30" transform="translate(63.623047 0)"/>
       <use xlink:href="#DejaVuSans-30" transform="translate(127.246094 0)"/>
       <use xlink:href="#DejaVuSans-30" transform="translate(190.869141 0)"/>
      </g>
     </g>
    </g>
    <g id="xtick_5">
     <g id="line2d_9">
      <path d="M 322.822312 307.584 
L 322.822312 41.472 
" clip-path="url(#pe91b825672)" style="fill: none; stroke: #b0b0b0; stroke-width: 0.8; stroke-linecap: square"/>
     </g>
     <g id="line2d_10">
      <g>
       <use xlink:href="#m8d54273ee0" x="322.822312" y="307.584" style="stroke: #000000; stroke-width: 0.8"/>
      </g>
     </g>
     <g id="text_5">
      <!-- 4000 -->
      <g transform="translate(310.097312 322.182437) scale(0.1 -0.1)">
       <defs>
        <path id="DejaVuSans-34" d="M 2419 4116 
L 825 1625 
L 2419 1625 
L 2419 4116 
z
M 2253 4666 
L 3047 4666 
L 3047 1625 
L 3713 1625 
L 3713 1100 
L 3047 1100 
L 3047 0 
L 2419 0 
L 2419 1100 
L 313 1100 
L 313 1709 
L 2253 4666 
z
" transform="scale(0.015625)"/>
       </defs>
       <use xlink:href="#DejaVuSans-34"/>
       <use xlink:href="#DejaVuSans-30" transform="translate(63.623047 0)"/>
       <use xlink:href="#DejaVuSans-30" transform="translate(127.246094 0)"/>
       <use xlink:href="#DejaVuSans-30" transform="translate(190.869141 0)"/>
      </g>
     </g>
    </g>
    <g id="xtick_6">
     <g id="line2d_11">
      <path d="M 385.072056 307.584 
L 385.072056 41.472 
" clip-path="url(#pe91b825672)" style="fill: none; stroke: #b0b0b0; stroke-width: 0.8; stroke-linecap: square"/>
     </g>
     <g id="line2d_12">
      <g>
       <use xlink:href="#m8d54273ee0" x="385.072056" y="307.584" style="stroke: #000000; stroke-width: 0.8"/>
      </g>
     </g>
     <g id="text_6">
      <!-- 5000 -->
      <g transform="translate(372.347056 322.182437) scale(0.1 -0.1)">
       <defs>
        <path id="DejaVuSans-35" d="M 691 4666 
L 3169 4666 
L 3169 4134 
L 1269 4134 
L 1269 2991 
Q 1406 3038 1543 3061 
Q 1681 3084 1819 3084 
Q 2600 3084 3056 2656 
Q 3513 2228 3513 1497 
Q 3513 744 3044 326 
Q 2575 -91 1722 -91 
Q 1428 -91 1123 -41 
Q 819 9 494 109 
L 494 744 
Q 775 591 1075 516 
Q 1375 441 1709 441 
Q 2250 441 2565 725 
Q 2881 1009 2881 1497 
Q 2881 1984 2565 2268 
Q 2250 2553 1709 2553 
Q 1456 2553 1204 2497 
Q 953 2441 691 2322 
L 691 4666 
z
" transform="scale(0.015625)"/>
       </defs>
       <use xlink:href="#DejaVuSans-35"/>
       <use xlink:href="#DejaVuSans-30" transform="translate(63.623047 0)"/>
       <use xlink:href="#DejaVuSans-30" transform="translate(127.246094 0)"/>
       <use xlink:href="#DejaVuSans-30" transform="translate(190.869141 0)"/>
      </g>
     </g>
    </g>
    <g id="text_7">
     <!-- Distance (m) -->
     <g transform="translate(203.936562 335.860562) scale(0.1 -0.1)">
      <defs>
       <path id="DejaVuSans-44" d="M 1259 4147 
L 1259 519 
L 2022 519 
Q 2988 519 3436 956 
Q 3884 1394 3884 2338 
Q 3884 3275 3436 3711 
Q 2988 4147 2022 4147 
L 1259 4147 
z
M 628 4666 
L 1925 4666 
Q 3281 4666 3915 4102 
Q 4550 3538 4550 2338 
Q 4550 1131 3912 565 
Q 3275 0 1925 0 
L 628 0 
L 628 4666 
z
" transform="scale(0.015625)"/>
       <path id="DejaVuSans-69" d="M 603 3500 
L 1178 3500 
L 1178 0 
L 603 0 
L 603 3500 
z
M 603 4863 
L 1178 4863 
L 1178 4134 
L 603 4134 
L 603 4863 
z
" transform="scale(0.015625)"/>
       <path id="DejaVuSans-73" d="M 2834 3397 
L 2834 2853 
Q 2591 2978 2328 3040 
Q 2066 3103 1784 3103 
Q 1356 3103 1142 2972 
Q 928 2841 928 2578 
Q 928 2378 1081 2264 
Q 1234 2150 1697 2047 
L 1894 2003 
Q 2506 1872 2764 1633 
Q 3022 1394 3022 966 
Q 3022 478 2636 193 
Q 2250 -91 1575 -91 
Q 1294 -91 989 -36 
Q 684 19 347 128 
L 347 722 
Q 666 556 975 473 
Q 1284 391 1588 391 
Q 1994 391 2212 530 
Q 2431 669 2431 922 
Q 2431 1156 2273 1281 
Q 2116 1406 1581 1522 
L 1381 1569 
Q 847 1681 609 1914 
Q 372 2147 372 2553 
Q 372 3047 722 3315 
Q 1072 3584 1716 3584 
Q 2034 3584 2315 3537 
Q 2597 3491 2834 3397 
z
" transform="scale(0.015625)"/>
       <path id="DejaVuSans-74" d="M 1172 4494 
L 1172 3500 
L 2356 3500 
L 2356 3053 
L 1172 3053 
L 1172 1153 
Q 1172 725 1289 603 
Q 1406 481 1766 481 
L 2356 481 
L 2356 0 
L 1766 0 
Q 1100 0 847 248 
Q 594 497 594 1153 
L 594 3053 
L 172 3053 
L 172 3500 
L 594 3500 
L 594 4494 
L 1172 4494 
z
" transform="scale(0.015625)"/>
       <path id="DejaVuSans-61" d="M 2194 1759 
Q 1497 1759 1228 1600 
Q 959 1441 959 1056 
Q 959 750 1161 570 
Q 1363 391 1709 391 
Q 2188 391 2477 730 
Q 2766 1069 2766 1631 
L 2766 1759 
L 2194 1759 
z
M 3341 1997 
L 3341 0 
L 2766 0 
L 2766 531 
Q 2569 213 2275 61 
Q 1981 -91 1556 -91 
Q 1019 -91 701 211 
Q 384 513 384 1019 
Q 384 1609 779 1909 
Q 1175 2209 1959 2209 
L 2766 2209 
L 2766 2266 
Q 2766 2663 2505 2880 
Q 2244 3097 1772 3097 
Q 1472 3097 1187 3025 
Q 903 2953 641 2809 
L 641 3341 
Q 956 3463 1253 3523 
Q 1550 3584 1831 3584 
Q 2591 3584 2966 3190 
Q 3341 2797 3341 1997 
z
" transform="scale(0.015625)"/>
       <path id="DejaVuSans-6e" d="M 3513 2113 
L 3513 0 
L 2938 0 
L 2938 2094 
Q 2938 2591 2744 2837 
Q 2550 3084 2163 3084 
Q 1697 3084 1428 2787 
Q 1159 2491 1159 1978 
L 1159 0 
L 581 0 
L 581 3500 
L 1159 3500 
L 1159 2956 
Q 1366 3272 1645 3428 
Q 1925 3584 2291 3584 
Q 2894 3584 3203 3211 
Q 3513 2838 3513 2113 
z
" transform="scale(0.015625)"/>
       <path id="DejaVuSans-63" d="M 3122 3366 
L 3122 2828 
Q 2878 2963 2633 3030 
Q 2388 3097 2138 3097 
Q 1578 3097 1268 2742 
Q 959 2388 959 1747 
Q 959 1106 1268 751 
Q 1578 397 2138 397 
Q 2388 397 2633 464 
Q 2878 531 3122 666 
L 3122 134 
Q 2881 22 2623 -34 
Q 2366 -91 2075 -91 
Q 1284 -91 818 406 
Q 353 903 353 1747 
Q 353 2603 823 3093 
Q 1294 3584 2113 3584 
Q 2378 3584 2631 3529 
Q 2884 3475 3122 3366 
z
" transform="scale(0.015625)"/>
       <path id="DejaVuSans-65" d="M 3597 1894 
L 3597 1613 
L 953 1613 
Q 991 1019 1311 708 
Q 1631 397 2203 397 
Q 2534 397 2845 478 
Q 3156 559 3463 722 
L 3463 178 
Q 3153 47 2828 -22 
Q 2503 -91 2169 -91 
Q 1331 -91 842 396 
Q 353 884 353 1716 
Q 353 2575 817 3079 
Q 1281 3584 2069 3584 
Q 2775 3584 3186 3129 
Q 3597 2675 3597 1894 
z
M 3022 2063 
Q 3016 2534 2758 2815 
Q 2500 3097 2075 3097 
Q 1594 3097 1305 2825 
Q 1016 2553 972 2059 
L 3022 2063 
z
" transform="scale(0.015625)"/>
       <path id="DejaVuSans-20" transform="scale(0.015625)"/>
       <path id="DejaVuSans-28" d="M 1984 4856 
Q 1566 4138 1362 3434 
Q 1159 2731 1159 2009 
Q 1159 1288 1364 580 
Q 1569 -128 1984 -844 
L 1484 -844 
Q 1016 -109 783 600 
Q 550 1309 550 2009 
Q 550 2706 781 3412 
Q 1013 4119 1484 4856 
L 1984 4856 
z
" transform="scale(0.015625)"/>
       <path id="DejaVuSans-6d" d="M 3328 2828 
Q 3544 3216 3844 3400 
Q 4144 3584 4550 3584 
Q 5097 3584 5394 3201 
Q 5691 2819 5691 2113 
L 5691 0 
L 5113 0 
L 5113 2094 
Q 5113 2597 4934 2840 
Q 4756 3084 4391 3084 
Q 3944 3084 3684 2787 
Q 3425 2491 3425 1978 
L 3425 0 
L 2847 0 
L 2847 2094 
Q 2847 2600 2669 2842 
Q 2491 3084 2119 3084 
Q 1678 3084 1418 2786 
Q 1159 2488 1159 1978 
L 1159 0 
L 581 0 
L 581 3500 
L 1159 3500 
L 1159 2956 
Q 1356 3278 1631 3431 
Q 1906 3584 2284 3584 
Q 2666 3584 2933 3390 
Q 3200 3197 3328 2828 
z
" transform="scale(0.015625)"/>
       <path id="DejaVuSans-29" d="M 513 4856 
L 1013 4856 
Q 1481 4119 1714 3412 
Q 1947 2706 1947 2009 
Q 1947 1309 1714 600 
Q 1481 -109 1013 -844 
L 513 -844 
Q 928 -128 1133 580 
Q 1338 1288 1338 2009 
Q 1338 2731 1133 3434 
Q 928 4138 513 4856 
z
" transform="scale(0.015625)"/>
      </defs>
      <use xlink:href="#DejaVuSans-44"/>
      <use xlink:href="#DejaVuSans-69" transform="translate(77.001953 0)"/>
      <use xlink:href="#DejaVuSans-73" transform="translate(104.785156 0)"/>
      <use xlink:href="#DejaVuSans-74" transform="translate(156.884766 0)"/>
      <use xlink:href="#DejaVuSans-61" transform="translate(196.09375 0)"/>
      <use xlink:href="#DejaVuSans-6e" transform="translate(257.373047 0)"/>
      <use xlink:href="#DejaVuSans-63" transform="translate(320.751953 0)"/>
      <use xlink:href="#DejaVuSans-65" transform="translate(375.732422 0)"/>
      <use xlink:href="#DejaVuSans-20" transform="translate(437.255859 0)"/>
      <use xlink:href="#DejaVuSans-28" transform="translate(469.042969 0)"/>
      <use xlink:href="#DejaVuSans-6d" transform="translate(508.056641 0)"/>
      <use xlink:href="#DejaVuSans-29" transform="translate(605.46875 0)"/>
     </g>
    </g>
   </g>
   <g id="matplotlib.axis_2">
    <g id="ytick_1">
     <g id="line2d_13">
      <path d="M 57.6 268.122271 
L 414.72 268.122271 
" clip-path="url(#pe91b825672)" style="fill: none; stroke: #b0b0b0; stroke-width: 0.8; stroke-linecap: square"/>
     </g>
     <g id="line2d_14">
      <defs>
       <path id="m9cafcbdeae" d="M 0 0 
L -3.5 0 
" style="stroke: #000000; stroke-width: 0.8"/>
      </defs>
      <g>
       <use xlink:href="#m9cafcbdeae" x="57.6" y="268.122271" style="stroke: #000000; stroke-width: 0.8"/>
      </g>
     </g>
     <g id="text_8">
      <!-- −10 -->
      <g transform="translate(29.495313 271.921489) scale(0.1 -0.1)">
       <defs>
        <path id="DejaVuSans-2212" d="M 678 2272 
L 4684 2272 
L 4684 1741 
L 678 1741 
L 678 2272 
z
" transform="scale(0.015625)"/>
       </defs>
       <use xlink:href="#DejaVuSans-2212"/>
       <use xlink:href="#DejaVuSans-31" transform="translate(83.789062 0)"/>
       <use xlink:href="#DejaVuSans-30" transform="translate(147.412109 0)"/>
      </g>
     </g>
    </g>
    <g id="ytick_2">
     <g id="line2d_15">
      <path d="M 57.6 219.172024 
L 414.72 219.172024 
" clip-path="url(#pe91b825672)" style="fill: none; stroke: #b0b0b0; stroke-width: 0.8; stroke-linecap: square"/>
     </g>
     <g id="line2d_16">
      <g>
       <use xlink:href="#m9cafcbdeae" x="57.6" y="219.172024" style="stroke: #000000; stroke-width: 0.8"/>
      </g>
     </g>
     <g id="text_9">
      <!-- −5 -->
      <g transform="translate(35.857813 222.971243) scale(0.1 -0.1)">
       <use xlink:href="#DejaVuSans-2212"/>
       <use xlink:href="#DejaVuSans-35" transform="translate(83.789062 0)"/>
      </g>
     </g>
    </g>
    <g id="ytick_3">
     <g id="line2d_17">
      <path d="M 57.6 170.221777 
L 414.72 170.221777 
" clip-path="url(#pe91b825672)" style="fill: none; stroke: #b0b0b0; stroke-width: 0.8; stroke-linecap: square"/>
     </g>
     <g id="line2d_18">
      <g>
       <use xlink:href="#m9cafcbdeae" x="57.6" y="170.221777" style="stroke: #000000; stroke-width: 0.8"/>
      </g>
     </g>
     <g id="text_10">
      <!-- 0 -->
      <g transform="translate(44.2375 174.020996) scale(0.1 -0.1)">
       <use xlink:href="#DejaVuSans-30"/>
      </g>
     </g>
    </g>
    <g id="ytick_4">
     <g id="line2d_19">
      <path d="M 57.6 121.271531 
L 414.72 121.271531 
" clip-path="url(#pe91b825672)" style="fill: none; stroke: #b0b0b0; stroke-width: 0.8; stroke-linecap: square"/>
     </g>
     <g id="line2d_20">
      <g>
       <use xlink:href="#m9cafcbdeae" x="57.6" y="121.271531" style="stroke: #000000; stroke-width: 0.8"/>
      </g>
     </g>
     <g id="text_11">
      <!-- 5 -->
      <g transform="translate(44.2375 125.070749) scale(0.1 -0.1)">
       <use xlink:href="#DejaVuSans-35"/>
      </g>
     </g>
    </g>
    <g id="ytick_5">
     <g id="line2d_21">
      <path d="M 57.6 72.321284 
L 414.72 72.321284 
" clip-path="url(#pe91b825672)" style="fill: none; stroke: #b0b0b0; stroke-width: 0.8; stroke-linecap: square"/>
     </g>
     <g id="line2d_22">
      <g>
       <use xlink:href="#m9cafcbdeae" x="57.6" y="72.321284" style="stroke: #000000; stroke-width: 0.8"/>
      </g>
     </g>
     <g id="text_12">
      <!-- 10 -->
      <g transform="translate(37.875 76.120503) scale(0.1 -0.1)">
       <use xlink:href="#DejaVuSans-31"/>
       <use xlink:href="#DejaVuSans-30" transform="translate(63.623047 0)"/>
      </g>
     </g>
    </g>
    <g id="text_13">
     <!-- Lateral Acceleration (g) -->
     <g transform="translate(23.415625 233.247531) rotate(-90) scale(0.1 -0.1)">
      <defs>
       <path id="DejaVuSans-4c" d="M 628 4666 
L 1259 4666 
L 1259 531 
L 3531 531 
L 3531 0 
L 628 0 
L 628 4666 
z
" transform="scale(0.015625)"/>
       <path id="DejaVuSans-72" d="M 2631 2963 
Q 2534 3019 2420 3045 
Q 2306 3072 2169 3072 
Q 1681 3072 1420 2755 
Q 1159 2438 1159 1844 
L 1159 0 
L 581 0 
L 581 3500 
L 1159 3500 
L 1159 2956 
Q 1341 3275 1631 3429 
Q 1922 3584 2338 3584 
Q 2397 3584 2469 3576 
Q 2541 3569 2628 3553 
L 2631 2963 
z
" transform="scale(0.015625)"/>
       <path id="DejaVuSans-6c" d="M 603 4863 
L 1178 4863 
L 1178 0 
L 603 0 
L 603 4863 
z
" transform="scale(0.015625)"/>
       <path id="DejaVuSans-41" d="M 2188 4044 
L 1331 1722 
L 3047 1722 
L 2188 4044 
z
M 1831 4666 
L 2547 4666 
L 4325 0 
L 3669 0 
L 3244 1197 
L 1141 1197 
L 716 0 
L 50 0 
L 1831 4666 
z
" transform="scale(0.015625)"/>
       <path id="DejaVuSans-6f" d="M 1959 3097 
Q 1497 3097 1228 2736 
Q 959 2375 959 1747 
Q 959 1119 1226 758 
Q 1494 397 1959 397 
Q 2419 397 2687 759 
Q 2956 1122 2956 1747 
Q 2956 2369 2687 2733 
Q 2419 3097 1959 3097 
z
M 1959 3584 
Q 2709 3584 3137 3096 
Q 3566 2609 3566 1747 
Q 3566 888 3137 398 
Q 2709 -91 1959 -91 
Q 1206 -91 779 398 
Q 353 888 353 1747 
Q 353 2609 779 3096 
Q 1206 3584 1959 3584 
z
" transform="scale(0.015625)"/>
       <path id="DejaVuSans-67" d="M 2906 1791 
Q 2906 2416 2648 2759 
Q 2391 3103 1925 3103 
Q 1463 3103 1205 2759 
Q 947 2416 947 1791 
Q 947 1169 1205 825 
Q 1463 481 1925 481 
Q 2391 481 2648 825 
Q 2906 1169 2906 1791 
z
M 3481 434 
Q 3481 -459 3084 -895 
Q 2688 -1331 1869 -1331 
Q 1566 -1331 1297 -1286 
Q 1028 -1241 775 -1147 
L 775 -588 
Q 1028 -725 1275 -790 
Q 1522 -856 1778 -856 
Q 2344 -856 2625 -561 
Q 2906 -266 2906 331 
L 2906 616 
Q 2728 306 2450 153 
Q 2172 0 1784 0 
Q 1141 0 747 490 
Q 353 981 353 1791 
Q 353 2603 747 3093 
Q 1141 3584 1784 3584 
Q 2172 3584 2450 3431 
Q 2728 3278 2906 2969 
L 2906 3500 
L 3481 3500 
L 3481 434 
z
" transform="scale(0.015625)"/>
      </defs>
      <use xlink:href="#DejaVuSans-4c"/>
      <use xlink:href="#DejaVuSans-61" transform="translate(55.712891 0)"/>
      <use xlink:href="#DejaVuSans-74" transform="translate(116.992188 0)"/>
      <use xlink:href="#DejaVuSans-65" transform="translate(156.201172 0)"/>
      <use xlink:href="#DejaVuSans-72" transform="translate(217.724609 0)"/>
      <use xlink:href="#DejaVuSans-61" transform="translate(258.837891 0)"/>
      <use xlink:href="#DejaVuSans-6c" transform="translate(320.117188 0)"/>
      <use xlink:href="#DejaVuSans-20" transform="translate(347.900391 0)"/>
      <use xlink:href="#DejaVuSans-41" transform="translate(379.6875 0)"/>
      <use xlink:href="#DejaVuSans-63" transform="translate(446.345703 0)"/>
      <use xlink:href="#DejaVuSans-63" transform="translate(501.326172 0)"/>
      <use xlink:href="#DejaVuSans-65" transform="translate(556.306641 0)"/>
      <use xlink:href="#DejaVuSans-6c" transform="translate(617.830078 0)"/>
      <use xlink:href="#DejaVuSans-65" transform="translate(645.613281 0)"/>
      <use xlink:href="#DejaVuSans-72" transform="translate(707.136719 0)"/>
      <use xlink:href="#DejaVuSans-61" transform="translate(748.25 0)"/>
      <use xlink:href="#DejaVuSans-74" transform="translate(809.529297 0)"/>
      <use xlink:href="#DejaVuSans-69" transform="translate(848.738281 0)"/>
      <use xlink:href="#DejaVuSans-6f" transform="translate(876.521484 0)"/>
      <use xlink:href="#DejaVuSans-6e" transform="translate(937.703125 0)"/>
      <use xlink:href="#DejaVuSans-20" transform="translate(1001.082031 0)"/>
      <use xlink:href="#DejaVuSans-28" transform="translate(1032.869141 0)"/>
      <use xlink:href="#DejaVuSans-67" transform="translate(1071.882812 0)"/>
      <use xlink:href="#DejaVuSans-29" transform="translate(1135.359375 0)"/>
     </g>
    </g>
   </g>
   <g id="line2d_23">
    <path d="M 73.832727 170.221777 
L 74.167121 172.636079 
L 74.504079 173.001643 
L 74.673573 172.811705 
L 74.84373 172.140599 
L 75.530718 167.876666 
L 75.617273 168.21547 
L 76.227178 176.298939 
L 77.109958 166.293651 
L 77.644648 167.98894 
L 78.544167 170.262402 
L 78.7255 169.803749 
L 79.547512 171.959611 
L 79.731344 172.66719 
L 79.915538 172.480535 
L 80.841708 170.270143 
L 81.871074 167.564087 
L 82.153794 167.227351 
L 82.248208 167.487101 
L 82.721541 170.30826 
L 83.101733 171.87497 
L 83.483121 171.914228 
L 83.674133 171.711208 
L 83.865284 171.189248 
L 84.534912 168.849414 
L 84.82263 168.731131 
L 84.918736 168.746231 
L 85.014958 168.875269 
L 85.497687 170.152366 
L 86.177476 171.714943 
L 86.47001 172.785537 
L 86.763223 171.92844 
L 87.943102 167.450684 
L 88.140868 167.294324 
L 88.239874 167.590574 
L 88.735856 170.370536 
L 89.133153 172.585372 
L 89.430981 174.6038 
L 89.62938 174.321036 
L 89.827782 173.569991 
L 90.125697 171.191934 
L 90.623679 167.057989 
L 90.922758 166.106148 
L 91.022383 166.040998 
L 91.121942 166.693503 
L 91.519896 173.950525 
L 92.208808 193.021351 
L 92.305203 192.919976 
L 92.400984 190.416083 
L 93.13642 143.634942 
L 93.718278 161.720859 
L 93.872423 163.099613 
L 93.947252 162.286885 
L 94.300561 146.578475 
L 94.563357 133.608718 
L 94.627018 133.734609 
L 94.752499 143.121709 
L 95.120429 194.310494 
L 95.181414 191.583714 
L 95.487142 154.431063 
L 95.974188 123.638128 
L 96.034562 123.590981 
L 96.154867 116.814867 
L 96.452699 103.247427 
L 96.511703 102.934893 
L 96.629089 104.403684 
L 97.089274 123.957306 
L 97.145849 123.461574 
L 97.650114 111.315765 
L 97.705859 111.609999 
L 97.817334 114.520628 
L 98.208441 149.266672 
L 98.489954 174.601136 
L 99.003443 121.103683 
L 99.176253 142.301646 
L 99.467429 163.257179 
L 99.585629 165.279532 
L 99.704979 162.750998 
L 100.007403 155.287779 
L 100.129493 159.224206 
L 100.374543 174.015158 
L 100.43587 173.715908 
L 100.620225 169.558319 
L 101.121926 159.845541 
L 101.512232 155.93434 
L 101.578208 155.942134 
L 101.710779 156.605213 
L 102.656269 164.45538 
L 103.002762 165.593651 
L 103.072753 165.545931 
L 103.426632 164.556105 
L 103.498262 164.522234 
L 103.642448 166.097109 
L 104.155947 174.342228 
L 104.230282 174.185008 
L 104.755748 157.735775 
L 105.058802 153.942242 
L 105.134755 153.933912 
L 105.28693 154.549321 
L 105.978334 167.031259 
L 106.133725 167.027514 
L 106.289822 166.552577 
L 106.446679 165.045072 
L 106.762786 160.421096 
L 106.84231 161.342051 
L 107.242882 176.342589 
L 107.323581 175.648835 
L 107.648263 174.233086 
L 107.811694 173.881037 
L 107.975821 172.141924 
L 108.555363 165.644837 
L 108.638759 166.449014 
L 108.722304 166.435695 
L 109.310745 156.997137 
L 109.395208 156.972838 
L 109.564334 158.781882 
L 109.903276 164.660551 
L 110.158126 168.217732 
L 110.840385 149.498846 
L 111.354298 135.987694 
L 111.784736 123.906516 
L 112.130562 111.468664 
L 112.476985 64.836801 
L 112.563518 67.572707 
L 112.822735 79.884633 
L 113.081556 91.701805 
L 113.167904 92.492496 
L 113.254357 91.936837 
L 113.427744 86.801518 
L 114.041367 61.611321 
L 114.83859 105.911099 
L 115.726434 182.314948 
L 115.994693 159.136392 
L 116.354203 169.093578 
L 116.806267 180.809167 
L 116.987841 182.955585 
L 117.078776 182.489743 
L 117.443479 176.910492 
L 117.718036 175.053434 
L 118.085429 174.303403 
L 118.361857 174.237123 
L 118.546517 174.419838 
L 118.638951 174.589317 
L 118.82401 176.032569 
L 119.659988 185.385623 
L 120.126449 193.929627 
L 120.500195 204.258161 
L 120.874114 216.043792 
L 121.06106 217.544326 
L 121.15452 216.707631 
L 121.247968 214.752147 
L 121.434818 199.497599 
L 121.901713 151.292717 
L 121.995065 153.804122 
L 122.555132 248.318327 
L 123.022037 290.299925 
L 123.208909 295.488 
L 123.39585 274.76296 
L 123.676345 236.567379 
L 123.956996 222.939444 
L 124.050595 222.521075 
L 124.144222 224.552572 
L 124.800667 261.017802 
L 124.89463 259.429455 
L 125.082727 243.295602 
L 125.648421 172.427641 
L 125.931779 152.695567 
L 126.687287 221.932412 
L 126.970469 245.449368 
L 127.537211 225.913178 
L 128.863822 200.31115 
L 129.149475 195.20699 
L 130.104203 173.976956 
L 130.199655 174.933654 
L 130.295079 174.892779 
L 130.676558 174.848091 
L 130.86721 174.898134 
L 130.962523 174.762559 
L 131.630215 170.82426 
L 131.821431 169.883747 
L 132.012956 170.025087 
L 132.204759 170.96738 
L 132.878015 176.069152 
L 133.263952 180.101582 
L 133.553916 177.122638 
L 134.231981 167.035124 
L 134.328999 167.095976 
L 134.717528 167.265908 
L 135.009614 167.231675 
L 135.400215 166.821039 
L 136.183882 165.793374 
L 136.380032 165.601562 
L 137.460009 162.841154 
L 137.755224 161.145147 
L 138.445247 152.096286 
L 138.937943 154.741849 
L 139.826044 154.122531 
L 140.324326 153.437405 
L 140.424056 153.965939 
L 140.822435 165.968364 
L 140.921934 165.119583 
L 141.819105 157.471566 
L 142.922704 172.211119 
L 143.022963 173.009434 
L 143.123207 172.81455 
L 143.925663 160.144115 
L 144.83135 167.581477 
L 145.535795 165.148755 
L 145.636379 165.287209 
L 145.938292 166.658673 
L 146.139835 167.492781 
L 146.240722 167.337726 
L 146.34169 167.462342 
L 146.645045 168.354252 
L 146.847594 168.479537 
L 147.050332 168.265814 
L 147.354681 167.008874 
L 148.0651 163.635009 
L 148.166529 163.682785 
L 148.369284 164.850156 
L 148.774486 170.120897 
L 149.078533 173.575442 
L 149.179983 173.490785 
L 149.484701 170.89885 
L 150.197318 168.377395 
L 150.29927 168.271732 
L 151.013857 169.961337 
L 151.729768 173.261888 
L 151.832142 172.848201 
L 152.651849 160.421343 
L 153.575744 173.920584 
L 154.705828 163.909681 
L 155.403081 161.044141 
L 155.780549 159.04843 
L 155.871584 159.353783 
L 156.22051 166.970326 
L 156.3855 174.204175 
L 157.25987 134.402983 
L 157.391075 133.403666 
L 157.455602 133.50518 
L 157.645564 145.86916 
L 157.951823 157.374514 
L 158.011745 158.235047 
L 158.071281 157.721001 
L 158.30637 146.666557 
L 158.480534 139.29812 
L 158.595349 147.564206 
L 158.819799 178.533839 
L 158.982279 166.878042 
L 159.342521 158.628719 
L 159.584986 148.37464 
L 159.632108 145.355765 
L 159.678792 145.901438 
L 159.72502 147.725177 
L 159.992945 127.583737 
L 160.036209 127.582521 
L 160.121725 130.083771 
L 160.452779 150.59348 
L 160.493151 150.576634 
L 160.573369 148.331837 
L 160.849719 137.1441 
L 160.888761 137.311217 
L 161.005441 143.005838 
L 161.276262 171.625406 
L 161.314916 168.081059 
L 161.694637 130.519438 
L 161.731429 131.766941 
L 162.017582 144.924446 
L 162.155147 143.921678 
L 162.525561 140.61451 
L 162.559385 141.30665 
L 162.798539 148.033069 
L 163.00753 166.414537 
L 163.078235 162.54791 
L 163.403015 140.103064 
L 163.476693 139.849765 
L 163.513761 139.956041 
L 163.550991 140.188021 
L 163.701851 152.734843 
L 163.97791 166.631013 
L 164.019102 166.560045 
L 164.455477 141.210407 
L 164.501067 141.39492 
L 164.639332 145.511364 
L 165.110387 162.898956 
L 165.303711 163.920771 
L 165.40237 163.856367 
L 165.605045 162.79533 
L 165.657004 163.035246 
L 165.762451 163.223408 
L 165.869793 162.857917 
L 166.145559 158.629898 
L 166.201925 159.063626 
L 166.373355 164.192363 
L 166.607027 171.983509 
L 167.027326 167.604436 
L 167.645638 163.599674 
L 168.430318 174.850882 
L 168.497899 174.386476 
L 169.046897 171.398826 
L 169.678473 168.95388 
L 169.749805 169.014958 
L 169.821407 169.369763 
L 169.893271 169.279824 
L 170.403229 168.830355 
L 170.924269 168.564682 
L 171.226757 168.749204 
L 171.379278 170.856203 
L 171.609615 174.633465 
L 171.686803 174.578006 
L 171.764205 174.513409 
L 171.919683 173.543627 
L 172.70779 167.530701 
L 173.10602 171.848144 
L 173.587549 177.16717 
L 173.749398 173.779384 
L 174.239404 157.66722 
L 174.819457 174.996487 
L 174.903032 176.070376 
L 175.407203 174.012276 
L 176.085459 173.638192 
L 176.428909 173.014493 
L 177.038689 169.985816 
L 177.126701 170.091709 
L 177.747159 176.456875 
L 177.836101 176.435715 
L 178.459294 167.044159 
L 178.548457 166.830321 
L 179.624704 175.310557 
L 180.445655 169.088553 
L 180.721468 169.136097 
L 181.090314 169.486993 
L 181.275079 169.661067 
L 181.645257 169.586748 
L 182.670492 170.094892 
L 183.231565 169.994527 
L 183.609111 169.985715 
L 184.376907 170.412968 
L 184.86017 170.559451 
L 185.053151 170.467578 
L 185.630237 169.178926 
L 185.726395 169.192964 
L 186.793427 173.395552 
L 186.99027 174.606716 
L 187.286901 172.975958 
L 187.783751 168.45214 
L 188.28196 164.410496 
L 188.581436 167.242477 
L 189.282867 174.525372 
L 189.685897 176.187243 
L 189.888154 176.562119 
L 189.989486 176.403791 
L 190.294339 174.334483 
L 190.804719 165.523203 
L 191.11143 164.241751 
L 191.622417 161.512029 
L 191.724568 162.129993 
L 191.928892 167.432843 
L 192.235579 177.938215 
L 192.440286 178.906318 
L 193.159177 171.013342 
L 194.090756 164.362597 
L 194.194963 164.765703 
L 194.403867 168.260754 
L 194.823153 176.775279 
L 195.243459 175.591827 
L 195.453835 173.996564 
L 196.296614 165.870067 
L 196.402117 165.244575 
L 196.507658 165.418035 
L 196.930196 168.79077 
L 197.247488 170.415492 
L 197.671053 170.262144 
L 200.238002 170.122249 
L 200.885823 169.974708 
L 201.642784 170.851165 
L 201.85929 170.943653 
L 201.967585 170.818109 
L 202.834886 168.541037 
L 203.486479 168.758301 
L 203.595196 168.829176 
L 203.703953 169.081612 
L 204.575308 173.155526 
L 204.793449 173.2654 
L 204.902558 173.23734 
L 205.011694 172.65036 
L 205.776367 163.484945 
L 206.98013 174.780163 
L 207.52816 171.961341 
L 208.187037 169.835245 
L 208.956901 168.535631 
L 209.176697 168.603564 
L 209.396449 168.916176 
L 209.836168 170.200213 
L 210.276761 171.241297 
L 211.494089 170.846669 
L 211.937786 171.125677 
L 212.493214 171.917218 
L 212.604459 171.781673 
L 212.827087 171.172109 
L 213.495467 168.611045 
L 213.829542 168.419515 
L 213.940868 168.656604 
L 214.720279 172.59951 
L 215.166297 174.411397 
L 215.389549 175.03631 
L 216.171918 174.029739 
L 216.395697 173.25938 
L 217.628535 167.715539 
L 218.752446 171.067662 
L 219.20212 172.307343 
L 219.763924 172.45997 
L 219.988712 172.38617 
L 220.326141 171.744588 
L 221.34033 168.229864 
L 221.453131 167.980039 
L 222.242801 168.181455 
L 222.468312 168.196688 
L 222.581028 168.3885 
L 223.370152 171.988515 
L 223.709146 171.562035 
L 224.048653 171.502041 
L 224.388332 171.712666 
L 224.727839 172.310381 
L 225.066826 173.09127 
L 225.179629 173.189465 
L 225.404829 174.021718 
L 225.62958 174.787403 
L 225.741852 174.836552 
L 225.854092 174.563665 
L 226.078579 173.073543 
L 226.754008 167.743214 
L 226.867146 167.626504 
L 227.208129 168.657386 
L 227.322437 168.204473 
L 228.127551 157.079476 
L 228.242279 157.550682 
L 228.806571 160.347229 
L 229.64068 164.846617 
L 230.301519 166.710334 
L 230.579049 167.455091 
L 230.943252 169.712684 
L 231.597497 174.702619 
L 231.750837 179.284377 
L 231.827643 178.886688 
L 232.499358 145.384967 
L 232.567205 143.633695 
L 232.632924 143.739516 
L 232.818645 144.842416 
L 232.877222 145.399109 
L 233.355168 166.494615 
L 233.404951 164.771844 
L 233.647858 151.028223 
L 233.742099 145.149427 
L 233.788568 145.212079 
L 233.880169 158.568717 
L 234.101078 193.756905 
L 234.390675 171.655178 
L 234.989237 156.652681 
L 235.05981 156.238277 
L 235.094881 156.398816 
L 235.164568 157.178343 
L 235.528596 163.538153 
L 235.652049 163.745123 
L 235.682313 163.725467 
L 235.742147 163.199481 
L 235.973221 158.461011 
L 236.029424 158.892056 
L 236.168242 164.101164 
L 236.250373 167.9947 
L 236.277526 166.246399 
L 236.489703 127.429221 
L 236.515475 131.245194 
L 236.738791 149.048985 
L 236.762769 149.090688 
L 236.83403 146.129112 
L 236.997737 130.749167 
L 237.020924 133.296667 
L 237.253157 183.378561 
L 237.300098 168.691651 
L 237.49046 127.039774 
L 237.514582 127.287369 
L 237.710818 162.385256 
L 237.761155 157.741169 
L 237.88959 147.781196 
L 237.915717 148.353051 
L 237.994958 164.456315 
L 238.075474 184.47746 
L 238.12994 181.709358 
L 238.61865 167.255979 
L 238.951753 180.691478 
L 239.872049 200.292729 
L 240.192251 204.991477 
L 240.227962 204.720321 
L 240.515185 199.758132 
L 240.551331 199.947438 
L 240.917589 210.394332 
L 240.954834 209.624188 
L 241.295475 168.259759 
L 241.567704 203.229345 
L 241.646763 201.272929 
L 241.766476 193.842806 
L 242.011201 175.265011 
L 242.095116 173.16922 
L 242.137609 174.018097 
L 242.35555 185.61508 
L 242.400358 183.990424 
L 242.6315 156.180749 
L 242.679276 157.474306 
L 242.875992 166.22977 
L 243.184822 169.369545 
L 243.608836 172.164627 
L 243.715083 172.087215 
L 243.875307 171.954933 
L 244.093688 171.399311 
L 244.379336 169.580959 
L 244.676414 168.281138 
L 244.797161 168.118219 
L 244.918465 168.823188 
L 245.409733 172.283085 
L 245.47244 169.993787 
L 245.663219 154.427271 
L 245.727788 154.951791 
L 245.990886 161.290823 
L 246.26064 163.888832 
L 246.466465 164.545885 
L 246.535623 164.537146 
L 246.67463 164.083866 
L 246.814409 162.609638 
L 247.166617 158.296871 
L 247.237516 158.5831 
L 247.379759 160.942382 
L 247.737913 170.410104 
L 249.127921 153.388998 
L 249.430108 158.294209 
L 249.73674 163.628116 
L 250.600437 145.722572 
L 251.24504 161.136374 
L 251.326391 161.263129 
L 252.231866 158.449772 
L 252.398329 158.328778 
L 252.565291 159.168948 
L 252.985312 161.10986 
L 253.069852 161.337751 
L 253.23955 164.394549 
L 253.324712 166.455 
L 253.410078 165.425802 
L 253.839818 143.386654 
L 254.012966 140.756794 
L 254.099787 140.636389 
L 254.186764 141.097384 
L 254.623928 150.261981 
L 254.711823 150.272047 
L 254.888077 148.586467 
L 255.331432 141.13148 
L 255.509865 140.831021 
L 255.599317 140.970071 
L 255.688925 141.348777 
L 255.868612 144.291457 
L 256.320541 156.447537 
L 256.959601 179.166371 
L 257.69879 161.018686 
L 257.791845 160.922821 
L 257.978385 161.432265 
L 258.635588 164.443859 
L 258.824351 164.300656 
L 259.013397 163.754349 
L 259.391988 161.542385 
L 259.48668 161.752789 
L 259.77082 163.065589 
L 260.150331 167.37713 
L 260.531797 171.000059 
L 260.627624 170.156242 
L 260.72366 170.241934 
L 261.303599 170.826598 
L 261.595411 171.321918 
L 261.985655 170.781706 
L 262.376492 169.751126 
L 263.06036 167.790128 
L 263.256185 167.929612 
L 263.452517 168.264765 
L 263.649515 169.729788 
L 264.44328 177.201562 
L 264.642699 179.604556 
L 264.742495 178.574043 
L 265.544114 160.23952 
L 265.948468 166.526324 
L 266.66176 173.243673 
L 266.968802 173.260554 
L 267.173753 173.1014 
L 267.378836 172.673466 
L 267.686645 171.064069 
L 268.200333 167.897468 
L 268.3032 167.611474 
L 268.406117 167.835984 
L 268.612098 168.738533 
L 269.024864 169.521155 
L 269.54332 170.140748 
L 269.647465 170.100337 
L 269.960978 169.243842 
L 270.065862 169.299589 
L 270.910104 173.761804 
L 271.121896 174.262505 
L 271.227795 173.783435 
L 272.180123 162.810277 
L 272.391569 163.697644 
L 272.708832 166.307561 
L 273.557632 174.855972 
L 273.664134 175.411764 
L 273.770719 175.068057 
L 274.626044 163.991992 
L 274.94783 161.087386 
L 275.37765 164.408615 
L 275.808373 166.262108 
L 275.916191 166.079694 
L 276.672108 160.233942 
L 276.996449 159.11054 
L 277.320878 159.513808 
L 277.861949 161.420361 
L 278.186926 162.24592 
L 278.51224 164.053949 
L 278.620763 163.545715 
L 279.05537 156.985692 
L 279.600115 153.13545 
L 279.709267 153.448366 
L 280.365269 162.376257 
L 280.584225 163.029205 
L 280.693733 162.962384 
L 280.912788 161.897742 
L 281.241522 158.013029 
L 281.680422 152.218553 
L 281.790298 153.860338 
L 282.010197 163.657661 
L 282.450261 184.098784 
L 282.560266 182.493545 
L 282.890089 169.293147 
L 283.549414 151.465127 
L 283.659403 151.954746 
L 284.100055 155.05546 
L 284.210434 154.830008 
L 284.542034 154.384978 
L 284.763399 154.28714 
L 284.984923 154.668834 
L 285.428255 155.419721 
L 286.20463 154.124133 
L 286.315618 154.447477 
L 287.872744 169.635484 
L 287.98413 169.965152 
L 288.31822 167.980391 
L 288.763467 167.407524 
L 288.874757 167.835886 
L 289.431546 173.179304 
L 289.543053 173.72811 
L 289.65462 173.179921 
L 290.660012 154.834951 
L 290.771676 153.986035 
L 290.883294 154.330521 
L 291.10639 156.983264 
L 291.664709 162.850053 
L 292.001523 164.655609 
L 292.22688 165.037447 
L 292.452341 165.054436 
L 292.677402 164.802644 
L 292.90151 165.809007 
L 293.234398 168.652692 
L 293.774747 173.621404 
L 293.984555 174.483353 
L 294.088194 174.392994 
L 294.494119 172.120147 
L 294.884016 170.950084 
L 295.256194 172.58152 
L 295.612827 174.809858 
L 295.956629 166.546862 
L 296.289781 157.976456 
L 296.371634 158.058456 
L 296.533691 159.498844 
L 296.851193 163.864831 
L 297.537779 132.888247 
L 297.983128 99.254598 
L 298.130672 100.183658 
L 298.42341 111.327253 
L 298.854051 130.513727 
L 298.924668 130.488263 
L 299.676355 99.500113 
L 299.742593 99.628933 
L 299.874353 108.764967 
L 300.329768 136.53929 
L 300.650615 147.547114 
L 300.714316 148.379269 
L 300.777853 147.240329 
L 301.279381 121.902576 
L 301.341151 122.813474 
L 301.525493 135.304942 
L 301.891635 170.454435 
L 302.379522 114.9992 
L 302.808723 53.568 
L 303.304013 130.531776 
L 303.428745 141.21694 
L 303.805322 120.248459 
L 303.931687 123.729298 
L 304.185634 140.712079 
L 304.505161 164.615884 
L 305.021441 112.475123 
L 305.086726 111.641624 
L 305.41686 130.005717 
L 305.483671 130.212357 
L 305.550737 130.066622 
L 305.685605 128.761931 
L 305.889646 124.216024 
L 306.16466 114.514022 
L 306.86478 140.71591 
L 307.435561 164.224187 
L 307.651613 157.072292 
L 308.014203 150.064809 
L 308.087116 149.98782 
L 308.233301 150.756801 
L 308.453329 153.873466 
L 308.674022 158.389463 
L 308.74769 158.334356 
L 309.340284 133.836545 
L 309.640702 118.746795 
L 309.716433 120.464822 
L 310.253216 113.465141 
L 311.191271 105.132752 
L 311.270025 105.211908 
L 311.98216 132.195316 
L 312.220744 137.538541 
L 312.300385 135.798369 
L 312.380079 136.247567 
L 312.619695 139.803028 
L 313.103381 150.887376 
L 313.266566 143.62181 
L 313.348594 147.807488 
L 314.011515 255.612434 
L 314.840709 163.376702 
L 314.923869 159.413262 
L 315.090807 167.999308 
L 315.511982 156.241022 
L 315.596802 155.498187 
L 315.681793 155.609275 
L 316.280754 160.754634 
L 316.366825 160.672672 
L 316.453012 161.014655 
L 316.798882 164.168652 
L 317.146534 165.690177 
L 317.32102 165.973888 
L 317.408426 165.192733 
L 317.759116 158.766374 
L 317.847045 158.496666 
L 317.935073 158.769396 
L 318.199733 161.589764 
L 318.820451 168.674271 
L 319.267027 172.104675 
L 319.446641 172.351195 
L 319.717208 172.983347 
L 319.807686 172.855831 
L 319.989046 170.991372 
L 320.262016 167.720905 
L 320.444559 167.467555 
L 320.810846 169.453013 
L 320.902665 169.062768 
L 321.36316 161.923691 
L 322.380675 183.852971 
L 322.658546 185.152795 
L 322.751353 184.852095 
L 323.03059 181.83092 
L 323.217427 181.282921 
L 323.311018 181.38103 
L 323.498487 182.339885 
L 323.686263 184.561427 
L 323.874252 187.292133 
L 323.968304 185.561463 
L 324.062393 185.870042 
L 324.62774 205.832594 
L 324.816508 207.523547 
L 324.910954 206.577869 
L 325.099969 201.152175 
L 325.57325 179.939609 
L 325.85773 189.528504 
L 326.523293 219.549892 
L 326.809483 237.566306 
L 326.905028 233.417511 
L 327.192087 174.962166 
L 327.863069 194.803611 
L 328.150388 199.280292 
L 328.34189 199.954293 
L 328.43766 199.730584 
L 328.533455 199.2113 
L 329.109053 191.885727 
L 329.205165 192.206378 
L 329.397618 194.306726 
L 329.59044 197.485208 
L 329.687008 197.66709 
L 330.461977 206.870746 
L 330.946638 210.46802 
L 331.043514 210.463824 
L 331.237205 209.53143 
L 331.527594 205.814996 
L 331.721084 201.958431 
L 331.817798 204.163356 
L 331.914472 209.388915 
L 332.397173 202.705402 
L 332.783266 199.800142 
L 333.073325 198.922582 
L 333.170171 198.888702 
L 333.364178 199.248801 
L 333.55869 200.258389 
L 333.753806 202.066177 
L 334.340823 211.656806 
L 334.437976 211.545839 
L 334.630776 209.48733 
L 335.456295 194.476122 
L 335.714777 193.513193 
L 335.883785 193.980707 
L 336.133898 196.18829 
L 336.464338 202.288074 
L 336.629667 206.28812 
L 336.712579 204.660071 
L 337.360097 172.679868 
L 337.795574 193.431793 
L 337.932045 194.62251 
L 338.446623 179.663757 
L 338.508101 179.765685 
L 338.689743 183.959626 
L 338.983089 190.489098 
L 339.040284 189.861954 
L 339.153141 184.464586 
L 339.479074 166.127473 
L 339.58353 162.634569 
L 339.634989 163.429861 
L 340.029116 190.362092 
L 340.076292 189.501041 
L 340.650768 177.742909 
L 340.987095 185.071743 
L 341.313159 189.26299 
L 341.35278 189.074384 
L 341.392093 189.140869 
L 341.77485 210.312601 
L 341.812849 210.117215 
L 342.222903 172.701609 
L 342.258736 173.322945 
L 342.575844 240.566494 
L 342.646233 242.135079 
L 342.68147 240.93784 
L 342.751999 232.221937 
L 343.000577 186.056618 
L 343.145741 177.0835 
L 343.182583 179.92317 
L 343.407803 194.321833 
L 343.445872 192.424788 
L 343.714336 155.693319 
L 343.791164 163.873215 
L 344.099246 180.2091 
L 344.178431 183.60318 
L 344.218648 182.402298 
L 344.30029 180.397765 
L 344.341673 181.353653 
L 344.467712 188.520168 
L 344.510227 188.052535 
L 345.619458 148.01128 
L 345.670768 148.808812 
L 345.82566 158.540694 
L 346.084497 178.024693 
L 346.13599 176.725061 
L 346.543922 116.93852 
L 346.594467 120.935935 
L 346.795507 126.739373 
L 347.784168 150.907674 
L 348.078277 170.412055 
L 348.176271 178.473561 
L 348.618533 116.218314 
L 348.668025 116.486781 
L 349.168754 146.083349 
L 349.219489 145.820712 
L 349.321289 142.714208 
L 349.68051 118.741216 
L 349.732204 119.897601 
L 349.888084 141.856391 
L 350.151253 191.899405 
L 350.204499 188.86025 
L 350.419684 158.323988 
L 350.637876 136.269994 
L 350.692799 139.781333 
L 350.80306 141.255829 
L 351.026075 149.361613 
L 351.370374 161.266287 
L 351.606765 162.073431 
L 351.72626 161.888484 
L 351.906318 160.851987 
L 352.444289 154.490602 
L 352.680706 150.61365 
L 352.739431 150.516429 
L 352.856311 151.56173 
L 353.087331 157.614829 
L 353.201208 160.024101 
L 353.805989 138.604922 
L 354.069717 116.927746 
L 354.122007 117.249408 
L 354.278793 127.31424 
L 354.541304 139.694295 
L 354.805059 143.277086 
L 354.857731 143.013301 
L 354.962691 140.769984 
L 355.272594 130.585661 
L 355.323566 130.728052 
L 355.425109 133.661687 
L 355.627177 150.041951 
L 355.930231 177.237036 
L 356.287695 144.706117 
L 356.339176 143.67397 
L 356.442474 143.825035 
L 356.59835 144.636623 
L 356.861013 146.945622 
L 357.348969 137.880781 
L 357.634181 136.343383 
L 358.047931 134.86925 
L 358.108041 135.021031 
L 358.595334 138.855113 
L 359.031572 140.269541 
L 359.1586 144.184875 
L 359.481874 155.274473 
L 359.679914 156.413255 
L 360.218574 157.974891 
L 360.422792 157.658077 
L 360.491132 158.010802 
L 361.186703 169.711061 
L 361.616009 170.887232 
L 361.832791 169.872581 
L 361.905364 170.167079 
L 362.568614 183.223824 
L 362.643763 182.665182 
L 362.871253 163.438264 
L 362.94776 164.337575 
L 364.045685 176.358154 
L 364.125394 176.468231 
L 364.445328 169.206647 
L 364.767269 161.344143 
L 364.848066 160.898105 
L 365.09119 162.811098 
L 365.253873 163.076166 
L 365.417028 162.713906 
L 365.58065 160.931645 
L 365.82697 157.217645 
L 365.909321 157.543209 
L 366.240039 159.725069 
L 366.573057 163.49347 
L 366.99287 171.913458 
L 367.586983 182.085999 
L 367.672427 182.138525 
L 368.881707 159.316564 
L 369.230156 127.220916 
L 369.579756 174.471922 
L 370.01896 234.3324 
L 370.195484 239.820147 
L 370.283929 238.90564 
L 370.549902 228.508848 
L 371.173053 202.376685 
L 371.262196 202.287291 
L 371.440447 204.378442 
L 371.796672 212.78717 
L 372.242821 230.910014 
L 372.511886 244.478385 
L 372.691962 246.295502 
L 372.782172 244.958372 
L 372.962865 236.37185 
L 373.777964 175.463661 
L 374.14044 161.449699 
L 374.23105 159.696178 
L 374.321657 164.24693 
L 375.22778 294.014455 
L 375.318378 290.617826 
L 375.590084 253.136561 
L 375.680625 252.688834 
L 375.861688 259.058412 
L 376.042771 251.443519 
L 376.314606 227.553465 
L 376.677885 193.47951 
L 377.316407 181.173586 
L 377.865038 173.919741 
L 378.047942 170.959504 
L 378.505298 153.424249 
L 378.963177 171.074032 
L 379.422444 187.303732 
L 379.514547 188.550641 
L 379.606746 188.291607 
L 379.883893 186.787106 
L 380.06909 185.715418 
L 380.161822 185.813347 
L 380.347584 187.279221 
L 380.627055 192.971453 
L 381.285054 212.161681 
L 381.475555 213.681197 
L 381.570935 213.834385 
L 381.666251 213.416079 
L 381.856234 210.31342 
L 382.137881 198.44538 
L 382.677933 157.466831 
L 382.763605 158.455209 
L 383.012311 173.662296 
L 383.69711 197.908324 
L 383.908421 201.214889 
L 383.977119 200.496691 
L 384.373118 188.6671 
L 384.686376 184.687211 
L 384.868827 186.635897 
L 385.046631 188.792363 
L 385.104714 188.700538 
L 385.218896 187.60464 
L 385.438422 181.751612 
L 385.698729 172.522243 
L 385.749763 174.219414 
L 386.104579 189.361281 
L 386.254841 195.785857 
L 386.451654 188.439628 
L 386.500169 188.570399 
L 386.643966 190.40986 
L 386.878062 182.735466 
L 387.288234 159.457613 
L 387.37848 163.049732 
L 387.513406 170.277777 
L 387.914302 214.860255 
L 388.090702 218.103076 
L 388.222321 205.786395 
L 388.396744 197.663906 
L 388.440214 197.885768 
L 388.570667 202.345198 
L 388.922618 224.6391 
L 388.967219 223.873996 
L 389.101931 213.580771 
L 389.37589 172.532873 
L 389.468667 177.700139 
L 389.89584 204.255699 
L 390.140843 210.694361 
L 390.240502 206.427403 
L 390.545691 182.94152 
L 390.918906 169.359602 
L 391.426916 163.191816 
L 391.484346 163.269269 
L 391.541825 163.056401 
L 391.830481 160.128668 
L 391.947152 163.821287 
L 392.428399 179.971368 
L 392.808371 183.416275 
L 393.131383 184.92095 
L 393.196088 184.578241 
L 393.719128 167.958427 
L 394.404265 173.793327 
L 395.11951 170.115933 
L 395.192202 169.938973 
L 395.41133 170.396937 
L 395.484755 170.321562 
L 395.929344 168.158897 
L 396.153998 167.900946 
L 396.304547 168.04593 
L 396.53154 166.98994 
L 396.760018 164.831116 
L 397.37738 157.007042 
L 397.612338 155.973421 
L 397.691113 155.99394 
L 397.84927 157.18453 
L 398.167496 163.385555 
L 398.487273 169.508355 
L 398.487273 169.508355 
" clip-path="url(#pe91b825672)" style="fill: none; stroke: #0000ff; stroke-width: 1.5; stroke-linecap: square"/>
   </g>
   <g id="patch_3">
    <path d="M 57.6 307.584 
L 57.6 41.472 
" style="fill: none; stroke: #000000; stroke-width: 0.8; stroke-linejoin: miter; stroke-linecap: square"/>
   </g>
   <g id="patch_4">
    <path d="M 414.72 307.584 
L 414.72 41.472 
" style="fill: none; stroke: #000000; stroke-width: 0.8; stroke-linejoin: miter; stroke-linecap: square"/>
   </g>
   <g id="patch_5">
    <path d="M 57.6 307.584 
L 414.72 307.584 
" style="fill: none; stroke: #000000; stroke-width: 0.8; stroke-linejoin: miter; stroke-linecap: square"/>
   </g>
   <g id="patch_6">
    <path d="M 57.6 41.472 
L 414.72 41.472 
" style="fill: none; stroke: #000000; stroke-width: 0.8; stroke-linejoin: miter; stroke-linecap: square"/>
   </g>
   <g id="text_14">
    <!-- Lateral Acceleration No Filter -->
    <g transform="translate(149.260312 35.472) scale(0.12 -0.12)">
     <defs>
      <path id="DejaVuSans-4e" d="M 628 4666 
L 1478 4666 
L 3547 763 
L 3547 4666 
L 4159 4666 
L 4159 0 
L 3309 0 
L 1241 3903 
L 1241 0 
L 628 0 
L 628 4666 
z
" transform="scale(0.015625)"/>
      <path id="DejaVuSans-46" d="M 628 4666 
L 3309 4666 
L 3309 4134 
L 1259 4134 
L 1259 2759 
L 3109 2759 
L 3109 2228 
L 1259 2228 
L 1259 0 
L 628 0 
L 628 4666 
z
" transform="scale(0.015625)"/>
     </defs>
     <use xlink:href="#DejaVuSans-4c"/>
     <use xlink:href="#DejaVuSans-61" transform="translate(55.712891 0)"/>
     <use xlink:href="#DejaVuSans-74" transform="translate(116.992188 0)"/>
     <use xlink:href="#DejaVuSans-65" transform="translate(156.201172 0)"/>
     <use xlink:href="#DejaVuSans-72" transform="translate(217.724609 0)"/>
     <use xlink:href="#DejaVuSans-61" transform="translate(258.837891 0)"/>
     <use xlink:href="#DejaVuSans-6c" transform="translate(320.117188 0)"/>
     <use xlink:href="#DejaVuSans-20" transform="translate(347.900391 0)"/>
     <use xlink:href="#DejaVuSans-41" transform="translate(379.6875 0)"/>
     <use xlink:href="#DejaVuSans-63" transform="translate(446.345703 0)"/>
     <use xlink:href="#DejaVuSans-63" transform="translate(501.326172 0)"/>
     <use xlink:href="#DejaVuSans-65" transform="translate(556.306641 0)"/>
     <use xlink:href="#DejaVuSans-6c" transform="translate(617.830078 0)"/>
     <use xlink:href="#DejaVuSans-65" transform="translate(645.613281 0)"/>
     <use xlink:href="#DejaVuSans-72" transform="translate(707.136719 0)"/>
     <use xlink:href="#DejaVuSans-61" transform="translate(748.25 0)"/>
     <use xlink:href="#DejaVuSans-74" transform="translate(809.529297 0)"/>
     <use xlink:href="#DejaVuSans-69" transform="translate(848.738281 0)"/>
     <use xlink:href="#DejaVuSans-6f" transform="translate(876.521484 0)"/>
     <use xlink:href="#DejaVuSans-6e" transform="translate(937.703125 0)"/>
     <use xlink:href="#DejaVuSans-20" transform="translate(1001.082031 0)"/>
     <use xlink:href="#DejaVuSans-4e" transform="translate(1032.869141 0)"/>
     <use xlink:href="#DejaVuSans-6f" transform="translate(1107.673828 0)"/>
     <use xlink:href="#DejaVuSans-20" transform="translate(1168.855469 0)"/>
     <use xlink:href="#DejaVuSans-46" transform="translate(1200.642578 0)"/>
     <use xlink:href="#DejaVuSans-69" transform="translate(1250.912109 0)"/>
     <use xlink:href="#DejaVuSans-6c" transform="translate(1278.695312 0)"/>
     <use xlink:href="#DejaVuSans-74" transform="translate(1306.478516 0)"/>
     <use xlink:href="#DejaVuSans-65" transform="translate(1345.6875 0)"/>
     <use xlink:href="#DejaVuSans-72" transform="translate(1407.210938 0)"/>
    </g>
   </g>
   <g id="legend_1">
    <g id="patch_7">
     <path d="M 170.105312 302.584 
L 302.214687 302.584 
Q 304.214687 302.584 304.214687 300.584 
L 304.214687 286.905875 
Q 304.214687 284.905875 302.214687 284.905875 
L 170.105312 284.905875 
Q 168.105312 284.905875 168.105312 286.905875 
L 168.105312 300.584 
Q 168.105312 302.584 170.105312 302.584 
z
" style="fill: #ffffff; opacity: 0.8; stroke: #cccccc; stroke-linejoin: miter"/>
    </g>
    <g id="line2d_24">
     <path d="M 172.105312 293.004312 
L 182.105312 293.004312 
L 192.105312 293.004312 
" style="fill: none; stroke: #0000ff; stroke-width: 1.5; stroke-linecap: square"/>
    </g>
    <g id="text_15">
     <!-- Lateral Acceleration -->
     <g transform="translate(200.105312 296.504312) scale(0.1 -0.1)">
      <use xlink:href="#DejaVuSans-4c"/>
      <use xlink:href="#DejaVuSans-61" transform="translate(55.712891 0)"/>
      <use xlink:href="#DejaVuSans-74" transform="translate(116.992188 0)"/>
      <use xlink:href="#DejaVuSans-65" transform="translate(156.201172 0)"/>
      <use xlink:href="#DejaVuSans-72" transform="translate(217.724609 0)"/>
      <use xlink:href="#DejaVuSans-61" transform="translate(258.837891 0)"/>
      <use xlink:href="#DejaVuSans-6c" transform="translate(320.117188 0)"/>
      <use xlink:href="#DejaVuSans-20" transform="translate(347.900391 0)"/>
      <use xlink:href="#DejaVuSans-41" transform="translate(379.6875 0)"/>
      <use xlink:href="#DejaVuSans-63" transform="translate(446.345703 0)"/>
      <use xlink:href="#DejaVuSans-63" transform="translate(501.326172 0)"/>
      <use xlink:href="#DejaVuSans-65" transform="translate(556.306641 0)"/>
      <use xlink:href="#DejaVuSans-6c" transform="translate(617.830078 0)"/>
      <use xlink:href="#DejaVuSans-65" transform="translate(645.613281 0)"/>
      <use xlink:href="#DejaVuSans-72" transform="translate(707.136719 0)"/>
      <use xlink:href="#DejaVuSans-61" transform="translate(748.25 0)"/>
      <use xlink:href="#DejaVuSans-74" transform="translate(809.529297 0)"/>
      <use xlink:href="#DejaVuSans-69" transform="translate(848.738281 0)"/>
      <use xlink:href="#DejaVuSans-6f" transform="translate(876.521484 0)"/>
      <use xlink:href="#DejaVuSans-6e" transform="translate(937.703125 0)"/>
     </g>
    </g>
   </g>
  </g>
 </g>
 <defs>
  <clipPath id="pe91b825672">
   <rect x="57.6" y="41.472" width="357.12" height="266.112"/>
  </clipPath>
 </defs>
</svg>
