<?xml version="1.0" encoding="utf-8" standalone="no"?>
<!DOCTYPE svg PUBLIC "-//W3C//DTD SVG 1.1//EN"
  "http://www.w3.org/Graphics/SVG/1.1/DTD/svg11.dtd">
<svg xmlns:xlink="http://www.w3.org/1999/xlink" width="460.8pt" height="345.6pt" viewBox="0 0 460.8 345.6" xmlns="http://www.w3.org/2000/svg" version="1.1">
 <metadata>
  <rdf:RDF xmlns:dc="http://purl.org/dc/elements/1.1/" xmlns:cc="http://creativecommons.org/ns#" xmlns:rdf="http://www.w3.org/1999/02/22-rdf-syntax-ns#">
   <cc:Work>
    <dc:type rdf:resource="http://purl.org/dc/dcmitype/StillImage"/>
    <dc:date>2025-06-11T00:18:21.097280</dc:date>
    <dc:format>image/svg+xml</dc:format>
    <dc:creator>
     <cc:Agent>
      <dc:title>Matplotlib v3.10.1, https://matplotlib.org/</dc:title>
     </cc:Agent>
    </dc:creator>
   </cc:Work>
  </rdf:RDF>
 </metadata>
 <defs>
  <style type="text/css">*{stroke-linejoin: round; stroke-linecap: butt}</style>
 </defs>
 <g id="figure_1">
  <g id="patch_1">
   <path d="M 0 345.6 
L 460.8 345.6 
L 460.8 0 
L 0 0 
z
" style="fill: #ffffff"/>
  </g>
  <g id="axes_1">
   <g id="patch_2">
    <path d="M 57.6 307.584 
L 414.72 307.584 
L 414.72 41.472 
L 57.6 41.472 
z
" style="fill: #ffffff"/>
   </g>
   <g id="matplotlib.axis_1">
    <g id="xtick_1">
     <g id="line2d_1">
      <path d="M 73.823333 307.584 
L 73.823333 41.472 
" clip-path="url(#p74da18dd51)" style="fill: none; stroke: #b0b0b0; stroke-width: 0.8; stroke-linecap: square"/>
     </g>
     <g id="line2d_2">
      <defs>
       <path id="m67c876b327" d="M 0 0 
L 0 3.5 
" style="stroke: #000000; stroke-width: 0.8"/>
      </defs>
      <g>
       <use xlink:href="#m67c876b327" x="73.823333" y="307.584" style="stroke: #000000; stroke-width: 0.8"/>
      </g>
     </g>
     <g id="text_1">
      <!-- 0 -->
      <g transform="translate(70.642083 322.182437) scale(0.1 -0.1)">
       <defs>
        <path id="DejaVuSans-30" d="M 2034 4250 
Q 1547 4250 1301 3770 
Q 1056 3291 1056 2328 
Q 1056 1369 1301 889 
Q 1547 409 2034 409 
Q 2525 409 2770 889 
Q 3016 1369 3016 2328 
Q 3016 3291 2770 3770 
Q 2525 4250 2034 4250 
z
M 2034 4750 
Q 2819 4750 3233 4129 
Q 3647 3509 3647 2328 
Q 3647 1150 3233 529 
Q 2819 -91 2034 -91 
Q 1250 -91 836 529 
Q 422 1150 422 2328 
Q 422 3509 836 4129 
Q 1250 4750 2034 4750 
z
" transform="scale(0.015625)"/>
       </defs>
       <use xlink:href="#DejaVuSans-30"/>
      </g>
     </g>
    </g>
    <g id="xtick_2">
     <g id="line2d_3">
      <path d="M 136.073077 307.584 
L 136.073077 41.472 
" clip-path="url(#p74da18dd51)" style="fill: none; stroke: #b0b0b0; stroke-width: 0.8; stroke-linecap: square"/>
     </g>
     <g id="line2d_4">
      <g>
       <use xlink:href="#m67c876b327" x="136.073077" y="307.584" style="stroke: #000000; stroke-width: 0.8"/>
      </g>
     </g>
     <g id="text_2">
      <!-- 1000 -->
      <g transform="translate(123.348077 322.182437) scale(0.1 -0.1)">
       <defs>
        <path id="DejaVuSans-31" d="M 794 531 
L 1825 531 
L 1825 4091 
L 703 3866 
L 703 4441 
L 1819 4666 
L 2450 4666 
L 2450 531 
L 3481 531 
L 3481 0 
L 794 0 
L 794 531 
z
" transform="scale(0.015625)"/>
       </defs>
       <use xlink:href="#DejaVuSans-31"/>
       <use xlink:href="#DejaVuSans-30" transform="translate(63.623047 0)"/>
       <use xlink:href="#DejaVuSans-30" transform="translate(127.246094 0)"/>
       <use xlink:href="#DejaVuSans-30" transform="translate(190.869141 0)"/>
      </g>
     </g>
    </g>
    <g id="xtick_3">
     <g id="line2d_5">
      <path d="M 198.322822 307.584 
L 198.322822 41.472 
" clip-path="url(#p74da18dd51)" style="fill: none; stroke: #b0b0b0; stroke-width: 0.8; stroke-linecap: square"/>
     </g>
     <g id="line2d_6">
      <g>
       <use xlink:href="#m67c876b327" x="198.322822" y="307.584" style="stroke: #000000; stroke-width: 0.8"/>
      </g>
     </g>
     <g id="text_3">
      <!-- 2000 -->
      <g transform="translate(185.597822 322.182437) scale(0.1 -0.1)">
       <defs>
        <path id="DejaVuSans-32" d="M 1228 531 
L 3431 531 
L 3431 0 
L 469 0 
L 469 531 
Q 828 903 1448 1529 
Q 2069 2156 2228 2338 
Q 2531 2678 2651 2914 
Q 2772 3150 2772 3378 
Q 2772 3750 2511 3984 
Q 2250 4219 1831 4219 
Q 1534 4219 1204 4116 
Q 875 4013 500 3803 
L 500 4441 
Q 881 4594 1212 4672 
Q 1544 4750 1819 4750 
Q 2544 4750 2975 4387 
Q 3406 4025 3406 3419 
Q 3406 3131 3298 2873 
Q 3191 2616 2906 2266 
Q 2828 2175 2409 1742 
Q 1991 1309 1228 531 
z
" transform="scale(0.015625)"/>
       </defs>
       <use xlink:href="#DejaVuSans-32"/>
       <use xlink:href="#DejaVuSans-30" transform="translate(63.623047 0)"/>
       <use xlink:href="#DejaVuSans-30" transform="translate(127.246094 0)"/>
       <use xlink:href="#DejaVuSans-30" transform="translate(190.869141 0)"/>
      </g>
     </g>
    </g>
    <g id="xtick_4">
     <g id="line2d_7">
      <path d="M 260.572567 307.584 
L 260.572567 41.472 
" clip-path="url(#p74da18dd51)" style="fill: none; stroke: #b0b0b0; stroke-width: 0.8; stroke-linecap: square"/>
     </g>
     <g id="line2d_8">
      <g>
       <use xlink:href="#m67c876b327" x="260.572567" y="307.584" style="stroke: #000000; stroke-width: 0.8"/>
      </g>
     </g>
     <g id="text_4">
      <!-- 3000 -->
      <g transform="translate(247.847567 322.182437) scale(0.1 -0.1)">
       <defs>
        <path id="DejaVuSans-33" d="M 2597 2516 
Q 3050 2419 3304 2112 
Q 3559 1806 3559 1356 
Q 3559 666 3084 287 
Q 2609 -91 1734 -91 
Q 1441 -91 1130 -33 
Q 819 25 488 141 
L 488 750 
Q 750 597 1062 519 
Q 1375 441 1716 441 
Q 2309 441 2620 675 
Q 2931 909 2931 1356 
Q 2931 1769 2642 2001 
Q 2353 2234 1838 2234 
L 1294 2234 
L 1294 2753 
L 1863 2753 
Q 2328 2753 2575 2939 
Q 2822 3125 2822 3475 
Q 2822 3834 2567 4026 
Q 2313 4219 1838 4219 
Q 1578 4219 1281 4162 
Q 984 4106 628 3988 
L 628 4550 
Q 988 4650 1302 4700 
Q 1616 4750 1894 4750 
Q 2613 4750 3031 4423 
Q 3450 4097 3450 3541 
Q 3450 3153 3228 2886 
Q 3006 2619 2597 2516 
z
" transform="scale(0.015625)"/>
       </defs>
       <use xlink:href="#DejaVuSans-33"/>
       <use xlink:href="#DejaVuSans-30" transform="translate(63.623047 0)"/>
       <use xlink:href="#DejaVuSans-30" transform="translate(127.246094 0)"/>
       <use xlink:href="#DejaVuSans-30" transform="translate(190.869141 0)"/>
      </g>
     </g>
    </g>
    <g id="xtick_5">
     <g id="line2d_9">
      <path d="M 322.822312 307.584 
L 322.822312 41.472 
" clip-path="url(#p74da18dd51)" style="fill: none; stroke: #b0b0b0; stroke-width: 0.8; stroke-linecap: square"/>
     </g>
     <g id="line2d_10">
      <g>
       <use xlink:href="#m67c876b327" x="322.822312" y="307.584" style="stroke: #000000; stroke-width: 0.8"/>
      </g>
     </g>
     <g id="text_5">
      <!-- 4000 -->
      <g transform="translate(310.097312 322.182437) scale(0.1 -0.1)">
       <defs>
        <path id="DejaVuSans-34" d="M 2419 4116 
L 825 1625 
L 2419 1625 
L 2419 4116 
z
M 2253 4666 
L 3047 4666 
L 3047 1625 
L 3713 1625 
L 3713 1100 
L 3047 1100 
L 3047 0 
L 2419 0 
L 2419 1100 
L 313 1100 
L 313 1709 
L 2253 4666 
z
" transform="scale(0.015625)"/>
       </defs>
       <use xlink:href="#DejaVuSans-34"/>
       <use xlink:href="#DejaVuSans-30" transform="translate(63.623047 0)"/>
       <use xlink:href="#DejaVuSans-30" transform="translate(127.246094 0)"/>
       <use xlink:href="#DejaVuSans-30" transform="translate(190.869141 0)"/>
      </g>
     </g>
    </g>
    <g id="xtick_6">
     <g id="line2d_11">
      <path d="M 385.072056 307.584 
L 385.072056 41.472 
" clip-path="url(#p74da18dd51)" style="fill: none; stroke: #b0b0b0; stroke-width: 0.8; stroke-linecap: square"/>
     </g>
     <g id="line2d_12">
      <g>
       <use xlink:href="#m67c876b327" x="385.072056" y="307.584" style="stroke: #000000; stroke-width: 0.8"/>
      </g>
     </g>
     <g id="text_6">
      <!-- 5000 -->
      <g transform="translate(372.347056 322.182437) scale(0.1 -0.1)">
       <defs>
        <path id="DejaVuSans-35" d="M 691 4666 
L 3169 4666 
L 3169 4134 
L 1269 4134 
L 1269 2991 
Q 1406 3038 1543 3061 
Q 1681 3084 1819 3084 
Q 2600 3084 3056 2656 
Q 3513 2228 3513 1497 
Q 3513 744 3044 326 
Q 2575 -91 1722 -91 
Q 1428 -91 1123 -41 
Q 819 9 494 109 
L 494 744 
Q 775 591 1075 516 
Q 1375 441 1709 441 
Q 2250 441 2565 725 
Q 2881 1009 2881 1497 
Q 2881 1984 2565 2268 
Q 2250 2553 1709 2553 
Q 1456 2553 1204 2497 
Q 953 2441 691 2322 
L 691 4666 
z
" transform="scale(0.015625)"/>
       </defs>
       <use xlink:href="#DejaVuSans-35"/>
       <use xlink:href="#DejaVuSans-30" transform="translate(63.623047 0)"/>
       <use xlink:href="#DejaVuSans-30" transform="translate(127.246094 0)"/>
       <use xlink:href="#DejaVuSans-30" transform="translate(190.869141 0)"/>
      </g>
     </g>
    </g>
    <g id="text_7">
     <!-- Distance (m) -->
     <g transform="translate(203.936562 335.860562) scale(0.1 -0.1)">
      <defs>
       <path id="DejaVuSans-44" d="M 1259 4147 
L 1259 519 
L 2022 519 
Q 2988 519 3436 956 
Q 3884 1394 3884 2338 
Q 3884 3275 3436 3711 
Q 2988 4147 2022 4147 
L 1259 4147 
z
M 628 4666 
L 1925 4666 
Q 3281 4666 3915 4102 
Q 4550 3538 4550 2338 
Q 4550 1131 3912 565 
Q 3275 0 1925 0 
L 628 0 
L 628 4666 
z
" transform="scale(0.015625)"/>
       <path id="DejaVuSans-69" d="M 603 3500 
L 1178 3500 
L 1178 0 
L 603 0 
L 603 3500 
z
M 603 4863 
L 1178 4863 
L 1178 4134 
L 603 4134 
L 603 4863 
z
" transform="scale(0.015625)"/>
       <path id="DejaVuSans-73" d="M 2834 3397 
L 2834 2853 
Q 2591 2978 2328 3040 
Q 2066 3103 1784 3103 
Q 1356 3103 1142 2972 
Q 928 2841 928 2578 
Q 928 2378 1081 2264 
Q 1234 2150 1697 2047 
L 1894 2003 
Q 2506 1872 2764 1633 
Q 3022 1394 3022 966 
Q 3022 478 2636 193 
Q 2250 -91 1575 -91 
Q 1294 -91 989 -36 
Q 684 19 347 128 
L 347 722 
Q 666 556 975 473 
Q 1284 391 1588 391 
Q 1994 391 2212 530 
Q 2431 669 2431 922 
Q 2431 1156 2273 1281 
Q 2116 1406 1581 1522 
L 1381 1569 
Q 847 1681 609 1914 
Q 372 2147 372 2553 
Q 372 3047 722 3315 
Q 1072 3584 1716 3584 
Q 2034 3584 2315 3537 
Q 2597 3491 2834 3397 
z
" transform="scale(0.015625)"/>
       <path id="DejaVuSans-74" d="M 1172 4494 
L 1172 3500 
L 2356 3500 
L 2356 3053 
L 1172 3053 
L 1172 1153 
Q 1172 725 1289 603 
Q 1406 481 1766 481 
L 2356 481 
L 2356 0 
L 1766 0 
Q 1100 0 847 248 
Q 594 497 594 1153 
L 594 3053 
L 172 3053 
L 172 3500 
L 594 3500 
L 594 4494 
L 1172 4494 
z
" transform="scale(0.015625)"/>
       <path id="DejaVuSans-61" d="M 2194 1759 
Q 1497 1759 1228 1600 
Q 959 1441 959 1056 
Q 959 750 1161 570 
Q 1363 391 1709 391 
Q 2188 391 2477 730 
Q 2766 1069 2766 1631 
L 2766 1759 
L 2194 1759 
z
M 3341 1997 
L 3341 0 
L 2766 0 
L 2766 531 
Q 2569 213 2275 61 
Q 1981 -91 1556 -91 
Q 1019 -91 701 211 
Q 384 513 384 1019 
Q 384 1609 779 1909 
Q 1175 2209 1959 2209 
L 2766 2209 
L 2766 2266 
Q 2766 2663 2505 2880 
Q 2244 3097 1772 3097 
Q 1472 3097 1187 3025 
Q 903 2953 641 2809 
L 641 3341 
Q 956 3463 1253 3523 
Q 1550 3584 1831 3584 
Q 2591 3584 2966 3190 
Q 3341 2797 3341 1997 
z
" transform="scale(0.015625)"/>
       <path id="DejaVuSans-6e" d="M 3513 2113 
L 3513 0 
L 2938 0 
L 2938 2094 
Q 2938 2591 2744 2837 
Q 2550 3084 2163 3084 
Q 1697 3084 1428 2787 
Q 1159 2491 1159 1978 
L 1159 0 
L 581 0 
L 581 3500 
L 1159 3500 
L 1159 2956 
Q 1366 3272 1645 3428 
Q 1925 3584 2291 3584 
Q 2894 3584 3203 3211 
Q 3513 2838 3513 2113 
z
" transform="scale(0.015625)"/>
       <path id="DejaVuSans-63" d="M 3122 3366 
L 3122 2828 
Q 2878 2963 2633 3030 
Q 2388 3097 2138 3097 
Q 1578 3097 1268 2742 
Q 959 2388 959 1747 
Q 959 1106 1268 751 
Q 1578 397 2138 397 
Q 2388 397 2633 464 
Q 2878 531 3122 666 
L 3122 134 
Q 2881 22 2623 -34 
Q 2366 -91 2075 -91 
Q 1284 -91 818 406 
Q 353 903 353 1747 
Q 353 2603 823 3093 
Q 1294 3584 2113 3584 
Q 2378 3584 2631 3529 
Q 2884 3475 3122 3366 
z
" transform="scale(0.015625)"/>
       <path id="DejaVuSans-65" d="M 3597 1894 
L 3597 1613 
L 953 1613 
Q 991 1019 1311 708 
Q 1631 397 2203 397 
Q 2534 397 2845 478 
Q 3156 559 3463 722 
L 3463 178 
Q 3153 47 2828 -22 
Q 2503 -91 2169 -91 
Q 1331 -91 842 396 
Q 353 884 353 1716 
Q 353 2575 817 3079 
Q 1281 3584 2069 3584 
Q 2775 3584 3186 3129 
Q 3597 2675 3597 1894 
z
M 3022 2063 
Q 3016 2534 2758 2815 
Q 2500 3097 2075 3097 
Q 1594 3097 1305 2825 
Q 1016 2553 972 2059 
L 3022 2063 
z
" transform="scale(0.015625)"/>
       <path id="DejaVuSans-20" transform="scale(0.015625)"/>
       <path id="DejaVuSans-28" d="M 1984 4856 
Q 1566 4138 1362 3434 
Q 1159 2731 1159 2009 
Q 1159 1288 1364 580 
Q 1569 -128 1984 -844 
L 1484 -844 
Q 1016 -109 783 600 
Q 550 1309 550 2009 
Q 550 2706 781 3412 
Q 1013 4119 1484 4856 
L 1984 4856 
z
" transform="scale(0.015625)"/>
       <path id="DejaVuSans-6d" d="M 3328 2828 
Q 3544 3216 3844 3400 
Q 4144 3584 4550 3584 
Q 5097 3584 5394 3201 
Q 5691 2819 5691 2113 
L 5691 0 
L 5113 0 
L 5113 2094 
Q 5113 2597 4934 2840 
Q 4756 3084 4391 3084 
Q 3944 3084 3684 2787 
Q 3425 2491 3425 1978 
L 3425 0 
L 2847 0 
L 2847 2094 
Q 2847 2600 2669 2842 
Q 2491 3084 2119 3084 
Q 1678 3084 1418 2786 
Q 1159 2488 1159 1978 
L 1159 0 
L 581 0 
L 581 3500 
L 1159 3500 
L 1159 2956 
Q 1356 3278 1631 3431 
Q 1906 3584 2284 3584 
Q 2666 3584 2933 3390 
Q 3200 3197 3328 2828 
z
" transform="scale(0.015625)"/>
       <path id="DejaVuSans-29" d="M 513 4856 
L 1013 4856 
Q 1481 4119 1714 3412 
Q 1947 2706 1947 2009 
Q 1947 1309 1714 600 
Q 1481 -109 1013 -844 
L 513 -844 
Q 928 -128 1133 580 
Q 1338 1288 1338 2009 
Q 1338 2731 1133 3434 
Q 928 4138 513 4856 
z
" transform="scale(0.015625)"/>
      </defs>
      <use xlink:href="#DejaVuSans-44"/>
      <use xlink:href="#DejaVuSans-69" transform="translate(77.001953 0)"/>
      <use xlink:href="#DejaVuSans-73" transform="translate(104.785156 0)"/>
      <use xlink:href="#DejaVuSans-74" transform="translate(156.884766 0)"/>
      <use xlink:href="#DejaVuSans-61" transform="translate(196.09375 0)"/>
      <use xlink:href="#DejaVuSans-6e" transform="translate(257.373047 0)"/>
      <use xlink:href="#DejaVuSans-63" transform="translate(320.751953 0)"/>
      <use xlink:href="#DejaVuSans-65" transform="translate(375.732422 0)"/>
      <use xlink:href="#DejaVuSans-20" transform="translate(437.255859 0)"/>
      <use xlink:href="#DejaVuSans-28" transform="translate(469.042969 0)"/>
      <use xlink:href="#DejaVuSans-6d" transform="translate(508.056641 0)"/>
      <use xlink:href="#DejaVuSans-29" transform="translate(605.46875 0)"/>
     </g>
    </g>
   </g>
   <g id="matplotlib.axis_2">
    <g id="ytick_1">
     <g id="line2d_13">
      <path d="M 57.6 304.138579 
L 414.72 304.138579 
" clip-path="url(#p74da18dd51)" style="fill: none; stroke: #b0b0b0; stroke-width: 0.8; stroke-linecap: square"/>
     </g>
     <g id="line2d_14">
      <defs>
       <path id="m8004f62548" d="M 0 0 
L -3.5 0 
" style="stroke: #000000; stroke-width: 0.8"/>
      </defs>
      <g>
       <use xlink:href="#m8004f62548" x="57.6" y="304.138579" style="stroke: #000000; stroke-width: 0.8"/>
      </g>
     </g>
     <g id="text_8">
      <!-- 0 -->
      <g transform="translate(44.2375 307.937797) scale(0.1 -0.1)">
       <use xlink:href="#DejaVuSans-30"/>
      </g>
     </g>
    </g>
    <g id="ytick_2">
     <g id="line2d_15">
      <path d="M 57.6 266.598332 
L 414.72 266.598332 
" clip-path="url(#p74da18dd51)" style="fill: none; stroke: #b0b0b0; stroke-width: 0.8; stroke-linecap: square"/>
     </g>
     <g id="line2d_16">
      <g>
       <use xlink:href="#m8004f62548" x="57.6" y="266.598332" style="stroke: #000000; stroke-width: 0.8"/>
      </g>
     </g>
     <g id="text_9">
      <!-- 100 -->
      <g transform="translate(31.5125 270.397551) scale(0.1 -0.1)">
       <use xlink:href="#DejaVuSans-31"/>
       <use xlink:href="#DejaVuSans-30" transform="translate(63.623047 0)"/>
       <use xlink:href="#DejaVuSans-30" transform="translate(127.246094 0)"/>
      </g>
     </g>
    </g>
    <g id="ytick_3">
     <g id="line2d_17">
      <path d="M 57.6 229.058085 
L 414.72 229.058085 
" clip-path="url(#p74da18dd51)" style="fill: none; stroke: #b0b0b0; stroke-width: 0.8; stroke-linecap: square"/>
     </g>
     <g id="line2d_18">
      <g>
       <use xlink:href="#m8004f62548" x="57.6" y="229.058085" style="stroke: #000000; stroke-width: 0.8"/>
      </g>
     </g>
     <g id="text_10">
      <!-- 200 -->
      <g transform="translate(31.5125 232.857304) scale(0.1 -0.1)">
       <use xlink:href="#DejaVuSans-32"/>
       <use xlink:href="#DejaVuSans-30" transform="translate(63.623047 0)"/>
       <use xlink:href="#DejaVuSans-30" transform="translate(127.246094 0)"/>
      </g>
     </g>
    </g>
    <g id="ytick_4">
     <g id="line2d_19">
      <path d="M 57.6 191.517838 
L 414.72 191.517838 
" clip-path="url(#p74da18dd51)" style="fill: none; stroke: #b0b0b0; stroke-width: 0.8; stroke-linecap: square"/>
     </g>
     <g id="line2d_20">
      <g>
       <use xlink:href="#m8004f62548" x="57.6" y="191.517838" style="stroke: #000000; stroke-width: 0.8"/>
      </g>
     </g>
     <g id="text_11">
      <!-- 300 -->
      <g transform="translate(31.5125 195.317057) scale(0.1 -0.1)">
       <use xlink:href="#DejaVuSans-33"/>
       <use xlink:href="#DejaVuSans-30" transform="translate(63.623047 0)"/>
       <use xlink:href="#DejaVuSans-30" transform="translate(127.246094 0)"/>
      </g>
     </g>
    </g>
    <g id="ytick_5">
     <g id="line2d_21">
      <path d="M 57.6 153.977592 
L 414.72 153.977592 
" clip-path="url(#p74da18dd51)" style="fill: none; stroke: #b0b0b0; stroke-width: 0.8; stroke-linecap: square"/>
     </g>
     <g id="line2d_22">
      <g>
       <use xlink:href="#m8004f62548" x="57.6" y="153.977592" style="stroke: #000000; stroke-width: 0.8"/>
      </g>
     </g>
     <g id="text_12">
      <!-- 400 -->
      <g transform="translate(31.5125 157.776811) scale(0.1 -0.1)">
       <use xlink:href="#DejaVuSans-34"/>
       <use xlink:href="#DejaVuSans-30" transform="translate(63.623047 0)"/>
       <use xlink:href="#DejaVuSans-30" transform="translate(127.246094 0)"/>
      </g>
     </g>
    </g>
    <g id="ytick_6">
     <g id="line2d_23">
      <path d="M 57.6 116.437345 
L 414.72 116.437345 
" clip-path="url(#p74da18dd51)" style="fill: none; stroke: #b0b0b0; stroke-width: 0.8; stroke-linecap: square"/>
     </g>
     <g id="line2d_24">
      <g>
       <use xlink:href="#m8004f62548" x="57.6" y="116.437345" style="stroke: #000000; stroke-width: 0.8"/>
      </g>
     </g>
     <g id="text_13">
      <!-- 500 -->
      <g transform="translate(31.5125 120.236564) scale(0.1 -0.1)">
       <use xlink:href="#DejaVuSans-35"/>
       <use xlink:href="#DejaVuSans-30" transform="translate(63.623047 0)"/>
       <use xlink:href="#DejaVuSans-30" transform="translate(127.246094 0)"/>
      </g>
     </g>
    </g>
    <g id="ytick_7">
     <g id="line2d_25">
      <path d="M 57.6 78.897098 
L 414.72 78.897098 
" clip-path="url(#p74da18dd51)" style="fill: none; stroke: #b0b0b0; stroke-width: 0.8; stroke-linecap: square"/>
     </g>
     <g id="line2d_26">
      <g>
       <use xlink:href="#m8004f62548" x="57.6" y="78.897098" style="stroke: #000000; stroke-width: 0.8"/>
      </g>
     </g>
     <g id="text_14">
      <!-- 600 -->
      <g transform="translate(31.5125 82.696317) scale(0.1 -0.1)">
       <defs>
        <path id="DejaVuSans-36" d="M 2113 2584 
Q 1688 2584 1439 2293 
Q 1191 2003 1191 1497 
Q 1191 994 1439 701 
Q 1688 409 2113 409 
Q 2538 409 2786 701 
Q 3034 994 3034 1497 
Q 3034 2003 2786 2293 
Q 2538 2584 2113 2584 
z
M 3366 4563 
L 3366 3988 
Q 3128 4100 2886 4159 
Q 2644 4219 2406 4219 
Q 1781 4219 1451 3797 
Q 1122 3375 1075 2522 
Q 1259 2794 1537 2939 
Q 1816 3084 2150 3084 
Q 2853 3084 3261 2657 
Q 3669 2231 3669 1497 
Q 3669 778 3244 343 
Q 2819 -91 2113 -91 
Q 1303 -91 875 529 
Q 447 1150 447 2328 
Q 447 3434 972 4092 
Q 1497 4750 2381 4750 
Q 2619 4750 2861 4703 
Q 3103 4656 3366 4563 
z
" transform="scale(0.015625)"/>
       </defs>
       <use xlink:href="#DejaVuSans-36"/>
       <use xlink:href="#DejaVuSans-30" transform="translate(63.623047 0)"/>
       <use xlink:href="#DejaVuSans-30" transform="translate(127.246094 0)"/>
      </g>
     </g>
    </g>
    <g id="text_15">
     <!-- Speed (km/h) -->
     <g transform="translate(25.432812 208.313156) rotate(-90) scale(0.1 -0.1)">
      <defs>
       <path id="DejaVuSans-53" d="M 3425 4513 
L 3425 3897 
Q 3066 4069 2747 4153 
Q 2428 4238 2131 4238 
Q 1616 4238 1336 4038 
Q 1056 3838 1056 3469 
Q 1056 3159 1242 3001 
Q 1428 2844 1947 2747 
L 2328 2669 
Q 3034 2534 3370 2195 
Q 3706 1856 3706 1288 
Q 3706 609 3251 259 
Q 2797 -91 1919 -91 
Q 1588 -91 1214 -16 
Q 841 59 441 206 
L 441 856 
Q 825 641 1194 531 
Q 1563 422 1919 422 
Q 2459 422 2753 634 
Q 3047 847 3047 1241 
Q 3047 1584 2836 1778 
Q 2625 1972 2144 2069 
L 1759 2144 
Q 1053 2284 737 2584 
Q 422 2884 422 3419 
Q 422 4038 858 4394 
Q 1294 4750 2059 4750 
Q 2388 4750 2728 4690 
Q 3069 4631 3425 4513 
z
" transform="scale(0.015625)"/>
       <path id="DejaVuSans-70" d="M 1159 525 
L 1159 -1331 
L 581 -1331 
L 581 3500 
L 1159 3500 
L 1159 2969 
Q 1341 3281 1617 3432 
Q 1894 3584 2278 3584 
Q 2916 3584 3314 3078 
Q 3713 2572 3713 1747 
Q 3713 922 3314 415 
Q 2916 -91 2278 -91 
Q 1894 -91 1617 61 
Q 1341 213 1159 525 
z
M 3116 1747 
Q 3116 2381 2855 2742 
Q 2594 3103 2138 3103 
Q 1681 3103 1420 2742 
Q 1159 2381 1159 1747 
Q 1159 1113 1420 752 
Q 1681 391 2138 391 
Q 2594 391 2855 752 
Q 3116 1113 3116 1747 
z
" transform="scale(0.015625)"/>
       <path id="DejaVuSans-64" d="M 2906 2969 
L 2906 4863 
L 3481 4863 
L 3481 0 
L 2906 0 
L 2906 525 
Q 2725 213 2448 61 
Q 2172 -91 1784 -91 
Q 1150 -91 751 415 
Q 353 922 353 1747 
Q 353 2572 751 3078 
Q 1150 3584 1784 3584 
Q 2172 3584 2448 3432 
Q 2725 3281 2906 2969 
z
M 947 1747 
Q 947 1113 1208 752 
Q 1469 391 1925 391 
Q 2381 391 2643 752 
Q 2906 1113 2906 1747 
Q 2906 2381 2643 2742 
Q 2381 3103 1925 3103 
Q 1469 3103 1208 2742 
Q 947 2381 947 1747 
z
" transform="scale(0.015625)"/>
       <path id="DejaVuSans-6b" d="M 581 4863 
L 1159 4863 
L 1159 1991 
L 2875 3500 
L 3609 3500 
L 1753 1863 
L 3688 0 
L 2938 0 
L 1159 1709 
L 1159 0 
L 581 0 
L 581 4863 
z
" transform="scale(0.015625)"/>
       <path id="DejaVuSans-2f" d="M 1625 4666 
L 2156 4666 
L 531 -594 
L 0 -594 
L 1625 4666 
z
" transform="scale(0.015625)"/>
       <path id="DejaVuSans-68" d="M 3513 2113 
L 3513 0 
L 2938 0 
L 2938 2094 
Q 2938 2591 2744 2837 
Q 2550 3084 2163 3084 
Q 1697 3084 1428 2787 
Q 1159 2491 1159 1978 
L 1159 0 
L 581 0 
L 581 4863 
L 1159 4863 
L 1159 2956 
Q 1366 3272 1645 3428 
Q 1925 3584 2291 3584 
Q 2894 3584 3203 3211 
Q 3513 2838 3513 2113 
z
" transform="scale(0.015625)"/>
      </defs>
      <use xlink:href="#DejaVuSans-53"/>
      <use xlink:href="#DejaVuSans-70" transform="translate(63.476562 0)"/>
      <use xlink:href="#DejaVuSans-65" transform="translate(126.953125 0)"/>
      <use xlink:href="#DejaVuSans-65" transform="translate(188.476562 0)"/>
      <use xlink:href="#DejaVuSans-64" transform="translate(250 0)"/>
      <use xlink:href="#DejaVuSans-20" transform="translate(313.476562 0)"/>
      <use xlink:href="#DejaVuSans-28" transform="translate(345.263672 0)"/>
      <use xlink:href="#DejaVuSans-6b" transform="translate(384.277344 0)"/>
      <use xlink:href="#DejaVuSans-6d" transform="translate(442.1875 0)"/>
      <use xlink:href="#DejaVuSans-2f" transform="translate(539.599609 0)"/>
      <use xlink:href="#DejaVuSans-68" transform="translate(573.291016 0)"/>
      <use xlink:href="#DejaVuSans-29" transform="translate(636.669922 0)"/>
     </g>
    </g>
   </g>
   <g id="line2d_27">
    <path d="M 73.832727 173.723454 
L 73.916166 176.200559 
L 74.167121 207.352743 
L 74.588742 248.890099 
L 74.84373 259.733442 
L 74.929054 260.928031 
L 75.014539 260.864644 
L 75.185985 256.964055 
L 75.44431 241.678552 
L 75.877801 208.878112 
L 76.052199 205.1479 
L 76.139615 204.879813 
L 77.021176 211.282301 
L 77.555292 212.887385 
L 77.734105 211.759931 
L 78.003107 207.178415 
L 78.363338 195.674799 
L 78.907351 174.720818 
L 78.998463 174.06727 
L 79.089694 174.576447 
L 79.272501 179.082974 
L 79.547512 194.563146 
L 80.100084 233.687582 
L 80.377542 238.934455 
L 80.4702 239.083024 
L 80.562944 238.446635 
L 80.748698 234.843545 
L 81.12129 221.934961 
L 81.589176 196.39378 
L 81.965226 159.124783 
L 82.531954 99.30013 
L 82.626705 101.288367 
L 82.816462 118.271129 
L 83.769694 253.526176 
L 84.056518 264.342852 
L 84.15215 264.683128 
L 84.247791 263.686908 
L 84.439158 257.889959 
L 84.726633 239.683098 
L 85.497687 178.858003 
L 85.691476 174.291162 
L 85.788508 173.820039 
L 85.885627 174.557112 
L 86.080114 179.655839 
L 86.372424 196.07558 
L 86.763223 219.885035 
L 87.05713 226.38106 
L 87.155255 226.321347 
L 87.351739 222.864357 
L 87.64706 209.334813 
L 88.041945 175.719257 
L 88.537315 129.319525 
L 88.735856 126.154822 
L 88.83517 128.2635 
L 89.033829 139.862904 
L 89.331739 175.538351 
L 89.827782 233.88013 
L 90.125697 249.665033 
L 90.324701 252.507707 
L 90.424316 252.043387 
L 90.623679 247.400276 
L 90.922758 231.14846 
L 91.519896 191.771891 
L 91.718522 189.051837 
L 91.817475 189.778725 
L 92.014209 195.402908 
L 92.49611 215.266031 
L 92.590498 215.828667 
L 92.68406 214.64764 
L 92.868356 207.055316 
L 93.13642 182.672553 
L 93.476531 148.797954 
L 93.558455 147.336581 
L 93.639053 149.155132 
L 93.796083 162.632887 
L 94.627018 276.601372 
L 94.752499 279.562355 
L 94.814491 279.235422 
L 94.937412 275.046567 
L 95.181414 252.804229 
L 95.425967 235.840367 
L 95.548292 233.367059 
L 95.6094 233.379929 
L 95.731414 235.88532 
L 96.09479 245.883174 
L 96.214783 246.387829 
L 96.334106 245.367765 
L 96.511703 240.862018 
L 96.975591 223.754588 
L 97.032527 223.831126 
L 97.145849 225.962513 
L 97.426787 240.185632 
L 97.761594 252.527768 
L 98.040536 256.201593 
L 98.152407 256.345037 
L 98.264553 255.833912 
L 98.603332 252.779489 
L 98.717161 248.356176 
L 98.946012 225.654384 
L 99.234099 191.257303 
L 99.292113 190.529055 
L 99.40875 196.146376 
L 99.645165 233.427044 
L 99.946551 273.103867 
L 100.129493 278.976305 
L 100.251936 275.429215 
L 100.994426 230.988175 
L 101.057989 230.882935 
L 101.186217 231.957659 
L 101.512232 236.570178 
L 101.644397 235.16416 
L 101.844049 229.044332 
L 102.247206 215.206506 
L 102.450901 212.990483 
L 102.519162 213.018862 
L 102.656269 214.33812 
L 102.863492 219.474085 
L 103.570201 242.192923 
L 104.081834 246.433662 
L 104.230282 247.20925 
L 104.304829 246.974999 
L 104.454498 244.339413 
L 104.680232 234.964563 
L 104.982919 212.321779 
L 105.28693 175.391601 
L 105.592737 144.343269 
L 105.66954 144.432794 
L 105.823612 154.143946 
L 106.211682 203.664079 
L 106.762786 279.286156 
L 106.922031 283.651426 
L 107.00195 282.468378 
L 107.162375 273.377968 
L 107.648263 217.796716 
L 108.140619 161.550316 
L 108.22326 159.488422 
L 108.306059 160.03427 
L 108.472114 168.949091 
L 108.889832 221.608439 
L 109.226363 248.84761 
L 109.47974 255.060658 
L 109.564334 254.46682 
L 109.733688 250.665643 
L 109.988162 238.931459 
L 110.58413 207.290693 
L 110.754919 205.367471 
L 110.840385 205.696866 
L 111.440197 212.284849 
L 112.130562 215.825083 
L 112.217156 216.169104 
L 112.303778 215.158606 
L 112.476985 208.159025 
L 113.254357 167.853293 
L 113.340957 167.849269 
L 113.51476 171.143516 
L 114.39533 191.815357 
L 115.01579 207.949977 
L 115.548249 228.575186 
L 116.174195 254.122389 
L 116.264137 254.822584 
L 116.354203 254.416253 
L 116.534691 250.284975 
L 116.806267 235.787053 
L 117.809748 162.507385 
L 118.085429 156.967269 
L 118.177492 156.720279 
L 118.269636 157.273157 
L 118.454152 160.778516 
L 118.731449 171.948523 
L 119.287785 193.87538 
L 120.313281 225.904348 
L 121.06106 251.399688 
L 121.247968 252.64581 
L 121.341401 252.339569 
L 121.52822 250.595139 
L 121.808355 245.542845 
L 122.181753 233.745632 
L 122.555132 213.679662 
L 123.022037 174.945734 
L 123.769874 106.433259 
L 123.956996 116.56181 
L 124.237881 158.145488 
L 124.706756 223.22553 
L 124.988649 241.634519 
L 125.176865 245.344081 
L 125.271068 244.775819 
L 125.459652 240.946708 
L 125.742855 229.368195 
L 126.30965 200.460181 
L 126.592897 195.255717 
L 126.687287 194.839729 
L 126.781676 195.06769 
L 127.064885 198.609866 
L 127.348227 200.668466 
L 127.631737 201.184962 
L 127.820865 201.04586 
L 128.104787 200.158123 
L 128.483887 198.71053 
L 128.673734 198.444455 
L 128.863822 198.50468 
L 129.62666 199.633394 
L 129.913219 199.556923 
L 130.390478 199.233213 
L 130.581215 199.80315 
L 130.86721 201.661883 
L 131.057836 203.066325 
L 131.153156 203.198269 
L 131.248494 202.911145 
L 131.439262 201.079843 
L 131.725785 195.19065 
L 132.300757 180.403383 
L 132.492941 179.5577 
L 132.685364 181.490519 
L 132.974421 189.598578 
L 133.747449 220.276921 
L 133.941147 221.195486 
L 134.135 218.888737 
L 135.204765 195.555594 
L 135.400215 194.224523 
L 135.498034 194.033851 
L 135.595906 194.159742 
L 135.79178 195.334679 
L 136.183882 197.471624 
L 136.478118 197.948601 
L 136.772448 198.097525 
L 137.066945 198.036295 
L 138.24803 197.314886 
L 138.839475 197.153167 
L 139.528872 196.5243 
L 140.124809 196.140276 
L 140.722909 195.841485 
L 141.220438 195.275757 
L 141.519337 195.190063 
L 142.420944 195.22028 
L 142.82242 194.790636 
L 143.223444 194.119705 
L 143.323683 194.213933 
L 143.524203 194.923293 
L 143.825223 197.2879 
L 144.227302 202.673109 
L 144.730654 212.57645 
L 145.234012 222.212055 
L 145.334625 223.240829 
L 145.435215 222.38134 
L 145.636379 213.919219 
L 145.938292 184.368358 
L 146.645045 94.14998 
L 146.746293 94.68615 
L 146.948943 109.422013 
L 148.0651 250.608011 
L 148.369284 260.653664 
L 148.470605 261.152846 
L 148.571904 260.267301 
L 148.774486 254.342907 
L 149.078533 235.074047 
L 149.586378 197.284648 
L 149.891677 188.145531 
L 150.095402 187.505694 
L 150.29927 189.040064 
L 150.809541 192.988496 
L 151.116054 194.071358 
L 151.320524 194.363299 
L 151.525095 194.330552 
L 151.729768 193.972995 
L 152.139403 193.084986 
L 152.34434 192.973421 
L 152.549335 193.09058 
L 152.959489 193.457563 
L 153.164723 193.422908 
L 153.472905 193.090259 
L 153.884627 192.539553 
L 154.296544 192.378286 
L 154.603928 192.450547 
L 154.807343 192.654215 
L 155.108644 193.570586 
L 155.499258 195.963342 
L 155.871584 199.707108 
L 156.135614 204.626332 
L 156.3855 213.828914 
L 156.696978 224.114361 
L 156.844439 225.56218 
L 156.916324 225.356834 
L 157.056726 223.076277 
L 157.25987 214.948777 
L 157.707784 187.993252 
L 157.769496 189.128842 
L 157.89149 196.848024 
L 158.189345 241.095436 
L 158.538109 279.069667 
L 158.595349 280.292167 
L 158.652196 279.90081 
L 158.764479 274.327202 
L 159.139797 249.877746 
L 159.342521 245.28822 
L 159.391957 245.142891 
L 159.489397 246.049907 
L 159.678792 252.57036 
L 159.86089 257.545743 
L 159.905305 257.31553 
L 160.036209 252.959064 
L 160.330449 235.435652 
L 160.371441 235.710644 
L 160.493151 241.85962 
L 160.966613 277.0445 
L 161.044215 277.542114 
L 161.082945 277.206105 
L 161.198965 273.942234 
L 161.507204 263.024639 
L 161.54519 263.049842 
L 162.086755 267.080483 
L 162.593297 267.038901 
L 162.764105 266.30826 
L 162.867713 265.808 
L 162.902471 265.919056 
L 163.042816 268.046341 
L 163.14947 268.956397 
L 163.185288 268.735166 
L 163.293544 266.452242 
L 163.513761 254.935892 
L 163.740192 243.796027 
L 163.778846 243.8176 
L 163.857218 245.633182 
L 164.060804 259.611214 
L 164.320523 271.100689 
L 164.410175 271.673688 
L 164.501067 270.577088 
L 164.685844 263.381172 
L 165.303711 228.410091 
L 165.352846 228.765075 
L 165.502724 233.112828 
L 165.762451 250.084353 
L 166.201925 278.198721 
L 166.258685 278.47328 
L 166.373355 276.437762 
L 166.548091 266.905365 
L 166.966614 239.925364 
L 167.271848 231.378036 
L 167.45747 229.789913 
L 167.519882 229.838609 
L 167.836857 231.461835 
L 167.966195 230.82247 
L 168.163049 228.399423 
L 168.977627 214.852332 
L 169.046897 214.703254 
L 169.116313 214.838926 
L 169.25563 216.033761 
L 169.46603 220.134792 
L 169.821407 232.708754 
L 170.183244 242.79516 
L 170.477009 245.795664 
L 170.551008 245.782092 
L 170.699661 244.704914 
L 170.924269 240.464022 
L 171.226757 229.909262 
L 171.532633 221.054279 
L 171.919683 220.640009 
L 174.903032 214.033303 
L 175.491548 212.843736 
L 175.914973 212.464071 
L 176.256747 212.252126 
L 176.515336 211.855735 
L 176.863334 210.813205 
L 177.480577 208.550998 
L 177.65824 208.431054 
L 178.192024 208.587115 
L 178.995016 207.380403 
L 179.444035 205.930268 
L 179.71531 205.037593 
L 179.80609 205.209209 
L 179.988135 206.471293 
L 180.262279 210.662156 
L 180.62944 217.133976 
L 180.721468 216.854221 
L 180.905758 213.51378 
L 181.182674 201.550822 
L 181.737994 160.160879 
L 182.11002 136.5118 
L 182.2033 134.558328 
L 182.296659 134.770927 
L 182.483536 141.69434 
L 182.763951 168.016838 
L 183.419709 225.482589 
L 183.799771 245.892457 
L 184.087599 252.556383 
L 184.183911 253.12191 
L 184.280357 252.859545 
L 184.473532 249.851142 
L 184.76355 239.129347 
L 185.149474 214.013161 
L 186.01533 157.096535 
L 186.208584 154.729276 
L 186.305473 155.645856 
L 186.4999 161.679421 
L 186.793427 180.434658 
L 187.485359 232.31821 
L 187.783751 239.856739 
L 187.883332 240.239807 
L 187.982943 239.740088 
L 188.082578 240.042793 
L 188.481549 246.810019 
L 188.581436 246.397462 
L 188.781422 242.077124 
L 189.082008 226.859357 
L 189.484149 190.257776 
L 189.989486 118.339089 
L 190.396237 54.94271 
L 190.498248 53.568 
L 190.600349 61.390801 
L 190.906947 130.124663 
L 191.52026 250.459469 
L 191.826723 277.875542 
L 192.031084 281.651409 
L 192.13331 279.191288 
L 192.337901 265.570685 
L 193.159177 187.639915 
L 193.468601 177.626018 
L 193.675447 175.681082 
L 193.779061 176.127847 
L 193.986708 179.859619 
L 194.403867 189.267962 
L 195.348632 205.406838 
L 195.453835 205.468848 
L 195.664332 201.516195 
L 195.980319 185.396302 
L 196.402117 144.879697 
L 196.718853 113.179353 
L 196.930196 107.204291 
L 197.035924 108.926328 
L 197.247488 121.727402 
L 197.671053 172.336312 
L 198.201619 222.760034 
L 198.520888 238.690619 
L 198.734244 243.355558 
L 198.841092 244.034472 
L 198.948048 243.678936 
L 199.162264 239.864511 
L 199.484264 226.384494 
L 200.238002 182.819494 
L 200.453809 181.060151 
L 200.561769 182.3624 
L 200.77778 189.330738 
L 201.101978 200.522758 
L 201.210089 200.311973 
L 201.426386 193.6604 
L 201.751023 168.108018 
L 202.184258 122.203731 
L 202.292634 118.584914 
L 202.401036 118.875176 
L 202.617914 130.987141 
L 203.703953 223.444532 
L 204.030456 235.196351 
L 204.139362 235.943336 
L 204.248303 235.105155 
L 204.466277 228.673176 
L 204.793449 207.378188 
L 205.120857 188.718923 
L 205.339263 182.973065 
L 205.448504 182.07552 
L 205.557769 182.494825 
L 205.776367 187.108518 
L 205.995053 191.037855 
L 206.104427 191.695992 
L 206.213821 191.483243 
L 206.43267 188.445305 
L 206.651597 181.706243 
L 207.52816 143.584796 
L 207.637863 142.962548 
L 207.747607 143.469679 
L 207.967226 147.872095 
L 208.406989 167.014936 
L 208.846959 196.419659 
L 209.286573 229.018391 
L 209.506335 235.668615 
L 209.616243 236.508554 
L 209.726184 235.691723 
L 209.946207 229.087771 
L 210.276761 206.824091 
L 210.829312 148.791892 
L 211.161543 116.211586 
L 211.383215 110.658201 
L 211.494089 112.880582 
L 211.715892 126.019673 
L 212.048781 160.953473 
L 212.715753 238.499419 
L 212.938454 248.764889 
L 213.049844 249.832907 
L 213.161248 248.191121 
L 213.384068 236.778107 
L 213.940868 178.728719 
L 214.386154 145.593095 
L 214.720279 135.383052 
L 214.831719 134.76855 
L 215.054728 136.803959 
L 215.389549 143.506282 
L 217.404092 194.942471 
L 218.415111 225.884474 
L 218.64 227.534687 
L 218.752446 227.501686 
L 218.977315 225.719434 
L 219.314492 219.072627 
L 219.876306 202.338388 
L 220.551298 181.922569 
L 220.889299 176.713996 
L 221.114773 175.271723 
L 221.227543 175.159606 
L 221.34033 175.453491 
L 221.678762 178.021373 
L 222.130014 183.404427 
L 222.693721 191.242575 
L 222.806402 189.782671 
L 223.03179 181.150416 
L 223.370152 153.969045 
L 223.822275 117.301818 
L 224.048653 111.592608 
L 224.161877 111.967706 
L 224.388332 119.177306 
L 224.727839 146.140184 
L 225.62958 242.535314 
L 225.854092 249.630162 
L 225.966326 250.042469 
L 226.078579 248.364809 
L 226.303252 238.740023 
L 226.641077 208.629941 
L 227.322437 134.857388 
L 227.667063 123.855442 
L 227.782241 123.645086 
L 227.897436 125.162999 
L 228.127551 133.266945 
L 229.131952 173.242893 
L 229.833624 200.849119 
L 230.486524 238.82369 
L 230.853696 255.660357 
L 231.117539 259.888042 
L 231.201668 259.723554 
L 231.363882 257.858049 
L 231.674209 249.239319 
L 232.284641 230.643886 
L 232.632924 211.281694 
L 233.044925 177.456278 
L 233.098564 178.373307 
L 233.203166 187.857833 
L 233.880169 292.855763 
L 233.925288 291.873853 
L 234.057847 281.618247 
L 234.43037 243.751417 
L 234.469695 243.255232 
L 234.508668 243.525961 
L 234.623634 248.938673 
L 235.05981 277.88722 
L 235.094881 278.114775 
L 235.129809 278.027414 
L 235.23346 275.930399 
L 235.433153 264.462006 
L 235.590816 259.763528 
L 235.682313 262.332058 
L 236.057365 282.20327 
L 236.112981 281.967872 
L 236.250373 279.668329 
L 236.515475 269.643565 
L 236.665998 265.272422 
L 236.690419 265.493286 
L 236.786626 269.803981 
L 237.090369 291.733217 
L 237.136687 291.22453 
L 237.394703 281.6963 
L 237.611838 244.996682 
L 237.710818 255.065759 
L 237.994958 295.488 
L 238.048495 294.363462 
L 238.58552 268.177188 
L 238.651856 268.27566 
L 238.685108 268.247966 
L 238.985424 267.622969 
L 239.191812 267.400177 
L 239.621466 266.769475 
L 239.907629 266.829141 
L 240.192251 266.679458 
L 240.515185 266.219343 
L 240.587544 266.200214 
L 240.696652 265.772584 
L 240.880469 263.796938 
L 241.029677 261.425603 
L 241.067277 261.554641 
L 241.18081 264.31109 
L 241.372569 273.109425 
L 241.450203 271.629359 
L 241.60716 256.46645 
L 241.887732 211.693174 
L 241.969752 215.899741 
L 242.137609 254.363362 
L 242.400358 293.896951 
L 242.445615 294.300115 
L 242.53755 289.851475 
L 242.72761 261.490335 
L 243.028758 221.998213 
L 243.237388 213.914751 
L 243.290159 214.190556 
L 243.396155 217.498204 
L 243.608836 235.027657 
L 243.983569 264.73414 
L 244.263384 273.298414 
L 244.321108 273.450469 
L 244.43802 272.095504 
L 244.61636 265.915084 
L 245.223764 236.615456 
L 245.285437 236.599944 
L 245.409733 238.415997 
L 245.47244 239.99246 
L 245.535571 239.570235 
L 245.663219 231.106331 
L 245.990886 204.866363 
L 246.192655 200.244229 
L 246.26064 200.59873 
L 246.397567 204.15097 
L 246.605019 216.587848 
L 247.237516 264.471003 
L 247.308563 265.358466 
L 247.379759 265.210645 
L 247.522589 261.812472 
L 247.809967 244.066741 
L 248.244775 223.190781 
L 248.536539 217.665896 
L 248.756672 216.790857 
L 248.904399 217.696412 
L 249.354126 223.472403 
L 249.430108 223.410827 
L 249.582899 222.074552 
L 250.125708 214.547811 
L 250.20424 214.429861 
L 250.283014 214.504916 
L 250.441269 215.179995 
L 250.921295 218.176649 
L 251.001982 218.205714 
L 251.163859 217.821762 
L 251.900511 214.947981 
L 252.398329 212.224571 
L 252.648975 210.876388 
L 252.732808 210.932697 
L 252.900965 211.8395 
L 253.154597 215.212904 
L 253.581409 224.658179 
L 253.753501 220.335977 
L 254.012966 201.980645 
L 254.711823 131.825019 
L 254.799872 131.45326 
L 254.976436 137.947143 
L 256.139308 222.504152 
L 256.684823 242.739511 
L 257.051487 251.051929 
L 257.328026 253.255904 
L 257.420498 253.135124 
L 257.605881 251.574601 
L 257.791845 247.135141 
L 258.07187 234.050403 
L 258.635588 201.439998 
L 258.918844 196.17949 
L 259.013397 196.240052 
L 259.202639 199.082037 
L 259.77082 213.667553 
L 259.865587 212.394092 
L 260.055322 204.807482 
L 260.340736 180.830129 
L 260.916312 121.606466 
L 261.012905 119.952596 
L 261.109658 121.178438 
L 261.303599 132.269251 
L 261.595411 170.241923 
L 262.08334 230.753764 
L 262.4742 254.190922 
L 262.66954 257.83907 
L 262.767195 257.947087 
L 262.962584 254.777463 
L 263.256185 241.558635 
L 264.045429 191.033574 
L 264.244158 188.842643 
L 264.343676 189.619224 
L 264.542958 194.915928 
L 264.84235 205.251312 
L 264.942276 205.146394 
L 265.1424 198.548129 
L 265.443468 172.678633 
L 265.948468 122.416464 
L 266.049987 119.814535 
L 266.151654 120.176978 
L 266.355382 129.795072 
L 266.66176 166.199789 
L 267.173753 227.149899 
L 267.584015 252.789004 
L 267.789307 255.761984 
L 267.892003 254.709113 
L 268.097513 247.524607 
L 268.406117 224.313236 
L 268.818315 196.831981 
L 269.128293 185.537579 
L 269.335521 182.390516 
L 269.439343 182.13175 
L 269.54332 182.749494 
L 269.751785 186.290879 
L 270.381566 200.054912 
L 270.487089 199.104503 
L 270.69845 193.574846 
L 271.015992 176.207896 
L 271.439548 146.688146 
L 271.545399 144.286556 
L 271.651232 144.346221 
L 271.862846 151.849261 
L 272.180123 179.497151 
L 272.603049 212.239143 
L 272.920546 222.942996 
L 273.026501 223.872875 
L 273.132536 223.483795 
L 273.451217 216.813806 
L 275.162626 168.169533 
L 275.37765 166.315646 
L 275.485247 166.749477 
L 275.700609 170.338939 
L 276.455967 190.04756 
L 276.672108 191.148543 
L 276.780209 190.85383 
L 276.996449 188.631305 
L 277.42905 184.379557 
L 277.645451 183.797148 
L 277.753687 183.94967 
L 277.970242 185.142453 
L 278.295324 189.289509 
L 278.837953 199.741292 
L 278.94663 199.189492 
L 279.164176 194.291619 
L 279.382005 183.385863 
L 279.709267 150.547186 
L 280.037065 113.562873 
L 280.255831 104.765037 
L 280.365269 105.323462 
L 280.584225 116.35533 
L 280.912788 155.592057 
L 281.57061 243.31431 
L 281.900227 262.027555 
L 282.010197 262.10902 
L 282.120197 259.073829 
L 282.34024 243.656078 
L 282.999967 179.395609 
L 283.219696 172.936841 
L 283.329573 172.497811 
L 283.439474 173.918262 
L 283.87957 184.068977 
L 284.100055 185.898242 
L 284.320896 186.576527 
L 284.542034 186.659192 
L 284.763399 186.145935 
L 285.206555 184.56522 
L 285.649999 183.853751 
L 286.093666 183.53156 
L 287.315914 183.320176 
L 288.540866 183.053182 
L 289.097362 182.300198 
L 289.320097 182.55156 
L 289.766243 183.850251 
L 289.877912 183.570797 
L 290.101346 181.747384 
L 290.436584 175.848288 
L 290.883294 161.856158 
L 291.329471 147.305138 
L 291.552832 145.307515 
L 291.664709 145.663374 
L 291.889039 149.104536 
L 292.114157 156.825128 
L 292.452341 177.017887 
L 293.012996 217.571748 
L 293.234398 223.348624 
L 293.34414 223.665119 
L 293.453127 222.267036 
L 293.668489 214.370536 
L 293.984555 192.696719 
L 294.494119 156.268675 
L 294.788207 149.375644 
L 294.884016 149.638702 
L 295.072229 154.480357 
L 295.346697 172.70102 
L 296.207378 252.732942 
L 296.371634 255.059137 
L 296.452937 254.850371 
L 296.613894 251.772453 
L 296.851193 240.595531 
L 297.236489 223.524649 
L 297.537779 218.349102 
L 297.612414 218.211877 
L 297.761093 219.294464 
L 297.983128 224.148761 
L 298.350579 231.234675 
L 298.56824 232.141403 
L 298.711822 231.437314 
L 298.99495 229.249776 
L 299.064875 229.341696 
L 299.34054 231.174963 
L 299.475899 229.771024 
L 299.676355 223.322487 
L 300.200402 202.392663 
L 300.265155 202.202881 
L 300.394238 204.364477 
L 300.586752 213.99363 
L 301.341151 264.621355 
L 301.402746 264.881587 
L 301.525493 263.199068 
L 301.708805 255.326421 
L 302.379522 216.48544 
L 302.685754 211.706791 
L 302.808723 211.197506 
L 302.87033 211.315959 
L 302.993798 212.636707 
L 303.179656 217.661449 
L 303.491254 234.363005 
L 303.868452 250.988382 
L 304.058464 253.711333 
L 304.122001 253.642956 
L 304.24936 252.085571 
L 304.441082 246.292648 
L 305.483671 205.934488 
L 305.685605 202.91106 
L 305.753394 202.724425 
L 305.82141 202.946876 
L 305.958096 204.612906 
L 306.233897 212.310744 
L 307.006686 233.045663 
L 307.868774 250.890029 
L 308.087116 252.139 
L 308.233301 251.110289 
L 308.453329 246.538238 
L 308.821404 231.661864 
L 309.191331 221.348591 
L 309.415046 219.720271 
L 309.490024 219.919654 
L 310.09879 223.848966 
L 310.253216 224.009335 
L 310.408333 223.828239 
L 310.720268 222.915117 
L 311.112583 220.91162 
L 311.902757 216.069872 
L 312.141156 215.83387 
L 312.220744 215.948585 
L 312.380079 216.548488 
L 312.539711 215.326962 
L 312.780113 209.756763 
L 313.103381 195.438136 
L 313.679117 169.503105 
L 313.928385 166.667887 
L 314.011515 166.895348 
L 314.177659 168.983167 
L 314.426441 176.369223 
L 314.674829 191.656794 
L 315.427344 252.45676 
L 315.511982 253.365287 
L 315.596802 252.757586 
L 315.766945 246.992203 
L 316.539311 203.931212 
L 316.712247 201.353421 
L 316.798882 201.307629 
L 316.972487 203.702666 
L 317.233722 213.512527 
L 317.583562 230.399803 
L 317.671288 230.593426 
L 317.847045 224.990771 
L 318.111419 201.610501 
L 318.465219 142.694344 
L 318.731497 108.817539 
L 318.820451 108.832994 
L 318.998697 126.222289 
L 319.8983 282.708891 
L 319.989046 284.663613 
L 320.079917 283.699829 
L 320.262016 273.016641 
L 320.535984 235.459771 
L 320.810846 203.751914 
L 320.994582 196.235183 
L 321.086593 195.376157 
L 321.178696 196.386077 
L 321.82544 214.935684 
L 321.917994 214.200596 
L 322.103103 209.774113 
L 322.473232 192.091818 
L 323.217427 151.178871 
L 323.311018 151.248571 
L 323.498487 156.407839 
L 323.780236 176.694654 
L 324.34489 228.221956 
L 324.722104 244.440937 
L 324.910954 246.679954 
L 325.00544 246.329957 
L 325.194539 242.704843 
L 325.478507 230.01498 
L 325.952647 206.426725 
L 326.332841 196.751319 
L 326.618619 194.503696 
L 326.714015 194.685297 
L 326.905028 196.412892 
L 327.192087 203.132093 
L 327.479612 208.400391 
L 327.575495 208.831224 
L 327.671375 208.597793 
L 327.863069 206.115466 
L 328.150388 196.12209 
L 328.533455 170.254884 
L 329.013006 135.574575 
L 329.205165 132.70923 
L 329.30135 134.023495 
L 329.493979 142.14471 
L 330.171063 181.267254 
L 330.75283 202.711803 
L 331.140369 209.812885 
L 331.334021 211.103978 
L 331.430818 211.186427 
L 331.527594 210.894873 
L 331.721084 209.195168 
L 332.011087 206.133724 
L 332.300682 205.105003 
L 332.397173 205.155745 
L 332.590168 205.852534 
L 332.879885 208.394264 
L 333.267118 214.59043 
L 333.753806 226.847638 
L 334.145522 236.264422 
L 334.340823 238.011333 
L 334.437976 238.121754 
L 334.534662 237.723409 
L 334.726218 235.405116 
L 335.007483 228.168831 
L 335.967531 196.487537 
L 336.133898 195.663377 
L 336.216677 195.920788 
L 336.381818 197.771438 
L 336.87838 209.35161 
L 337.282707 222.659063 
L 337.510377 228.764518 
L 337.583451 228.182598 
L 337.725952 222.942925 
L 337.932045 204.871192 
L 338.19502 182.798526 
L 338.258869 182.875325 
L 338.384624 189.945598 
L 338.629651 228.435579 
L 338.983089 270.826183 
L 339.153141 277.342247 
L 339.208788 277.347298 
L 339.372541 272.619784 
L 339.634989 255.058679 
L 339.884852 243.481954 
L 339.933395 243.468469 
L 340.122977 248.151173 
L 340.565591 254.724238 
L 341.698958 264.517012 
L 341.77485 264.648159 
L 341.812849 264.605707 
L 341.888871 264.654837 
L 342.002289 265.286452 
L 342.150504 267.429915 
L 342.365118 272.828947 
L 342.435443 272.333858 
L 342.540702 268.307435 
L 342.716727 250.391315 
L 342.893481 233.758716 
L 342.929052 233.77597 
L 343.036573 240.762083 
L 343.484047 291.172987 
L 343.52231 290.739606 
L 343.637453 284.68398 
L 344.060193 254.756816 
L 344.138639 255.959594 
L 344.383396 267.576124 
L 344.467712 265.416708 
L 344.595778 250.034855 
L 344.899192 210.520544 
L 344.98835 216.308636 
L 345.568378 281.322553 
L 345.722266 283.480457 
L 345.82566 281.519668 
L 346.032858 269.609081 
L 346.391667 247.224068 
L 346.442518 246.952252 
L 346.543922 248.387069 
L 346.795507 250.81219 
L 346.995005 251.236679 
L 347.094319 251.085682 
L 347.735115 248.745951 
L 347.882237 248.063607 
L 347.931257 248.220114 
L 348.078277 250.195405 
L 348.323291 254.911633 
L 348.421449 253.218762 
L 348.618533 242.380036 
L 348.967032 220.428106 
L 349.017271 220.271329 
L 349.118137 222.895036 
L 349.321289 240.180467 
L 349.68051 275.737426 
L 349.83598 278.569853 
L 349.940349 276.080989 
L 350.151253 261.28025 
L 350.419684 242.270004 
L 350.528451 240.855628 
L 350.637876 242.824025 
L 350.80306 245.289262 
L 350.858455 245.165518 
L 350.969932 243.487644 
L 351.196487 234.464323 
L 351.48804 221.739117 
L 351.666434 219.780211 
L 351.786207 220.886516 
L 351.966411 226.163465 
L 352.265841 243.870415 
L 352.621812 259.520831 
L 352.797971 261.174932 
L 352.914433 259.9781 
L 353.087331 254.749217 
L 353.480587 240.062536 
L 353.535562 239.839237 
L 353.644621 241.033453 
L 353.805989 246.903034 
L 354.017336 253.902309 
L 354.122007 251.999473 
L 354.331159 238.493437 
L 354.593995 227.69293 
L 354.646742 227.196543 
L 354.699527 227.332114 
L 354.805059 229.553693 
L 355.014904 241.799985 
L 355.374397 264.763193 
L 355.526257 267.246586 
L 355.576736 267.105323 
L 355.677604 265.411879 
L 355.87957 256.519329 
L 356.133883 246.004406 
L 356.18505 245.811921 
L 356.23632 245.900535 
L 356.59835 247.869438 
L 356.65058 247.849779 
L 356.808169 247.275633 
L 357.183046 245.787073 
L 357.634181 244.577633 
L 357.988028 242.723788 
L 359.54756 232.785946 
L 360.628325 230.69915 
L 360.835691 228.21492 
L 361.472186 218.270146 
L 361.544027 218.313486 
L 361.688124 219.092055 
L 362.34513 224.234634 
L 362.419315 224.19128 
L 362.568614 223.662445 
L 363.256869 220.025052 
L 363.413051 220.022147 
L 363.570149 220.384166 
L 363.80724 221.61132 
L 364.28512 225.359894 
L 364.365159 225.209427 
L 364.525624 221.034058 
L 364.767269 204.09958 
L 365.09119 177.499699 
L 365.335392 171.92205 
L 365.417028 172.886105 
L 365.662637 182.236469 
L 366.406244 219.482415 
L 366.740506 226.57644 
L 366.908593 227.345338 
L 366.99287 226.989439 
L 367.161883 224.796748 
L 367.416513 217.802547 
L 368.274449 187.945742 
L 368.360944 188.390219 
L 368.534224 191.693579 
L 368.794741 202.683945 
L 369.230156 235.339082 
L 369.579756 255.737757 
L 369.755106 259.048226 
L 369.84294 258.958462 
L 370.01896 255.171222 
L 370.283929 240.191438 
L 370.638745 202.758463 
L 370.994794 162.94961 
L 371.262196 151.31122 
L 371.351332 150.984115 
L 371.529529 155.565488 
L 371.885756 175.200167 
L 372.962865 247.639218 
L 373.143826 250.306517 
L 373.234372 250.368394 
L 373.415527 248.510421 
L 373.777964 241.154881 
L 374.774692 210.205652 
L 375.22778 185.929999 
L 375.499531 170.969185 
L 375.590084 169.942593 
L 375.680625 171.746624 
L 376.405316 207.506956 
L 376.496093 207.740659 
L 376.768903 204.629217 
L 377.133692 200.231882 
L 377.407815 199.225502 
L 377.499245 199.338498 
L 377.773588 200.760548 
L 378.139397 203.284074 
L 378.322327 207.837027 
L 378.779912 222.381613 
L 378.87152 222.653145 
L 378.963177 221.892377 
L 379.146665 217.274023 
L 379.422444 202.596138 
L 379.791422 169.715066 
L 380.254652 127.960868 
L 380.347584 125.702446 
L 380.440624 125.741503 
L 380.627055 132.710686 
L 380.907662 160.15065 
L 381.475555 217.462554 
L 381.950674 244.12682 
L 382.23042 250.756871 
L 382.322099 251.434406 
L 382.412804 251.354872 
L 382.590834 248.936768 
L 383.092662 237.916258 
L 383.838861 225.968243 
L 384.243933 216.548114 
L 384.308843 216.375644 
L 384.436798 217.358253 
L 384.624672 222.159225 
L 384.928653 237.830647 
L 385.274927 255.222581 
L 385.438422 257.346412 
L 385.491469 257.215674 
L 385.595899 255.764777 
L 386.05412 246.650291 
L 386.104579 246.540787 
L 386.154877 246.601855 
L 386.304447 247.721957 
L 386.451654 250.14063 
L 386.643966 258.975129 
L 387.015932 275.10804 
L 387.243043 278.391684 
L 387.423522 278.752189 
L 387.558238 279.315009 
L 387.602996 279.190655 
L 387.736834 277.45465 
L 387.914302 271.540531 
L 388.222321 251.303489 
L 388.440214 242.027567 
L 388.483675 242.080719 
L 388.570667 244.205791 
L 388.745606 256.359769 
L 389.011968 271.955269 
L 389.147155 273.630256 
L 389.238111 272.674289 
L 389.562184 262.994923 
L 389.89584 247.553715 
L 390.494045 210.492029 
L 390.545691 211.073845 
L 390.702943 218.658977 
L 391.312364 264.108963 
L 391.426916 264.779273 
L 391.541825 262.824233 
L 391.830481 251.63048 
L 392.18422 238.045321 
L 392.366567 236.037842 
L 392.490728 235.880555 
L 392.808371 236.570274 
L 392.872755 236.508003 
L 393.066668 235.806044 
L 393.586736 233.28279 
L 393.988785 232.302385 
L 394.264433 230.195486 
L 394.687455 226.794085 
L 394.758912 226.735385 
L 394.902528 227.099243 
L 395.11951 228.848347 
L 395.338103 233.034934 
L 395.632203 240.779306 
L 395.706215 240.21645 
L 395.854791 235.422656 
L 396.078953 219.061533 
L 396.53154 176.19715 
L 396.60753 175.52636 
L 396.760018 181.306663 
L 397.612338 246.739328 
L 397.84927 250.532313 
L 397.928616 250.282061 
L 398.087748 247.512855 
L 398.327265 237.69646 
L 398.487273 227.558853 
L 398.487273 227.558853 
" clip-path="url(#p74da18dd51)" style="fill: none; stroke: #800080; stroke-width: 1.5; stroke-linecap: square"/>
   </g>
   <g id="patch_3">
    <path d="M 57.6 307.584 
L 57.6 41.472 
" style="fill: none; stroke: #000000; stroke-width: 0.8; stroke-linejoin: miter; stroke-linecap: square"/>
   </g>
   <g id="patch_4">
    <path d="M 414.72 307.584 
L 414.72 41.472 
" style="fill: none; stroke: #000000; stroke-width: 0.8; stroke-linejoin: miter; stroke-linecap: square"/>
   </g>
   <g id="patch_5">
    <path d="M 57.6 307.584 
L 414.72 307.584 
" style="fill: none; stroke: #000000; stroke-width: 0.8; stroke-linejoin: miter; stroke-linecap: square"/>
   </g>
   <g id="patch_6">
    <path d="M 57.6 41.472 
L 414.72 41.472 
" style="fill: none; stroke: #000000; stroke-width: 0.8; stroke-linejoin: miter; stroke-linecap: square"/>
   </g>
   <g id="text_16">
    <!-- Speed No Filter -->
    <g transform="translate(190.515 35.472) scale(0.12 -0.12)">
     <defs>
      <path id="DejaVuSans-4e" d="M 628 4666 
L 1478 4666 
L 3547 763 
L 3547 4666 
L 4159 4666 
L 4159 0 
L 3309 0 
L 1241 3903 
L 1241 0 
L 628 0 
L 628 4666 
z
" transform="scale(0.015625)"/>
      <path id="DejaVuSans-6f" d="M 1959 3097 
Q 1497 3097 1228 2736 
Q 959 2375 959 1747 
Q 959 1119 1226 758 
Q 1494 397 1959 397 
Q 2419 397 2687 759 
Q 2956 1122 2956 1747 
Q 2956 2369 2687 2733 
Q 2419 3097 1959 3097 
z
M 1959 3584 
Q 2709 3584 3137 3096 
Q 3566 2609 3566 1747 
Q 3566 888 3137 398 
Q 2709 -91 1959 -91 
Q 1206 -91 779 398 
Q 353 888 353 1747 
Q 353 2609 779 3096 
Q 1206 3584 1959 3584 
z
" transform="scale(0.015625)"/>
      <path id="DejaVuSans-46" d="M 628 4666 
L 3309 4666 
L 3309 4134 
L 1259 4134 
L 1259 2759 
L 3109 2759 
L 3109 2228 
L 1259 2228 
L 1259 0 
L 628 0 
L 628 4666 
z
" transform="scale(0.015625)"/>
      <path id="DejaVuSans-6c" d="M 603 4863 
L 1178 4863 
L 1178 0 
L 603 0 
L 603 4863 
z
" transform="scale(0.015625)"/>
      <path id="DejaVuSans-72" d="M 2631 2963 
Q 2534 3019 2420 3045 
Q 2306 3072 2169 3072 
Q 1681 3072 1420 2755 
Q 1159 2438 1159 1844 
L 1159 0 
L 581 0 
L 581 3500 
L 1159 3500 
L 1159 2956 
Q 1341 3275 1631 3429 
Q 1922 3584 2338 3584 
Q 2397 3584 2469 3576 
Q 2541 3569 2628 3553 
L 2631 2963 
z
" transform="scale(0.015625)"/>
     </defs>
     <use xlink:href="#DejaVuSans-53"/>
     <use xlink:href="#DejaVuSans-70" transform="translate(63.476562 0)"/>
     <use xlink:href="#DejaVuSans-65" transform="translate(126.953125 0)"/>
     <use xlink:href="#DejaVuSans-65" transform="translate(188.476562 0)"/>
     <use xlink:href="#DejaVuSans-64" transform="translate(250 0)"/>
     <use xlink:href="#DejaVuSans-20" transform="translate(313.476562 0)"/>
     <use xlink:href="#DejaVuSans-4e" transform="translate(345.263672 0)"/>
     <use xlink:href="#DejaVuSans-6f" transform="translate(420.068359 0)"/>
     <use xlink:href="#DejaVuSans-20" transform="translate(481.25 0)"/>
     <use xlink:href="#DejaVuSans-46" transform="translate(513.037109 0)"/>
     <use xlink:href="#DejaVuSans-69" transform="translate(563.306641 0)"/>
     <use xlink:href="#DejaVuSans-6c" transform="translate(591.089844 0)"/>
     <use xlink:href="#DejaVuSans-74" transform="translate(618.873047 0)"/>
     <use xlink:href="#DejaVuSans-65" transform="translate(658.082031 0)"/>
     <use xlink:href="#DejaVuSans-72" transform="translate(719.605469 0)"/>
    </g>
   </g>
   <g id="legend_1">
    <g id="patch_7">
     <path d="M 344.368438 64.150125 
L 407.72 64.150125 
Q 409.72 64.150125 409.72 62.150125 
L 409.72 48.472 
Q 409.72 46.472 407.72 46.472 
L 344.368438 46.472 
Q 342.368438 46.472 342.368438 48.472 
L 342.368438 62.150125 
Q 342.368438 64.150125 344.368438 64.150125 
z
" style="fill: #ffffff; opacity: 0.8; stroke: #cccccc; stroke-linejoin: miter"/>
    </g>
    <g id="line2d_28">
     <path d="M 346.368438 54.570438 
L 356.368438 54.570438 
L 366.368438 54.570438 
" style="fill: none; stroke: #800080; stroke-width: 1.5; stroke-linecap: square"/>
    </g>
    <g id="text_17">
     <!-- Speed -->
     <g transform="translate(374.368438 58.070438) scale(0.1 -0.1)">
      <use xlink:href="#DejaVuSans-53"/>
      <use xlink:href="#DejaVuSans-70" transform="translate(63.476562 0)"/>
      <use xlink:href="#DejaVuSans-65" transform="translate(126.953125 0)"/>
      <use xlink:href="#DejaVuSans-65" transform="translate(188.476562 0)"/>
      <use xlink:href="#DejaVuSans-64" transform="translate(250 0)"/>
     </g>
    </g>
   </g>
  </g>
 </g>
 <defs>
  <clipPath id="p74da18dd51">
   <rect x="57.6" y="41.472" width="357.12" height="266.112"/>
  </clipPath>
 </defs>
</svg>
